<svg width="1084" height="650" viewBox="0 0 1084 650" fill="none" xmlns="http://www.w3.org/2000/svg" xmlns:xlink="http://www.w3.org/1999/xlink">
<path d="M1084,324.048C1084,503.016 841.338,648.098 542,648.098C242.662,648.098 0,503.016 0,324.048C0,145.082 242.662,0 542,0C841.338,0 1084,145.082 1084,324.048Z" fill="url(#pf_0_26_679)"/>
<path d="M111.536,118.243C112.31,119.031 113.577,119.042 114.365,118.269C115.153,117.495 115.164,116.228 114.39,115.44L111.536,118.243ZM103.144,106.842L101.717,105.44C100.953,106.218 100.953,107.465 101.717,108.243L103.144,106.842ZM114.39,98.243C115.164,97.455 115.153,96.188 114.365,95.415C113.577,94.641 112.31,94.652 111.536,95.44L114.39,98.243ZM114.39,115.44L104.571,105.44L101.717,108.243L111.536,118.243L114.39,115.44ZM104.571,108.243L114.39,98.243L111.536,95.44L101.717,105.44L104.571,108.243Z" transform="rotate(-178.725 108.054 106.842)" fill="#FFFFFF"/>
<path d="M343.996,349.194C343.756,349.194 343.513,349.138 343.302,349.032L341.092,347.894C340.763,347.732 340.924,347.676 341.031,347.645C341.472,347.511 341.561,347.483 342.03,347.249C342.081,347.224 342.145,347.233 342.195,347.261L343.893,348.137C343.953,348.169 344.039,348.169 344.097,348.137L350.711,344.814C350.772,344.783 350.811,344.721 350.811,344.658L350.811,338.011C350.811,337.946 350.772,337.887 350.707,337.852L344.097,334.532C344.036,334.501 343.953,334.501 343.893,334.532L337.286,337.855C337.221,337.887 337.182,337.949 337.182,338.014L337.182,344.658C337.182,344.721 337.221,344.783 337.286,344.811L339.098,345.721C340.082,346.148 340.684,345.646 340.684,345.138L340.684,338.579C340.684,338.485 340.77,338.413 340.877,338.413L341.715,338.413C341.819,338.413 341.909,338.485 341.909,338.579L341.909,345.141C341.909,346.282 341.192,346.937 339.95,346.937C339.567,346.937 339.266,346.937 338.428,346.576L336.695,345.706C336.265,345.491 336,345.088 336,344.655L336,338.011C336,337.581 336.265,337.176 336.695,336.961L343.302,333.637C343.721,333.431 344.276,333.431 344.691,333.637L351.305,336.964C351.735,337.179 352,337.581 352,338.014L352,344.658C352,345.088 351.735,345.491 351.305,345.709L344.691,349.032C344.48,349.138 344.24,349.194 343.996,349.194ZM349.336,342.644C349.336,341.4 348.369,341.07 346.338,340.836C344.283,340.599 344.075,340.477 344.075,340.06C344.075,339.714 344.251,339.252 345.773,339.252C347.13,339.252 347.631,339.508 347.839,340.306C347.857,340.381 347.936,340.437 348.025,340.437L348.885,340.437C348.938,340.437 348.988,340.418 349.024,340.384C349.06,340.35 349.078,340.303 349.074,340.256C348.942,338.881 347.893,338.242 345.773,338.242C343.885,338.242 342.761,338.934 342.761,340.097C342.761,341.357 343.882,341.706 345.69,341.862C347.857,342.046 348.025,342.323 348.025,342.694C348.025,343.336 347.431,343.611 346.038,343.611C344.286,343.611 343.903,343.227 343.774,342.47C343.76,342.389 343.681,342.329 343.585,342.329L342.729,342.329C342.621,342.329 342.539,342.404 342.539,342.495C342.539,343.464 343.144,344.621 346.041,344.621C348.132,344.618 349.336,343.897 349.336,342.644L349.336,342.644Z" fill="url(#pf_0_26_954)"/>
<defs>
<radialGradient id="pf_0_26_679" cx="0" cy="0" r="1" gradientUnits="userSpaceOnUse" gradientTransform="matrix(0 162.02449 -271 0 133.5 184.399)">
<stop stop-color="#763CAC"/>
<stop offset="1" stop-color="#320F85" stop-opacity="0"/>
</radialGradient>
<linearGradient id="pf_0_26_954" x1="344" y1="333.483" x2="344" y2="349.194" gradientUnits="userSpaceOnUse">
<stop stop-color="#693B93" stop-opacity="0.53"/>
<stop offset="1" stop-color="#693B93"/>
</linearGradient>
</defs>
</svg>
