<svg width="1084" height="650" viewBox="0 0 1084 650" fill="none" xmlns="http://www.w3.org/2000/svg" xmlns:xlink="http://www.w3.org/1999/xlink">
<path d="M1084,324.048C1084,503.016 841.338,648.098 542,648.098C242.662,648.098 0,503.016 0,324.048C0,145.082 242.662,0 542,0C841.338,0 1084,145.082 1084,324.048Z" fill="url(#pf_0_59_420)"/>
<path d="M117.536,128.719C118.31,129.508 119.576,129.519 120.364,128.745C121.153,127.971 121.164,126.705 120.39,125.917L117.536,128.719ZM109.143,117.318L107.716,115.917C106.952,116.695 106.952,117.941 107.716,118.719L109.143,117.318ZM120.39,108.719C121.164,107.931 121.153,106.665 120.364,105.891C119.576,105.117 118.31,105.129 117.536,105.917L120.39,108.719ZM120.39,125.917L110.57,115.917L107.716,118.719L117.536,128.719L120.39,125.917ZM110.57,118.719L120.39,108.719L117.536,105.917L107.716,115.917L110.57,118.719Z" transform="rotate(-178.725 114.053 117.318)" fill="#FFFFFF"/>
<defs>
<radialGradient id="pf_0_59_420" cx="0" cy="0" r="1" gradientUnits="userSpaceOnUse" gradientTransform="matrix(0 162.02449 -271 0 133.5 184.399)">
<stop stop-color="#763CAC"/>
<stop offset="1" stop-color="#320F85" stop-opacity="0"/>
</radialGradient>
</defs>
</svg>
