<svg width="612" height="470" viewBox="0 0 612 470" fill="none" xmlns="http://www.w3.org/2000/svg" xmlns:xlink="http://www.w3.org/1999/xlink">
<path d="M612,234.357C612,363.973 475,469.047 306,469.047C137.001,469.047 0,363.973 0,234.357C0,104.741 137.001,-0.333 306,-0.333C475,-0.333 612,104.741 612,234.357Z" stroke="url(#ps_0_26_950)" stroke-width="1" stroke-miterlimit="3.999327"/>
<path d="M574,234.357C574,363.973 455.356,469.047 309,469.047C162.645,469.047 44,363.973 44,234.357C44,104.741 162.645,-0.333 309,-0.333C455.356,-0.333 574,104.741 574,234.357Z" stroke="url(#ps_0_26_951)" stroke-width="1" stroke-miterlimit="3.999327"/>
<path d="M558,234.357C558,363.973 450.1,469.047 317,469.047C183.899,469.047 76,363.973 76,234.357C76,104.741 183.899,-0.333 317,-0.333C450.1,-0.333 558,104.741 558,234.357Z" stroke="url(#ps_0_26_952)" stroke-width="1" stroke-miterlimit="3.999327"/>
<path d="M550.286,84.116L537.714,84.116C536.768,84.116 536,84.87 536,85.799L536,98.144C536,99.073 536.768,99.827 537.714,99.827L550.286,99.827C551.232,99.827 552,99.073 552,98.144L552,85.799C552,84.87 551.232,84.116 550.286,84.116ZM544.707,96.369C544.707,97.898 543.793,98.596 542.461,98.596C541.257,98.596 540.561,97.986 540.204,97.246L541.429,96.52C541.664,96.93 541.879,97.278 542.396,97.278C542.889,97.278 543.204,97.088 543.204,96.348L543.204,91.33L544.707,91.33L544.707,96.369L544.707,96.369ZM548.264,98.596C546.868,98.596 545.964,97.944 545.525,97.088L546.75,96.394C547.071,96.909 547.493,97.292 548.232,97.292C548.854,97.292 549.254,96.987 549.254,96.562C549.254,96.057 548.846,95.878 548.157,95.58L547.782,95.422C546.696,94.97 545.979,94.398 545.979,93.195C545.979,92.087 546.839,91.246 548.179,91.246C549.136,91.246 549.821,91.572 550.314,92.427L549.143,93.164C548.886,92.711 548.607,92.533 548.175,92.533C547.736,92.533 547.457,92.806 547.457,93.164C547.457,93.606 547.736,93.785 548.382,94.062L548.757,94.219C550.036,94.756 550.754,95.307 550.754,96.541C550.754,97.867 549.689,98.596 548.264,98.596L548.264,98.596Z" fill="url(#pf_0_26_953)"/>
<path d="M92,209.808C87.581,209.808 84,213.325 84,217.663C84,222.002 87.581,225.519 92,225.519C96.418,225.519 100,222.002 100,217.663C100,213.325 96.418,209.808 92,209.808ZM92.093,222.258C89.515,222.258 87.427,220.202 87.427,217.663C87.427,215.125 89.515,213.069 92.093,213.069C93.353,213.069 94.407,213.525 95.215,214.266L93.899,215.561L93.899,215.559C93.409,215.099 92.787,214.863 92.093,214.863C90.553,214.863 89.302,216.144 89.302,217.661C89.302,219.176 90.553,220.461 92.093,220.461C93.491,220.461 94.441,219.674 94.637,218.594L92.093,218.594L92.093,216.802L96.483,216.802C96.542,217.11 96.573,217.43 96.573,217.767C96.573,220.392 94.789,222.258 92.093,222.258L92.093,222.258Z" clip-rule="evenodd" fill-rule="evenodd" fill="url(#pf_0_26_955)"/>
<path d="M23.412,335.801L25.737,335.801L25.737,336.539L24.384,336.539L24.384,337.276L25.737,337.276L25.737,338.014L23.412,338.014L23.412,335.801ZM26.202,335.801L28.528,335.801L28.528,336.443L27.175,336.443L27.175,336.571L28.528,336.571L28.528,338.046L26.202,338.046L26.202,337.373L27.555,337.373L27.555,337.244L26.202,337.244L26.202,335.801ZM28.993,335.801L31.318,335.801L31.318,336.443L29.965,336.443L29.965,336.571L31.318,336.571L31.318,338.046L28.993,338.046L28.993,337.373L30.346,337.373L30.346,337.244L28.993,337.244L28.993,335.801Z" fill="url(#pf_0_26_957)"/>
<path d="M27.451,351.801L21.279,350.524L19.459,339.029L35.459,339.029L33.641,350.523L27.451,351.801ZM23.057,344.232L23.226,345.642L29.784,345.642L29.564,347.47L27.454,347.895L27.452,347.895L25.345,347.471L25.21,346.347L23.311,346.347L23.576,348.561L27.451,349.362L31.333,348.561L31.806,344.61L31.852,344.232L32.193,341.378L22.716,341.378L22.889,342.788L30.121,342.788L29.948,344.232L23.057,344.232L23.057,344.232Z" clip-rule="evenodd" fill-rule="evenodd" fill="url(#pf_0_26_958)"/>
<defs>
<linearGradient id="ps_0_26_950" x1="306" y1="-0.333" x2="306" y2="469.047" gradientUnits="userSpaceOnUse">
<stop stop-color="#000000" stop-opacity="0"/>
<stop offset="0.479" stop-color="#763CAC"/>
</linearGradient>
<linearGradient id="ps_0_26_951" x1="309" y1="-0.333" x2="309" y2="469.047" gradientUnits="userSpaceOnUse">
<stop stop-color="#000000" stop-opacity="0"/>
<stop offset="0.479" stop-color="#763CAC"/>
</linearGradient>
<linearGradient id="ps_0_26_952" x1="317" y1="-0.333" x2="317" y2="469.047" gradientUnits="userSpaceOnUse">
<stop stop-color="#000000" stop-opacity="0"/>
<stop offset="0.479" stop-color="#763CAC"/>
</linearGradient>
<linearGradient id="pf_0_26_953" x1="544" y1="84.116" x2="544" y2="99.827" gradientUnits="userSpaceOnUse">
<stop stop-color="#693B93" stop-opacity="0.53"/>
<stop offset="1" stop-color="#693B93"/>
</linearGradient>
<linearGradient id="pf_0_26_955" x1="92" y1="209.808" x2="92" y2="225.519" gradientUnits="userSpaceOnUse">
<stop stop-color="#693B93" stop-opacity="0.53"/>
<stop offset="1" stop-color="#693B93"/>
</linearGradient>
<linearGradient id="pf_0_26_957" x1="27.365" y1="335.801" x2="27.365" y2="338.046" gradientUnits="userSpaceOnUse">
<stop stop-color="#693B93" stop-opacity="0.53"/>
<stop offset="1" stop-color="#693B93"/>
</linearGradient>
<linearGradient id="pf_0_26_958" x1="27.459" y1="339.029" x2="27.459" y2="351.801" gradientUnits="userSpaceOnUse">
<stop stop-color="#693B93" stop-opacity="0.53"/>
<stop offset="1" stop-color="#693B93"/>
</linearGradient>
</defs>
</svg>
