<svg width="462" height="950" viewBox="0 0 462 950" fill="none" xmlns="http://www.w3.org/2000/svg" xmlns:xlink="http://www.w3.org/1999/xlink">
<path d="M209.321,734.625C208.084,662.167 181.49,509.43 177.67,470.092C173.85,430.753 187.438,417.43 200.465,423.921C213.493,430.413 217.391,521.177 217.391,521.177C217.391,521.177 218.288,538.941 221.688,559.169C233.98,632.299 225.352,735.665 225.352,735.665C225.352,735.665 222.97,742.399 215.759,741.503C208.549,740.605 209.321,734.625 209.321,734.625Z" clip-rule="evenodd" fill-rule="evenodd" transform="rotate(360 202.655 581.968)" fill="#FFC999"/>
<path d="M195.011,737.711C195.174,738.452 197.624,711.924 197.506,704.102C187.338,705.487 177.936,704.498 177.936,704.498C177.936,704.498 179.279,734.744 178.896,737.711C186.185,742.257 195.011,737.711 195.011,737.711Z" clip-rule="evenodd" fill-rule="evenodd" transform="rotate(360 187.723 721.917)" fill="#FFFFFF"/>
<path d="M207.539,773.604C206.276,784.089 200.802,789.637 195.154,790.251C188.161,791.012 180.545,788.98 179.315,782.52C177.911,775.146 181.592,771.375 185.708,760.831C189.823,750.285 191.786,741.268 193.32,733.756C193.32,733.756 198.565,730.594 197.158,739.687C196.018,747.049 193.255,767.76 188.395,769.208C193.128,768.814 202.849,772.636 202.849,772.636C202.849,772.636 199.395,767.1 199.651,765.255C199.907,763.411 202.766,744.505 202.912,738.897C203.058,733.35 207.729,734.02 209.98,734.668C210.68,734.869 211.126,735.567 211.042,736.311C210.827,738.159 208.137,768.639 207.539,773.604Z" clip-rule="evenodd" fill-rule="evenodd" transform="rotate(360 195.031 761.813)" fill="#1F1F47"/>
<path d="M202.825,745.815C202.825,745.815 208.659,733.23 202.825,731.977C198.22,730.989 193.808,730.791 193.232,731.977C193.018,732.419 193.04,736.524 191.506,745.025C189.714,754.949 185.133,766.589 183.447,768.947C180.761,772.702 183.64,772.9 190.163,774.679C196.685,776.458 198.987,776.458 200.715,772.9C202.441,769.341 202.441,753.525 202.825,745.815Z" clip-rule="evenodd" fill-rule="evenodd" transform="rotate(360 193.932 753.504)" fill="#1F1F47"/>
<path d="M189.007,749.317C189.144,748.956 189.539,748.777 189.889,748.918C190.754,749.264 191.693,749.736 192.696,750.32C193.647,750.872 194.642,751.517 195.668,752.235C196.892,753.092 198.095,754.009 199.229,754.926L199.687,755.3C199.833,755.421 199.974,755.537 200.107,755.649L200.699,756.154C201.218,756.609 200.84,757.479 200.166,757.384C198.873,757.203 197.317,757.293 195.556,757.62C193.954,757.918 192.239,758.401 190.481,759.018C189.831,759.246 189.199,759.484 188.593,759.726L188.176,759.895L188.435,759.978C190.412,760.642 192.422,761.802 194.423,763.335L194.776,763.61C195.943,764.53 197.026,765.514 197.999,766.499L198.39,766.9C198.452,766.965 198.513,767.029 198.572,767.092L198.906,767.453C199.065,767.628 199.176,767.755 199.236,767.825C199.483,768.117 199.455,768.56 199.171,768.815C198.888,769.071 198.458,769.041 198.21,768.749L197.995,768.505L197.912,768.413C197.662,768.138 197.372,767.831 197.045,767.501C196.109,766.554 195.067,765.607 193.948,764.725C191.184,762.545 188.423,761.125 185.853,760.813C185.172,760.731 185.022,759.781 185.642,759.481L185.978,759.323L186.643,759.025C186.724,758.99 186.807,758.954 186.893,758.917C187.867,758.498 188.928,758.08 190.042,757.689C191.859,757.051 193.638,756.55 195.315,756.238C196.163,756.081 196.971,755.974 197.736,755.923L198.221,755.897L197.713,755.492C197.032,754.954 196.329,754.421 195.617,753.906L194.902,753.396C193.906,752.699 192.942,752.074 192.027,751.543C191.076,750.99 190.194,750.546 189.395,750.226C189.045,750.085 188.871,749.679 189.007,749.317Z" transform="rotate(360 193.096 758.929)" fill="#000000"/>
<path d="M198.233,750.642C200.052,750.417 201.647,750.429 202.965,750.731C203.333,750.815 203.564,751.19 203.483,751.568C203.401,751.947 203.037,752.185 202.67,752.101C201.525,751.839 200.075,751.828 198.396,752.036C197.009,752.208 195.522,752.522 194.003,752.937C193.497,753.075 193.007,753.219 192.538,753.366L192.407,753.407L192.623,753.512C194.198,754.299 195.73,755.296 197.211,756.46L197.653,756.815C199.056,757.958 200.326,759.182 201.443,760.406C201.756,760.75 202.039,761.074 202.291,761.374L202.635,761.791C202.729,761.909 202.799,761.998 202.843,762.057C203.176,762.498 202.899,763.128 202.384,763.185L202.265,763.189L202.124,763.187C201.28,763.177 200.167,763.191 198.883,763.248C196.966,763.332 195.075,763.498 193.311,763.763C190.214,764.228 187.786,764.959 186.314,765.971C186,766.186 185.578,766.099 185.369,765.777C185.16,765.454 185.245,765.018 185.558,764.803C187.239,763.648 189.834,762.866 193.115,762.374C194.929,762.101 196.865,761.932 198.825,761.845L199.59,761.815C199.837,761.807 200.077,761.8 200.308,761.795L200.824,761.785L200.669,761.611L200.45,761.368C199.377,760.191 198.155,759.013 196.808,757.916C194.708,756.205 192.504,754.851 190.239,753.986C189.647,753.76 189.646,752.897 190.238,752.67L190.83,752.456C190.948,752.415 191.074,752.371 191.206,752.327C191.959,752.072 192.784,751.818 193.654,751.58C195.23,751.15 196.777,750.823 198.233,750.642Z" transform="rotate(360 194.377 758.288)" fill="#000000"/>
<path d="M211.314,775.667C211.314,775.667 197.5,763.805 184.838,772.504C181.672,779.775 183.503,784.098 185.03,786.342C185.662,787.271 186.859,788.567 187.894,788.951C190.978,790.098 199.062,792.401 204.791,788.517C212.081,783.574 211.314,775.667 211.314,775.667Z" clip-rule="evenodd" fill-rule="evenodd" transform="rotate(360 197.218 779.999)" fill="#000000"/>
<path d="M185.381,772.593C185.475,772.411 185.694,772.343 185.87,772.439C186.047,772.536 186.113,772.762 186.019,772.944C184.435,776.005 186.149,780.096 188.46,781.683C190.149,782.843 196.516,783.966 201.544,783.73C203.832,783.623 205.71,782.133 207.205,779.69C207.756,778.788 208.215,777.819 208.585,776.851C208.714,776.512 208.823,776.197 208.912,775.915L209.015,775.569C209.068,775.371 209.267,775.254 209.459,775.308C209.652,775.363 209.766,775.568 209.713,775.767L209.631,776.045L209.6,776.146C209.507,776.441 209.393,776.77 209.258,777.123C208.873,778.133 208.395,779.143 207.817,780.088C206.208,782.717 204.144,784.355 201.577,784.475C196.409,784.718 189.903,783.57 188.059,782.304C185.47,780.526 183.594,776.046 185.381,772.593Z" transform="rotate(360 197.201 778.452)" fill="#A3B5D6"/>
<path d="M196.408,708.16C196.775,708.079 197.138,708.321 197.216,708.7C197.295,709.079 197.06,709.452 196.693,709.533L196.453,709.583C196.261,709.622 196.038,709.665 195.785,709.711L195.032,709.843C194.509,709.93 193.946,710.016 193.346,710.098C188.827,710.716 184.129,710.884 179.726,710.325C179.281,710.268 178.841,710.204 178.408,710.133C178.037,710.072 177.784,709.712 177.843,709.329C177.902,708.946 178.252,708.685 178.623,708.746C179.04,708.815 179.463,708.877 179.892,708.931C184.165,709.474 188.753,709.31 193.167,708.707C193.9,708.606 194.576,708.5 195.187,708.393L195.546,708.329C195.965,708.252 196.257,708.193 196.408,708.16Z" transform="rotate(360 187.533 709.405)" fill="#000000"/>
<path d="M191.159,742.809C191.472,742.797 191.744,743.005 191.834,743.299L191.845,743.352L191.905,743.368L191.991,743.404L192.474,743.649L193.075,743.964C193.285,744.075 193.505,744.192 193.733,744.316C195.035,745.022 196.337,745.777 197.555,746.55C198.743,747.304 199.788,748.036 200.653,748.736C201.793,749.659 202.6,750.506 203.027,751.294C203.599,752.351 203.495,753.372 202.599,754.081C201.119,755.255 199.155,754.418 196.819,752.228C195.952,751.416 195.044,750.423 194.11,749.288C193.187,748.166 192.287,746.966 191.447,745.766L191.231,745.457L190.799,744.823L190.25,745.299C189.376,746.049 188.447,746.798 187.502,747.498C186.698,748.094 185.918,748.627 185.172,749.084L184.739,749.343C181.456,751.255 179.06,751.482 178.259,749.003C177.353,746.203 180.058,744.541 184.853,743.568C186.235,743.288 187.711,743.086 189.185,742.949L189.93,742.885L190.61,742.838C190.87,742.822 191.057,742.812 191.159,742.809ZM192.919,745.461L193.051,745.647C193.725,746.582 194.431,747.506 195.15,748.38C196.048,749.472 196.917,750.422 197.735,751.189C199.618,752.954 201.029,753.555 201.768,752.969C202.079,752.723 202.104,752.472 201.837,751.979C201.518,751.389 200.822,750.658 199.811,749.84C198.992,749.177 197.988,748.473 196.841,747.745C195.889,747.141 194.882,746.547 193.863,745.979L193.098,745.558L192.919,745.461ZM189.217,744.356L188.593,744.419C187.403,744.547 186.225,744.721 185.117,744.946L184.558,745.065C180.921,745.879 179.078,747.095 179.552,748.56C179.966,749.84 181.656,749.604 184.476,747.877C185.185,747.443 185.933,746.931 186.706,746.358C187.44,745.815 188.165,745.239 188.862,744.657L189.217,744.356Z" transform="rotate(360 190.734 748.71)" fill="#000000"/>
<path d="M185.23,736.484C185.573,736.516 185.834,736.805 185.849,737.151L185.846,737.246L185.334,743.045C185.3,743.432 184.969,743.716 184.594,743.681C184.251,743.649 183.99,743.359 183.975,743.014L183.977,742.918L184.49,737.119C184.521,736.765 184.802,736.497 185.137,736.481L185.23,736.484Z" transform="rotate(360 184.912 740.083)" fill="#000000"/>
<path d="M194.183,734.638C194.526,734.671 194.787,734.96 194.802,735.306L194.8,735.401L194.287,741.2C194.253,741.586 193.922,741.871 193.547,741.836C193.204,741.804 192.943,741.514 192.928,741.169L192.931,741.073L193.443,735.274C193.474,734.92 193.755,734.651 194.09,734.636L194.183,734.638Z" transform="rotate(360 193.865 738.237)" fill="#000000"/>
<path d="M258.919,731.461C260.156,659.003 286.749,506.267 290.569,466.928C294.389,427.59 280.801,414.267 267.774,420.758C254.747,427.25 250.848,518.013 250.848,518.013C250.848,518.013 249.952,535.777 246.552,556.006C234.26,629.135 242.887,732.501 242.887,732.501C242.887,732.501 245.27,739.235 252.481,738.339C259.69,737.441 258.919,731.461 258.919,731.461Z" clip-rule="evenodd" fill-rule="evenodd" transform="rotate(360 265.584 578.805)" fill="#FFC999"/>
<path d="M211.119,405.337L211.987,399.915C211.987,399.915 235.429,399.935 263.403,400.113C263.594,402.879 264.362,406.241 264.362,406.241C264.362,406.241 244.15,413.226 211.119,405.337Z" clip-rule="evenodd" fill-rule="evenodd" transform="rotate(360 237.741 404.504)" fill="#1D0A4E"/>
<path d="M266.146,366.566L264.177,371.75C264.177,371.75 263.637,397.359 263.637,399.388C236.777,403.868 209.577,399.037 209.577,399.037L209.709,389.558L207.522,360.48L266.146,366.566Z" clip-rule="evenodd" fill-rule="evenodd" transform="rotate(360 236.834 380.886)" fill="#FFFFFF"/>
<path d="M264.066,366.177C264.154,365.945 264.408,365.831 264.633,365.921C264.833,366.002 264.943,366.217 264.903,366.427L264.881,366.505L262.939,371.615L262.156,398.915C262.149,399.267 262.146,399.515 262.146,399.651C262.146,399.868 261.995,400.054 261.788,400.094C246.294,403.057 230.439,402.892 215.855,400.837C213.775,400.544 211.886,400.232 210.213,399.918L209.663,399.813C209.135,399.711 208.662,399.615 208.246,399.527L207.424,399.346C207.242,399.303 207.11,399.147 207.088,398.963L207.085,398.882L207.6,389.307C207.613,389.058 207.82,388.868 208.061,388.882C208.275,388.894 208.445,389.063 208.471,389.275L208.473,389.357L207.978,398.548L208.182,398.593C208.493,398.66 208.84,398.733 209.223,398.809L209.824,398.928C211.617,399.274 213.677,399.621 215.973,399.944C230.157,401.943 245.553,402.143 260.624,399.395L261.274,399.273L261.345,396.262L261.704,383.619L262.068,371.511L262.097,371.361L264.066,366.177Z" transform="rotate(360 235.998 384.122)" fill="#1F1F47"/>
<path d="M251.188,271.018C251.188,271.018 264.418,269.041 267.914,283.451C280.733,288.255 277.237,302.664 277.237,302.664C277.237,302.664 283.675,313.984 270.886,319.783C269.861,331.381 257.072,329.272 257.072,329.272C257.072,329.272 254.002,338.234 244.282,334.545C233.794,342.95 221.299,332.685 221.299,332.685C221.299,332.685 209.645,337.489 204.985,332.685C194.496,336.287 182.842,323.078 182.842,323.078C182.842,323.078 176.295,324.792 171.633,313.984C159.457,315.931 146.155,299.94 157.308,284.989C149.991,273.054 158.331,266.01 158.331,266.01C158.331,266.01 156.029,238.596 174.447,234.906C183.911,220.145 204.376,232.007 204.376,232.007C204.376,232.007 217.933,229.107 222.794,241.233C237.943,243.634 237.233,252.214 238.399,259.42C251.955,260.21 251.188,271.018 251.188,271.018Z" clip-rule="evenodd" fill-rule="evenodd" transform="rotate(360 215.987 282.676)" fill="#000000"/>
<path d="M257.934,257.633C247.31,259.553 244.082,251.271 244.082,251.271C244.082,251.271 239.7,239.606 238.577,246.768C237.98,250.574 232.27,245.524 229.645,249.581C227.878,252.311 232.296,255.83 226.555,263.11C223.229,267.327 236.347,270.693 228.254,278.467C228.254,278.467 234.008,287.956 224.123,291.051L221.938,302.1L244.718,302.063L243.985,289.34C259.334,289.34 260.083,267.602 257.934,257.633Z" clip-rule="evenodd" fill-rule="evenodd" transform="rotate(360 240.378 273.271)" fill="#FFC999"/>
<path d="M234.224,269.204C234.49,268.93 234.922,268.93 235.188,269.204L235.327,269.336C235.391,269.393 235.471,269.462 235.569,269.541C235.902,269.812 236.293,270.085 236.738,270.339C238.245,271.203 239.965,271.65 241.858,271.461C242.233,271.424 242.566,271.706 242.602,272.092C242.639,272.478 242.364,272.821 241.99,272.859C239.799,273.077 237.81,272.56 236.075,271.566C235.196,271.062 234.57,270.553 234.224,270.197C233.958,269.923 233.958,269.478 234.224,269.204Z" transform="rotate(360 238.315 270.953)" fill="#F5222D"/>
<path d="M233.306,258.23C233.575,258.25 233.784,258.469 233.808,258.737L233.809,258.835C233.796,259.206 233.867,259.828 234.104,260.673C234.486,262.036 235.2,263.565 236.331,265.234C236.509,265.496 236.437,265.858 236.174,266.028L235.469,266.48C234.556,267.058 233.751,267.544 233.051,267.944L232.794,268.091C232.598,268.201 232.42,268.299 232.259,268.386L231.708,268.673C231.695,268.679 231.683,268.685 231.673,268.69C231.4,268.819 231.078,268.697 230.952,268.416C230.826,268.136 230.945,267.803 231.217,267.674L231.47,267.546L231.917,267.306C232.028,267.246 232.146,267.18 232.273,267.109C232.922,266.743 233.673,266.296 234.529,265.76L235.119,265.386L234.984,265.174C234.116,263.787 233.518,262.485 233.148,261.283L233.06,260.984C232.815,260.11 232.723,259.419 232.721,258.934L232.725,258.749C232.747,258.441 233.006,258.208 233.306,258.23Z" transform="rotate(360 233.665 263.485)" fill="#DD936F"/>
<path d="M248.01,389.634C248.01,389.634 277.128,397.592 290.41,388.053C304.848,377.685 287.168,338.233 282.544,327.954C278.575,319.127 269.922,313.409 262.046,312.056C254.297,310.726 248.376,310.252 248.376,310.252L246.674,303.417C246.426,302.422 245.555,301.725 244.558,301.725L221.343,301.725C220.255,301.725 219.335,302.549 219.18,303.658L218.284,310.132C218.284,310.132 198.743,309.376 189.494,318.201C180.636,326.654 183.195,345.625 190.626,363.184C198.056,380.746 204.314,394.681 216.738,395.961C239.706,398.328 275.609,377.722 275.609,377.722C275.609,377.722 281.733,374.342 287.421,375.244C286.109,367.128 281.733,361.268 269.046,364.649L223.766,374.342Z" clip-rule="evenodd" fill-rule="evenodd" transform="rotate(360 239.925 348.938)" fill="#FFFFFF"/>
<path d="M216.343,350.562C216.343,350.562 218.531,358 213.992,364.029L214.484,371.806L182.328,389.727C182.328,389.727 217.325,398.041 231.31,389.635C241.799,383.33 238.784,365.398 230.734,347.328C230.734,347.328 224.403,345.352 216.343,350.562Z" clip-rule="evenodd" fill-rule="evenodd" transform="rotate(360 210.183 370.177)" fill="#FFC999"/>
<path d="M219.264,352.591L228.232,372.652L264.103,362.617C274.822,359.686 286.2,363.861 289.044,372.652C283.795,373.328 273.841,375.694 273.841,375.694C273.841,375.694 239.39,397.841 221.998,396.996C209.525,396.389 204.673,381.421 197.242,363.861C197.242,363.861 201.764,353.943 219.264,352.591Z" clip-rule="evenodd" fill-rule="evenodd" transform="rotate(360 243.143 374.805)" fill="#FFC999"/>
<path d="M203.889,331.177C204.13,331.177 204.326,331.379 204.326,331.628L204.319,332.256L204.305,332.878C204.297,333.201 204.285,333.543 204.271,333.901C204.214,335.319 204.118,336.737 203.977,338.092L203.91,338.68L204.113,338.897C205.49,340.399 206.588,341.994 207.424,343.673L207.627,344.094C210.094,349.362 209.933,354.973 208.186,360.269C207.905,361.119 207.605,361.886 207.304,362.558L207.151,362.891L206.895,363.406C206.777,363.623 206.511,363.7 206.3,363.578C206.089,363.457 206.014,363.182 206.133,362.965L206.258,362.721C206.326,362.581 206.412,362.4 206.51,362.181C206.798,361.536 207.088,360.798 207.358,359.979C209.037,354.887 209.192,349.509 206.84,344.486C205.957,342.601 204.734,340.82 203.141,339.157C203.047,339.059 203.002,338.922 203.018,338.785C203.207,337.221 203.329,335.542 203.397,333.863L203.431,332.853L203.451,331.77L203.451,331.628C203.451,331.379 203.647,331.177 203.889,331.177Z" transform="rotate(360 206.252 347.407)" fill="#1F1F47"/>
<path d="M261.713,310.019C261.955,310.019 262.15,310.221 262.15,310.47C262.15,310.691 261.996,310.875 261.792,310.913L261.713,310.92L240.81,310.92C240.568,310.92 240.372,310.719 240.372,310.47C240.372,310.248 240.527,310.064 240.731,310.026L240.81,310.019L261.713,310.019Z" transform="rotate(360 251.261 310.47)" fill="#1F1F47"/>
<path d="M261.933,310.083C262.003,309.802 262.282,309.632 262.555,309.705C262.801,309.77 262.959,310.009 262.937,310.261L262.922,310.345L256.032,337.958C255.939,338.332 255.508,338.47 255.226,338.245L255.164,338.186L230.118,310.574C229.925,310.361 229.936,310.028 230.142,309.83C230.325,309.654 230.601,309.643 230.795,309.792L230.864,309.855L255.273,336.767L261.933,310.083Z" transform="rotate(360 246.459 324.021)" fill="#000000"/>
<path d="M243.19,340.902C245.508,344.93 244.462,349.982 240.857,352.186C237.249,354.39 232.446,352.909 230.128,348.882C227.81,344.854 228.855,339.802 232.461,337.598C236.069,335.394 240.87,336.873 243.19,340.902Z" clip-rule="evenodd" fill-rule="evenodd" transform="rotate(360 236.659 344.892)" fill="#000000"/>
<path d="M242.357,340.882C244.676,344.911 243.63,349.963 240.024,352.165C236.418,354.369 231.615,352.89 229.297,348.861C226.979,344.833 228.023,339.782 231.629,337.578C235.236,335.375 240.039,336.854 242.357,340.882Z" clip-rule="evenodd" fill-rule="evenodd" transform="rotate(360 235.827 344.872)" fill="#000000"/>
<path d="M240.909,341.584C242.708,344.711 241.897,348.634 239.096,350.345C236.297,352.056 232.568,350.907 230.769,347.78C228.969,344.651 229.779,340.73 232.579,339.019C235.38,337.307 239.109,338.456 240.909,341.584Z" clip-rule="evenodd" fill-rule="evenodd" transform="rotate(360 235.839 344.682)" fill="url(#pf_0_i_59_297;153_5411)"/>
<path d="M236.689,286.7C236.832,286.429 237.162,286.328 237.426,286.476C240.396,288.141 243.475,288.978 246.564,289.021C246.864,289.026 247.104,289.28 247.1,289.589C247.095,289.898 246.849,290.145 246.549,290.141C243.283,290.095 240.031,289.211 236.906,287.459C236.643,287.311 236.546,286.972 236.689,286.7Z" transform="rotate(360 241.861 288.274)" fill="#DD936F"/>
<path d="M274.883,368.152C274.883,368.152 261.785,356.844 253.735,357.437C246.078,358 241.485,364.424 242.796,368.031C242.796,368.031 241.049,371.187 243.891,372.201C243.508,374.512 246.734,374.342 246.734,374.342C246.734,374.342 246.189,375.807 248.485,376.145C250.781,376.484 253.318,371.636 259.28,372.633L274.883,368.152Z" clip-rule="evenodd" fill-rule="evenodd" transform="rotate(360 258.574 366.788)" fill="#FFC999"/>
<path d="M253.858,356.582C250.271,356.846 246.422,359.479 243.656,362.996C242.496,364.472 241.696,365.926 241.471,366.991L241.444,367.133C241.297,368.025 241.594,368.663 242.23,368.872L242.27,368.884L242.22,369.002C242.041,369.455 241.954,369.915 241.999,370.371L242.021,370.533C242.139,371.222 242.569,371.788 243.312,372.186L243.478,372.268L243.478,372.307C243.485,373.408 244.205,374.106 245.316,374.42L245.551,374.48C245.785,374.533 246.019,374.567 246.242,374.587L246.304,374.591L246.308,374.636C246.334,374.845 246.399,375.055 246.515,375.262C246.849,375.857 247.528,376.249 248.57,376.402C249.151,376.488 249.725,376.337 250.406,375.974L250.613,375.859C251.036,375.616 252.648,374.519 252.667,374.506C254.916,373.043 256.821,372.465 259.355,372.889C259.429,372.901 259.505,372.898 259.578,372.878L275.782,368.564C276.213,368.449 276.334,367.877 275.989,367.588L275.404,367.112L274.811,366.641C274.499,366.396 274.163,366.138 273.807,365.867C272.112,364.581 270.29,363.295 268.409,362.094C266.239,360.708 264.129,359.525 262.131,358.609C259.072,357.207 256.386,356.478 254.158,356.565L253.858,356.582ZM261.689,359.632C263.638,360.525 265.705,361.684 267.837,363.046C269.691,364.23 271.49,365.499 273.163,366.769L273.944,367.369L274.446,367.762L259.413,371.766L259.529,371.784C256.804,371.328 254.707,371.915 252.369,373.38L252.087,373.56C252.036,373.593 250.464,374.662 250.083,374.882C249.498,375.219 249.079,375.347 248.724,375.294C247.986,375.186 247.603,374.965 247.455,374.701C247.394,374.592 247.375,374.472 247.385,374.357L247.404,374.246C247.534,373.896 247.3,373.524 246.945,373.489L246.844,373.488C246.486,373.498 246.03,373.461 245.603,373.34C244.814,373.117 244.469,372.726 244.59,371.999C244.635,371.729 244.483,371.465 244.232,371.376C243.45,371.097 243.126,370.722 243.08,370.257C243.047,369.927 243.153,369.536 243.357,369.138C243.468,368.92 243.578,368.755 243.644,368.67C243.971,368.253 243.597,367.648 243.092,367.775L242.896,367.82C242.461,367.905 242.417,367.776 242.532,367.229C242.715,366.366 243.437,365.053 244.5,363.7C247.094,360.401 250.698,357.937 253.935,357.698C256.008,357.546 258.64,358.234 261.689,359.632Z" transform="rotate(360 258.798 366.492)" fill="#DD936F"/>
<path d="M274.064,360.488C274.362,360.449 274.633,360.667 274.671,360.974C274.708,361.28 274.497,361.56 274.199,361.598C272.133,361.864 269.895,363.079 267.642,364.944C266.73,365.699 265.878,366.51 265.112,367.32L264.733,367.729L264.274,368.249C264.22,368.313 264.181,368.36 264.156,368.391C263.963,368.627 263.621,368.658 263.391,368.46C263.161,368.261 263.131,367.908 263.324,367.671L263.593,367.354C263.808,367.108 264.055,366.834 264.334,366.539C265.129,365.698 266.013,364.857 266.962,364.071C269.357,362.089 271.76,360.785 274.064,360.488Z" transform="rotate(360 268.936 364.537)" fill="#DD936F"/>
<path d="M273.494,363.51C273.793,363.499 274.044,363.741 274.054,364.05C274.064,364.359 273.829,364.618 273.53,364.628C273.348,364.634 273.165,364.647 272.98,364.665C270.417,364.915 267.63,366.268 264.817,368.374C263.708,369.204 262.673,370.094 261.74,370.984C261.495,371.217 261.271,371.438 261.069,371.643L260.61,372.121C260.596,372.136 260.584,372.149 260.574,372.16C260.369,372.387 260.026,372.399 259.806,372.188C259.587,371.977 259.575,371.623 259.779,371.397L260.105,371.052L260.524,370.627C260.674,370.479 260.833,370.324 261.002,370.163C261.965,369.244 263.033,368.326 264.179,367.469C267.135,365.256 270.085,363.823 272.878,363.55C273.085,363.53 273.29,363.517 273.494,363.51Z" transform="rotate(360 266.844 367.924)" fill="#DD936F"/>
<path d="M270.599,367.068C270.898,367.048 271.157,367.282 271.176,367.591C271.195,367.899 270.967,368.165 270.668,368.185C269.741,368.245 268.589,368.656 267.273,369.366C266.346,369.866 265.361,370.502 264.343,371.242C263.403,371.926 262.488,372.659 261.635,373.393L261.21,373.763L260.544,374.365C260.323,374.574 259.98,374.559 259.777,374.331C259.574,374.104 259.589,373.75 259.81,373.541L260.114,373.261L260.503,372.913C260.64,372.792 260.786,372.665 260.939,372.533C261.813,371.782 262.751,371.03 263.717,370.328C264.771,369.561 265.795,368.9 266.769,368.374C268.208,367.598 269.493,367.14 270.599,367.068Z" transform="rotate(360 265.405 370.789)" fill="#DD936F"/>
<path d="M284.065,337.944C284.267,337.87 284.487,337.958 284.59,338.143L284.623,338.217L289.456,352.214C289.554,352.498 289.358,352.8 289.065,352.815L288.813,352.831C288.603,352.847 288.359,352.868 288.084,352.896C287.296,352.977 286.417,353.096 285.47,353.26C282.765,353.728 280.06,354.465 277.54,355.526C272.932,357.467 269.478,360.266 267.631,364.062C267.523,364.284 267.26,364.374 267.044,364.263C266.828,364.151 266.741,363.881 266.849,363.658C268.804,359.64 272.422,356.708 277.209,354.691C279.795,353.603 282.56,352.85 285.325,352.371C286.131,352.231 286.889,352.124 287.587,352.044L288.204,351.979L288.439,351.957L283.799,338.519C283.727,338.311 283.813,338.084 283.993,337.978L284.065,337.944Z" transform="rotate(360 278.142 351.114)" fill="#1F1F47"/>
<path d="M192.356,348.059C195.724,346.559 199.302,345.947 202.834,346.741C203.07,346.794 203.22,347.034 203.169,347.277C203.117,347.52 202.884,347.674 202.648,347.621C199.318,346.873 195.917,347.455 192.702,348.886C192.051,349.176 191.451,349.483 190.911,349.792L190.593,349.978C190.224,350.199 189.967,350.37 189.837,350.464C189.64,350.608 189.367,350.559 189.228,350.355C189.089,350.152 189.136,349.87 189.334,349.727L189.552,349.578C189.724,349.463 189.925,349.336 190.153,349.199C190.803,348.81 191.541,348.421 192.356,348.059Z" transform="rotate(360 196.163 348.469)" fill="#1F1F47"/>
<path d="M231.148,363.058C231.267,362.774 231.586,362.642 231.862,362.764C233.79,363.615 235.566,364.981 237.184,366.718C238.172,367.779 239.041,368.913 239.786,370.049C239.981,370.347 240.158,370.63 240.315,370.893L240.587,371.364C240.639,371.458 240.678,371.53 240.703,371.579C240.862,371.886 240.713,372.258 240.406,372.369L240.327,372.392L230.425,374.354L197.742,391.257C197.5,391.382 197.212,391.304 197.058,391.086L197.013,391.008C196.892,390.759 196.967,390.462 197.179,390.304L197.254,390.257L230.005,373.319L230.146,373.27L239.367,371.442L239.234,371.222C239.18,371.135 239.124,371.045 239.066,370.954L238.885,370.675C238.174,369.59 237.343,368.504 236.401,367.493C234.876,365.857 233.214,364.578 231.434,363.792C231.158,363.671 231.03,363.342 231.148,363.058Z" transform="rotate(360 218.861 377.018)" fill="#DD936F"/>
<path d="M211.209,405.065C211.299,404.789 211.588,404.641 211.856,404.733L212.405,404.912L212.888,405.061C213.228,405.164 213.603,405.274 214.011,405.389C215.764,405.885 217.77,406.38 219.997,406.843C234.127,409.779 249.168,410 263.352,405.736C263.623,405.655 263.906,405.815 263.985,406.094C264.064,406.373 263.909,406.665 263.638,406.747C249.273,411.065 234.073,410.842 219.795,407.875C217.544,407.407 215.515,406.906 213.741,406.404L213.144,406.233C212.859,406.149 212.592,406.069 212.346,405.993L211.663,405.775C211.609,405.757 211.565,405.743 211.532,405.731C211.264,405.639 211.12,405.341 211.209,405.065Z" transform="rotate(360 237.594 407.38)" fill="#000000"/>
<path d="M248.377,258.157C248.739,258.157 249.032,258.46 249.032,258.833C249.032,261.429 247.135,263.555 244.766,263.555C242.398,263.555 240.503,261.429 240.503,258.833C240.503,258.46 240.796,258.157 241.159,258.157C241.521,258.157 241.814,258.46 241.814,258.833C241.814,260.707 243.149,262.204 244.766,262.204C246.385,262.204 247.721,260.707 247.721,258.833C247.721,258.46 248.014,258.157 248.377,258.157Z" transform="rotate(360 244.768 260.856)" fill="#000000"/>
<path d="M231.115,258.622C231.459,258.622 231.737,258.909 231.737,259.263C231.737,261.827 230.033,263.95 227.868,263.95C225.702,263.95 223.998,261.827 223.998,259.263C223.998,258.909 224.276,258.622 224.62,258.622C224.963,258.622 225.242,258.909 225.242,259.263C225.242,261.168 226.446,262.669 227.868,262.669C229.289,262.669 230.493,261.168 230.493,259.263C230.493,258.909 230.772,258.622 231.115,258.622Z" transform="rotate(360 227.867 261.286)" fill="#000000"/>
<path d="M240.644,250.882C243.147,249.793 245.797,249.902 248.301,250.731C249.021,250.97 249.559,251.21 249.867,251.378C250.187,251.552 250.31,251.961 250.141,252.291C249.972,252.621 249.575,252.747 249.255,252.573L249.09,252.49C249.039,252.466 248.979,252.438 248.91,252.407C248.615,252.275 248.276,252.142 247.9,252.018C245.668,251.279 243.325,251.182 241.154,252.127C240.758,252.299 240.372,252.505 239.997,252.747C239.689,252.945 239.285,252.848 239.093,252.532C238.901,252.216 238.994,251.799 239.302,251.601C239.736,251.321 240.184,251.082 240.644,250.882Z" transform="rotate(360 244.605 251.469)" fill="#000000"/>
<path d="M272.32,405.055C283.83,405.845 311.97,480.409 322.586,507.064C321.272,512.474 312.993,522.09 312.993,522.09C312.993,522.09 313.938,526.372 314.519,528.946C304.8,537.38 285.87,542.125 285.87,542.125L285.87,545.815C255.684,560.577 214.891,547.262 214.891,547.262C214.891,547.262 214.123,546.472 214.635,543.572C200.853,543.572 171.148,525.911 171.148,525.911L175.241,516.95L162.963,504.297C162.963,504.297 200.484,438.175 206.876,423.638C213.996,407.448 221.862,404.441 221.862,404.441C221.862,404.441 251.895,403.651 272.32,405.055Z" clip-rule="evenodd" fill-rule="evenodd" transform="rotate(360 242.774 478.496)" fill="url(#pf_0_i_59_297;153_5425)"/>
<path d="M307.034,446.608C307.155,446.345 307.46,446.234 307.715,446.359C307.944,446.471 308.054,446.737 307.986,446.98L307.956,447.06L271.812,525.218L272.267,525.554L272.652,525.832C273.625,526.527 274.772,527.303 276.085,528.138C279.841,530.528 284.172,532.918 289.021,535.149C296.806,538.732 305.163,541.552 313.987,543.32C314.264,543.376 314.445,543.652 314.391,543.937C314.337,544.223 314.069,544.409 313.792,544.354C304.888,542.569 296.457,539.724 288.605,536.111C283.713,533.859 279.341,531.447 275.549,529.034C274.368,528.282 273.318,527.578 272.406,526.935L272.07,526.697C271.862,526.549 271.671,526.41 271.497,526.282L271.011,525.919C270.943,525.867 270.892,525.828 270.86,525.803C270.692,525.67 270.623,525.448 270.678,525.244L270.709,525.158L307.034,446.608Z" transform="rotate(360 292.53 495.335)" fill="#000000"/>
<path d="M170.33,439.754C170.566,439.659 170.83,439.757 170.955,439.975L170.992,440.052L204.88,529.28C204.967,529.51 204.888,529.771 204.69,529.909L204.452,530.07C204.259,530.199 204.031,530.349 203.769,530.518L203.101,530.943C202.52,531.307 201.88,531.698 201.182,532.109C198.393,533.753 195.27,535.396 191.886,536.93C186.517,539.364 181.005,541.287 175.477,542.508C175.202,542.569 174.93,542.388 174.871,542.104C174.812,541.82 174.987,541.54 175.263,541.479C180.718,540.274 186.166,538.374 191.475,535.967C194.824,534.449 197.916,532.822 200.675,531.195C201.639,530.627 202.493,530.099 203.227,529.625L203.777,529.265L170.04,440.436C169.948,440.192 170.044,439.921 170.255,439.792L170.33,439.754Z" transform="rotate(360 187.46 491.119)" fill="#000000"/>
<path d="M247.154,419.17C247.431,419.11 247.701,419.292 247.759,419.577L249.603,428.724C250.259,431.993 250.957,435.493 251.691,439.191L252.362,442.571C255.548,458.666 258.734,475.083 261.74,491.01L262.487,494.981C263.039,497.921 263.581,500.821 264.11,503.678L265.257,509.893C267.733,523.37 269.892,535.581 271.674,546.253C271.716,546.506 271.576,546.754 271.341,546.839C269.631,547.461 267.896,548.032 266.137,548.552C247.815,553.976 228.278,553.802 209.882,550.256C207.061,549.712 204.518,549.129 202.294,548.546L201.546,548.346C201.308,548.282 201.08,548.219 200.863,548.158L199.972,547.9C199.767,547.839 199.618,547.793 199.529,547.765C199.307,547.693 199.163,547.478 199.169,547.246L199.18,547.158L216.839,457.022C216.895,456.737 217.165,456.553 217.441,456.61C217.69,456.662 217.86,456.892 217.851,457.145L217.841,457.23L200.274,546.894L201.133,547.143C201.561,547.263 202.032,547.391 202.546,547.526C204.749,548.103 207.271,548.681 210.069,549.221C228.323,552.74 247.708,552.912 265.855,547.541C267.246,547.129 268.623,546.685 269.983,546.209L270.593,545.991L269.935,542.084C268.242,532.12 266.251,520.937 264.005,508.737L263.502,506.009C262.847,502.467 262.174,498.855 261.484,495.181C258.759,480.665 255.868,465.679 252.953,450.851L250.04,436.129L246.759,419.793C246.702,419.508 246.878,419.229 247.154,419.17Z" transform="rotate(360 235.425 485.975)" fill="#000000"/>
<path d="M242.801,420.874C243.055,420.888 243.255,421.09 243.282,421.342L243.284,421.428L238.817,508.278C238.802,508.568 238.561,508.791 238.28,508.777C238.026,508.762 237.826,508.56 237.799,508.308L237.797,508.222L242.264,421.372C242.279,421.082 242.519,420.859 242.801,420.874Z" transform="rotate(360 240.54 464.825)" fill="#000000"/>
<path d="M269.148,407.658C269.236,407.382 269.525,407.232 269.793,407.322C270.034,407.404 270.177,407.653 270.138,407.903L270.119,407.987L253.237,460.968C253.149,461.245 252.86,461.395 252.592,461.304C252.351,461.223 252.209,460.974 252.247,460.723L252.266,460.64L269.148,407.658Z" transform="rotate(360 261.193 434.313)" fill="#000000"/>
<path d="M273.229,734.547C273.066,735.289 270.616,708.761 270.733,700.938C280.902,702.323 290.304,701.334 290.304,701.334C290.304,701.334 288.96,731.581 289.344,734.547C282.053,739.094 273.229,734.547 273.229,734.547Z" clip-rule="evenodd" fill-rule="evenodd" transform="rotate(360 280.516 718.753)" fill="#FFFFFF"/>
<path d="M260.699,770.441C261.962,780.927 267.436,786.474 273.084,787.088C280.078,787.849 287.694,785.817 288.924,779.357C290.329,771.984 286.645,768.212 282.531,757.668C278.417,747.123 276.453,738.105 274.919,730.594C274.919,730.594 269.674,727.431 271.081,736.524C272.221,743.886 274.983,764.597 279.842,766.046C275.109,765.651 265.389,769.473 265.389,769.473C265.389,769.473 268.843,763.938 268.588,762.092C268.332,760.248 265.474,741.342 265.327,735.734C265.18,730.187 260.51,730.856 258.26,731.505C257.559,731.706 257.113,732.403 257.198,733.149C257.411,734.996 260.102,765.476 260.699,770.441Z" clip-rule="evenodd" fill-rule="evenodd" transform="rotate(360 273.208 758.651)" fill="#1F1F47"/>
<path d="M265.414,742.653C265.414,742.653 259.58,730.067 265.414,728.815C270.019,727.826 274.431,727.627 275.006,728.815C275.221,729.256 275.199,733.361 276.733,741.861C278.525,751.786 283.106,763.425 284.792,765.783C287.478,769.539 284.599,769.736 278.076,771.516C271.554,773.295 269.252,773.295 267.524,769.736C265.798,766.178 265.798,750.363 265.414,742.653Z" clip-rule="evenodd" fill-rule="evenodd" transform="rotate(360 274.307 750.341)" fill="#1F1F47"/>
<path d="M278.351,745.754C278.702,745.614 279.096,745.793 279.233,746.154C279.369,746.516 279.195,746.922 278.845,747.063C278.046,747.383 277.164,747.827 276.213,748.379C275.298,748.911 274.334,749.536 273.338,750.233C272.382,750.903 271.436,751.612 270.527,752.329L270.018,752.734L270.05,752.736C270.819,752.765 271.634,752.854 272.492,752.998L272.924,753.075C274.601,753.386 276.38,753.887 278.198,754.525C279.312,754.916 280.373,755.335 281.346,755.754L281.832,755.966L282.597,756.318C283.217,756.618 283.066,757.568 282.386,757.65C279.816,757.961 277.056,759.382 274.292,761.562C273.173,762.444 272.131,763.391 271.195,764.337C270.999,764.536 270.816,764.726 270.647,764.905L270.329,765.25C270.18,765.413 270.08,765.528 270.03,765.586C269.782,765.878 269.352,765.908 269.069,765.652C268.786,765.397 268.757,764.953 269.005,764.662L269.245,764.389L269.334,764.29C269.596,764.001 269.9,763.681 270.241,763.335C271.214,762.351 272.297,761.367 273.464,760.447C275.581,758.777 277.711,757.518 279.804,756.815L280.063,756.732L279.646,756.563C279.242,756.401 278.827,756.242 278.402,756.086L277.758,755.854C276,755.237 274.285,754.754 272.683,754.457C270.923,754.13 269.366,754.04 268.074,754.221C267.4,754.316 267.023,753.446 267.541,752.991L267.938,752.65L268.553,752.137C268.7,752.016 268.853,751.892 269.011,751.763C270.145,750.846 271.349,749.929 272.572,749.072C273.598,748.354 274.593,747.709 275.544,747.157C276.547,746.573 277.486,746.101 278.351,745.754Z" transform="rotate(360 275.144 755.766)" fill="#000000"/>
<path d="M265.274,747.567C266.592,747.266 268.188,747.254 270.006,747.479C271.463,747.66 273.01,747.986 274.586,748.417C275.282,748.607 275.949,748.808 276.573,749.011L277.227,749.229L278.001,749.507C278.593,749.734 278.593,750.597 278,750.823C275.735,751.688 273.531,753.041 271.431,754.753C270.253,755.713 269.17,756.735 268.198,757.763L267.677,758.327L267.414,758.622L268.284,758.641C268.523,758.648 268.771,758.656 269.026,758.666L269.414,758.682C271.374,758.769 273.31,758.938 275.125,759.211C278.406,759.703 281,760.485 282.682,761.64C282.995,761.855 283.08,762.291 282.871,762.613C282.662,762.936 282.239,763.023 281.926,762.808C280.453,761.796 278.025,761.065 274.929,760.6C273.164,760.335 271.273,760.169 269.355,760.084C268.457,760.045 267.641,760.026 266.944,760.022L265.948,760.026C265.374,760.039 265.043,759.36 265.395,758.894L265.679,758.534L265.764,758.431C266.059,758.071 266.404,757.672 266.796,757.243C267.913,756.019 269.183,754.795 270.586,753.652C272.203,752.334 273.884,751.215 275.617,750.349L275.831,750.244L275.702,750.203C275.389,750.105 275.067,750.009 274.737,749.914L274.237,749.774C272.717,749.359 271.23,749.045 269.843,748.873C268.165,748.665 266.715,748.676 265.57,748.938C265.202,749.022 264.839,748.783 264.757,748.405C264.675,748.027 264.907,747.652 265.274,747.567Z" transform="rotate(360 273.863 755.125)" fill="#000000"/>
<path d="M256.927,772.504C256.927,772.504 270.74,760.642 283.403,769.341C286.568,776.612 284.738,780.935 283.211,783.179C282.579,784.108 281.381,785.404 280.347,785.788C277.264,786.935 269.179,789.238 263.451,785.354C256.16,780.411 256.927,772.504 256.927,772.504Z" clip-rule="evenodd" fill-rule="evenodd" transform="rotate(360 271.023 776.836)" fill="#000000"/>
<path d="M282.368,769.276C282.545,769.179 282.764,769.248 282.858,769.429C284.645,772.883 282.769,777.361 280.18,779.141C278.336,780.407 271.83,781.554 266.662,781.312C264.094,781.191 262.03,779.553 260.422,776.924C259.844,775.979 259.365,774.969 258.98,773.96C258.879,773.695 258.79,773.444 258.713,773.21L258.58,772.792C258.556,772.709 258.538,772.646 258.526,772.603C258.473,772.404 258.587,772.199 258.779,772.145C258.972,772.09 259.171,772.207 259.224,772.406L259.327,772.752L259.475,773.198C259.53,773.354 259.589,773.518 259.654,773.687C260.023,774.656 260.482,775.624 261.034,776.526C262.528,778.969 264.406,780.459 266.695,780.567C271.723,780.802 278.09,779.681 279.779,778.521C282.091,776.931 283.803,772.841 282.219,769.78C282.125,769.599 282.192,769.373 282.368,769.276Z" transform="rotate(360 271.038 775.288)" fill="#A3B5D6"/>
<path d="M271.022,705.537C271.101,705.158 271.463,704.916 271.831,704.997L272.402,705.112L272.692,705.166C273.394,705.295 274.192,705.424 275.071,705.544C279.486,706.148 284.073,706.312 288.346,705.768C288.775,705.714 289.198,705.652 289.615,705.583C289.987,705.522 290.336,705.783 290.396,706.166C290.455,706.548 290.202,706.908 289.831,706.97C289.397,707.041 288.958,707.105 288.513,707.162C284.109,707.722 279.412,707.554 274.892,706.936C274.142,706.833 273.45,706.724 272.822,706.615L272.097,706.481L271.546,706.37C271.178,706.289 270.944,705.916 271.022,705.537Z" transform="rotate(360 280.706 706.242)" fill="#000000"/>
<path d="M276.988,739.647L277.08,739.645L277.628,739.674C278.059,739.7 278.538,739.737 279.053,739.785C280.528,739.922 282.004,740.124 283.385,740.405C288.181,741.378 290.886,743.04 289.98,745.841C289.143,748.427 286.571,748.067 283.067,745.921C282.321,745.464 281.541,744.93 280.737,744.335C279.792,743.634 278.863,742.885 277.988,742.136L277.764,741.942L277.44,741.658L277.007,742.293L276.792,742.602C275.951,743.802 275.051,745.002 274.128,746.124C273.194,747.259 272.287,748.252 271.42,749.064C269.084,751.254 267.12,752.091 265.64,750.919C264.744,750.209 264.639,749.188 265.212,748.132C265.638,747.344 266.444,746.497 267.584,745.574C268.449,744.874 269.495,744.141 270.683,743.387C271.901,742.614 273.204,741.859 274.506,741.153L275.164,740.801L276.247,740.241C276.276,740.227 276.304,740.215 276.333,740.206L276.392,740.19L276.405,740.134C276.486,739.87 276.714,739.675 276.988,739.647ZM275.318,742.3L275.141,742.396C273.864,743.088 272.587,743.827 271.398,744.582C270.25,745.31 269.246,746.015 268.426,746.678C267.416,747.496 266.721,748.226 266.401,748.816C266.134,749.309 266.16,749.56 266.471,749.806C267.21,750.392 268.62,749.791 270.503,748.025C271.321,747.259 272.19,746.308 273.089,745.216C273.808,744.343 274.514,743.418 275.188,742.483L275.318,742.3ZM279.019,741.192L279.376,741.493C280.073,742.076 280.799,742.651 281.532,743.195C282.306,743.768 283.054,744.28 283.763,744.714C286.583,746.441 288.273,746.677 288.687,745.397C289.185,743.859 287.127,742.595 283.122,741.782C282.014,741.557 280.836,741.384 279.646,741.255L279.019,741.192Z" transform="rotate(360 277.505 745.547)" fill="#000000"/>
<path d="M283.011,733.321C283.355,733.289 283.662,733.525 283.737,733.862L283.751,733.956L284.262,739.756C284.296,740.142 284.02,740.483 283.645,740.518C283.301,740.55 282.994,740.314 282.919,739.977L282.905,739.882L282.394,734.083C282.36,733.697 282.636,733.356 283.011,733.321Z" transform="rotate(360 283.328 736.919)" fill="#000000"/>
<path d="M274.058,731.476C274.401,731.444 274.708,731.68 274.783,732.017L274.798,732.112L275.309,737.911C275.343,738.297 275.067,738.638 274.692,738.673C274.348,738.705 274.041,738.469 273.966,738.132L273.952,738.038L273.441,732.239C273.407,731.852 273.683,731.511 274.058,731.476Z" transform="rotate(360 274.375 735.075)" fill="#000000"/>
<defs>
<linearGradient id="pf_0_i_59_297;153_5411" x1="235.839" y1="338.225" x2="235.839" y2="351.138" gradientUnits="userSpaceOnUse">
<stop stop-color="#FFC024"/>
<stop offset="1" stop-color="#997316"/>
</linearGradient>
<linearGradient id="pf_0_i_59_297;153_5425" x1="242.774" y1="404.22" x2="242.774" y2="552.773" gradientUnits="userSpaceOnUse">
<stop stop-color="#FFC024"/>
<stop offset="1" stop-color="#00124C"/>
</linearGradient>
</defs>
</svg>
