<svg width="758" height="1648" viewBox="0 0 758 1648" fill="none" xmlns="http://www.w3.org/2000/svg" xmlns:xlink="http://www.w3.org/1999/xlink">
<path d="M331.316,628.982C331.316,628.982 307.393,625.213 301.07,652.687C277.886,661.849 284.211,689.326 284.211,689.326C284.211,689.326 272.565,710.911 295.696,721.969C297.546,744.082 320.677,740.062 320.677,740.062C320.677,740.062 326.229,757.152 343.808,750.114C362.775,766.142 398.519,762.926 411.213,743.332C436.378,763.742 480.168,738.827 474.674,720.195C504.065,718.26 518.315,684.392 501.093,655.621C514.321,632.864 499.241,619.432 499.241,619.432C499.241,619.432 503.405,567.158 470.099,560.122C452.982,531.975 415.974,554.592 415.974,554.592C415.974,554.592 391.455,549.065 382.666,572.184C355.269,576.764 356.554,593.127 354.447,606.866C329.928,608.374 331.316,628.982 331.316,628.982Z" clip-rule="evenodd" fill-rule="evenodd" fill="#253368"/>
<path d="M407.337,603.459C426.544,607.121 432.385,591.33 432.385,591.33C432.385,591.33 440.31,569.086 442.342,582.74C443.419,589.998 453.746,580.368 458.493,588.104C461.689,593.31 453.701,600.02 464.083,613.904C470.099,621.946 446.371,628.361 461.009,643.186C461.009,643.186 450.601,661.279 468.478,667.181L470.372,688.399C471.476,700.745 462.533,711.432 451.116,711.412C440.23,711.393 431.507,701.609 431.836,689.786L432.558,663.919C404.803,663.919 403.449,622.469 407.337,603.459Z" clip-rule="evenodd" fill-rule="evenodd" fill="#FFC999"/>
<path d="M441.006,625.522C441.487,624.999 442.267,624.999 442.749,625.522C443.23,626.044 443.231,626.892 442.749,627.415C442.124,628.095 440.993,629.066 439.402,630.028C436.266,631.924 432.668,632.91 428.705,632.492C428.028,632.421 427.532,631.766 427.598,631.03C427.663,630.294 428.266,629.755 428.943,629.826C432.368,630.187 435.478,629.335 438.204,627.687C439.008,627.201 439.715,626.681 440.317,626.165L440.629,625.889C440.81,625.724 440.936,625.598 441.006,625.522Z" fill="#F5222D"/>
<path d="M426.795,605.935L426.793,605.575C426.832,605.119 427.169,604.747 427.604,604.714C428.038,604.68 428.421,604.997 428.518,605.443L428.542,605.637L428.543,605.678C428.573,606.594 428.422,607.993 427.937,609.815C427.288,612.252 426.164,614.919 424.47,617.777L424.164,618.278L424.652,618.607L425.837,619.39C426.985,620.14 428.024,620.794 428.955,621.355L429.411,621.629C429.868,621.9 430.27,622.132 430.617,622.326L431.326,622.709C431.765,622.929 431.957,623.495 431.755,623.972C431.552,624.449 431.031,624.658 430.592,624.438L430.22,624.241L429.536,623.861C429.342,623.751 429.135,623.631 428.913,623.501L428.571,623.299C426.899,622.306 424.866,621.008 422.463,619.371C422.039,619.082 421.924,618.466 422.21,618.02C424.262,614.825 425.559,611.896 426.254,609.286C426.65,607.797 426.792,606.667 426.795,605.935Z" fill="#DD936F"/>
<path d="M453.551,604.461C454.205,604.461 454.736,605.037 454.736,605.748C454.736,610.696 451.304,614.751 447.022,614.751C442.74,614.751 439.311,610.697 439.311,605.748C439.311,605.037 439.841,604.461 440.495,604.461C441.15,604.461 441.68,605.037 441.68,605.748C441.68,609.321 444.095,612.177 447.022,612.177C449.949,612.177 452.366,609.321 452.366,605.748C452.366,605.037 452.896,604.461 453.551,604.461Z" fill="#253368"/>
<path d="M422.333,605.344C422.954,605.344 423.458,605.892 423.458,606.567C423.458,611.456 420.376,615.505 416.459,615.505C412.542,615.505 409.461,611.457 409.461,606.567C409.461,605.892 409.964,605.344 410.586,605.344C411.207,605.344 411.711,605.892 411.711,606.567C411.711,610.199 413.889,613.061 416.459,613.061C419.029,613.061 421.208,610.198 421.208,606.567C421.208,605.892 421.712,605.344 422.333,605.344Z" fill="#253368"/>
<path d="M440.044,590.3C444.572,588.72 449.363,588.511 453.887,590.584C454.72,590.965 455.531,591.422 456.318,591.957C456.873,592.333 457.042,593.127 456.695,593.73C456.348,594.333 455.618,594.517 455.063,594.14C454.383,593.678 453.684,593.285 452.966,592.956C449.042,591.158 444.805,591.342 440.769,592.751C440.259,592.929 439.787,593.116 439.357,593.305L438.942,593.494C438.629,593.642 438.417,593.753 438.318,593.81C437.739,594.142 437.023,593.901 436.717,593.273C436.412,592.644 436.633,591.865 437.212,591.533C437.769,591.214 438.742,590.755 440.044,590.3Z" fill="#253368"/>
<path d="M449.148,658.404C449.573,658.152 450.105,658.323 450.336,658.785C450.568,659.246 450.411,659.824 449.986,660.076C444.352,663.408 438.492,665.086 432.597,665.174C432.113,665.181 431.716,664.761 431.709,664.235C431.703,663.709 432.089,663.277 432.573,663.27C438.182,663.187 443.764,661.588 449.148,658.404Z" fill="#DD936F"/>
<path d="M382.537,894.491C369.721,892.433 360.865,879.478 362.759,865.554L381.202,729.865C383.094,715.941 395.017,706.318 407.835,708.374C420.648,710.432 429.502,723.387 427.613,737.311L409.167,873.002C407.275,886.927 395.352,896.546 382.537,894.491Z" clip-rule="evenodd" fill-rule="evenodd" fill="#FFC999"/>
<path d="M419.792,794.831L427.611,737.31C429.496,723.444 420.596,710.422 407.833,708.373C395.071,706.327 383.088,715.998 381.203,729.864L373.457,786.838L419.792,794.831Z" clip-rule="evenodd" fill-rule="evenodd" fill="#FFFFFF"/>
<path d="M408.608,707.723C421.602,709.808 430.707,722.93 429.047,737.027L428.983,737.531L421.161,795.052C421.11,795.427 420.817,795.698 420.48,795.707L420.352,795.698L374.019,787.704C373.634,787.638 373.372,787.244 373.433,786.826C373.487,786.454 373.779,786.187 374.114,786.179L374.241,786.188L419.867,794.059L427.586,737.307C429.389,724.026 420.993,711.543 408.864,709.32L408.401,709.241C408.015,709.179 407.749,708.789 407.806,708.37C407.856,707.997 408.146,707.727 408.48,707.715L408.608,707.723Z" fill="#4E5C93"/>
<path d="M300.759,849.781C300.575,854.757 304.023,859.008 308.587,859.433L396.7,867.675C404.819,868.14 411.728,861.307 412.054,852.479C412.387,843.573 405.898,836.12 397.695,835.983L308.889,840.859C304.463,841.103 300.939,844.97 300.759,849.781Z" clip-rule="evenodd" fill-rule="evenodd" fill="#FFC999"/>
<path d="M292.128,837.177C292.128,837.177 307.955,835.816 312.006,844.982C315.677,853.285 308.497,858.262 308.497,858.262C308.497,858.262 302.077,864.437 293.068,867.81C287.132,870.03 275.446,873.009 273.952,869.779C272.002,865.566 285.408,863.03 284.909,859.645C284.398,856.168 281.591,856.47 275.004,854.872C270.889,853.873 266.47,854.65 263.128,853.082C256.599,850.015 268.233,837.071 292.128,837.177Z" clip-rule="evenodd" fill-rule="evenodd" fill="#FFC999"/>
<path d="M263.998,848.495C269.911,846.925 275.259,847.191 279.793,848.588C280.614,848.841 281.339,849.113 281.962,849.386L282.364,849.57C282.538,849.653 282.67,849.72 282.758,849.77C283.189,850.01 283.359,850.583 283.138,851.051C282.917,851.519 282.389,851.704 281.959,851.464L281.649,851.308C281.553,851.262 281.438,851.21 281.305,851.152C280.74,850.903 280.074,850.654 279.315,850.42C275.058,849.108 270.015,848.857 264.414,850.345C263.944,850.47 263.47,850.157 263.355,849.646C263.24,849.135 263.528,848.62 263.998,848.495Z" fill="#DD936F"/>
<path d="M270.966,843.209C275.332,842.432 280.073,842.461 284.657,843.845C285.123,843.986 285.396,844.511 285.266,845.017C285.137,845.524 284.654,845.82 284.187,845.679C279.882,844.379 275.385,844.351 271.25,845.088C270.815,845.165 270.414,845.246 270.052,845.329L269.702,845.411C269.437,845.476 269.256,845.525 269.169,845.552C268.702,845.692 268.22,845.395 268.091,844.888C267.961,844.382 268.235,843.857 268.701,843.717L269.151,843.595L269.317,843.554C269.799,843.436 270.351,843.318 270.966,843.209Z" fill="#DD936F"/>
<path d="M275.407,838.96C280.153,838.38 284.039,838.552 287.07,839.197L287.723,839.347C288.426,839.52 288.926,839.687 289.222,839.814C289.672,840.007 289.893,840.56 289.715,841.049C289.538,841.538 289.029,841.778 288.579,841.585L288.341,841.494C288.007,841.376 287.471,841.223 286.733,841.066C283.877,840.458 280.171,840.293 275.603,840.852C275.122,840.911 274.689,840.535 274.634,840.012C274.58,839.49 274.926,839.019 275.407,838.96Z" fill="#DD936F"/>
<path d="M254.975,1266.102L199.799,1035.539C195.824,1018.93 205.362,1002.062 220.796,998.406C236.228,994.751 251.362,1005.775 254.109,1022.677L289.113,1258.858C290.894,1269.826 287.539,1278.78 277.522,1281.152C267.506,1283.524 257.555,1276.88 254.975,1266.102Z" clip-rule="evenodd" fill-rule="evenodd" fill="#FFC999"/>
<path d="M437.001,916.223C428.885,898.026 408.569,890.66 392.022,899.913L214.092,999.369C200.388,1007.032 194.814,1025.174 201.539,1040.242C208.261,1055.31 224.823,1061.795 238.846,1054.851L420.925,964.694C437.861,956.31 445.121,934.418 437.001,916.223Z" clip-rule="evenodd" fill-rule="evenodd" fill="#FFC999"/>
<path d="M259.251,1284.13L293.439,1277.239L285.331,1218.099L246.08,1226.008L259.251,1284.13Z" clip-rule="evenodd" fill-rule="evenodd" fill="#FFFFFF"/>
<path d="M284.53,1229.122C285.15,1228.997 285.746,1229.442 285.861,1230.115C285.966,1230.733 285.631,1231.328 285.097,1231.519L284.946,1231.561L248.711,1238.864C248.091,1238.989 247.496,1238.545 247.381,1237.871C247.275,1237.254 247.61,1236.659 248.144,1236.467L248.295,1236.426L284.53,1229.122Z" fill="#E4EBF7"/>
<path d="M255.447,1282.502L293.035,1274.926L307.707,1349.352L223.016,1366.42L220.847,1354.978C220.063,1350.768 222.168,1346.553 225.843,1344.975L247.1,1333.261L257.43,1323.788C260.544,1320.934 261.961,1316.467 261.112,1312.139C259.287,1302.837 256.216,1287.058 255.447,1282.502Z" clip-rule="evenodd" fill-rule="evenodd" fill="#4E5C93"/>
<path d="M307.306,1351.954L222.871,1368.971C222.069,1369.133 221.301,1368.559 221.152,1367.688L219.396,1357.4C219.249,1356.531 219.775,1355.696 220.577,1355.535L305.012,1338.517C305.812,1338.355 306.583,1338.93 306.729,1339.798L308.486,1350.086C308.634,1350.957 308.106,1351.792 307.306,1351.954Z" clip-rule="evenodd" fill-rule="evenodd" fill="#CCD7EE"/>
<path d="M220.576,1355.534C219.468,1349.049 222.855,1342.65 228.571,1340.428L247.092,1333.225L251.118,1349.143L220.576,1355.534Z" clip-rule="evenodd" fill-rule="evenodd" fill="#CCD7EE"/>
<path d="M304.905,1337.893C305.222,1337.829 305.527,1338.057 305.586,1338.401C305.637,1338.703 305.484,1338.994 305.232,1339.105L305.118,1339.141L220.685,1356.158C220.368,1356.222 220.063,1355.995 220.004,1355.65C219.953,1355.349 220.106,1355.058 220.358,1354.947L220.472,1354.911L304.905,1337.893Z" fill="#A3B5D6"/>
<path d="M261.05,1308.26L261.393,1308.277C261.491,1308.284 261.604,1308.293 261.731,1308.304C262.248,1308.351 262.822,1308.425 263.439,1308.532C265.203,1308.839 266.97,1309.355 268.631,1310.135C269.961,1310.759 271.168,1311.53 272.221,1312.465C272.974,1313.132 272.663,1314.452 271.708,1314.644C270.777,1314.832 269.421,1315.308 267.765,1316.008L267.306,1316.205C266.831,1316.41 266.34,1316.631 265.834,1316.864C265.083,1317.21 264.324,1317.572 263.577,1317.941L263.186,1318.135L263.285,1318.193C264.796,1319.107 266.309,1320.232 267.751,1321.586L268.364,1322.181C269.1,1322.917 268.671,1324.251 267.674,1324.33C266.528,1324.421 265.216,1324.67 263.773,1325.059C262.366,1325.437 260.87,1325.939 259.326,1326.533C259.003,1326.657 258.683,1326.783 258.366,1326.911L257.583,1327.234L257.82,1327.329C258.328,1327.544 258.829,1327.798 259.32,1328.097L259.807,1328.41C260.574,1328.931 261.289,1329.552 261.941,1330.28C262.38,1330.772 262.37,1331.557 261.918,1332.034C261.465,1332.511 260.743,1332.5 260.303,1332.009C259.782,1331.426 259.211,1330.93 258.598,1330.514C256.921,1329.375 255.211,1328.95 253.96,1328.916L253.7,1328.915L253.543,1328.91C252.428,1328.799 252.107,1327.097 253.182,1326.552L253.602,1326.344C253.934,1326.183 254.314,1326.003 254.734,1325.81C255.935,1325.26 257.227,1324.709 258.564,1324.195C260.173,1323.575 261.739,1323.051 263.224,1322.651C263.67,1322.531 264.105,1322.423 264.53,1322.327L264.868,1322.254L264.532,1321.985C263.948,1321.53 263.358,1321.112 262.767,1320.73L262.175,1320.361C261.763,1320.112 261.375,1319.894 261.015,1319.707L260.666,1319.531C260.401,1319.401 260.219,1319.32 260.133,1319.285C259.194,1318.905 259.129,1317.489 260.028,1317.01L261.119,1316.443L261.5,1316.249C262.622,1315.68 263.789,1315.111 264.943,1314.58L265.965,1314.118C266.132,1314.044 266.297,1313.972 266.461,1313.901L267.427,1313.492C267.583,1313.428 267.737,1313.366 267.888,1313.306L268.779,1312.962L268.678,1312.902L268.209,1312.65L267.725,1312.412C266.255,1311.722 264.667,1311.258 263.078,1310.981C262.66,1310.908 262.265,1310.853 261.899,1310.812L261.149,1310.746C261.082,1310.742 261.031,1310.74 260.994,1310.739C260.364,1310.723 259.866,1310.154 259.881,1309.469C259.896,1308.785 260.419,1308.243 261.05,1308.26Z" fill="#E4EBF7"/>
<path d="M263.212,1296.679C261.625,1296.829 260.293,1297.028 259.315,1297.217L258.931,1297.294C258.803,1297.321 258.681,1297.371 258.569,1297.443C257.238,1298.295 256.598,1299.408 256.836,1300.659C257.007,1301.555 257.574,1302.264 258.389,1302.891C258.885,1303.273 259.37,1303.548 259.718,1303.71L259.85,1303.8L261.053,1304.533C261.436,1304.763 261.845,1305.006 262.277,1305.26C264.336,1306.468 266.504,1307.676 268.681,1308.804C270.109,1309.545 271.495,1310.226 272.825,1310.837C277.284,1312.886 280.862,1314.041 283.351,1314.04C286.922,1314.039 288.387,1311.537 286.956,1307.262C284.787,1300.775 279.183,1297.515 271.468,1296.682C268.772,1296.391 265.975,1296.419 263.212,1296.679ZM271.242,1299.15C277.995,1299.88 282.749,1302.56 284.661,1307.688L284.81,1308.109C285.717,1310.819 285.283,1311.559 283.35,1311.56C281.257,1311.561 277.905,1310.479 273.714,1308.553C272.418,1307.957 271.062,1307.291 269.664,1306.566C267.524,1305.456 265.39,1304.267 263.362,1303.077L262.157,1302.362L260.738,1301.496C260.405,1301.331 260.051,1301.131 259.709,1300.867C259.323,1300.57 259.097,1300.287 259.072,1300.156L259.072,1300.138C259.083,1300.088 259.161,1299.978 259.438,1299.776L259.563,1299.688L260.038,1299.598C260.916,1299.441 262.065,1299.277 263.409,1299.15C266.041,1298.902 268.7,1298.876 271.242,1299.15Z" fill="#E4EBF7"/>
<path d="M492.298,938.893C483.21,921.248 463.807,914.415 449.331,923.767L293.704,1024.306C281.719,1032.049 278.157,1049.896 285.683,1064.508C293.211,1079.12 309.071,1085.16 321.416,1078.109L481.688,986.594C496.596,978.082 501.386,956.54 492.298,938.893Z" clip-rule="evenodd" fill-rule="evenodd" fill="#FFC999"/>
<path d="M228.567,1302.424C218.856,1298.86 213.464,1287.6 216.356,1276.916L278.196,1048.358C282.65,1031.893 298.815,1022.758 313.778,1028.248C328.743,1033.739 336.502,1051.649 330.86,1067.678L252.511,1290.178C248.849,1300.582 238.281,1305.988 228.567,1302.424Z" clip-rule="evenodd" fill-rule="evenodd" fill="#FFC999"/>
<path d="M211.486,1293.49L246.566,1307.962L269.225,1247.371L228.954,1230.752L211.486,1293.49Z" clip-rule="evenodd" fill-rule="evenodd" fill="#FFFFFF"/>
<path d="M223.207,1248.463C223.409,1247.874 223.978,1247.551 224.527,1247.686L224.675,1247.734L259.209,1261.723C259.8,1261.962 260.1,1262.677 259.88,1263.318C259.678,1263.907 259.109,1264.23 258.561,1264.095L258.412,1264.047L223.878,1250.058C223.287,1249.819 222.987,1249.104 223.207,1248.463Z" fill="#E4EBF7"/>
<path d="M214.109,1284.317L249.929,1298.827L227.278,1370.85L146.566,1338.154L150.126,1327.132C151.445,1323.083 155.245,1320.646 159.144,1321.346L182.919,1323.18L196.264,1320.83C200.283,1320.12 203.612,1317.083 204.935,1312.897C207.776,1303.902 212.61,1288.65 214.109,1284.317Z" clip-rule="evenodd" fill-rule="evenodd" fill="#4E5C93"/>
<path d="M144.565,1340.654C143.803,1340.345 143.414,1339.421 143.699,1338.593L147.063,1328.79C147.347,1327.96 148.196,1327.54 148.957,1327.849L229.424,1360.444C230.186,1360.752 230.575,1361.674 230.29,1362.502L226.926,1372.307C226.642,1373.137 225.793,1373.557 225.03,1373.248L144.565,1340.654Z" clip-rule="evenodd" fill-rule="evenodd" fill="#CCD7EE"/>
<path d="M147.477,1326.843C149.597,1320.663 157.752,1317.068 163.705,1318.357L180.78,1322.531L176.694,1338.431L147.477,1326.843Z" clip-rule="evenodd" fill-rule="evenodd" fill="#CCD7EE"/>
<path d="M147.5,1327.526C147.598,1327.238 147.868,1327.075 148.137,1327.12L148.251,1327.153L228.714,1359.748C229.016,1359.87 229.17,1360.235 229.057,1360.564C228.958,1360.851 228.689,1361.015 228.42,1360.969L228.306,1360.937L147.843,1328.342C147.541,1328.22 147.387,1327.854 147.5,1327.526Z" fill="#A3B5D6"/>
<path d="M199.025,1314.26C199.364,1313.684 200.072,1313.513 200.608,1313.878L200.887,1314.076C201.155,1314.274 201.507,1314.55 201.922,1314.9C202.883,1315.713 203.843,1316.65 204.741,1317.704C206.306,1319.541 207.52,1321.538 208.238,1323.683C208.569,1324.672 207.673,1325.625 206.757,1325.258C205.715,1324.84 203.993,1324.437 201.81,1324.071C200.755,1323.894 199.642,1323.733 198.514,1323.59L197.75,1323.496L197.85,1323.678C198.078,1324.105 198.302,1324.554 198.522,1325.025L198.847,1325.745C199.41,1327.039 199.898,1328.404 200.289,1329.832C200.573,1330.869 199.568,1331.77 198.671,1331.283C197.326,1330.552 195.615,1329.897 193.629,1329.323C192.356,1328.955 191.019,1328.634 189.66,1328.356L188.584,1328.146L188.72,1328.325C189.634,1329.582 190.339,1331.015 190.764,1332.627L190.895,1333.171C191.041,1333.835 190.659,1334.5 190.042,1334.656C189.425,1334.813 188.807,1334.401 188.662,1333.738C188.307,1332.121 187.607,1330.715 186.658,1329.51C186.16,1328.878 185.626,1328.344 185.095,1327.906L184.813,1327.682C184.644,1327.554 184.516,1327.467 184.442,1327.422C183.353,1326.768 183.879,1324.979 185.119,1325.117L185.913,1325.218L186.895,1325.36C187.239,1325.413 187.598,1325.471 187.97,1325.535C190.099,1325.898 192.229,1326.362 194.224,1326.938C195.169,1327.211 196.06,1327.503 196.89,1327.814L197.238,1327.949L197.07,1327.511L196.769,1326.793C196.28,1325.672 195.757,1324.67 195.236,1323.803L194.885,1323.238C194.749,1323.028 194.643,1322.874 194.572,1322.779C193.944,1321.933 194.562,1320.688 195.565,1320.779L196.849,1320.91C197.099,1320.937 197.359,1320.966 197.629,1320.997C199.173,1321.177 200.718,1321.388 202.163,1321.631C203.058,1321.781 203.882,1321.937 204.626,1322.101L205.033,1322.192L204.853,1321.874C204.445,1321.187 203.975,1320.514 203.452,1319.86L203.05,1319.373C202.241,1318.425 201.372,1317.576 200.504,1316.842L200.093,1316.503C199.777,1316.248 199.532,1316.067 199.38,1315.964C198.845,1315.599 198.686,1314.836 199.025,1314.26Z" transform="rotate(30.315 196.079 1324.188)" fill="#E4EBF7"/>
<path d="M206.306,1308.813C203.911,1308.792 202.826,1310.304 203.253,1312.352C203.355,1312.837 203.531,1313.324 203.762,1313.812C203.969,1314.25 204.176,1314.604 204.326,1314.829L204.522,1315.224L205.281,1316.654C205.552,1317.159 205.842,1317.692 206.149,1318.249C207.612,1320.901 209.163,1323.554 210.736,1326.034C211.982,1328 213.192,1329.776 214.35,1331.319C216.807,1334.593 218.941,1336.719 220.791,1337.481C223.407,1338.559 225.319,1336.935 226.005,1333.101C227.224,1326.275 223.905,1320.313 217.6,1315.267C215.408,1313.512 212.985,1311.98 210.491,1310.67C209.236,1310.011 208.147,1309.501 207.306,1309.143L206.686,1308.888C206.564,1308.84 206.436,1308.815 206.306,1308.813ZM205.836,1311.295L206.089,1311.292L206.79,1311.589C207.529,1311.914 208.451,1312.353 209.497,1312.903C211.873,1314.151 214.178,1315.609 216.246,1317.264C221.918,1321.803 224.779,1326.943 223.764,1332.628C223.321,1335.102 222.712,1335.62 221.6,1335.162C220.239,1334.601 218.336,1332.705 216.119,1329.752C215.004,1328.265 213.829,1326.541 212.616,1324.627C211.074,1322.195 209.548,1319.585 208.108,1316.974L207.253,1315.404L206.299,1313.599C206.28,1313.562 206.264,1313.53 206.249,1313.501C206.089,1313.245 205.941,1312.992 205.793,1312.679C205.643,1312.361 205.533,1312.059 205.48,1311.804L205.443,1311.613C205.407,1311.371 205.466,1311.308 205.836,1311.295Z" fill="#E4EBF7"/>
<path d="M392.814,739.941C388.79,751.306 381.251,770.91 380.904,783.543C380.342,804.025 393.425,818.343 393.425,818.343C393.425,818.343 393.2,812.345 397.449,865.021C453.961,871.847 488.939,858.077 488.939,858.077L487.038,844.167L494.196,810.487C494.196,810.487 498.997,797.798 508.735,769.556C515.506,749.923 513.585,726.29 511.784,713.707C511.013,708.317 507.269,703.995 502.359,702.852C485.204,698.859 478.815,699.134 478.815,699.134L476.523,687.161C476.135,685.11 474.412,683.687 472.491,683.817L431.403,686.633C429.638,686.754 428.172,688.158 427.841,690.047L425.572,703.011L400.458,710.17C396.516,711.292 393.711,715.085 393.551,719.51L392.814,739.941Z" clip-rule="evenodd" fill-rule="evenodd" fill="#FFFFFF"/>
<path d="M467.297,699.787C467.686,699.761 468.022,700.082 468.046,700.505C468.068,700.881 467.837,701.21 467.512,701.298L467.386,701.319L430.391,703.855C430.002,703.881 429.667,703.56 429.642,703.137C429.62,702.761 429.851,702.431 430.176,702.344L430.302,702.323L467.297,699.787Z" fill="#4E5C93"/>
<path d="M478.46,695.81C478.808,695.42 479.382,695.41 479.741,695.789C480.06,696.125 480.102,696.655 479.863,697.043L479.76,697.181L432.759,749.819C432.286,750.349 431.484,750.139 431.26,749.479L431.221,749.331L422.636,703.806C422.535,703.273 422.851,702.753 423.342,702.644C423.783,702.546 424.215,702.814 424.37,703.257L424.411,703.411L432.652,747.111L478.46,695.81Z" fill="#CCD7EE"/>
<path d="M416.24,757.733C412.575,765.532 414.972,774.833 421.591,778.51C428.214,782.185 436.552,778.841 440.221,771.042C443.887,763.244 441.491,753.943 434.869,750.268C428.247,746.591 419.906,749.935 416.24,757.733Z" clip-rule="evenodd" fill-rule="evenodd" fill="#CCD7EE"/>
<path d="M414.766,757.798C411.1,765.597 413.496,774.898 420.116,778.573C426.741,782.247 435.079,778.906 438.746,771.107C442.412,763.307 440.016,754.005 433.396,750.331C426.772,746.656 418.431,750 414.766,757.798Z" clip-rule="evenodd" fill-rule="evenodd" fill="#E4EBF7"/>
<path d="M417.447,758.929C414.6,764.986 416.461,772.207 421.602,775.061C426.745,777.913 433.221,775.317 436.065,769.263C438.912,763.207 437.051,755.986 431.913,753.134C426.769,750.279 420.294,752.876 417.447,758.929Z" clip-rule="evenodd" fill-rule="evenodd" fill="#8352FD"/>
<path d="M511.72,712.943C512.109,712.904 512.452,713.215 512.488,713.637L512.719,716.591L512.892,718.969C513.007,720.594 513.12,722.296 513.228,724.047C513.436,727.426 513.609,730.733 513.735,733.885L513.795,735.448C514.052,742.633 514.034,748.4 513.671,752.252C513.292,756.272 511.437,762.913 508.458,771.509L508.166,772.347C507.586,774.005 506.971,775.717 506.325,777.472C505.034,780.985 503.669,784.547 502.289,788.038L500.662,792.105L499.106,795.894L498.985,796.164L487.118,844.498L489.242,858.695C489.292,859.03 489.133,859.355 488.863,859.503L488.74,859.555L487.796,859.834L487.559,859.902C486.595,860.176 485.462,860.48 484.166,860.808C480.469,861.744 476.213,862.68 471.457,863.553C448.566,867.755 423.263,869.029 397.229,865.604C396.891,865.56 396.631,865.26 396.609,864.891L396.427,862.514C396.208,859.882 395.812,855.377 395.271,849.374L393.427,829.119L392.613,820.277L392.168,819.493L391.639,818.536C391.363,818.032 391.072,817.49 390.768,816.913C389.321,814.17 387.874,811.201 386.523,808.114C384.698,803.945 383.193,799.885 382.117,796.054C381.135,792.561 380.533,789.337 380.365,786.434C379.937,779.072 380.482,773.266 382.093,767.296C382.95,764.121 384.108,760.861 385.813,756.718L386.508,755.056C386.875,754.194 387.389,753.005 387.959,751.689L392.226,741.907L391.94,729.513C391.931,729.136 392.174,728.816 392.502,728.743L392.628,728.727C392.975,728.717 393.269,728.981 393.337,729.337L393.352,729.474L393.643,742.052L393.576,742.398L388.035,755.127C387.79,755.698 387.589,756.172 387.447,756.511C385.575,761 384.341,764.421 383.448,767.728C381.885,773.521 381.357,779.149 381.774,786.337C381.935,789.109 382.516,792.219 383.467,795.606C384.522,799.358 386.002,803.349 387.798,807.455C389.133,810.504 390.563,813.439 391.993,816.15L392.576,817.242C392.764,817.59 392.945,817.922 393.119,818.236L393.894,819.607L394.002,819.943L397.226,855.363C397.519,858.669 397.738,861.205 397.873,862.857L397.975,864.154L399.163,864.306C423.841,867.354 447.831,866.182 469.665,862.32L471.221,862.04C475.554,861.245 479.468,860.397 482.917,859.546L483.846,859.314C484.915,859.043 485.872,858.789 486.712,858.555L487.744,858.26L485.7,844.58L485.715,844.259L497.66,795.648L498.813,792.857C499.082,792.196 499.365,791.499 499.659,790.768L499.957,790.027C501.681,785.731 503.405,781.278 505.014,776.903C505.656,775.155 506.268,773.452 506.846,771.801L507.664,769.431C510.292,761.701 511.926,755.706 512.266,752.096L512.347,751.115C512.609,747.542 512.617,742.514 512.414,736.39L512.383,735.507C512.254,731.908 512.06,728.078 511.818,724.15L511.654,721.571C511.598,720.726 511.541,719.897 511.484,719.086L511.081,713.777C511.046,713.355 511.332,712.981 511.72,712.943Z" fill="#4E5C93"/>
<path d="M473.377,874.135C507.139,874.135 525.895,1001.852 549.191,1050.004C545.883,1059.303 529.997,1074.478 529.997,1074.478C529.997,1074.478 530.717,1082.29 531.175,1086.988C513.107,1099.742 480.289,1103.854 480.289,1103.854L479.541,1110.402C425.753,1129.724 359.818,1096.824 359.818,1096.824C359.818,1096.824 358.688,1095.25 360.138,1090.22C336.95,1087.086 290.555,1048.998 290.555,1048.998L296.997,1036.138L247.031,967.204C247.031,967.204 344.285,903.306 372.083,885.005C397.097,868.535 392.718,865.982 392.718,865.982C392.718,865.982 438.667,874.135 473.377,874.135Z" clip-rule="evenodd" fill-rule="evenodd" fill="url(#pf_0_i_109_1236;153_5705)"/>
<path d="M321.344,998.607C321.612,998.176 322.151,998.064 322.547,998.355C322.899,998.614 323.02,999.105 322.854,999.513L322.779,999.661L292.651,1048.045L292.97,1048.369L293.968,1049.352L294.342,1049.715C296.182,1051.484 298.358,1053.457 300.858,1055.583C308.006,1061.663 316.314,1067.744 325.688,1073.42C336.401,1079.907 347.834,1085.444 359.922,1089.736C360.377,1089.897 360.625,1090.429 360.477,1090.923C360.328,1091.417 359.839,1091.686 359.384,1091.525C347.186,1087.194 335.651,1081.608 324.845,1075.064C315.388,1069.338 307.007,1063.203 299.79,1057.065C297.515,1055.13 295.504,1053.319 293.764,1051.668L293.194,1051.124C292.802,1050.746 292.441,1050.394 292.113,1050.068L291.082,1049.025C291.011,1048.952 290.956,1048.894 290.916,1048.851C290.655,1048.573 290.586,1048.152 290.73,1047.799L290.805,1047.652L321.344,998.607Z" fill="#253368"/>
<path d="M499.401,962.902C499.816,962.775 500.245,962.998 500.421,963.409L500.47,963.552L532.762,1087.783C532.874,1088.216 532.689,1088.675 532.319,1088.878L531.964,1089.069C531.717,1089.201 531.387,1089.372 530.979,1089.581L530.005,1090.071C529.159,1090.491 528.224,1090.942 527.206,1091.416C523.138,1093.311 518.571,1095.205 513.609,1096.973C502.788,1100.828 491.649,1103.536 480.608,1104.587C480.131,1104.632 479.711,1104.249 479.669,1103.731C479.628,1103.214 479.98,1102.757 480.457,1102.712C491.354,1101.675 502.366,1098.998 513.07,1095.184C517.981,1093.435 522.5,1091.56 526.524,1089.686L527.689,1089.136C528.252,1088.868 528.784,1088.608 529.284,1088.36L530.682,1087.651L530.897,1087.538L498.803,964.064C498.686,963.614 498.892,963.147 499.269,962.956L499.401,962.902Z" fill="#253368"/>
<path d="M462.869,858.444C463.298,858.404 463.68,858.711 463.782,859.15L463.81,859.366L465.648,883.334C465.944,887.253 466.252,891.346 466.569,895.599L467.526,908.49C468.958,927.928 470.381,947.784 471.748,967.566L472.65,980.738C473.318,990.572 473.958,1000.204 474.568,1009.599L475.483,1023.887C477.631,1057.882 479.274,1087.422 480.299,1111.292C480.318,1111.75 480.031,1112.158 479.619,1112.256C448.307,1119.704 415.255,1116.62 383.562,1106.958C376.831,1104.908 370.714,1102.71 365.325,1100.51L363.951,1099.942C362.842,1099.48 361.823,1099.038 360.896,1098.626L359.652,1098.062L358.601,1097.566C358.245,1097.392 358.046,1096.984 358.101,1096.576L358.133,1096.424L418.454,891.186C418.599,890.691 419.087,890.417 419.542,890.575C419.953,890.718 420.197,891.161 420.136,891.609L420.104,891.758L360.02,1096.186L361.016,1096.644L362.114,1097.132C363.066,1097.552 364.111,1097.998 365.243,1098.466L365.934,1098.748C371.278,1100.93 377.349,1103.11 384.029,1105.146C414.997,1114.586 447.259,1117.696 477.838,1110.744L478.534,1110.582L478.157,1102.206C477.153,1080.648 475.708,1055.066 473.894,1026.217L473.355,1017.724L472.577,1005.692C472.047,997.583 471.495,989.304 470.922,980.877L470.02,967.707C468.654,947.928 467.232,928.075 465.799,908.64L463.796,881.82L462.08,859.461C462.039,858.944 462.392,858.488 462.869,858.444Z" fill="#253368"/>
<path d="M441.871,859.507C442.301,859.535 442.64,859.897 442.684,860.348L442.688,860.501L433.778,1033.26C433.751,1033.779 433.343,1034.176 432.865,1034.149C432.435,1034.121 432.096,1033.759 432.052,1033.308L432.049,1033.155L440.958,860.396C440.985,859.877 441.394,859.48 441.871,859.507Z" fill="#253368"/>
<path d="M405.783,877.367C406.061,876.945 406.603,876.848 406.991,877.151C407.337,877.42 407.445,877.915 407.269,878.318L407.19,878.464L341.388,978.086C341.109,978.509 340.568,978.605 340.18,978.302C339.834,978.033 339.725,977.538 339.901,977.135L339.981,976.989L405.783,877.367Z" fill="#253368"/>
<path d="M320.614,910.411L427.545,904.439L326.67,858.161L237.666,872.563L320.614,910.411Z" clip-rule="evenodd" fill-rule="evenodd" fill="#253368"/>
<path d="M317.429,901.988L395.091,897.65L323.642,864.093L257.186,874.501L317.429,901.988Z" clip-rule="evenodd" fill-rule="evenodd" fill="#4E5C93"/>
<path d="M426.907,910.328L427.564,904.479L318.523,909.638L319.729,916.102L426.907,910.328Z" clip-rule="evenodd" fill-rule="evenodd" fill="#FFFFFF"/>
<path d="M308.549,867.631C308.643,867.422 308.856,867.318 309.056,867.368L309.155,867.407L366.929,898.274C367.153,898.394 367.246,898.689 367.135,898.933C367.041,899.142 366.828,899.245 366.628,899.195L366.529,899.157L308.755,868.29C308.531,868.17 308.438,867.875 308.549,867.631Z" fill="#CCD7EE"/>
<path d="M316.862,865.078C316.953,864.867 317.164,864.76 317.365,864.806L317.465,864.843L382.196,897.978C382.422,898.094 382.519,898.387 382.413,898.633C382.321,898.844 382.11,898.951 381.909,898.905L381.81,898.868L317.078,865.733C316.852,865.617 316.755,865.324 316.862,865.078Z" fill="#CCD7EE"/>
<path d="M307.065,873.464C307.162,873.256 307.377,873.155 307.576,873.209L307.674,873.248L356.106,900.038C356.329,900.161 356.417,900.457 356.304,900.7C356.206,900.907 355.992,901.008 355.792,900.955L355.694,900.915L307.263,874.126C307.04,874.002 306.952,873.706 307.065,873.464Z" fill="#CCD7EE"/>
<path d="M293.088,873.368C293.186,873.161 293.4,873.06 293.6,873.113L293.698,873.153L342.129,899.945C342.352,900.068 342.441,900.365 342.327,900.607C342.23,900.815 342.016,900.915 341.816,900.862L341.718,900.822L293.287,874.03C293.064,873.907 292.975,873.611 293.088,873.368Z" fill="#CCD7EE"/>
<path d="M280.085,874.26C280.182,874.052 280.396,873.952 280.596,874.005L280.694,874.045L329.125,900.834C329.348,900.957 329.437,901.254 329.323,901.496C329.226,901.704 329.012,901.804 328.812,901.751L328.714,901.711L280.283,874.922C280.06,874.799 279.971,874.502 280.085,874.26Z" fill="#CCD7EE"/>
<path d="M382.949,892.616C383.2,892.612 383.406,892.828 383.41,893.1C383.414,893.333 383.268,893.531 383.069,893.586L382.965,893.6L316.748,894.831C316.498,894.836 316.292,894.619 316.287,894.347C316.284,894.114 316.43,893.916 316.629,893.862L316.732,893.847L382.949,892.616Z" fill="#CCD7EE"/>
<path d="M368.99,885.39C369.24,885.386 369.446,885.602 369.451,885.874C369.454,886.107 369.308,886.305 369.109,886.36L369.006,886.374L302.791,887.607C302.541,887.612 302.334,887.396 302.33,887.124C302.327,886.891 302.472,886.693 302.672,886.638L302.775,886.623L368.99,885.39Z" fill="#CCD7EE"/>
<path d="M351.381,879.616C351.631,879.611 351.837,879.828 351.842,880.1C351.845,880.333 351.7,880.531 351.5,880.585L351.397,880.6L285.18,881.831C284.929,881.835 284.723,881.619 284.719,881.347C284.715,881.114 284.861,880.916 285.06,880.861L285.164,880.847L351.381,879.616Z" fill="#CCD7EE"/>
<path d="M340.184,868.387C340.434,868.383 340.64,868.599 340.644,868.871C340.648,869.104 340.502,869.302 340.303,869.357L340.199,869.372L273.982,870.604C273.732,870.609 273.526,870.393 273.522,870.121C273.518,869.888 273.664,869.69 273.863,869.635L273.967,869.62L340.184,868.387Z" fill="#CCD7EE"/>
<path d="M319.645,916.095L314.877,915.996L236.493,878.979L218.254,726.27L303.742,755.274L319.645,916.095Z" clip-rule="evenodd" fill-rule="evenodd" fill="#FFFFFF"/>
<path d="M314.706,915.986L232.04,876.99C231.288,876.635 230.757,875.873 230.65,874.985L212.976,728.214C212.754,726.368 214.368,724.896 216.002,725.453L297.08,753.092C297.969,753.396 298.608,754.241 298.708,755.247L314.706,915.986Z" clip-rule="evenodd" fill-rule="evenodd" fill="url(#pf_0_i_109_1236;153_5724)"/>
<path d="M528.234,879.424L526.446,879.771C514.186,882.138 502.478,873.261 500.297,859.94L480.178,737.051C477.999,723.73 486.171,711.012 498.43,708.64L500.22,708.295C512.478,705.926 524.188,714.805 526.366,728.126L546.486,851.013C548.666,864.334 540.494,877.054 528.234,879.424Z" clip-rule="evenodd" fill-rule="evenodd" fill="#FFC999"/>
<path d="M535.029,781.036L525.656,723.789C523.397,709.988 511.157,700.706 498.455,703.16C485.754,705.616 477.209,718.915 479.468,732.714L488.752,789.42L535.029,781.036Z" clip-rule="evenodd" fill-rule="evenodd" fill="#FFFFFF"/>
<path d="M526.201,722.904C526.543,722.838 526.87,723.05 526.987,723.391L527.02,723.525L536.392,780.774C536.453,781.146 536.255,781.503 535.94,781.628L535.816,781.664L487.876,790.652C487.539,790.715 487.215,790.507 487.097,790.171L487.062,790.04L478.935,743.844C478.861,743.428 479.113,743.026 479.496,742.947C479.836,742.876 480.166,743.084 480.287,743.423L480.322,743.556L488.319,789.01L534.876,780.282L525.63,723.794C525.569,723.423 525.765,723.067 526.078,722.94L526.201,722.904Z" fill="#4E5C93"/>
<path d="M389.182,875.269C389.699,882.37 395.266,887.773 401.817,887.534L528.295,882.911C539.905,882.069 548.644,871.078 547.724,858.476C546.796,845.763 536.41,836.377 524.733,837.702L399.33,861.087C393.083,862.25 388.68,868.403 389.182,875.269Z" clip-rule="evenodd" fill-rule="evenodd" fill="#FFC999"/>
<path d="M413.305,886.705C404.453,894.233 375.786,891.241 375.786,891.241L357.31,902.506C354.436,903.946 353.637,901.862 352.186,901.944C348.276,902.166 348.063,897.705 348.063,897.705C346.681,897.084 344.563,898.327 343.783,894.324C343.783,894.324 341.036,894.266 340.668,890.666C340.474,888.765 356.981,860.217 356.981,860.217L383.612,859.505C383.612,859.505 422.496,858.103 427.306,867.325C432.114,876.547 413.305,886.705 413.305,886.705Z" clip-rule="evenodd" fill-rule="evenodd" fill="#FFC999"/>
<path d="M356.441,858.211L404.619,859.596C405.103,859.61 405.485,860.047 405.472,860.572C405.46,861.045 405.133,861.429 404.715,861.49L404.573,861.499L356.894,860.128L354.614,864.106L352.33,868.125C351.952,868.792 351.576,869.458 351.203,870.121L347.966,875.92C343.902,883.281 341.059,888.825 340.979,889.471L340.978,889.506C341.031,890.029 340.685,890.499 340.204,890.558C339.723,890.616 339.29,890.24 339.236,889.717C339.132,888.701 341.103,884.711 345.152,877.322L347.512,873.05C348.941,870.483 350.451,867.802 351.978,865.116L355.676,858.656C355.817,858.412 356.051,858.253 356.31,858.218L356.441,858.211Z" fill="#DD936F"/>
<path d="M366.715,866.928C367.155,866.709 367.675,866.919 367.876,867.397C368.058,867.827 367.919,868.327 367.569,868.583L367.445,868.659L357.665,873.527L344.51,894.855C344.268,895.248 343.803,895.382 343.419,895.191L343.295,895.115C342.933,894.852 342.81,894.347 342.985,893.93L343.055,893.795L356.348,872.246C356.415,872.136 356.503,872.044 356.604,871.973L356.71,871.911L366.715,866.928Z" fill="#DD936F"/>
<path d="M368.79,874.633C369.227,874.408 369.75,874.611 369.957,875.086C370.143,875.513 370.011,876.016 369.664,876.276L369.54,876.353L361.805,880.333L348.749,898.293C348.483,898.66 348.018,898.756 347.651,898.544L347.519,898.45C347.181,898.16 347.093,897.655 347.288,897.257L347.374,897.113L360.559,878.978C360.614,878.902 360.68,878.835 360.754,878.78L360.871,878.708L368.79,874.633Z" fill="#DD936F"/>
<path d="M376.669,878.73C377.095,878.481 377.626,878.654 377.856,879.117C378.062,879.534 377.954,880.043 377.62,880.322L377.5,880.407L366.786,886.674L353.278,901.986C352.98,902.323 352.509,902.371 352.163,902.122L352.039,902.014C351.729,901.691 351.685,901.179 351.914,900.803L352.013,900.669L365.615,885.251L365.832,885.071L376.669,878.73Z" fill="#DD936F"/>
<path d="M246.494,966.465C246.828,966.179 247.296,966.203 247.603,966.499L247.711,966.622L297.676,1035.556C297.972,1035.964 297.908,1036.556 297.532,1036.878C297.198,1037.163 296.73,1037.14 296.423,1036.844L296.316,1036.721L246.35,967.787C246.054,967.378 246.119,966.787 246.494,966.465Z" fill="#253368"/>
<defs>
<linearGradient id="pf_0_i_109_1236;153_5705" x1="398.111" y1="865.982" x2="398.111" y2="1116.483" gradientUnits="userSpaceOnUse">
<stop stop-color="#4E5C93"/>
<stop offset="1" stop-color="#C961DE"/>
</linearGradient>
<linearGradient id="pf_0_i_109_1236;153_5724" x1="408.922" y1="818.515" x2="263.831" y2="915.986" gradientUnits="userSpaceOnUse">
<stop offset="0.503" stop-color="#0500FF" stop-opacity="0.8"/>
<stop offset="1" stop-color="#994A88" stop-opacity="0.8"/>
</linearGradient>
</defs>
</svg>
