<svg width="758" height="1648" viewBox="0 0 758 1648" fill="none" xmlns="http://www.w3.org/2000/svg" xmlns:xlink="http://www.w3.org/1999/xlink">
<path d="M331.316,628.278C331.316,628.278 307.392,624.509 301.07,651.983C277.886,661.145 284.21,688.622 284.21,688.622C284.21,688.622 272.565,710.207 295.696,721.265C297.546,743.378 320.676,739.358 320.676,739.358C320.676,739.358 326.228,756.448 343.807,749.41C362.774,765.438 398.519,762.222 411.212,742.628C436.377,763.038 480.167,738.123 474.673,719.491C504.065,717.556 518.315,683.688 501.093,654.917C514.321,632.16 499.241,618.728 499.241,618.728C499.241,618.728 503.405,566.454 470.099,559.418C452.981,531.271 415.973,553.888 415.973,553.888C415.973,553.888 391.455,548.361 382.665,571.48C355.268,576.06 356.554,592.423 354.447,606.162C329.928,607.67 331.316,628.278 331.316,628.278Z" clip-rule="evenodd" fill-rule="evenodd" fill="#253368"/>
<path d="M407.338,602.755C426.545,606.417 432.386,590.625 432.386,590.625C432.386,590.625 440.311,568.382 442.343,582.036C443.42,589.294 453.747,579.664 458.494,587.4C461.69,592.606 453.702,599.316 464.084,613.2C470.1,621.242 446.372,627.657 461.01,642.482C461.01,642.482 450.602,660.575 468.479,666.477L470.373,687.695C471.477,700.041 462.534,710.728 451.117,710.708C440.231,710.689 431.508,700.905 431.837,689.082L432.559,663.215C404.804,663.215 403.45,621.765 407.338,602.755Z" clip-rule="evenodd" fill-rule="evenodd" fill="#FFC999"/>
<path d="M441.006,624.818C441.488,624.295 442.268,624.295 442.749,624.818C443.231,625.341 443.231,626.189 442.75,626.712C442.125,627.391 440.994,628.362 439.403,629.324C436.266,631.22 432.668,632.206 428.706,631.788C428.028,631.717 427.532,631.062 427.598,630.326C427.664,629.59 428.266,629.051 428.944,629.123C432.368,629.484 435.479,628.631 438.204,626.983C439.008,626.497 439.716,625.978 440.318,625.461L440.629,625.185C440.81,625.02 440.937,624.894 441.006,624.818Z" fill="#F5222D"/>
<path d="M426.794,605.231L426.792,604.871C426.831,604.415 427.169,604.043 427.603,604.009C428.037,603.976 428.42,604.293 428.517,604.738L428.541,604.932L428.542,604.973C428.573,605.89 428.421,607.289 427.936,609.11C427.287,611.548 426.163,614.215 424.469,617.072L424.163,617.574L424.651,617.903L425.836,618.686C426.984,619.436 428.023,620.089 428.954,620.651L429.41,620.924C429.867,621.196 430.269,621.428 430.616,621.621L431.325,622.005C431.764,622.225 431.956,622.79 431.754,623.268C431.551,623.745 431.03,623.953 430.591,623.733L430.219,623.537L429.535,623.157C429.341,623.047 429.134,622.927 428.912,622.797L428.57,622.595C426.898,621.602 424.865,620.304 422.462,618.666C422.038,618.377 421.923,617.761 422.209,617.315C424.261,614.121 425.558,611.192 426.253,608.581C426.649,607.093 426.791,605.962 426.794,605.231Z" fill="#DD936F"/>
<path d="M453.55,603.757C454.205,603.757 454.735,604.333 454.735,605.044C454.735,609.992 451.304,614.047 447.021,614.047C442.74,614.047 439.31,609.993 439.31,605.044C439.31,604.333 439.841,603.757 440.495,603.757C441.149,603.757 441.68,604.333 441.68,605.044C441.68,608.617 444.095,611.473 447.021,611.473C449.948,611.473 452.366,608.616 452.366,605.044C452.366,604.333 452.896,603.757 453.55,603.757Z" fill="#253368"/>
<path d="M422.334,604.64C422.955,604.64 423.459,605.188 423.459,605.862C423.459,610.752 420.376,614.801 416.46,614.801C412.543,614.801 409.462,610.753 409.462,605.862C409.462,605.188 409.965,604.64 410.587,604.64C411.208,604.64 411.711,605.188 411.711,605.862C411.711,609.495 413.89,612.357 416.46,612.357C419.03,612.357 421.209,609.494 421.209,605.862C421.209,605.188 421.713,604.64 422.334,604.64Z" fill="#253368"/>
<path d="M440.044,589.596C444.572,588.016 449.362,587.807 453.886,589.88C454.719,590.261 455.531,590.718 456.318,591.252C456.873,591.629 457.042,592.423 456.695,593.026C456.348,593.629 455.617,593.812 455.062,593.436C454.382,592.974 453.683,592.581 452.966,592.252C449.041,590.454 444.805,590.638 440.768,592.047C440.259,592.225 439.786,592.412 439.357,592.601L438.942,592.79C438.629,592.938 438.417,593.049 438.317,593.106C437.739,593.438 437.022,593.197 436.717,592.568C436.411,591.94 436.633,591.161 437.212,590.829C437.769,590.51 438.741,590.051 440.044,589.596Z" fill="#253368"/>
<path d="M449.148,657.699C449.573,657.448 450.105,657.618 450.337,658.08C450.568,658.542 450.411,659.12 449.986,659.371C444.353,662.703 438.492,664.382 432.598,664.469C432.114,664.477 431.716,664.056 431.71,663.531C431.703,663.005 432.09,662.573 432.574,662.566C438.183,662.483 443.764,660.884 449.148,657.699Z" fill="#DD936F"/>
<path d="M382.537,893.787C369.721,891.729 360.865,878.774 362.76,864.85L381.203,729.161C383.095,715.237 395.018,705.614 407.835,707.67C420.649,709.728 429.503,722.682 427.613,736.607L409.168,872.298C407.276,886.223 395.353,895.842 382.537,893.787Z" clip-rule="evenodd" fill-rule="evenodd" fill="#FFC999"/>
<path d="M419.793,794.127L427.612,736.606C429.497,722.74 420.596,709.718 407.834,707.669C395.072,705.623 383.089,715.294 381.203,729.16L373.458,786.134L419.793,794.127Z" clip-rule="evenodd" fill-rule="evenodd" fill="#FFFFFF"/>
<path d="M408.607,707.019C421.602,709.104 430.706,722.226 429.046,736.323L428.982,736.827L421.161,794.348C421.11,794.723 420.817,794.994 420.48,795.003L420.352,794.994L374.019,787C373.634,786.934 373.371,786.54 373.432,786.122C373.487,785.75 373.778,785.483 374.113,785.475L374.24,785.484L419.867,793.355L427.585,736.603C429.389,723.322 420.993,710.839 408.863,708.616L408.401,708.537C408.015,708.475 407.748,708.085 407.805,707.666C407.856,707.293 408.145,707.023 408.48,707.011L408.607,707.019Z" fill="#4E5C93"/>
<path d="M300.759,849.077C300.575,854.053 304.024,858.304 308.587,858.729L396.701,866.971C404.819,867.436 411.728,860.603 412.054,851.775C412.388,842.869 405.899,835.416 397.695,835.279L308.89,840.155C304.464,840.399 300.939,844.266 300.759,849.077Z" clip-rule="evenodd" fill-rule="evenodd" fill="#FFC999"/>
<path d="M292.128,836.473C292.128,836.473 307.955,835.112 312.006,844.278C315.677,852.581 308.497,857.558 308.497,857.558C308.497,857.558 302.077,863.733 293.068,867.106C287.132,869.326 275.446,872.305 273.952,869.075C272.002,864.862 285.408,862.326 284.909,858.941C284.398,855.464 281.591,855.765 275.004,854.168C270.889,853.169 266.47,853.946 263.128,852.378C256.599,849.311 268.233,836.367 292.128,836.473Z" clip-rule="evenodd" fill-rule="evenodd" fill="#FFC999"/>
<path d="M263.999,847.791C269.912,846.221 275.259,846.487 279.794,847.884C280.615,848.137 281.339,848.409 281.962,848.682L282.365,848.866C282.538,848.949 282.67,849.016 282.759,849.066C283.189,849.306 283.359,849.879 283.138,850.347C282.918,850.815 282.39,851 281.959,850.76L281.65,850.604C281.553,850.558 281.438,850.506 281.306,850.448C280.74,850.199 280.075,849.949 279.316,849.716C275.058,848.404 270.016,848.153 264.415,849.641C263.945,849.765 263.471,849.453 263.356,848.942C263.241,848.431 263.529,847.916 263.999,847.791Z" fill="#DD936F"/>
<path d="M270.966,842.505C275.332,841.728 280.073,841.757 284.657,843.141C285.123,843.282 285.396,843.807 285.266,844.313C285.137,844.819 284.654,845.116 284.187,844.975C279.882,843.675 275.385,843.647 271.25,844.383C270.815,844.461 270.414,844.542 270.052,844.625L269.702,844.707C269.437,844.772 269.256,844.821 269.169,844.848C268.702,844.988 268.22,844.691 268.091,844.184C267.961,843.678 268.235,843.153 268.701,843.013L269.151,842.891L269.317,842.85C269.799,842.732 270.351,842.614 270.966,842.505Z" fill="#DD936F"/>
<path d="M275.408,838.256C280.153,837.676 284.039,837.848 287.071,838.493L287.723,838.643C288.427,838.816 288.926,838.983 289.222,839.11C289.672,839.303 289.893,839.855 289.716,840.345C289.538,840.834 289.03,841.074 288.58,840.881L288.342,840.79C288.007,840.672 287.472,840.518 286.734,840.361C283.878,839.754 280.172,839.589 275.604,840.148C275.123,840.206 274.689,839.831 274.635,839.308C274.581,838.786 274.927,838.315 275.408,838.256Z" fill="#DD936F"/>
<path d="M254.975,1265.397L199.8,1034.835C195.825,1018.225 205.363,1001.358 220.797,997.702C236.228,994.047 251.362,1005.071 254.109,1021.973L289.113,1258.153C290.894,1269.121 287.54,1278.075 277.522,1280.447C267.507,1282.819 257.556,1276.175 254.975,1265.397Z" clip-rule="evenodd" fill-rule="evenodd" fill="#FFC999"/>
<path d="M437,915.519C428.884,897.322 408.568,889.956 392.021,899.209L214.091,998.665C200.387,1006.328 194.813,1024.47 201.538,1039.538C208.26,1054.606 224.822,1061.091 238.845,1054.147L420.924,963.99C437.86,955.606 445.12,933.714 437,915.519Z" clip-rule="evenodd" fill-rule="evenodd" fill="#FFC999"/>
<path d="M259.252,1283.426L293.439,1276.535L285.332,1217.395L246.081,1225.304L259.252,1283.426Z" clip-rule="evenodd" fill-rule="evenodd" fill="#FFFFFF"/>
<path d="M284.53,1228.418C285.15,1228.293 285.746,1228.738 285.861,1229.411C285.966,1230.028 285.631,1230.624 285.097,1230.815L284.947,1230.857L248.712,1238.16C248.092,1238.285 247.496,1237.841 247.381,1237.167C247.276,1236.55 247.611,1235.954 248.145,1235.763L248.295,1235.722L284.53,1228.418Z" fill="#E4EBF7"/>
<path d="M255.448,1281.798L293.035,1274.222L307.708,1348.648L223.017,1365.716L220.847,1354.274C220.063,1350.064 222.168,1345.849 225.844,1344.271L247.1,1332.557L257.431,1323.084C260.544,1320.23 261.961,1315.763 261.113,1311.435C259.287,1302.133 256.216,1286.354 255.448,1281.798Z" clip-rule="evenodd" fill-rule="evenodd" fill="#4E5C93"/>
<path d="M307.306,1351.25L222.871,1368.267C222.069,1368.429 221.301,1367.855 221.152,1366.984L219.396,1356.696C219.249,1355.827 219.775,1354.992 220.577,1354.83L305.012,1337.813C305.812,1337.651 306.583,1338.225 306.729,1339.094L308.486,1349.382C308.634,1350.253 308.106,1351.088 307.306,1351.25Z" clip-rule="evenodd" fill-rule="evenodd" fill="#CCD7EE"/>
<path d="M220.578,1354.83C219.47,1348.344 222.856,1341.946 228.572,1339.724L247.093,1332.521L251.119,1348.439L220.578,1354.83Z" clip-rule="evenodd" fill-rule="evenodd" fill="#CCD7EE"/>
<path d="M304.905,1337.189C305.222,1337.125 305.526,1337.353 305.585,1337.697C305.637,1337.999 305.483,1338.29 305.231,1338.401L305.118,1338.437L220.684,1355.454C220.367,1355.518 220.062,1355.291 220.004,1354.946C219.952,1354.645 220.106,1354.354 220.358,1354.243L220.471,1354.207L304.905,1337.189Z" fill="#A3B5D6"/>
<path d="M261.051,1307.556L261.394,1307.573C261.492,1307.58 261.605,1307.589 261.732,1307.6C262.249,1307.647 262.823,1307.72 263.44,1307.828C265.204,1308.135 266.971,1308.651 268.632,1309.431C269.962,1310.055 271.169,1310.826 272.222,1311.76C272.975,1312.428 272.664,1313.747 271.709,1313.94C270.778,1314.128 269.422,1314.604 267.766,1315.304L267.307,1315.501C266.832,1315.706 266.341,1315.927 265.835,1316.159C265.084,1316.505 264.325,1316.868 263.578,1317.237L263.187,1317.431L263.286,1317.489C264.797,1318.403 266.31,1319.528 267.752,1320.882L268.365,1321.477C269.101,1322.212 268.672,1323.547 267.675,1323.626C266.529,1323.717 265.217,1323.966 263.774,1324.354C262.367,1324.733 260.871,1325.235 259.327,1325.829C259.004,1325.953 258.684,1326.079 258.367,1326.207L257.584,1326.53L257.821,1326.625C258.329,1326.839 258.83,1327.094 259.321,1327.393L259.808,1327.706C260.575,1328.227 261.29,1328.848 261.941,1329.576C262.381,1330.068 262.371,1330.853 261.919,1331.33C261.466,1331.807 260.744,1331.796 260.304,1331.305C259.783,1330.722 259.212,1330.226 258.599,1329.81C256.922,1328.671 255.212,1328.246 253.961,1328.212L253.701,1328.211L253.544,1328.206C252.429,1328.095 252.108,1326.393 253.183,1325.848L253.603,1325.64C253.935,1325.479 254.315,1325.299 254.735,1325.106C255.936,1324.555 257.228,1324.005 258.565,1323.49C260.174,1322.871 261.74,1322.347 263.225,1321.947C263.67,1321.827 264.106,1321.719 264.531,1321.623L264.869,1321.55L264.533,1321.281C263.949,1320.826 263.359,1320.408 262.768,1320.026L262.176,1319.657C261.764,1319.408 261.376,1319.19 261.016,1319.003L260.667,1318.827C260.402,1318.697 260.22,1318.616 260.134,1318.581C259.195,1318.201 259.13,1316.785 260.029,1316.306L261.12,1315.739L261.501,1315.544C262.623,1314.976 263.79,1314.407 264.944,1313.876L265.966,1313.414C266.133,1313.34 266.298,1313.268 266.462,1313.197L267.428,1312.788C267.584,1312.724 267.738,1312.662 267.889,1312.602L268.78,1312.258L268.679,1312.198L268.21,1311.945L267.726,1311.708C266.256,1311.018 264.668,1310.554 263.079,1310.277C262.661,1310.204 262.266,1310.149 261.9,1310.108L261.15,1310.042C261.083,1310.038 261.032,1310.036 260.995,1310.035C260.365,1310.019 259.867,1309.45 259.882,1308.765C259.897,1308.081 260.42,1307.539 261.051,1307.556Z" fill="#E4EBF7"/>
<path d="M263.212,1295.975C261.625,1296.124 260.293,1296.324 259.315,1296.513L258.931,1296.59C258.803,1296.617 258.681,1296.667 258.569,1296.739C257.238,1297.59 256.598,1298.704 256.836,1299.954C257.007,1300.851 257.574,1301.559 258.389,1302.187C258.885,1302.569 259.37,1302.844 259.718,1303.006L259.85,1303.096L261.053,1303.829C261.436,1304.059 261.845,1304.302 262.277,1304.556C264.336,1305.764 266.504,1306.972 268.681,1308.1C270.109,1308.841 271.495,1309.522 272.825,1310.133C277.284,1312.182 280.862,1313.337 283.351,1313.336C286.922,1313.335 288.387,1310.833 286.956,1306.558C284.787,1300.071 279.183,1296.811 271.468,1295.978C268.772,1295.687 265.975,1295.715 263.212,1295.975ZM271.242,1298.446C277.995,1299.175 282.749,1301.856 284.661,1306.984L284.81,1307.405C285.717,1310.114 285.283,1310.855 283.35,1310.856C281.257,1310.857 277.905,1309.775 273.714,1307.849C272.418,1307.253 271.062,1306.587 269.664,1305.862C267.524,1304.752 265.39,1303.563 263.362,1302.373L262.157,1301.658L260.738,1300.792C260.405,1300.627 260.051,1300.427 259.709,1300.163C259.323,1299.866 259.097,1299.583 259.072,1299.452L259.072,1299.434C259.083,1299.383 259.161,1299.274 259.438,1299.072L259.563,1298.984L260.038,1298.894C260.916,1298.736 262.065,1298.573 263.409,1298.446C266.041,1298.198 268.7,1298.172 271.242,1298.446Z" fill="#E4EBF7"/>
<path d="M492.299,938.189C483.211,920.544 463.808,913.711 449.331,923.063L293.704,1023.602C281.719,1031.345 278.157,1049.192 285.683,1063.804C293.211,1078.416 309.072,1084.456 321.416,1077.405L481.689,985.89C496.597,977.378 501.387,955.836 492.299,938.189Z" clip-rule="evenodd" fill-rule="evenodd" fill="#FFC999"/>
<path d="M228.567,1301.72C218.856,1298.156 213.464,1286.896 216.356,1276.212L278.196,1047.654C282.65,1031.189 298.815,1022.054 313.778,1027.544C328.743,1033.035 336.502,1050.945 330.86,1066.973L252.511,1289.474C248.849,1299.878 238.281,1305.284 228.567,1301.72Z" clip-rule="evenodd" fill-rule="evenodd" fill="#FFC999"/>
<path d="M211.487,1292.786L246.566,1307.258L269.225,1246.667L228.955,1230.048L211.487,1292.786Z" clip-rule="evenodd" fill-rule="evenodd" fill="#FFFFFF"/>
<path d="M223.208,1247.758C223.41,1247.17 223.979,1246.847 224.527,1246.981L224.676,1247.03L259.21,1261.019C259.801,1261.258 260.101,1261.973 259.881,1262.614C259.679,1263.203 259.11,1263.526 258.562,1263.391L258.413,1263.343L223.879,1249.354C223.288,1249.114 222.988,1248.4 223.208,1247.758Z" fill="#E4EBF7"/>
<path d="M214.109,1283.613L249.929,1298.123L227.277,1370.146L146.566,1337.45L150.126,1326.428C151.445,1322.379 155.244,1319.942 159.144,1320.642L182.919,1322.476L196.263,1320.126C200.283,1319.416 203.611,1316.379 204.935,1312.193C207.775,1303.198 212.61,1287.946 214.109,1283.613Z" clip-rule="evenodd" fill-rule="evenodd" fill="#4E5C93"/>
<path d="M144.565,1339.95C143.803,1339.641 143.414,1338.717 143.699,1337.889L147.063,1328.086C147.347,1327.256 148.196,1326.836 148.957,1327.145L229.424,1359.739C230.186,1360.048 230.575,1360.97 230.29,1361.798L226.926,1371.603C226.642,1372.433 225.793,1372.853 225.03,1372.544L144.565,1339.95Z" clip-rule="evenodd" fill-rule="evenodd" fill="#CCD7EE"/>
<path d="M147.477,1326.138C149.597,1319.959 157.752,1316.364 163.705,1317.653L180.78,1321.827L176.694,1337.727L147.477,1326.138Z" clip-rule="evenodd" fill-rule="evenodd" fill="#CCD7EE"/>
<path d="M147.5,1326.822C147.598,1326.534 147.868,1326.371 148.137,1326.416L148.251,1326.449L228.714,1359.043C229.016,1359.166 229.17,1359.531 229.057,1359.86C228.958,1360.147 228.689,1360.311 228.42,1360.265L228.306,1360.233L147.843,1327.638C147.541,1327.516 147.387,1327.15 147.5,1326.822Z" fill="#A3B5D6"/>
<path d="M199.024,1313.556C199.363,1312.98 200.072,1312.809 200.607,1313.174L200.887,1313.372C201.154,1313.57 201.507,1313.846 201.922,1314.196C202.882,1315.008 203.842,1315.946 204.741,1317C206.306,1318.837 207.519,1320.833 208.237,1322.979C208.568,1323.968 207.672,1324.921 206.757,1324.554C205.715,1324.136 203.993,1323.733 201.809,1323.367C200.755,1323.19 199.642,1323.029 198.514,1322.886L197.749,1322.792L197.85,1322.974C198.077,1323.401 198.302,1323.85 198.521,1324.32L198.846,1325.041C199.41,1326.335 199.898,1327.7 200.289,1329.128C200.572,1330.165 199.567,1331.066 198.67,1330.579C197.325,1329.848 195.615,1329.193 193.629,1328.619C192.356,1328.251 191.019,1327.93 189.66,1327.652L188.583,1327.442L188.72,1327.621C189.634,1328.878 190.339,1330.311 190.764,1331.923L190.895,1332.467C191.04,1333.131 190.658,1333.796 190.041,1333.952C189.425,1334.109 188.807,1333.697 188.661,1333.034C188.307,1331.416 187.606,1330.01 186.657,1328.806C186.159,1328.174 185.625,1327.64 185.094,1327.202L184.812,1326.978C184.644,1326.85 184.516,1326.763 184.441,1326.718C183.353,1326.064 183.879,1324.275 185.119,1324.412L185.912,1324.513L186.895,1324.656C187.239,1324.709 187.597,1324.767 187.97,1324.831C190.098,1325.193 192.228,1325.658 194.224,1326.234C195.169,1326.507 196.059,1326.799 196.889,1327.11L197.237,1327.245L197.069,1326.807L196.768,1326.089C196.28,1324.968 195.757,1323.966 195.236,1323.099L194.884,1322.534C194.749,1322.324 194.642,1322.17 194.572,1322.075C193.944,1321.228 194.561,1319.984 195.565,1320.075L196.849,1320.206C197.098,1320.233 197.359,1320.262 197.629,1320.293C199.173,1320.473 200.717,1320.684 202.163,1320.927C203.058,1321.077 203.881,1321.233 204.625,1321.397L205.033,1321.488L204.852,1321.17C204.444,1320.482 203.975,1319.81 203.452,1319.156L203.049,1318.669C202.241,1317.72 201.372,1316.872 200.504,1316.138L200.092,1315.798C199.777,1315.544 199.532,1315.363 199.38,1315.26C198.844,1314.895 198.685,1314.132 199.024,1313.556Z" transform="rotate(30.315 196.079 1323.484)" fill="#E4EBF7"/>
<path d="M206.307,1308.109C203.911,1308.088 202.826,1309.599 203.254,1311.648C203.355,1312.133 203.532,1312.62 203.762,1313.108C203.97,1313.546 204.177,1313.9 204.326,1314.125L204.523,1314.52L205.281,1315.95C205.553,1316.455 205.843,1316.988 206.15,1317.545C207.613,1320.197 209.164,1322.85 210.736,1325.33C211.983,1327.296 213.192,1329.072 214.35,1330.615C216.808,1333.889 218.942,1336.015 220.791,1336.777C223.407,1337.855 225.32,1336.231 226.005,1332.397C227.224,1325.571 223.906,1319.609 217.6,1314.562C215.408,1312.808 212.985,1311.276 210.491,1309.966C209.237,1309.307 208.148,1308.797 207.307,1308.439L206.686,1308.183C206.564,1308.136 206.436,1308.111 206.307,1308.109ZM205.836,1310.591L206.09,1310.588L206.79,1310.885C207.53,1311.21 208.452,1311.649 209.498,1312.199C211.873,1313.447 214.178,1314.905 216.246,1316.56C221.919,1321.099 224.779,1326.239 223.764,1331.924C223.322,1334.398 222.712,1334.916 221.601,1334.458C220.239,1333.897 218.336,1332.001 216.12,1329.048C215.004,1327.561 213.83,1325.837 212.616,1323.923C211.074,1321.491 209.548,1318.881 208.108,1316.27L207.253,1314.7L206.3,1312.895C206.281,1312.858 206.264,1312.825 206.25,1312.797C206.089,1312.541 205.941,1312.288 205.793,1311.975C205.643,1311.657 205.534,1311.355 205.48,1311.099L205.444,1310.909C205.407,1310.667 205.466,1310.604 205.836,1310.591Z" fill="#E4EBF7"/>
<path d="M392.814,739.237C388.791,750.602 381.251,770.206 380.905,782.839C380.343,803.321 393.425,817.639 393.425,817.639C393.425,817.639 393.201,811.641 397.449,864.317C453.961,871.143 488.94,857.373 488.94,857.373L487.039,843.463L494.196,809.783C494.196,809.783 498.997,797.094 508.735,768.852C515.506,749.219 513.585,725.586 511.784,713.003C511.014,707.613 507.269,703.291 502.359,702.148C485.205,698.154 478.816,698.429 478.816,698.429L476.524,686.457C476.135,684.406 474.412,682.983 472.491,683.113L431.404,685.929C429.638,686.049 428.172,687.454 427.842,689.343L425.572,702.307L400.458,709.466C396.516,710.588 393.712,714.381 393.552,718.806L392.814,739.237Z" clip-rule="evenodd" fill-rule="evenodd" fill="#FFFFFF"/>
<path d="M467.298,699.083C467.687,699.056 468.023,699.378 468.047,699.801C468.069,700.176 467.838,700.506 467.513,700.594L467.387,700.615L430.392,703.15C430.003,703.177 429.668,702.856 429.643,702.433C429.621,702.057 429.852,701.727 430.177,701.64L430.303,701.619L467.298,699.083Z" fill="#4E5C93"/>
<path d="M478.459,695.106C478.807,694.716 479.381,694.706 479.74,695.085C480.059,695.421 480.102,695.951 479.862,696.339L479.76,696.477L432.758,749.114C432.285,749.644 431.483,749.435 431.259,748.775L431.221,748.627L422.635,703.102C422.535,702.569 422.851,702.049 423.341,701.94C423.782,701.842 424.214,702.11 424.369,702.553L424.411,702.707L432.652,746.406L478.459,695.106Z" fill="#CCD7EE"/>
<path d="M416.241,757.029C412.576,764.828 414.973,774.129 421.592,777.806C428.215,781.481 436.553,778.136 440.222,770.338C443.888,762.54 441.492,753.239 434.87,749.564C428.248,745.887 419.907,749.231 416.241,757.029Z" clip-rule="evenodd" fill-rule="evenodd" fill="#CCD7EE"/>
<path d="M414.766,757.094C411.099,764.892 413.495,774.194 420.115,777.868C426.74,781.543 435.078,778.201 438.745,770.403C442.411,762.603 440.015,753.301 433.395,749.627C426.771,745.952 418.43,749.296 414.766,757.094Z" clip-rule="evenodd" fill-rule="evenodd" fill="#E4EBF7"/>
<path d="M417.446,758.225C414.599,764.281 416.46,771.503 421.601,774.357C426.744,777.209 433.22,774.613 436.064,768.559C438.911,762.503 437.05,755.282 431.912,752.43C426.768,749.575 420.293,752.172 417.446,758.225Z" clip-rule="evenodd" fill-rule="evenodd" fill="#8352FD"/>
<path d="M511.721,712.239C512.109,712.2 512.453,712.511 512.488,712.933L512.72,715.887L512.893,718.265C513.007,719.89 513.12,721.591 513.228,723.343C513.436,726.722 513.609,730.029 513.736,733.181L513.795,734.744C514.052,741.929 514.035,747.696 513.671,751.548C513.293,755.568 511.438,762.209 508.458,770.805L508.166,771.643C507.586,773.301 506.971,775.013 506.326,776.768C505.034,780.281 503.669,783.843 502.289,787.334L500.662,791.401L499.106,795.19L498.985,795.46L487.119,843.794L489.242,857.991C489.293,858.326 489.134,858.651 488.863,858.799L488.74,858.851L487.797,859.13L487.559,859.198C486.595,859.472 485.462,859.776 484.167,860.104C480.469,861.04 476.213,861.976 471.457,862.849C448.566,867.051 423.263,868.325 397.23,864.9C396.892,864.856 396.631,864.556 396.61,864.187L396.427,861.81C396.209,859.178 395.812,854.673 395.272,848.67L393.428,828.415L392.613,819.573L392.169,818.789L391.639,817.832C391.364,817.328 391.073,816.786 390.768,816.209C389.321,813.466 387.874,810.497 386.523,807.41C384.699,803.241 383.194,799.181 382.117,795.35C381.136,791.857 380.534,788.633 380.365,785.73C379.937,778.368 380.482,772.562 382.094,766.592C382.951,763.417 384.109,760.157 385.813,756.014L386.508,754.352C386.876,753.49 387.389,752.301 387.96,750.985L392.227,741.203L391.941,728.809C391.932,728.432 392.174,728.112 392.502,728.038L392.629,728.023C392.975,728.013 393.27,728.277 393.338,728.633L393.352,728.77L393.643,741.348L393.576,741.694L388.035,754.423C387.791,754.994 387.589,755.468 387.448,755.807C385.576,760.296 384.342,763.717 383.449,767.024C381.885,772.817 381.357,778.445 381.775,785.633C381.936,788.405 382.516,791.515 383.468,794.902C384.522,798.654 386.002,802.645 387.799,806.751C389.133,809.8 390.564,812.735 391.994,815.446L392.576,816.538C392.764,816.886 392.946,817.218 393.12,817.532L393.895,818.903L394.002,819.239L397.226,854.659C397.519,857.965 397.738,860.501 397.873,862.153L397.975,863.45L399.163,863.602C423.841,866.65 447.831,865.478 469.666,861.616L471.222,861.336C475.555,860.541 479.468,859.693 482.917,858.842L483.846,858.61C484.915,858.339 485.872,858.085 486.712,857.851L487.745,857.556L485.701,843.876L485.716,843.555L497.661,794.944L498.813,792.153C499.083,791.492 499.366,790.795 499.66,790.064L499.958,789.323C501.682,785.027 503.406,780.574 505.014,776.199C505.657,774.451 506.269,772.748 506.846,771.097L507.664,768.727C510.292,760.997 511.926,755.002 512.266,751.392L512.348,750.411C512.61,746.838 512.617,741.81 512.414,735.686L512.384,734.803C512.255,731.204 512.061,727.374 511.819,723.446L511.654,720.867C511.598,720.022 511.541,719.192 511.484,718.382L511.082,713.072C511.046,712.65 511.332,712.277 511.721,712.239Z" fill="#4E5C93"/>
<path d="M473.377,873.431C507.139,873.431 525.895,1001.148 549.191,1049.3C545.883,1058.599 529.997,1073.774 529.997,1073.774C529.997,1073.774 530.717,1081.586 531.175,1086.284C513.107,1099.038 480.289,1103.15 480.289,1103.15L479.541,1109.698C425.753,1129.02 359.818,1096.12 359.818,1096.12C359.818,1096.12 358.688,1094.546 360.138,1089.516C336.949,1086.382 290.554,1048.294 290.554,1048.294L296.997,1035.434L247.031,966.5C247.031,966.5 344.284,902.602 372.083,884.301C397.097,867.831 392.718,865.278 392.718,865.278C392.718,865.278 438.666,873.431 473.377,873.431Z" clip-rule="evenodd" fill-rule="evenodd" fill="url(#pf_0_i_79_753;153_5705)"/>
<path d="M321.345,997.903C321.613,997.472 322.151,997.36 322.547,997.651C322.899,997.91 323.021,998.401 322.855,998.809L322.779,998.957L292.651,1047.341L292.971,1047.665L293.968,1048.648L294.343,1049.01C296.183,1050.78 298.359,1052.753 300.858,1054.879C308.007,1060.958 316.314,1067.04 325.689,1072.716C336.401,1079.203 347.835,1084.74 359.923,1089.032C360.378,1089.193 360.626,1089.724 360.477,1090.218C360.329,1090.712 359.84,1090.982 359.385,1090.821C347.187,1086.489 335.652,1080.904 324.845,1074.36C315.389,1068.634 307.007,1062.498 299.791,1056.361C297.516,1054.426 295.504,1052.615 293.765,1050.964L293.195,1050.42C292.802,1050.042 292.442,1049.69 292.113,1049.364L291.082,1048.321C291.012,1048.248 290.956,1048.19 290.916,1048.147C290.655,1047.868 290.587,1047.447 290.731,1047.094L290.805,1046.948L321.345,997.903Z" fill="#253368"/>
<path d="M499.4,962.198C499.815,962.071 500.244,962.294 500.42,962.705L500.469,962.848L532.761,1087.079C532.873,1087.512 532.688,1087.971 532.318,1088.174L531.963,1088.365C531.716,1088.497 531.386,1088.668 530.978,1088.877L530.004,1089.367C529.158,1089.787 528.223,1090.238 527.205,1090.712C523.137,1092.607 518.57,1094.501 513.608,1096.269C502.787,1100.124 491.648,1102.832 480.607,1103.883C480.13,1103.928 479.71,1103.545 479.668,1103.027C479.627,1102.51 479.979,1102.053 480.456,1102.008C491.353,1100.971 502.365,1098.294 513.069,1094.48C517.98,1092.731 522.499,1090.856 526.523,1088.982L527.688,1088.432C528.251,1088.164 528.783,1087.904 529.283,1087.656L530.681,1086.947L530.896,1086.834L498.802,963.36C498.685,962.909 498.891,962.443 499.268,962.252L499.4,962.198Z" fill="#253368"/>
<path d="M462.868,857.74C463.297,857.7 463.68,858.007 463.782,858.446L463.81,858.662L465.648,882.63C465.944,886.549 466.252,890.642 466.569,894.895L467.525,907.786C468.958,927.224 470.381,947.08 471.747,966.862L472.649,980.034C473.317,989.868 473.958,999.5 474.568,1008.895L475.483,1023.183C477.63,1057.178 479.273,1086.718 480.298,1110.588C480.318,1111.046 480.031,1111.454 479.618,1111.552C448.306,1119 415.255,1115.916 383.561,1106.254C376.831,1104.204 370.714,1102.006 365.324,1099.806L363.951,1099.238C362.842,1098.776 361.822,1098.334 360.895,1097.922L359.651,1097.358L358.601,1096.862C358.245,1096.688 358.046,1096.28 358.1,1095.872L358.133,1095.72L418.454,890.482C418.599,889.987 419.086,889.713 419.542,889.871C419.952,890.014 420.197,890.457 420.136,890.905L420.104,891.054L360.02,1095.482L361.016,1095.94L362.114,1096.428C363.066,1096.848 364.11,1097.294 365.243,1097.762L365.933,1098.044C371.278,1100.226 377.348,1102.406 384.029,1104.442C414.996,1113.882 447.259,1116.992 477.838,1110.04L478.533,1109.878L478.157,1101.502C477.152,1079.944 475.708,1054.362 473.893,1025.513L473.355,1017.02L472.576,1004.988C472.046,996.879 471.494,988.6 470.922,980.173L470.02,967.003C468.654,947.224 467.231,927.371 465.799,907.936L463.795,881.116L462.079,858.757C462.038,858.24 462.392,857.784 462.868,857.74Z" fill="#253368"/>
<path d="M441.872,858.803C442.302,858.831 442.641,859.193 442.685,859.644L442.689,859.797L433.779,1032.556C433.752,1033.075 433.344,1033.472 432.866,1033.445C432.436,1033.417 432.097,1033.055 432.053,1032.604L432.05,1032.451L440.959,859.692C440.986,859.173 441.395,858.776 441.872,858.803Z" fill="#253368"/>
<path d="M405.783,876.663C406.061,876.24 406.603,876.144 406.991,876.447C407.337,876.716 407.445,877.211 407.269,877.614L407.19,877.76L341.388,977.382C341.109,977.804 340.568,977.901 340.18,977.598C339.834,977.329 339.725,976.834 339.901,976.431L339.981,976.285L405.783,876.663Z" fill="#253368"/>
<path d="M320.614,909.706L427.545,903.735L326.67,857.457L237.666,871.859L320.614,909.706Z" clip-rule="evenodd" fill-rule="evenodd" fill="#253368"/>
<path d="M317.428,901.284L395.09,896.946L323.641,863.388L257.185,873.797L317.428,901.284Z" clip-rule="evenodd" fill-rule="evenodd" fill="#4E5C93"/>
<path d="M426.906,909.624L427.563,903.775L318.522,908.934L319.728,915.398L426.906,909.624Z" clip-rule="evenodd" fill-rule="evenodd" fill="#FFFFFF"/>
<path d="M308.55,866.927C308.644,866.718 308.857,866.614 309.057,866.664L309.156,866.703L366.93,897.569C367.154,897.689 367.247,897.984 367.136,898.228C367.042,898.437 366.829,898.541 366.629,898.491L366.53,898.453L308.756,867.586C308.532,867.466 308.439,867.171 308.55,866.927Z" fill="#CCD7EE"/>
<path d="M316.863,864.374C316.954,864.163 317.165,864.056 317.366,864.102L317.466,864.139L382.197,897.274C382.423,897.39 382.52,897.683 382.414,897.929C382.322,898.14 382.111,898.247 381.91,898.201L381.811,898.164L317.079,865.029C316.853,864.913 316.756,864.62 316.863,864.374Z" fill="#CCD7EE"/>
<path d="M307.066,872.76C307.163,872.552 307.377,872.451 307.577,872.505L307.675,872.544L356.106,899.333C356.329,899.457 356.418,899.753 356.304,899.995C356.207,900.203 355.993,900.304 355.793,900.25L355.695,900.211L307.264,873.421C307.041,873.298 306.952,873.002 307.066,872.76Z" fill="#CCD7EE"/>
<path d="M293.087,872.664C293.185,872.457 293.399,872.356 293.599,872.409L293.697,872.449L342.128,899.241C342.351,899.364 342.44,899.66 342.326,899.903C342.229,900.11 342.015,900.211 341.815,900.158L341.717,900.118L293.286,873.326C293.063,873.203 292.974,872.907 293.087,872.664Z" fill="#CCD7EE"/>
<path d="M280.085,873.556C280.182,873.348 280.396,873.248 280.596,873.301L280.694,873.341L329.125,900.13C329.348,900.253 329.437,900.55 329.323,900.792C329.226,901 329.012,901.1 328.812,901.047L328.714,901.007L280.283,874.218C280.06,874.094 279.971,873.798 280.085,873.556Z" fill="#CCD7EE"/>
<path d="M382.948,891.912C383.199,891.908 383.405,892.124 383.409,892.396C383.413,892.629 383.267,892.827 383.068,892.881L382.964,892.896L316.747,894.127C316.497,894.132 316.291,893.915 316.286,893.643C316.283,893.41 316.429,893.212 316.628,893.158L316.731,893.143L382.948,891.912Z" fill="#CCD7EE"/>
<path d="M368.99,884.686C369.24,884.681 369.446,884.898 369.451,885.17C369.454,885.403 369.308,885.601 369.109,885.655L369.006,885.67L302.791,886.903C302.541,886.908 302.334,886.691 302.33,886.42C302.327,886.187 302.472,885.989 302.672,885.934L302.775,885.919L368.99,884.686Z" fill="#CCD7EE"/>
<path d="M351.381,878.912C351.632,878.907 351.838,879.124 351.842,879.396C351.846,879.629 351.7,879.826 351.501,879.881L351.397,879.896L285.18,881.127C284.93,881.131 284.724,880.915 284.719,880.643C284.716,880.41 284.862,880.212 285.061,880.157L285.165,880.142L351.381,878.912Z" fill="#CCD7EE"/>
<path d="M340.184,867.683C340.434,867.679 340.641,867.895 340.645,868.167C340.649,868.4 340.503,868.598 340.303,868.653L340.2,868.667L273.983,869.9C273.733,869.905 273.526,869.688 273.522,869.417C273.518,869.184 273.664,868.986 273.864,868.931L273.967,868.916L340.184,867.683Z" fill="#CCD7EE"/>
<path d="M319.644,915.391L314.876,915.292L236.492,878.275L218.253,725.566L303.742,754.57L319.644,915.391Z" clip-rule="evenodd" fill-rule="evenodd" fill="#FFFFFF"/>
<path d="M314.706,915.281L232.04,876.286C231.287,875.931 230.756,875.168 230.65,874.281L212.975,727.51C212.753,725.664 214.368,724.192 216.002,724.749L297.08,752.388C297.968,752.692 298.608,753.537 298.708,754.543L314.706,915.281Z" clip-rule="evenodd" fill-rule="evenodd" fill="url(#pf_0_i_79_753;153_5724)"/>
<path d="M528.234,878.719L526.447,879.067C514.186,881.434 502.478,872.557 500.298,859.236L480.178,736.347C478,723.026 486.172,710.308 498.43,707.936L500.22,707.591C512.478,705.222 524.188,714.101 526.367,727.422L546.486,850.308C548.667,863.63 540.495,876.35 528.234,878.719Z" clip-rule="evenodd" fill-rule="evenodd" fill="#FFC999"/>
<path d="M535.03,780.331L525.657,723.085C523.398,709.284 511.158,700.002 498.456,702.456C485.755,704.912 477.21,718.211 479.469,732.01L488.753,788.716L535.03,780.331Z" clip-rule="evenodd" fill-rule="evenodd" fill="#FFFFFF"/>
<path d="M526.202,722.2C526.543,722.134 526.871,722.346 526.987,722.687L527.021,722.821L536.392,780.07C536.453,780.442 536.256,780.799 535.941,780.924L535.817,780.96L487.877,789.948C487.539,790.011 487.216,789.803 487.097,789.467L487.063,789.336L478.935,743.14C478.862,742.724 479.113,742.322 479.496,742.243C479.837,742.172 480.167,742.38 480.287,742.719L480.322,742.852L488.319,788.306L534.877,779.578L525.63,723.09C525.57,722.719 525.765,722.363 526.079,722.236L526.202,722.2Z" fill="#4E5C93"/>
<path d="M389.182,874.565C389.699,881.666 395.267,887.068 401.818,886.83L528.296,882.207C539.905,881.365 548.644,870.374 547.725,857.772C546.796,845.059 536.41,835.673 524.734,836.998L399.331,860.383C393.084,861.546 388.68,867.698 389.182,874.565Z" clip-rule="evenodd" fill-rule="evenodd" fill="#FFC999"/>
<path d="M413.304,886C404.453,893.528 375.785,890.536 375.785,890.536L357.309,901.802C354.436,903.242 353.636,901.158 352.186,901.24C348.275,901.462 348.062,897 348.062,897C346.681,896.38 344.562,897.623 343.783,893.62C343.783,893.62 341.036,893.562 340.667,889.962C340.474,888.061 356.98,859.513 356.98,859.513L383.611,858.801C383.611,858.801 422.496,857.399 427.306,866.621C432.114,875.842 413.304,886 413.304,886Z" clip-rule="evenodd" fill-rule="evenodd" fill="#FFC999"/>
<path d="M356.442,857.507L404.62,858.892C405.104,858.905 405.485,859.343 405.473,859.868C405.461,860.341 405.134,860.724 404.716,860.786L404.574,860.795L356.895,859.424L354.614,863.402L352.33,867.42C351.952,868.088 351.577,868.754 351.204,869.416L347.967,875.216C343.902,882.577 341.059,888.121 340.979,888.767L340.978,888.802C341.032,889.325 340.685,889.795 340.205,889.854C339.724,889.912 339.29,889.536 339.237,889.013C339.132,887.997 341.104,884.007 345.153,876.617L347.513,872.346C348.941,869.779 350.452,867.098 351.978,864.412L355.677,857.952C355.818,857.708 356.052,857.548 356.311,857.514L356.442,857.507Z" fill="#DD936F"/>
<path d="M366.716,866.224C367.156,866.005 367.676,866.215 367.877,866.693C368.059,867.123 367.92,867.623 367.57,867.879L367.446,867.955L357.666,872.823L344.511,894.15C344.269,894.543 343.804,894.677 343.42,894.487L343.296,894.411C342.934,894.148 342.811,893.643 342.986,893.226L343.056,893.091L356.349,871.542C356.416,871.432 356.504,871.34 356.605,871.269L356.711,871.206L366.716,866.224Z" fill="#DD936F"/>
<path d="M368.79,873.929C369.228,873.704 369.75,873.906 369.957,874.382C370.144,874.809 370.011,875.312 369.664,875.572L369.54,875.649L361.806,879.628L348.75,897.589C348.483,897.956 348.018,898.052 347.651,897.84L347.519,897.746C347.182,897.456 347.093,896.951 347.288,896.553L347.375,896.409L360.559,878.274C360.615,878.197 360.681,878.131 360.755,878.076L360.871,878.004L368.79,873.929Z" fill="#DD936F"/>
<path d="M376.67,878.026C377.096,877.777 377.627,877.95 377.857,878.413C378.063,878.83 377.955,879.339 377.621,879.618L377.501,879.703L366.787,885.97L353.279,901.282C352.981,901.619 352.51,901.667 352.164,901.418L352.04,901.31C351.73,900.987 351.686,900.475 351.915,900.099L352.014,899.965L365.616,884.547L365.833,884.367L376.67,878.026Z" fill="#DD936F"/>
<path d="M246.495,965.761C246.829,965.475 247.297,965.499 247.604,965.795L247.712,965.918L297.677,1034.852C297.973,1035.26 297.909,1035.852 297.533,1036.174C297.199,1036.459 296.731,1036.436 296.424,1036.14L296.317,1036.017L246.351,967.083C246.055,966.674 246.12,966.083 246.495,965.761Z" fill="#253368"/>
<defs>
<linearGradient id="pf_0_i_79_753;153_5705" x1="398.111" y1="865.278" x2="398.111" y2="1115.779" gradientUnits="userSpaceOnUse">
<stop stop-color="#4E5C93"/>
<stop offset="1" stop-color="#C961DE"/>
</linearGradient>
<linearGradient id="pf_0_i_79_753;153_5724" x1="408.922" y1="817.811" x2="263.83" y2="915.281" gradientUnits="userSpaceOnUse">
<stop offset="0.503" stop-color="#0500FF" stop-opacity="0.8"/>
<stop offset="1" stop-color="#994A88" stop-opacity="0.8"/>
</linearGradient>
</defs>
</svg>
