<svg width="156" height="300" viewBox="0 0 156 300" fill="none" xmlns="http://www.w3.org/2000/svg" xmlns:xlink="http://www.w3.org/1999/xlink">
<path d="M68.053,114.249C68.053,114.249 63.139,113.563 61.841,118.559C57.078,120.225 58.378,125.222 58.378,125.222C58.378,125.222 55.986,129.147 60.737,131.158C61.117,135.179 65.868,134.448 65.868,134.448C65.868,134.448 67.008,137.556 70.619,136.276C74.515,139.19 81.857,138.605 84.464,135.042C89.633,138.754 98.628,134.223 97.499,130.835C103.536,130.483 106.463,124.324 102.926,119.093C105.643,114.954 102.545,112.512 102.545,112.512C102.545,112.512 103.401,103.006 96.559,101.727C93.044,96.608 85.442,100.721 85.442,100.721C85.442,100.721 80.406,99.716 78.6,103.92C72.973,104.753 73.237,107.729 72.804,110.227C67.768,110.501 68.053,114.249 68.053,114.249Z" clip-rule="evenodd" fill-rule="evenodd" fill="#253368"/>
<path d="M83.668,109.607C87.613,110.273 88.813,107.402 88.813,107.402C88.813,107.402 90.441,103.357 90.858,105.84C91.079,107.16 93.2,105.409 94.176,106.815C94.832,107.762 93.191,108.982 95.324,111.507C96.559,112.969 91.686,114.136 94.692,116.832C94.692,116.832 92.555,120.122 96.226,121.195L96.616,125.053C96.842,127.298 95.005,129.242 92.66,129.238C90.424,129.235 88.633,127.455 88.7,125.306L88.848,120.602C83.148,120.602 82.869,113.064 83.668,109.607Z" clip-rule="evenodd" fill-rule="evenodd" fill="#FFC999"/>
<path d="M90.583,113.619C90.682,113.524 90.843,113.524 90.941,113.619C91.04,113.714 91.04,113.869 90.942,113.964C90.813,114.087 90.581,114.264 90.254,114.439C89.61,114.784 88.871,114.963 88.057,114.887C87.918,114.874 87.816,114.755 87.829,114.621C87.843,114.487 87.967,114.389 88.106,114.402C88.809,114.468 89.448,114.313 90.008,114.013C90.173,113.925 90.318,113.83 90.442,113.736L90.506,113.686C90.543,113.656 90.569,113.633 90.583,113.619Z" fill="#F5222D"/>
<path d="M87.664,110.058L87.664,109.992C87.672,109.909 87.741,109.842 87.831,109.836C87.92,109.83 87.998,109.887 88.018,109.968L88.023,110.003L88.024,110.011C88.03,110.178 87.999,110.432 87.899,110.763C87.766,111.206 87.535,111.691 87.187,112.211L87.124,112.302L87.224,112.362L87.468,112.504C87.704,112.641 87.917,112.76 88.108,112.862L88.202,112.912C88.296,112.961 88.378,113.003 88.449,113.038L88.595,113.108C88.685,113.148 88.725,113.251 88.683,113.338C88.642,113.424 88.535,113.462 88.444,113.422L88.368,113.387L88.228,113.318C88.188,113.297 88.145,113.276 88.1,113.252L88.029,113.215C87.686,113.035 87.268,112.799 86.775,112.501C86.688,112.448 86.664,112.336 86.723,112.255C87.144,111.674 87.411,111.142 87.553,110.667C87.635,110.396 87.664,110.191 87.664,110.058Z" fill="#DD936F"/>
<path d="M93.16,109.79C93.295,109.79 93.404,109.894 93.404,110.024C93.404,110.923 92.699,111.661 91.819,111.661C90.94,111.661 90.235,110.924 90.235,110.024C90.235,109.894 90.344,109.79 90.479,109.79C90.613,109.79 90.722,109.894 90.722,110.024C90.722,110.673 91.218,111.193 91.819,111.193C92.421,111.193 92.917,110.673 92.917,110.024C92.917,109.894 93.026,109.79 93.16,109.79Z" fill="#253368"/>
<path d="M86.748,109.95C86.876,109.95 86.98,110.05 86.98,110.172C86.98,111.062 86.346,111.798 85.542,111.798C84.737,111.798 84.104,111.062 84.104,110.172C84.104,110.05 84.208,109.95 84.336,109.95C84.463,109.95 84.567,110.05 84.567,110.172C84.567,110.833 85.014,111.353 85.542,111.353C86.07,111.353 86.517,110.833 86.517,110.172C86.517,110.05 86.621,109.95 86.748,109.95Z" fill="#253368"/>
<path d="M90.386,107.215C91.316,106.927 92.3,106.889 93.23,107.266C93.401,107.336 93.567,107.419 93.729,107.516C93.843,107.584 93.878,107.729 93.807,107.838C93.735,107.948 93.585,107.981 93.471,107.913C93.332,107.829 93.188,107.757 93.041,107.698C92.234,107.371 91.364,107.404 90.535,107.66C90.43,107.693 90.333,107.727 90.245,107.761L90.16,107.795C90.096,107.822 90.052,107.843 90.032,107.853C89.913,107.913 89.766,107.869 89.703,107.755C89.64,107.641 89.686,107.499 89.805,107.439C89.919,107.381 90.119,107.297 90.386,107.215Z" fill="#253368"/>
<path d="M92.256,119.599C92.343,119.553 92.452,119.584 92.5,119.668C92.547,119.752 92.515,119.857 92.428,119.903C91.271,120.509 90.067,120.814 88.856,120.83C88.757,120.831 88.675,120.755 88.674,120.659C88.673,120.564 88.752,120.485 88.851,120.484C90.003,120.469 91.15,120.178 92.256,119.599Z" fill="#DD936F"/>
<path d="M78.574,162.53C75.941,162.155 74.122,159.8 74.511,157.268L78.3,132.594C78.688,130.061 81.137,128.312 83.77,128.686C86.402,129.06 88.221,131.415 87.832,133.948L84.044,158.622C83.655,161.154 81.206,162.904 78.574,162.53Z" clip-rule="evenodd" fill-rule="evenodd" fill="#FFC999"/>
<path d="M86.226,144.407L87.832,133.947C88.22,131.426 86.391,129.058 83.77,128.685C81.149,128.313 78.687,130.072 78.3,132.593L76.709,142.954L86.226,144.407Z" clip-rule="evenodd" fill-rule="evenodd" fill="#FFFFFF"/>
<path d="M83.929,128.567C86.598,128.946 88.468,131.332 88.127,133.896L88.114,133.988L86.508,144.447C86.497,144.516 86.437,144.565 86.368,144.567L86.341,144.565L76.824,143.111C76.745,143.099 76.691,143.028 76.704,142.952C76.715,142.884 76.775,142.835 76.844,142.834L76.87,142.836L86.242,144.267L87.827,133.947C88.198,131.532 86.473,129.262 83.982,128.858L83.887,128.843C83.807,128.832 83.753,128.761 83.764,128.685C83.775,128.617 83.834,128.568 83.903,128.566L83.929,128.567Z" fill="#4E5C93"/>
<path d="M61.777,154.4C61.739,155.304 62.447,156.077 63.385,156.155L81.483,157.653C83.151,157.738 84.57,156.496 84.637,154.89C84.706,153.271 83.373,151.915 81.688,151.89L63.447,152.777C62.538,152.821 61.814,153.525 61.777,154.4Z" clip-rule="evenodd" fill-rule="evenodd" fill="#FFC999"/>
<path d="M60.003,152.107C60.003,152.107 63.254,151.86 64.086,153.527C64.84,155.037 63.366,155.942 63.366,155.942C63.366,155.942 62.047,157.065 60.196,157.678C58.977,158.082 56.577,158.623 56.27,158.036C55.869,157.27 58.623,156.809 58.52,156.193C58.416,155.561 57.839,155.616 56.486,155.325C55.641,155.144 54.733,155.285 54.047,155C52.706,154.442 55.095,152.088 60.003,152.107Z" clip-rule="evenodd" fill-rule="evenodd" fill="#FFC999"/>
<path d="M54.226,154.166C55.441,153.88 56.539,153.929 57.47,154.183C57.639,154.229 57.788,154.278 57.916,154.328L57.999,154.361C58.034,154.376 58.061,154.389 58.079,154.398C58.168,154.441 58.203,154.546 58.157,154.631C58.112,154.716 58.004,154.749 57.915,154.706L57.852,154.677C57.832,154.669 57.808,154.659 57.781,154.649C57.665,154.604 57.528,154.558 57.372,154.516C56.498,154.277 55.462,154.232 54.312,154.502C54.215,154.525 54.118,154.468 54.094,154.375C54.07,154.282 54.13,154.189 54.226,154.166Z" fill="#DD936F"/>
<path d="M55.657,153.204C56.553,153.063 57.527,153.068 58.469,153.32C58.565,153.346 58.621,153.441 58.594,153.533C58.567,153.625 58.468,153.679 58.372,153.654C57.488,153.417 56.564,153.412 55.715,153.546C55.626,153.56 55.543,153.575 55.469,153.59L55.397,153.605C55.343,153.617 55.306,153.626 55.288,153.63C55.192,153.656 55.093,153.602 55.066,153.51C55.04,153.418 55.096,153.322 55.192,153.297L55.284,153.275L55.318,153.267C55.417,153.246 55.531,153.224 55.657,153.204Z" fill="#DD936F"/>
<path d="M56.569,152.432C57.544,152.326 58.342,152.358 58.965,152.475L59.099,152.502C59.243,152.534 59.346,152.564 59.407,152.587C59.499,152.622 59.544,152.723 59.508,152.812C59.472,152.901 59.367,152.944 59.275,152.909L59.226,152.893C59.157,152.871 59.047,152.843 58.895,152.815C58.309,152.704 57.548,152.674 56.609,152.776C56.511,152.787 56.421,152.718 56.41,152.623C56.399,152.528 56.47,152.443 56.569,152.432Z" fill="#DD936F"/>
<path d="M52.372,230.105L41.039,188.179C40.222,185.158 42.182,182.091 45.352,181.426C48.521,180.762 51.63,182.766 52.194,185.84L59.384,228.788C59.75,230.782 59.061,232.41 57.003,232.842C54.946,233.273 52.902,232.065 52.372,230.105Z" clip-rule="evenodd" fill-rule="evenodd" fill="#FFC999"/>
<path d="M89.762,166.482C88.094,163.173 83.922,161.833 80.522,163.516L43.975,181.601C41.16,182.995 40.016,186.294 41.397,189.034C42.777,191.774 46.179,192.953 49.06,191.69L86.46,175.296C89.938,173.771 91.429,169.79 89.762,166.482Z" clip-rule="evenodd" fill-rule="evenodd" fill="#FFC999"/>
<path d="M53.251,233.383L60.273,232.13L58.608,221.376L50.546,222.814L53.251,233.383Z" clip-rule="evenodd" fill-rule="evenodd" fill="#FFFFFF"/>
<path d="M58.443,223.381C58.57,223.358 58.693,223.439 58.716,223.561C58.738,223.673 58.669,223.782 58.56,223.816L58.529,223.824L51.086,225.152C50.959,225.175 50.836,225.094 50.813,224.972C50.791,224.859 50.86,224.751 50.969,224.716L51,224.709L58.443,223.381Z" fill="#E4EBF7"/>
<path d="M52.47,233.087L60.19,231.709L63.204,245.243L45.808,248.347L45.363,246.266C45.202,245.501 45.634,244.734 46.389,244.447L50.755,242.317L52.877,240.595C53.517,240.076 53.808,239.263 53.633,238.476C53.258,236.785 52.627,233.916 52.47,233.087Z" clip-rule="evenodd" fill-rule="evenodd" fill="#4E5C93"/>
<path d="M63.122,245.717L45.778,248.811C45.614,248.841 45.456,248.736 45.425,248.578L45.065,246.707C45.034,246.549 45.143,246.397 45.307,246.368L62.651,243.273C62.815,243.244 62.973,243.348 63.003,243.506L63.364,245.377C63.394,245.535 63.286,245.687 63.122,245.717Z" clip-rule="evenodd" fill-rule="evenodd" fill="#CCD7EE"/>
<path d="M45.307,246.368C45.079,245.188 45.775,244.025 46.949,243.621L50.753,242.311L51.58,245.205L45.307,246.368Z" clip-rule="evenodd" fill-rule="evenodd" fill="#CCD7EE"/>
<path d="M62.628,243.16C62.694,243.148 62.756,243.189 62.768,243.252C62.779,243.307 62.747,243.36 62.695,243.38L62.672,243.387L45.329,246.481C45.264,246.493 45.202,246.451 45.19,246.389C45.179,246.334 45.211,246.281 45.262,246.261L45.286,246.254L62.628,243.16Z" fill="#A3B5D6"/>
<path d="M53.62,237.771L53.69,237.774C53.711,237.776 53.734,237.777 53.76,237.779C53.866,237.788 53.984,237.801 54.111,237.821C54.473,237.876 54.836,237.97 55.177,238.112C55.45,238.226 55.698,238.366 55.915,238.536C56.069,238.657 56.005,238.897 55.809,238.932C55.618,238.966 55.339,239.053 54.999,239.18L54.905,239.216C54.807,239.253 54.706,239.293 54.603,239.336C54.448,239.399 54.293,239.465 54.139,239.532L54.059,239.567L54.079,239.577C54.389,239.744 54.7,239.948 54.996,240.194L55.122,240.303C55.273,240.436 55.185,240.679 54.98,240.693C54.745,240.71 54.476,240.755 54.179,240.826C53.89,240.895 53.583,240.986 53.266,241.094C53.2,241.116 53.134,241.139 53.069,241.163L52.908,241.222L52.956,241.239C53.061,241.278 53.164,241.324 53.265,241.378L53.365,241.435C53.522,241.53 53.669,241.643 53.803,241.775C53.893,241.865 53.891,242.007 53.798,242.094C53.705,242.181 53.557,242.179 53.467,242.09C53.36,241.984 53.242,241.894 53.116,241.818C52.772,241.611 52.421,241.533 52.164,241.527L52.11,241.527L52.078,241.526C51.849,241.506 51.783,241.197 52.004,241.097L52.09,241.06C52.158,241.03 52.236,240.998 52.323,240.963C52.569,240.862 52.835,240.762 53.109,240.669C53.44,240.556 53.761,240.461 54.066,240.388C54.158,240.366 54.247,240.347 54.335,240.329L54.404,240.316L54.335,240.267C54.215,240.184 54.094,240.108 53.973,240.039L53.851,239.972C53.766,239.926 53.687,239.887 53.613,239.853L53.541,239.821C53.487,239.797 53.449,239.782 53.432,239.776C53.239,239.707 53.225,239.449 53.41,239.362L53.634,239.259L53.712,239.224C53.943,239.12 54.183,239.017 54.42,238.92L54.629,238.836C54.664,238.823 54.698,238.81 54.731,238.797L54.93,238.723C54.962,238.711 54.993,238.7 55.024,238.689L55.208,238.626L55.187,238.615L55.09,238.569L54.991,238.526C54.689,238.401 54.363,238.316 54.036,238.266C53.951,238.253 53.87,238.243 53.794,238.235L53.64,238.223C53.627,238.223 53.616,238.222 53.609,238.222C53.479,238.219 53.377,238.116 53.38,237.991C53.383,237.867 53.49,237.768 53.62,237.771Z" fill="#E4EBF7"/>
<path d="M54.064,235.665C53.738,235.692 53.464,235.729 53.263,235.763L53.185,235.777C53.158,235.782 53.133,235.791 53.11,235.804C52.837,235.959 52.705,236.161 52.754,236.389C52.789,236.552 52.906,236.681 53.073,236.795C53.175,236.864 53.275,236.914 53.346,236.944L53.373,236.96L53.62,237.093C53.699,237.135 53.783,237.179 53.872,237.226C54.295,237.445 54.74,237.665 55.187,237.87C55.48,238.005 55.765,238.129 56.038,238.24C56.954,238.612 57.689,238.823 58.2,238.822C58.934,238.822 59.235,238.367 58.941,237.59C58.495,236.41 57.344,235.817 55.76,235.666C55.206,235.613 54.631,235.618 54.064,235.665ZM55.713,236.115C57.1,236.247 58.077,236.735 58.47,237.667L58.5,237.744C58.686,238.236 58.597,238.371 58.2,238.371C57.77,238.371 57.082,238.175 56.221,237.825C55.955,237.716 55.676,237.595 55.389,237.463C54.95,237.261 54.511,237.045 54.095,236.829L53.847,236.699L53.556,236.541C53.487,236.511 53.415,236.475 53.344,236.427C53.265,236.373 53.219,236.321 53.213,236.298L53.214,236.294C53.216,236.285 53.232,236.265 53.289,236.228L53.314,236.212L53.412,236.196C53.592,236.167 53.828,236.138 54.104,236.115C54.645,236.07 55.191,236.065 55.713,236.115Z" fill="#E4EBF7"/>
<path d="M101.119,170.604C99.252,167.395 95.267,166.153 92.294,167.853L60.327,186.136C57.866,187.544 57.134,190.789 58.68,193.446C60.226,196.104 63.484,197.202 66.02,195.92L98.94,179.278C102.002,177.73 102.986,173.813 101.119,170.604Z" clip-rule="evenodd" fill-rule="evenodd" fill="#FFC999"/>
<path d="M46.949,236.71C44.954,236.062 43.846,234.014 44.44,232.072L57.142,190.51C58.057,187.516 61.378,185.855 64.451,186.853C67.525,187.851 69.119,191.108 67.96,194.023L51.867,234.483C51.115,236.375 48.944,237.358 46.949,236.71Z" clip-rule="evenodd" fill-rule="evenodd" fill="#FFC999"/>
<path d="M43.439,235.085L50.645,237.717L55.299,226.699L47.027,223.677L43.439,235.085Z" clip-rule="evenodd" fill-rule="evenodd" fill="#FFFFFF"/>
<path d="M45.848,226.898C45.889,226.791 46.006,226.732 46.119,226.756L46.149,226.765L53.243,229.309C53.364,229.352 53.426,229.482 53.381,229.599C53.339,229.706 53.222,229.765 53.11,229.74L53.079,229.732L45.986,227.188C45.864,227.144 45.803,227.014 45.848,226.898Z" fill="#E4EBF7"/>
<path d="M43.979,233.417L51.336,236.056L46.684,249.153L30.105,243.207L30.837,241.203C31.108,240.467 31.888,240.024 32.689,240.151L37.572,240.484L40.313,240.057C41.139,239.928 41.823,239.376 42.095,238.614C42.678,236.979 43.671,234.205 43.979,233.417Z" clip-rule="evenodd" fill-rule="evenodd" fill="#4E5C93"/>
<path d="M29.694,243.662C29.538,243.606 29.458,243.438 29.516,243.287L30.207,241.505C30.266,241.354 30.44,241.277 30.596,241.333L47.124,247.261C47.281,247.317 47.361,247.484 47.302,247.635L46.611,249.418C46.553,249.569 46.379,249.645 46.222,249.589L29.694,243.662Z" clip-rule="evenodd" fill-rule="evenodd" fill="#CCD7EE"/>
<path d="M30.292,241.15C30.728,240.027 32.403,239.373 33.625,239.607L37.133,240.366L36.293,243.258L30.292,241.15Z" clip-rule="evenodd" fill-rule="evenodd" fill="#CCD7EE"/>
<path d="M30.297,241.275C30.317,241.222 30.372,241.193 30.427,241.201L30.451,241.207L46.978,247.134C47.04,247.156 47.072,247.223 47.049,247.282C47.028,247.335 46.973,247.364 46.918,247.356L46.894,247.35L30.367,241.423C30.305,241.401 30.274,241.334 30.297,241.275Z" fill="#A3B5D6"/>
<path d="M40.875,238.85C40.945,238.744 41.089,238.713 41.198,238.78L41.255,238.816C41.31,238.852 41.382,238.903 41.466,238.967C41.662,239.116 41.858,239.287 42.041,239.481C42.36,239.817 42.607,240.182 42.754,240.575C42.821,240.756 42.639,240.931 42.452,240.864C42.24,240.787 41.888,240.713 41.443,240.646C41.228,240.614 41.001,240.584 40.771,240.558L40.616,240.541L40.636,240.574C40.682,240.652 40.728,240.735 40.773,240.821L40.839,240.953C40.954,241.19 41.054,241.44 41.133,241.701C41.191,241.891 40.986,242.056 40.803,241.967C40.529,241.833 40.18,241.713 39.775,241.608C39.516,241.54 39.243,241.482 38.966,241.431L38.747,241.392L38.775,241.425C38.961,241.655 39.105,241.918 39.191,242.213L39.218,242.312C39.248,242.434 39.17,242.556 39.044,242.584C38.918,242.613 38.792,242.538 38.763,242.416C38.69,242.12 38.548,241.863 38.354,241.642C38.253,241.526 38.144,241.429 38.035,241.348L37.978,241.307C37.944,241.284 37.918,241.268 37.902,241.26C37.68,241.14 37.788,240.812 38.04,240.838L38.202,240.856L38.403,240.882C38.473,240.892 38.546,240.903 38.622,240.914C39.056,240.981 39.49,241.066 39.897,241.171C40.089,241.221 40.271,241.275 40.44,241.332L40.511,241.356L40.477,241.276L40.416,241.145C40.316,240.939 40.209,240.756 40.103,240.597L40.031,240.494C40.004,240.455 39.982,240.427 39.968,240.41C39.84,240.255 39.966,240.027 40.17,240.043L40.432,240.067C40.483,240.072 40.536,240.078 40.591,240.083C40.906,240.116 41.221,240.155 41.515,240.199C41.698,240.227 41.866,240.256 42.017,240.285L42.1,240.302L42.064,240.244C41.981,240.118 41.885,239.995 41.778,239.875L41.696,239.786C41.531,239.612 41.354,239.457 41.177,239.323L41.093,239.26C41.029,239.214 40.979,239.181 40.948,239.162C40.839,239.095 40.806,238.955 40.875,238.85Z" transform="rotate(26.973 40.275 240.668)" fill="#E4EBF7"/>
<path d="M42.376,237.872C41.884,237.868 41.661,238.143 41.749,238.515C41.77,238.603 41.806,238.692 41.854,238.781C41.896,238.861 41.939,238.925 41.969,238.966L42.01,239.038L42.166,239.298C42.221,239.389 42.281,239.486 42.344,239.588C42.645,240.07 42.963,240.552 43.286,241.003C43.542,241.361 43.791,241.684 44.028,241.964C44.533,242.56 44.972,242.946 45.351,243.085C45.889,243.281 46.282,242.986 46.422,242.288C46.673,241.047 45.991,239.963 44.696,239.045C44.246,238.726 43.748,238.448 43.236,238.209C42.978,238.09 42.754,237.997 42.582,237.932L42.454,237.885C42.429,237.877 42.403,237.872 42.376,237.872ZM42.28,238.323L42.332,238.323L42.476,238.377C42.628,238.436 42.817,238.516 43.032,238.615C43.52,238.842 43.993,239.108 44.418,239.408C45.583,240.234 46.171,241.169 45.962,242.202C45.871,242.652 45.746,242.746 45.518,242.663C45.238,242.561 44.847,242.217 44.392,241.679C44.163,241.409 43.922,241.096 43.672,240.748C43.355,240.305 43.042,239.831 42.746,239.356L42.571,239.07L42.375,238.742C42.371,238.735 42.368,238.729 42.365,238.724C42.332,238.678 42.301,238.632 42.271,238.575C42.24,238.517 42.217,238.462 42.207,238.416L42.199,238.381C42.191,238.337 42.204,238.326 42.28,238.323Z" fill="#E4EBF7"/>
<path d="M80.685,134.426C79.859,136.492 78.31,140.057 78.239,142.355C78.124,146.079 80.811,148.683 80.811,148.683C80.811,148.683 80.765,147.592 81.637,157.171C93.245,158.412 100.43,155.908 100.43,155.908L100.039,153.379L101.509,147.254C101.509,147.254 102.495,144.947 104.496,139.811C105.886,136.241 105.492,131.943 105.122,129.655C104.964,128.675 104.195,127.889 103.186,127.681C99.662,126.955 98.35,127.005 98.35,127.005L97.879,124.828C97.799,124.455 97.446,124.196 97.051,124.22L88.612,124.732C88.249,124.754 87.948,125.009 87.88,125.353L87.414,127.71L82.255,129.012C81.446,129.216 80.87,129.906 80.837,130.711L80.685,134.426Z" clip-rule="evenodd" fill-rule="evenodd" fill="#FFFFFF"/>
<path d="M95.984,127.124C96.064,127.119 96.133,127.178 96.138,127.255C96.142,127.323 96.095,127.383 96.028,127.399L96.002,127.403L88.403,127.864C88.323,127.869 88.254,127.81 88.249,127.733C88.245,127.665 88.292,127.605 88.359,127.589L88.385,127.585L95.984,127.124Z" fill="#4E5C93"/>
<path d="M98.277,126.401C98.348,126.33 98.466,126.328 98.54,126.397C98.606,126.458 98.614,126.554 98.565,126.625L98.544,126.65L88.89,136.222C88.793,136.318 88.628,136.28 88.582,136.16L88.574,136.133L86.81,127.855C86.79,127.758 86.855,127.663 86.955,127.644C87.046,127.626 87.135,127.674 87.167,127.755L87.175,127.783L88.868,135.73L98.277,126.401Z" fill="#CCD7EE"/>
<path d="M85.497,137.661C84.744,139.079 85.237,140.771 86.596,141.439C87.957,142.108 89.669,141.499 90.423,140.081C91.176,138.663 90.684,136.972 89.324,136.304C87.963,135.635 86.25,136.243 85.497,137.661Z" clip-rule="evenodd" fill-rule="evenodd" fill="#CCD7EE"/>
<path d="M85.194,137.673C84.441,139.091 84.933,140.783 86.292,141.451C87.653,142.119 89.366,141.511 90.119,140.093C90.872,138.675 90.38,136.983 89.02,136.315C87.66,135.647 85.946,136.255 85.194,137.673Z" clip-rule="evenodd" fill-rule="evenodd" fill="#E4EBF7"/>
<path d="M85.745,137.879C85.16,138.98 85.542,140.293 86.598,140.812C87.654,141.331 88.985,140.859 89.569,139.758C90.154,138.656 89.771,137.343 88.716,136.825C87.66,136.306 86.329,136.778 85.745,137.879Z" clip-rule="evenodd" fill-rule="evenodd" fill="#8352FD"/>
<path d="M105.109,129.516C105.189,129.509 105.259,129.566 105.267,129.643L105.314,130.18L105.35,130.612C105.373,130.908 105.397,131.217 105.419,131.536C105.461,132.15 105.497,132.751 105.523,133.325L105.535,133.609C105.588,134.915 105.584,135.964 105.51,136.665C105.432,137.396 105.051,138.603 104.439,140.166L104.379,140.319C104.26,140.62 104.134,140.932 104.001,141.251C103.736,141.89 103.455,142.537 103.172,143.172L102.838,143.912L102.518,144.601L102.493,144.65L100.056,153.439L100.492,156.021C100.502,156.082 100.47,156.141 100.414,156.168L100.389,156.177L100.195,156.228L100.146,156.24C99.948,156.29 99.716,156.345 99.449,156.405C98.69,156.575 97.816,156.745 96.839,156.904C92.137,157.668 86.94,157.9 81.592,157.277C81.523,157.269 81.469,157.214 81.465,157.147L81.428,156.715C81.383,156.236 81.301,155.417 81.19,154.326L80.811,150.642L80.644,149.034L80.553,148.892L80.444,148.718C80.387,148.626 80.328,148.528 80.265,148.423C79.968,147.924 79.671,147.384 79.393,146.823C79.019,146.065 78.709,145.326 78.488,144.63C78.287,143.995 78.163,143.408 78.128,142.88C78.041,141.542 78.152,140.486 78.483,139.4C78.659,138.823 78.897,138.23 79.247,137.477L79.39,137.175C79.466,137.018 79.571,136.802 79.688,136.562L80.565,134.783L80.506,132.53C80.504,132.461 80.554,132.403 80.621,132.39L80.647,132.387C80.719,132.385 80.779,132.433 80.793,132.498L80.796,132.523L80.856,134.81L80.842,134.873L79.704,137.187C79.654,137.291 79.612,137.377 79.583,137.439C79.199,138.255 78.945,138.877 78.762,139.479C78.441,140.532 78.332,141.556 78.418,142.863C78.451,143.367 78.57,143.932 78.766,144.548C78.982,145.231 79.286,145.956 79.655,146.703C79.929,147.257 80.223,147.791 80.517,148.284L80.637,148.483C80.675,148.546 80.712,148.606 80.748,148.663L80.907,148.913L80.929,148.974L81.592,155.415C81.652,156.016 81.697,156.477 81.725,156.777L81.746,157.013L81.99,157.041C87.058,157.595 91.986,157.382 96.471,156.68L96.791,156.629C97.681,156.484 98.484,156.33 99.193,156.175L99.384,156.133C99.603,156.084 99.8,156.038 99.972,155.995L100.184,155.942L99.765,153.454L99.768,153.395L102.221,144.556L102.458,144.048C102.513,143.928 102.571,143.801 102.632,143.669L102.693,143.534C103.047,142.753 103.401,141.943 103.732,141.147C103.864,140.829 103.989,140.52 104.108,140.22L104.276,139.789C104.816,138.383 105.151,137.293 105.221,136.636L105.238,136.458C105.292,135.808 105.293,134.894 105.252,133.78L105.245,133.62C105.219,132.965 105.179,132.269 105.129,131.554L105.095,131.085C105.084,130.932 105.072,130.781 105.061,130.634L104.978,129.668C104.971,129.591 105.029,129.523 105.109,129.516Z" fill="#4E5C93"/>
<path d="M97.232,158.828C104.167,158.828 108.02,182.053 112.805,190.809C112.125,192.5 108.862,195.259 108.862,195.259C108.862,195.259 109.01,196.68 109.104,197.534C105.393,199.854 98.652,200.601 98.652,200.601L98.498,201.792C87.45,205.306 73.907,199.323 73.907,199.323C73.907,199.323 73.675,199.037 73.973,198.122C69.21,197.552 59.68,190.626 59.68,190.626L61.003,188.288L50.74,175.752C50.74,175.752 70.716,164.133 76.426,160.805C81.564,157.81 80.665,157.346 80.665,157.346C80.665,157.346 90.103,158.828 97.232,158.828Z" clip-rule="evenodd" fill-rule="evenodd" fill="url(#pf_0_i_59_388;153_5705)"/>
<path d="M66.005,181.463C66.06,181.384 66.17,181.364 66.252,181.417C66.324,181.464 66.349,181.553 66.315,181.627L66.299,181.654L60.111,190.453L60.176,190.512L60.381,190.69L60.458,190.756C60.836,191.078 61.283,191.437 61.797,191.823C63.265,192.929 64.971,194.035 66.897,195.067C69.097,196.247 71.446,197.253 73.929,198.034C74.022,198.063 74.073,198.16 74.042,198.25C74.012,198.34 73.911,198.389 73.818,198.359C71.313,197.572 68.943,196.556 66.724,195.366C64.781,194.325 63.06,193.209 61.577,192.093C61.11,191.741 60.697,191.412 60.34,191.112L60.223,191.013C60.142,190.944 60.068,190.88 60,190.821L59.789,190.631C59.774,190.618 59.763,190.607 59.754,190.599C59.701,190.549 59.687,190.472 59.716,190.408L59.732,190.381L66.005,181.463Z" fill="#253368"/>
<path d="M102.578,174.97C102.663,174.947 102.751,174.988 102.788,175.062L102.798,175.088L109.43,197.679C109.453,197.758 109.415,197.841 109.34,197.878L109.267,197.913C109.216,197.937 109.148,197.968 109.064,198.006L108.864,198.095C108.69,198.171 108.498,198.253 108.289,198.339C107.454,198.684 106.516,199.029 105.496,199.35C103.274,200.051 100.986,200.543 98.718,200.735C98.62,200.743 98.534,200.673 98.525,200.579C98.517,200.485 98.589,200.402 98.687,200.394C100.925,200.205 103.187,199.718 105.386,199.025C106.394,198.707 107.323,198.366 108.149,198.025L108.388,197.925C108.504,197.876 108.613,197.829 108.716,197.784L109.003,197.655L109.047,197.634L102.455,175.181C102.431,175.099 102.473,175.015 102.551,174.98L102.578,174.97Z" fill="#253368"/>
<path d="M95.074,155.975C95.162,155.968 95.241,156.024 95.262,156.103L95.268,156.143L95.645,160.501C95.706,161.214 95.769,161.958 95.834,162.731L96.031,165.076C96.325,168.61 96.617,172.221 96.898,175.818L97.083,178.214C97.22,180.002 97.352,181.753 97.477,183.462L97.665,186.06C98.106,192.242 98.444,197.613 98.654,201.954C98.658,202.037 98.599,202.111 98.515,202.129C92.083,203.484 85.294,202.923 78.784,201.166C77.402,200.793 76.145,200.393 75.038,199.993L74.756,199.89C74.528,199.806 74.319,199.726 74.129,199.651L73.873,199.548L73.657,199.458C73.584,199.426 73.543,199.352 73.555,199.278L73.561,199.25L85.951,161.929C85.981,161.839 86.081,161.789 86.175,161.818C86.259,161.844 86.309,161.924 86.297,162.006L86.29,162.033L73.949,199.207L74.153,199.29L74.379,199.379C74.575,199.455 74.789,199.536 75.022,199.622L75.163,199.673C76.261,200.07 77.508,200.466 78.88,200.837C85.241,202.553 91.868,203.118 98.149,201.854L98.292,201.825L98.214,200.302C98.008,196.382 97.711,191.73 97.339,186.484L97.228,184.939L97.068,182.751C96.959,181.277 96.846,179.771 96.728,178.239L96.543,175.844C96.263,172.247 95.97,168.637 95.676,165.103L95.265,160.226L94.912,156.16C94.904,156.066 94.976,155.983 95.074,155.975Z" fill="#253368"/>
<path d="M90.762,156.168C90.85,156.173 90.92,156.239 90.929,156.321L90.929,156.349L89.099,187.764C89.094,187.859 89.01,187.931 88.912,187.926C88.824,187.921 88.754,187.855 88.745,187.773L88.744,187.745L90.574,156.33C90.58,156.235 90.664,156.163 90.762,156.168Z" fill="#253368"/>
<path d="M83.349,159.416C83.406,159.339 83.517,159.321 83.597,159.377C83.668,159.426 83.691,159.515 83.654,159.589L83.638,159.615L70.122,177.731C70.065,177.808 69.954,177.825 69.874,177.77C69.803,177.721 69.781,177.631 69.817,177.558L69.833,177.532L83.349,159.416Z" fill="#253368"/>
<path d="M65.855,165.425L87.819,164.339L67.099,155.923L48.817,158.542L65.855,165.425Z" clip-rule="evenodd" fill-rule="evenodd" fill="#253368"/>
<path d="M65.2,163.893L81.152,163.104L66.477,157.002L52.826,158.895L65.2,163.893Z" clip-rule="evenodd" fill-rule="evenodd" fill="#4E5C93"/>
<path d="M87.687,165.41L87.822,164.346L65.425,165.284L65.672,166.46L87.687,165.41Z" clip-rule="evenodd" fill-rule="evenodd" fill="#FFFFFF"/>
<path d="M63.377,157.645C63.396,157.607 63.44,157.589 63.481,157.598L63.501,157.605L75.368,163.218C75.414,163.239 75.433,163.293 75.411,163.337C75.391,163.375 75.347,163.394 75.306,163.385L75.286,163.378L63.419,157.765C63.373,157.744 63.354,157.69 63.377,157.645Z" fill="#CCD7EE"/>
<path d="M65.084,157.181C65.103,157.143 65.146,157.123 65.188,157.132L65.208,157.138L78.504,163.164C78.55,163.185 78.57,163.238 78.548,163.283C78.53,163.321 78.486,163.341 78.445,163.332L78.425,163.326L65.129,157.3C65.082,157.279 65.062,157.226 65.084,157.181Z" fill="#CCD7EE"/>
<path d="M63.072,158.706C63.092,158.668 63.136,158.65 63.177,158.66L63.197,158.667L73.145,163.538C73.191,163.561 73.209,163.615 73.185,163.659C73.165,163.697 73.121,163.715 73.08,163.705L73.06,163.698L63.112,158.827C63.067,158.804 63.048,158.75 63.072,158.706Z" fill="#CCD7EE"/>
<path d="M60.201,158.689C60.221,158.651 60.265,158.633 60.306,158.642L60.326,158.65L70.274,163.522C70.319,163.544 70.338,163.598 70.314,163.642C70.294,163.68 70.25,163.698 70.209,163.688L70.189,163.681L60.241,158.809C60.195,158.787 60.177,158.733 60.201,158.689Z" fill="#CCD7EE"/>
<path d="M57.53,158.851C57.55,158.813 57.594,158.795 57.635,158.805L57.655,158.812L67.603,163.683C67.649,163.706 67.667,163.76 67.643,163.804C67.623,163.841 67.579,163.86 67.538,163.85L67.518,163.843L57.57,158.971C57.525,158.949 57.506,158.895 57.53,158.851Z" fill="#CCD7EE"/>
<path d="M78.658,162.189C78.71,162.188 78.752,162.228 78.753,162.277C78.754,162.319 78.724,162.355 78.683,162.365L78.662,162.368L65.06,162.592C65.009,162.593 64.967,162.553 64.966,162.504C64.965,162.461 64.995,162.425 65.036,162.415L65.057,162.413L78.658,162.189Z" fill="#CCD7EE"/>
<path d="M75.792,160.875C75.843,160.874 75.885,160.914 75.886,160.963C75.887,161.005 75.857,161.041 75.816,161.051L75.795,161.054L62.194,161.278C62.143,161.279 62.101,161.24 62.1,161.19C62.099,161.148 62.129,161.112 62.17,161.102L62.191,161.099L75.792,160.875Z" fill="#CCD7EE"/>
<path d="M72.175,159.825C72.226,159.824 72.269,159.863 72.27,159.913C72.27,159.955 72.24,159.991 72.199,160.001L72.178,160.004L58.577,160.227C58.526,160.228 58.483,160.189 58.482,160.14C58.482,160.097 58.512,160.061 58.553,160.051L58.574,160.048L72.175,159.825Z" fill="#CCD7EE"/>
<path d="M69.874,157.783C69.926,157.782 69.968,157.822 69.969,157.871C69.97,157.913 69.94,157.949 69.899,157.959L69.877,157.962L56.276,158.186C56.225,158.187 56.183,158.148 56.182,158.098C56.181,158.056 56.211,158.02 56.252,158.01L56.273,158.007L69.874,157.783Z" fill="#CCD7EE"/>
<path d="M65.656,166.458L64.677,166.44L48.576,159.709L44.83,131.94L62.39,137.214L65.656,166.458Z" clip-rule="evenodd" fill-rule="evenodd" fill="#FFFFFF"/>
<path d="M64.641,166.438L47.661,159.347C47.507,159.283 47.398,159.144 47.376,158.983L43.745,132.293C43.7,131.958 44.031,131.69 44.367,131.791L61.021,136.817C61.203,136.872 61.335,137.026 61.355,137.209L64.641,166.438Z" clip-rule="evenodd" fill-rule="evenodd" fill="url(#pf_0_i_59_388;153_5724)"/>
<path d="M108.501,159.79L108.133,159.853C105.615,160.283 103.21,158.669 102.762,156.247L98.63,133.9C98.182,131.478 99.861,129.165 102.379,128.734L102.746,128.671C105.264,128.24 107.67,129.855 108.117,132.277L112.25,154.624C112.698,157.046 111.019,159.359 108.501,159.79Z" clip-rule="evenodd" fill-rule="evenodd" fill="#FFC999"/>
<path d="M109.897,141.899L107.972,131.489C107.508,128.979 104.994,127.291 102.384,127.737C99.776,128.184 98.021,130.602 98.485,133.112L100.392,143.423L109.897,141.899Z" clip-rule="evenodd" fill-rule="evenodd" fill="#FFFFFF"/>
<path d="M108.083,131.328C108.154,131.316 108.221,131.354 108.245,131.416L108.252,131.441L110.177,141.851C110.189,141.919 110.149,141.984 110.084,142.007L110.058,142.013L100.211,143.647C100.142,143.659 100.076,143.621 100.051,143.56L100.044,143.536L98.375,135.136C98.36,135.06 98.411,134.987 98.49,134.972C98.56,134.96 98.628,134.997 98.652,135.059L98.66,135.083L100.302,143.349L109.865,141.762L107.966,131.49C107.954,131.422 107.994,131.357 108.058,131.334L108.083,131.328Z" fill="#4E5C93"/>
<path d="M79.939,159.034C80.045,160.326 81.188,161.308 82.534,161.265L108.513,160.424C110.898,160.271 112.692,158.272 112.504,155.981C112.313,153.669 110.18,151.962 107.781,152.203L82.023,156.455C80.74,156.667 79.836,157.786 79.939,159.034Z" clip-rule="evenodd" fill-rule="evenodd" fill="#FFC999"/>
<path d="M84.894,161.114C83.076,162.483 77.187,161.939 77.187,161.939L73.392,163.987C72.802,164.249 72.638,163.87 72.34,163.885C71.537,163.926 71.493,163.114 71.493,163.114C71.209,163.002 70.774,163.227 70.614,162.5C70.614,162.5 70.05,162.489 69.974,161.834C69.934,161.489 73.325,156.297 73.325,156.297L78.795,156.168C78.795,156.168 86.782,155.913 87.77,157.59C88.757,159.267 84.894,161.114 84.894,161.114Z" clip-rule="evenodd" fill-rule="evenodd" fill="#FFC999"/>
<path d="M73.213,155.932L83.109,156.184C83.209,156.187 83.287,156.266 83.285,156.362C83.282,156.448 83.215,156.518 83.129,156.529L83.1,156.53L73.307,156.281L72.838,157.004L72.369,157.735C72.291,157.857 72.214,157.978 72.138,158.098L71.473,159.153C70.638,160.491 70.054,161.499 70.037,161.617L70.037,161.623C70.048,161.718 69.977,161.804 69.878,161.815C69.78,161.825 69.691,161.757 69.68,161.662C69.658,161.477 70.063,160.751 70.895,159.408L71.379,158.631C71.673,158.164 71.983,157.677 72.297,157.188L73.056,156.013C73.085,155.969 73.133,155.94 73.187,155.934L73.213,155.932Z" fill="#DD936F"/>
<path d="M75.324,157.518C75.414,157.478 75.521,157.516 75.562,157.603C75.6,157.681 75.571,157.772 75.499,157.819L75.474,157.832L73.465,158.718L70.763,162.596C70.713,162.667 70.618,162.692 70.539,162.657L70.513,162.643C70.439,162.596 70.414,162.504 70.45,162.428L70.464,162.403L73.195,158.485C73.208,158.465 73.226,158.448 73.247,158.435L73.269,158.424L75.324,157.518Z" fill="#DD936F"/>
<path d="M75.75,158.919C75.84,158.878 75.947,158.915 75.99,159.001C76.028,159.079 76.001,159.17 75.93,159.218L75.904,159.232L74.315,159.955L71.634,163.221C71.579,163.288 71.483,163.305 71.408,163.267L71.381,163.25C71.312,163.197 71.293,163.105 71.333,163.033L71.351,163.007L74.059,159.709C74.071,159.695 74.084,159.683 74.1,159.673L74.124,159.66L75.75,158.919Z" fill="#DD936F"/>
<path d="M77.369,159.664C77.457,159.618 77.566,159.65 77.613,159.734C77.655,159.81 77.633,159.902 77.565,159.953L77.54,159.969L75.339,161.108L72.565,163.893C72.504,163.954 72.407,163.963 72.336,163.917L72.31,163.898C72.247,163.839 72.238,163.746 72.285,163.677L72.305,163.653L75.099,160.849L75.143,160.817L77.369,159.664Z" fill="#DD936F"/>
<path d="M50.63,175.618C50.699,175.566 50.795,175.57 50.858,175.624L50.88,175.646L61.143,188.182C61.204,188.256 61.191,188.363 61.114,188.422C61.045,188.474 60.949,188.469 60.886,188.416L60.864,188.393L50.601,175.858C50.54,175.784 50.553,175.676 50.63,175.618Z" fill="#253368"/>
<defs>
<linearGradient id="pf_0_i_59_388;153_5705" x1="81.772" y1="157.346" x2="81.772" y2="202.898" gradientUnits="userSpaceOnUse">
<stop stop-color="#4E5C93"/>
<stop offset="1" stop-color="#C961DE"/>
</linearGradient>
<linearGradient id="pf_0_i_59_388;153_5724" x1="83.993" y1="148.714" x2="54.191" y2="166.438" gradientUnits="userSpaceOnUse">
<stop offset="0.503" stop-color="#0500FF" stop-opacity="0.8"/>
<stop offset="1" stop-color="#994A88" stop-opacity="0.8"/>
</linearGradient>
</defs>
</svg>
