<svg width="758" height="1648" viewBox="0 0 758 1648" fill="none" xmlns="http://www.w3.org/2000/svg" xmlns:xlink="http://www.w3.org/1999/xlink">
<path d="M331.316,628.982C331.316,628.982 307.392,625.213 301.07,652.687C277.886,661.849 284.21,689.326 284.21,689.326C284.21,689.326 272.565,710.911 295.696,721.969C297.546,744.082 320.676,740.062 320.676,740.062C320.676,740.062 326.228,757.152 343.807,750.114C362.774,766.142 398.519,762.926 411.212,743.332C436.377,763.742 480.167,738.827 474.673,720.195C504.065,718.26 518.315,684.392 501.093,655.621C514.321,632.864 499.241,619.432 499.241,619.432C499.241,619.432 503.405,567.158 470.099,560.122C452.981,531.975 415.973,554.592 415.973,554.592C415.973,554.592 391.455,549.065 382.665,572.184C355.268,576.764 356.554,593.127 354.447,606.866C329.928,608.374 331.316,628.982 331.316,628.982Z" clip-rule="evenodd" fill-rule="evenodd" fill="#253368"/>
<path d="M407.338,603.459C426.545,607.121 432.385,591.33 432.385,591.33C432.385,591.33 440.311,569.086 442.343,582.74C443.42,589.998 453.746,580.368 458.494,588.104C461.69,593.31 453.702,600.02 464.084,613.904C470.1,621.946 446.371,628.361 461.01,643.186C461.01,643.186 450.602,661.279 468.479,667.181L470.373,688.399C471.476,700.745 462.534,711.432 451.117,711.412C440.231,711.393 431.508,701.609 431.837,689.786L432.559,663.919C404.804,663.919 403.45,622.469 407.338,603.459Z" clip-rule="evenodd" fill-rule="evenodd" fill="#FFC999"/>
<path d="M441.007,625.522C441.488,624.999 442.268,624.999 442.749,625.521C443.231,626.044 443.231,626.892 442.75,627.415C442.125,628.095 440.994,629.066 439.403,630.027C436.266,631.923 432.668,632.91 428.706,632.492C428.028,632.42 427.532,631.766 427.598,631.03C427.664,630.294 428.266,629.755 428.944,629.826C432.368,630.187 435.479,629.335 438.204,627.687C439.009,627.201 439.716,626.681 440.318,626.164L440.629,625.889C440.81,625.724 440.937,625.598 441.007,625.522Z" fill="#F5222D"/>
<path d="M426.794,605.935L426.792,605.575C426.831,605.119 427.169,604.747 427.603,604.713C428.037,604.68 428.42,604.997 428.517,605.443L428.541,605.636L428.542,605.677C428.573,606.594 428.421,607.993 427.936,609.814C427.287,612.252 426.164,614.919 424.469,617.776L424.163,618.278L424.651,618.607L425.836,619.39C426.984,620.14 428.023,620.793 428.954,621.355L429.41,621.629C429.867,621.9 430.269,622.132 430.616,622.325L431.325,622.709C431.764,622.929 431.956,623.494 431.754,623.972C431.551,624.449 431.031,624.658 430.591,624.437L430.219,624.241L429.535,623.861C429.341,623.751 429.134,623.631 428.912,623.501L428.57,623.299C426.898,622.306 424.865,621.008 422.462,619.37C422.038,619.081 421.923,618.466 422.21,618.019C424.261,614.825 425.558,611.896 426.253,609.285C426.649,607.797 426.791,606.666 426.794,605.935Z" fill="#DD936F"/>
<path d="M453.55,604.46C454.205,604.46 454.735,605.037 454.735,605.748C454.735,610.696 451.304,614.751 447.021,614.751C442.739,614.751 439.31,610.697 439.31,605.748C439.31,605.037 439.84,604.46 440.495,604.46C441.149,604.46 441.679,605.037 441.679,605.748C441.679,609.321 444.095,612.177 447.021,612.177C449.948,612.177 452.366,609.32 452.366,605.748C452.366,605.037 452.896,604.46 453.55,604.46Z" fill="#253368"/>
<path d="M422.334,605.344C422.955,605.344 423.459,605.891 423.459,606.566C423.459,611.456 420.376,615.505 416.46,615.505C412.543,615.505 409.462,611.457 409.462,606.566C409.462,605.891 409.965,605.344 410.587,605.344C411.208,605.344 411.711,605.891 411.711,606.566C411.711,610.199 413.89,613.06 416.46,613.06C419.03,613.06 421.209,610.198 421.209,606.566C421.209,605.891 421.713,605.344 422.334,605.344Z" fill="#253368"/>
<path d="M440.043,590.3C444.572,588.72 449.362,588.511 453.886,590.584C454.719,590.965 455.531,591.422 456.318,591.957C456.873,592.333 457.041,593.127 456.695,593.73C456.348,594.333 455.617,594.517 455.062,594.14C454.382,593.678 453.683,593.285 452.966,592.956C449.041,591.158 444.805,591.342 440.768,592.751C440.258,592.929 439.786,593.116 439.357,593.305L438.942,593.494C438.629,593.642 438.417,593.753 438.317,593.81C437.739,594.142 437.022,593.901 436.717,593.273C436.411,592.644 436.633,591.865 437.212,591.533C437.769,591.214 438.741,590.755 440.043,590.3Z" fill="#253368"/>
<path d="M449.148,658.403C449.573,658.152 450.105,658.323 450.337,658.784C450.568,659.246 450.411,659.824 449.986,660.075C444.353,663.408 438.492,665.086 432.598,665.174C432.114,665.181 431.716,664.76 431.709,664.235C431.703,663.709 432.09,663.277 432.574,663.27C438.183,663.187 443.764,661.588 449.148,658.403Z" fill="#DD936F"/>
<path d="M382.537,894.491C369.721,892.432 360.865,879.478 362.76,865.554L381.202,729.865C383.095,715.94 395.018,706.318 407.835,708.374C420.649,710.432 429.503,723.386 427.613,737.311L409.168,873.002C407.276,886.926 395.353,896.546 382.537,894.491Z" clip-rule="evenodd" fill-rule="evenodd" fill="#FFC999"/>
<path d="M419.793,794.831L427.612,737.31C429.497,723.444 420.596,710.422 407.834,708.373C395.072,706.327 383.089,715.998 381.203,729.864L373.458,786.838L419.793,794.831Z" clip-rule="evenodd" fill-rule="evenodd" fill="#FFFFFF"/>
<path d="M408.607,707.723C421.602,709.808 430.706,722.93 429.046,737.027L428.982,737.53L421.161,795.052C421.11,795.427 420.817,795.698 420.48,795.707L420.351,795.697L374.019,787.704C373.634,787.637 373.371,787.244 373.432,786.826C373.486,786.454 373.778,786.187 374.113,786.179L374.24,786.188L419.867,794.059L427.585,737.306C429.389,724.026 420.992,711.543 408.863,709.32L408.401,709.241C408.015,709.179 407.748,708.789 407.805,708.369C407.856,707.997 408.145,707.727 408.48,707.715L408.607,707.723Z" fill="#4E5C93"/>
<path d="M300.759,849.781C300.575,854.757 304.024,859.008 308.587,859.433L396.7,867.675C404.819,868.14 411.728,861.307 412.054,852.479C412.387,843.573 405.898,836.12 397.695,835.983L308.889,840.859C304.463,841.103 300.939,844.97 300.759,849.781Z" clip-rule="evenodd" fill-rule="evenodd" fill="#FFC999"/>
<path d="M292.128,837.177C292.128,837.177 307.955,835.816 312.005,844.982C315.676,853.285 308.497,858.262 308.497,858.262C308.497,858.262 302.077,864.437 293.067,867.81C287.131,870.03 275.446,873.009 273.952,869.779C272.002,865.566 285.408,863.03 284.908,859.645C284.398,856.168 281.591,856.47 275.004,854.872C270.889,853.873 266.47,854.65 263.128,853.082C256.599,850.015 268.233,837.071 292.128,837.177Z" clip-rule="evenodd" fill-rule="evenodd" fill="#FFC999"/>
<path d="M263.999,848.495C269.912,846.925 275.259,847.191 279.793,848.588C280.614,848.841 281.339,849.113 281.962,849.386L282.365,849.57C282.538,849.653 282.67,849.72 282.758,849.77C283.189,850.01 283.359,850.583 283.138,851.051C282.917,851.519 282.389,851.704 281.959,851.464L281.649,851.308C281.553,851.262 281.438,851.21 281.306,851.152C280.74,850.903 280.074,850.654 279.315,850.42C275.058,849.108 270.015,848.857 264.415,850.345C263.945,850.47 263.47,850.157 263.356,849.646C263.241,849.135 263.529,848.62 263.999,848.495Z" fill="#DD936F"/>
<path d="M270.966,843.209C275.331,842.432 280.073,842.461 284.656,843.845C285.123,843.986 285.395,844.511 285.266,845.017C285.136,845.524 284.653,845.82 284.187,845.679C279.882,844.379 275.385,844.351 271.249,845.088C270.814,845.165 270.414,845.246 270.051,845.329L269.702,845.411C269.436,845.476 269.256,845.525 269.168,845.552C268.702,845.692 268.219,845.395 268.09,844.888C267.961,844.382 268.235,843.857 268.701,843.717L269.151,843.595L269.317,843.554C269.799,843.436 270.351,843.318 270.966,843.209Z" fill="#DD936F"/>
<path d="M275.408,838.96C280.154,838.38 284.04,838.552 287.071,839.197L287.724,839.347C288.427,839.52 288.926,839.687 289.222,839.814C289.673,840.007 289.894,840.56 289.716,841.049C289.539,841.538 289.03,841.778 288.58,841.585L288.342,841.494C288.008,841.376 287.472,841.223 286.734,841.066C283.878,840.458 280.172,840.293 275.604,840.852C275.123,840.911 274.689,840.535 274.635,840.012C274.581,839.49 274.927,839.019 275.408,838.96Z" fill="#DD936F"/>
<path d="M254.975,1266.101L199.8,1035.539C195.825,1018.929 205.363,1002.061 220.797,998.406C236.228,994.751 251.362,1005.775 254.109,1022.677L289.113,1258.857C290.894,1269.825 287.54,1278.779 277.522,1281.151C267.507,1283.523 257.556,1276.879 254.975,1266.101Z" clip-rule="evenodd" fill-rule="evenodd" fill="#FFC999"/>
<path d="M437,916.223C428.884,898.026 408.568,890.66 392.021,899.913L214.091,999.369C200.387,1007.032 194.813,1025.174 201.538,1040.242C208.26,1055.31 224.822,1061.795 238.845,1054.851L420.924,964.694C437.86,956.31 445.12,934.418 437,916.223Z" clip-rule="evenodd" fill-rule="evenodd" fill="#FFC999"/>
<path d="M259.251,1284.13L293.439,1277.239L285.331,1218.099L246.08,1226.008L259.251,1284.13Z" clip-rule="evenodd" fill-rule="evenodd" fill="#FFFFFF"/>
<path d="M284.53,1229.122C285.15,1228.997 285.746,1229.442 285.861,1230.115C285.966,1230.733 285.631,1231.328 285.097,1231.519L284.947,1231.561L248.712,1238.864C248.092,1238.989 247.496,1238.545 247.381,1237.871C247.276,1237.254 247.611,1236.659 248.145,1236.467L248.295,1236.426L284.53,1229.122Z" fill="#E4EBF7"/>
<path d="M255.447,1282.502L293.035,1274.926L307.707,1349.351L223.016,1366.42L220.847,1354.978C220.063,1350.768 222.168,1346.553 225.843,1344.975L247.1,1333.26L257.43,1323.788C260.544,1320.933 261.961,1316.467 261.112,1312.139C259.287,1302.837 256.216,1287.058 255.447,1282.502Z" clip-rule="evenodd" fill-rule="evenodd" fill="#4E5C93"/>
<path d="M307.307,1351.954L222.871,1368.971C222.069,1369.133 221.301,1368.559 221.152,1367.688L219.396,1357.399C219.249,1356.531 219.776,1355.696 220.577,1355.534L305.013,1338.517C305.812,1338.355 306.583,1338.929 306.729,1339.798L308.486,1350.086C308.635,1350.957 308.106,1351.792 307.307,1351.954Z" clip-rule="evenodd" fill-rule="evenodd" fill="#CCD7EE"/>
<path d="M220.578,1355.534C219.47,1349.048 222.856,1342.65 228.572,1340.427L247.093,1333.225L251.119,1349.142L220.578,1355.534Z" clip-rule="evenodd" fill-rule="evenodd" fill="#CCD7EE"/>
<path d="M304.905,1337.893C305.222,1337.829 305.527,1338.056 305.586,1338.401C305.637,1338.702 305.483,1338.994 305.231,1339.104L305.118,1339.141L220.684,1356.158C220.367,1356.222 220.062,1355.994 220.004,1355.65C219.952,1355.348 220.106,1355.057 220.358,1354.946L220.471,1354.91L304.905,1337.893Z" fill="#A3B5D6"/>
<path d="M261.051,1308.259L261.394,1308.277C261.492,1308.284 261.605,1308.293 261.732,1308.304C262.249,1308.351 262.823,1308.424 263.44,1308.532C265.204,1308.839 266.971,1309.355 268.632,1310.135C269.962,1310.759 271.169,1311.53 272.222,1312.464C272.975,1313.132 272.664,1314.451 271.709,1314.644C270.778,1314.832 269.422,1315.308 267.766,1316.008L267.307,1316.205C266.832,1316.41 266.341,1316.63 265.835,1316.863C265.084,1317.209 264.325,1317.572 263.578,1317.941L263.187,1318.135L263.286,1318.193C264.797,1319.107 266.31,1320.232 267.752,1321.586L268.365,1322.181C269.101,1322.916 268.672,1324.251 267.675,1324.33C266.529,1324.42 265.217,1324.67 263.774,1325.058C262.367,1325.437 260.871,1325.938 259.327,1326.532C259.004,1326.657 258.684,1326.783 258.367,1326.911L257.584,1327.234L257.821,1327.329C258.329,1327.543 258.83,1327.798 259.321,1328.097L259.808,1328.41C260.575,1328.931 261.29,1329.552 261.941,1330.28C262.381,1330.771 262.371,1331.556 261.919,1332.034C261.466,1332.511 260.744,1332.5 260.304,1332.009C259.783,1331.426 259.212,1330.93 258.599,1330.513C256.922,1329.375 255.212,1328.95 253.961,1328.916L253.701,1328.915L253.544,1328.91C252.429,1328.799 252.108,1327.097 253.183,1326.551L253.603,1326.344C253.935,1326.183 254.315,1326.003 254.735,1325.81C255.936,1325.259 257.228,1324.709 258.565,1324.194C260.174,1323.575 261.74,1323.051 263.225,1322.651C263.67,1322.531 264.106,1322.423 264.531,1322.327L264.869,1322.254L264.533,1321.985C263.949,1321.53 263.359,1321.112 262.768,1320.73L262.176,1320.361C261.764,1320.111 261.376,1319.894 261.016,1319.707L260.667,1319.53C260.402,1319.401 260.22,1319.32 260.134,1319.285C259.195,1318.905 259.13,1317.489 260.029,1317.009L261.12,1316.442L261.501,1316.248C262.623,1315.68 263.79,1315.111 264.944,1314.58L265.966,1314.118C266.133,1314.044 266.298,1313.971 266.462,1313.901L267.428,1313.492C267.584,1313.428 267.738,1313.366 267.889,1313.305L268.78,1312.962L268.679,1312.902L268.21,1312.649L267.726,1312.412C266.256,1311.721 264.668,1311.258 263.079,1310.981C262.661,1310.908 262.266,1310.853 261.9,1310.812L261.15,1310.746C261.083,1310.742 261.032,1310.74 260.995,1310.739C260.365,1310.722 259.867,1310.154 259.882,1309.469C259.897,1308.785 260.42,1308.243 261.051,1308.259Z" fill="#E4EBF7"/>
<path d="M263.212,1296.679C261.625,1296.829 260.292,1297.028 259.315,1297.217L258.931,1297.294C258.803,1297.321 258.68,1297.371 258.568,1297.443C257.238,1298.295 256.598,1299.408 256.836,1300.659C257.006,1301.555 257.574,1302.264 258.389,1302.891C258.885,1303.273 259.37,1303.548 259.717,1303.71L259.849,1303.8L261.052,1304.533C261.435,1304.763 261.845,1305.006 262.277,1305.26C264.336,1306.468 266.504,1307.676 268.681,1308.804C270.109,1309.545 271.495,1310.226 272.825,1310.837C277.283,1312.886 280.862,1314.041 283.351,1314.04C286.922,1314.039 288.386,1311.537 286.955,1307.262C284.787,1300.775 279.183,1297.515 271.468,1296.682C268.771,1296.391 265.974,1296.419 263.212,1296.679ZM271.242,1299.15C277.995,1299.88 282.748,1302.56 284.661,1307.688L284.81,1308.109C285.717,1310.819 285.283,1311.559 283.35,1311.56C281.257,1311.561 277.905,1310.479 273.714,1308.553C272.418,1307.957 271.062,1307.291 269.664,1306.566C267.524,1305.456 265.389,1304.267 263.362,1303.077L262.157,1302.362L260.738,1301.496C260.404,1301.331 260.051,1301.131 259.709,1300.867C259.322,1300.57 259.096,1300.287 259.071,1300.156L259.072,1300.138C259.082,1300.088 259.161,1299.978 259.438,1299.776L259.563,1299.688L260.038,1299.598C260.916,1299.441 262.064,1299.277 263.409,1299.15C266.04,1298.902 268.699,1298.876 271.242,1299.15Z" fill="#E4EBF7"/>
<path d="M492.299,938.893C483.211,921.248 463.808,914.415 449.331,923.767L293.704,1024.306C281.719,1032.049 278.157,1049.896 285.683,1064.508C293.211,1079.12 309.072,1085.16 321.416,1078.109L481.689,986.594C496.597,978.082 501.387,956.54 492.299,938.893Z" clip-rule="evenodd" fill-rule="evenodd" fill="#FFC999"/>
<path d="M228.567,1302.424C218.856,1298.86 213.464,1287.6 216.356,1276.916L278.196,1048.358C282.65,1031.893 298.815,1022.758 313.778,1028.247C328.743,1033.739 336.502,1051.649 330.86,1067.677L252.511,1290.178C248.849,1300.582 238.281,1305.988 228.567,1302.424Z" clip-rule="evenodd" fill-rule="evenodd" fill="#FFC999"/>
<path d="M211.487,1293.49L246.566,1307.962L269.225,1247.371L228.955,1230.752L211.487,1293.49Z" clip-rule="evenodd" fill-rule="evenodd" fill="#FFFFFF"/>
<path d="M223.208,1248.463C223.41,1247.874 223.979,1247.551 224.527,1247.686L224.676,1247.734L259.21,1261.723C259.801,1261.962 260.101,1262.677 259.881,1263.318C259.679,1263.907 259.11,1264.23 258.562,1264.095L258.413,1264.047L223.879,1250.058C223.288,1249.819 222.988,1249.104 223.208,1248.463Z" fill="#E4EBF7"/>
<path d="M214.109,1284.317L249.929,1298.827L227.278,1370.85L146.566,1338.154L150.126,1327.132C151.445,1323.083 155.245,1320.646 159.144,1321.346L182.919,1323.18L196.264,1320.83C200.283,1320.12 203.612,1317.083 204.935,1312.897C207.776,1303.902 212.61,1288.65 214.109,1284.317Z" clip-rule="evenodd" fill-rule="evenodd" fill="#4E5C93"/>
<path d="M144.565,1340.654C143.803,1340.345 143.414,1339.421 143.698,1338.593L147.063,1328.79C147.347,1327.96 148.195,1327.54 148.957,1327.849L229.424,1360.443C230.186,1360.752 230.575,1361.674 230.29,1362.502L226.926,1372.307C226.642,1373.137 225.793,1373.557 225.03,1373.248L144.565,1340.654Z" clip-rule="evenodd" fill-rule="evenodd" fill="#CCD7EE"/>
<path d="M147.477,1326.843C149.598,1320.663 157.752,1317.068 163.706,1318.357L180.781,1322.531L176.695,1338.431L147.477,1326.843Z" clip-rule="evenodd" fill-rule="evenodd" fill="#CCD7EE"/>
<path d="M147.5,1327.526C147.598,1327.238 147.868,1327.075 148.137,1327.12L148.251,1327.153L228.714,1359.747C229.016,1359.87 229.169,1360.235 229.057,1360.564C228.958,1360.851 228.688,1361.015 228.42,1360.969L228.306,1360.937L147.843,1328.342C147.541,1328.219 147.387,1327.854 147.5,1327.526Z" fill="#A3B5D6"/>
<path d="M199.024,1314.26C199.363,1313.684 200.072,1313.513 200.607,1313.878L200.886,1314.076C201.154,1314.274 201.506,1314.55 201.921,1314.9C202.882,1315.713 203.842,1316.65 204.741,1317.704C206.306,1319.541 207.519,1321.538 208.237,1323.683C208.568,1324.672 207.672,1325.625 206.756,1325.258C205.715,1324.84 203.992,1324.437 201.809,1324.071C200.755,1323.894 199.641,1323.733 198.513,1323.59L197.749,1323.496L197.85,1323.678C198.077,1324.105 198.301,1324.554 198.521,1325.025L198.846,1325.745C199.41,1327.039 199.898,1328.404 200.288,1329.832C200.572,1330.869 199.567,1331.77 198.67,1331.283C197.325,1330.552 195.615,1329.897 193.628,1329.323C192.356,1328.955 191.018,1328.634 189.66,1328.356L188.583,1328.146L188.719,1328.325C189.633,1329.582 190.338,1331.015 190.763,1332.627L190.895,1333.171C191.04,1333.835 190.658,1334.5 190.041,1334.656C189.424,1334.813 188.806,1334.401 188.661,1333.738C188.307,1332.121 187.606,1330.715 186.657,1329.51C186.159,1328.878 185.625,1328.344 185.094,1327.906L184.812,1327.682C184.643,1327.554 184.516,1327.467 184.441,1327.422C183.352,1326.768 183.878,1324.979 185.119,1325.117L185.912,1325.218L186.895,1325.36C187.238,1325.413 187.597,1325.471 187.969,1325.535C190.098,1325.898 192.228,1326.362 194.224,1326.938C195.169,1327.211 196.059,1327.503 196.889,1327.814L197.237,1327.949L197.069,1327.511L196.768,1326.793C196.279,1325.672 195.757,1324.67 195.236,1323.803L194.884,1323.238C194.748,1323.028 194.642,1322.874 194.572,1322.779C193.943,1321.933 194.561,1320.688 195.564,1320.779L196.849,1320.91C197.098,1320.937 197.358,1320.966 197.628,1320.997C199.172,1321.177 200.717,1321.388 202.163,1321.631C203.057,1321.781 203.881,1321.937 204.625,1322.101L205.033,1322.192L204.852,1321.874C204.444,1321.187 203.975,1320.514 203.451,1319.86L203.049,1319.373C202.241,1318.425 201.372,1317.576 200.504,1316.842L200.092,1316.503C199.776,1316.248 199.531,1316.067 199.38,1315.964C198.844,1315.599 198.685,1314.836 199.024,1314.26Z" transform="rotate(30.315 196.078 1324.188)" fill="#E4EBF7"/>
<path d="M206.307,1308.813C203.911,1308.792 202.826,1310.303 203.254,1312.352C203.355,1312.836 203.532,1313.324 203.763,1313.811C203.97,1314.25 204.177,1314.604 204.326,1314.828L204.523,1315.224L205.282,1316.654C205.553,1317.159 205.843,1317.692 206.15,1318.249C207.613,1320.901 209.164,1323.554 210.736,1326.034C211.983,1328 213.193,1329.776 214.35,1331.319C216.808,1334.593 218.942,1336.719 220.792,1337.481C223.407,1338.559 225.32,1336.935 226.005,1333.101C227.224,1326.275 223.906,1320.313 217.6,1315.266C215.408,1313.512 212.985,1311.98 210.492,1310.67C209.237,1310.01 208.148,1309.501 207.307,1309.142L206.686,1308.887C206.565,1308.839 206.436,1308.814 206.307,1308.813ZM205.837,1311.295L206.09,1311.292L206.79,1311.589C207.53,1311.914 208.452,1312.353 209.498,1312.903C211.874,1314.151 214.179,1315.609 216.246,1317.263C221.919,1321.803 224.78,1326.943 223.764,1332.628C223.322,1335.102 222.712,1335.62 221.601,1335.162C220.24,1334.601 218.336,1332.705 216.12,1329.751C215.004,1328.265 213.83,1326.541 212.616,1324.627C211.074,1322.195 209.548,1319.584 208.108,1316.974L207.253,1315.404L206.3,1313.599C206.281,1313.562 206.264,1313.529 206.25,1313.501C206.09,1313.245 205.941,1312.992 205.793,1312.679C205.643,1312.361 205.534,1312.059 205.48,1311.803L205.444,1311.613C205.407,1311.37 205.466,1311.308 205.837,1311.295Z" fill="#E4EBF7"/>
<path d="M392.815,739.941C388.791,751.305 381.251,770.91 380.905,783.543C380.343,804.025 393.425,818.343 393.425,818.343C393.425,818.343 393.201,812.345 397.449,865.021C453.962,871.847 488.94,858.077 488.94,858.077L487.039,844.167L494.196,810.487C494.196,810.487 498.998,797.798 508.735,769.556C515.506,749.923 513.585,726.289 511.784,713.707C511.014,708.316 507.27,703.995 502.36,702.852C485.205,698.858 478.816,699.133 478.816,699.133L476.524,687.161C476.135,685.11 474.412,683.687 472.491,683.817L431.404,686.633C429.638,686.753 428.173,688.158 427.842,690.047L425.572,703.011L400.458,710.17C396.516,711.292 393.712,715.084 393.552,719.51L392.815,739.941Z" clip-rule="evenodd" fill-rule="evenodd" fill="#FFFFFF"/>
<path d="M467.298,699.787C467.687,699.761 468.023,700.082 468.047,700.505C468.069,700.881 467.838,701.21 467.513,701.298L467.387,701.319L430.392,703.855C430.003,703.881 429.668,703.56 429.643,703.137C429.621,702.761 429.852,702.431 430.177,702.344L430.303,702.323L467.298,699.787Z" fill="#4E5C93"/>
<path d="M478.459,695.81C478.808,695.42 479.381,695.41 479.741,695.789C480.06,696.125 480.102,696.655 479.863,697.043L479.76,697.181L432.759,749.819C432.286,750.349 431.483,750.139 431.26,749.479L431.221,749.331L422.636,703.806C422.535,703.273 422.851,702.753 423.341,702.644C423.783,702.546 424.214,702.814 424.37,703.257L424.411,703.411L432.652,747.111L478.459,695.81Z" fill="#CCD7EE"/>
<path d="M416.24,757.733C412.576,765.531 414.972,774.833 421.592,778.51C428.214,782.185 436.553,778.84 440.222,771.042C443.888,763.244 441.492,753.943 434.87,750.268C428.248,746.591 419.907,749.935 416.24,757.733Z" clip-rule="evenodd" fill-rule="evenodd" fill="#CCD7EE"/>
<path d="M414.766,757.798C411.099,765.596 413.495,774.898 420.115,778.572C426.74,782.247 435.078,778.905 438.745,771.107C442.411,763.307 440.015,754.005 433.395,750.33C426.771,746.656 418.43,750 414.766,757.798Z" clip-rule="evenodd" fill-rule="evenodd" fill="#E4EBF7"/>
<path d="M417.446,758.929C414.599,764.985 416.46,772.207 421.601,775.061C426.744,777.913 433.22,775.317 436.065,769.263C438.912,763.207 437.051,755.986 431.912,753.134C426.769,750.279 420.293,752.875 417.446,758.929Z" clip-rule="evenodd" fill-rule="evenodd" fill="#8352FD"/>
<path d="M511.721,712.943C512.109,712.904 512.453,713.215 512.488,713.637L512.719,716.591L512.892,718.969C513.007,720.594 513.12,722.296 513.228,724.047C513.436,727.426 513.609,730.733 513.735,733.885L513.795,735.448C514.052,742.633 514.035,748.4 513.671,752.252C513.292,756.272 511.438,762.913 508.458,771.509L508.166,772.347C507.586,774.005 506.971,775.717 506.326,777.472C505.034,780.985 503.669,784.547 502.289,788.038L500.662,792.105L499.106,795.894L498.985,796.164L487.118,844.498L489.242,858.695C489.292,859.03 489.134,859.355 488.863,859.503L488.74,859.555L487.797,859.834L487.559,859.902C486.595,860.176 485.462,860.48 484.166,860.808C480.469,861.744 476.213,862.68 471.457,863.553C448.566,867.755 423.263,869.029 397.229,865.604C396.891,865.56 396.631,865.26 396.609,864.891L396.427,862.514C396.209,859.882 395.812,855.377 395.272,849.374L393.427,829.119L392.613,820.277L392.168,819.493L391.639,818.536C391.363,818.032 391.072,817.49 390.768,816.913C389.321,814.17 387.874,811.201 386.523,808.114C384.699,803.945 383.194,799.885 382.117,796.054C381.135,792.561 380.534,789.337 380.365,786.434C379.937,779.072 380.482,773.266 382.093,767.296C382.95,764.121 384.108,760.861 385.813,756.718L386.508,755.056C386.875,754.194 387.389,753.005 387.959,751.689L392.226,741.907L391.94,729.513C391.932,729.136 392.174,728.816 392.502,728.743L392.629,728.727C392.975,728.717 393.27,728.981 393.338,729.337L393.352,729.474L393.643,742.052L393.576,742.398L388.035,755.127C387.791,755.698 387.589,756.172 387.448,756.511C385.575,761 384.341,764.421 383.449,767.728C381.885,773.521 381.357,779.149 381.775,786.337C381.935,789.109 382.516,792.219 383.468,795.606C384.522,799.358 386.002,803.349 387.799,807.455C389.133,810.504 390.563,813.439 391.994,816.15L392.576,817.242C392.764,817.59 392.945,817.922 393.119,818.236L393.894,819.607L394.002,819.943L397.226,855.363C397.519,858.669 397.738,861.205 397.873,862.857L397.975,864.154L399.163,864.306C423.841,867.354 447.831,866.182 469.666,862.32L471.222,862.04C475.554,861.245 479.468,860.397 482.917,859.546L483.846,859.314C484.915,859.043 485.872,858.789 486.712,858.555L487.745,858.26L485.701,844.58L485.715,844.259L497.661,795.648L498.813,792.857C499.082,792.196 499.365,791.499 499.66,790.768L499.958,790.027C501.682,785.731 503.405,781.278 505.014,776.903C505.656,775.155 506.268,773.452 506.846,771.801L507.664,769.431C510.292,761.701 511.926,755.706 512.266,752.096L512.348,751.115C512.61,747.542 512.617,742.514 512.414,736.39L512.384,735.507C512.255,731.908 512.061,728.078 511.819,724.15L511.654,721.571C511.598,720.726 511.541,719.897 511.484,719.086L511.082,713.777C511.046,713.355 511.332,712.981 511.721,712.943Z" fill="#4E5C93"/>
<path d="M473.377,874.135C507.139,874.135 525.895,1001.852 549.191,1050.004C545.883,1059.303 529.997,1074.478 529.997,1074.478C529.997,1074.478 530.717,1082.29 531.175,1086.988C513.107,1099.742 480.289,1103.854 480.289,1103.854L479.541,1110.402C425.753,1129.724 359.818,1096.824 359.818,1096.824C359.818,1096.824 358.688,1095.25 360.138,1090.22C336.949,1087.086 290.554,1048.998 290.554,1048.998L296.997,1036.138L247.031,967.204C247.031,967.204 344.284,903.306 372.083,885.004C397.097,868.535 392.718,865.982 392.718,865.982C392.718,865.982 438.666,874.135 473.377,874.135Z" clip-rule="evenodd" fill-rule="evenodd" fill="url(#pf_0_i_17_77;153_5705)"/>
<path d="M321.345,998.607C321.613,998.176 322.151,998.063 322.547,998.355C322.899,998.613 323.021,999.104 322.855,999.513L322.779,999.661L292.651,1048.045L292.971,1048.369L293.968,1049.352L294.343,1049.714C296.183,1051.483 298.359,1053.457 300.858,1055.583C308.007,1061.662 316.314,1067.744 325.689,1073.42C336.401,1079.907 347.835,1085.443 359.923,1089.735C360.378,1089.897 360.626,1090.428 360.477,1090.922C360.329,1091.416 359.84,1091.686 359.385,1091.524C347.187,1087.193 335.652,1081.607 324.845,1075.064C315.389,1069.338 307.007,1063.202 299.791,1057.065C297.516,1055.13 295.504,1053.318 293.765,1051.668L293.195,1051.123C292.802,1050.746 292.442,1050.394 292.113,1050.068L291.082,1049.025C291.012,1048.952 290.957,1048.894 290.916,1048.851C290.655,1048.572 290.587,1048.151 290.731,1047.798L290.806,1047.652L321.345,998.607Z" fill="#253368"/>
<path d="M499.401,962.902C499.815,962.775 500.244,962.998 500.42,963.409L500.469,963.552L532.761,1087.783C532.873,1088.216 532.688,1088.675 532.319,1088.878L531.963,1089.069C531.716,1089.201 531.386,1089.372 530.978,1089.581L530.005,1090.071C529.158,1090.491 528.223,1090.942 527.205,1091.416C523.137,1093.311 518.57,1095.205 513.608,1096.973C502.787,1100.828 491.648,1103.536 480.607,1104.587C480.13,1104.632 479.71,1104.249 479.669,1103.731C479.627,1103.214 479.979,1102.757 480.456,1102.712C491.353,1101.675 502.365,1098.998 513.069,1095.184C517.98,1093.435 522.499,1091.56 526.523,1089.686L527.688,1089.136C528.251,1088.868 528.783,1088.608 529.283,1088.36L530.682,1087.651L530.896,1087.538L498.803,964.064C498.686,963.614 498.891,963.147 499.269,962.956L499.401,962.902Z" fill="#253368"/>
<path d="M462.869,858.444C463.298,858.404 463.68,858.711 463.782,859.15L463.81,859.366L465.648,883.334C465.944,887.253 466.252,891.346 466.569,895.599L467.525,908.49C468.958,927.928 470.381,947.784 471.747,967.566L472.65,980.738C473.317,990.572 473.958,1000.204 474.568,1009.599L475.483,1023.887C477.631,1057.882 479.273,1087.422 480.298,1111.292C480.318,1111.75 480.031,1112.158 479.618,1112.256C448.306,1119.704 415.255,1116.62 383.561,1106.958C376.831,1104.908 370.714,1102.71 365.325,1100.51L363.951,1099.942C362.842,1099.48 361.822,1099.038 360.896,1098.626L359.651,1098.062L358.601,1097.566C358.245,1097.392 358.046,1096.984 358.1,1096.576L358.133,1096.424L418.454,891.186C418.599,890.691 419.087,890.417 419.542,890.575C419.952,890.718 420.197,891.161 420.136,891.609L420.104,891.758L360.02,1096.186L361.016,1096.644L362.114,1097.132C363.066,1097.552 364.11,1097.998 365.243,1098.466L365.934,1098.748C371.278,1100.93 377.348,1103.11 384.029,1105.146C414.996,1114.586 447.259,1117.696 477.838,1110.744L478.533,1110.582L478.157,1102.206C477.152,1080.648 475.708,1055.066 473.894,1026.217L473.355,1017.724L472.577,1005.692C472.047,997.583 471.494,989.304 470.922,980.877L470.02,967.707C468.654,947.928 467.231,928.075 465.799,908.64L463.796,881.82L462.079,859.461C462.039,858.944 462.392,858.488 462.869,858.444Z" fill="#253368"/>
<path d="M441.873,859.507C442.302,859.535 442.641,859.897 442.685,860.348L442.689,860.501L433.779,1033.26C433.753,1033.779 433.344,1034.176 432.866,1034.148C432.436,1034.121 432.097,1033.758 432.053,1033.308L432.05,1033.155L440.959,860.396C440.986,859.877 441.395,859.48 441.873,859.507Z" fill="#253368"/>
<path d="M405.782,877.367C406.061,876.945 406.602,876.848 406.991,877.151C407.336,877.42 407.445,877.915 407.269,878.318L407.189,878.464L341.388,978.086C341.109,978.509 340.568,978.605 340.179,978.302C339.834,978.033 339.725,977.538 339.901,977.135L339.981,976.989L405.782,877.367Z" fill="#253368"/>
<path d="M320.613,910.41L427.545,904.438L326.669,858.161L237.666,872.563L320.613,910.41Z" clip-rule="evenodd" fill-rule="evenodd" fill="#253368"/>
<path d="M317.428,901.988L395.09,897.65L323.642,864.092L257.185,874.501L317.428,901.988Z" clip-rule="evenodd" fill-rule="evenodd" fill="#4E5C93"/>
<path d="M426.906,910.328L427.563,904.479L318.522,909.638L319.728,916.102L426.906,910.328Z" clip-rule="evenodd" fill-rule="evenodd" fill="#FFFFFF"/>
<path d="M308.55,867.631C308.644,867.422 308.857,867.318 309.058,867.368L309.156,867.406L366.93,898.273C367.154,898.393 367.247,898.688 367.136,898.932C367.042,899.141 366.829,899.245 366.629,899.195L366.53,899.157L308.756,868.29C308.532,868.17 308.439,867.875 308.55,867.631Z" fill="#CCD7EE"/>
<path d="M316.863,865.078C316.954,864.867 317.166,864.76 317.367,864.806L317.466,864.843L382.197,897.978C382.423,898.094 382.52,898.387 382.414,898.633C382.322,898.844 382.111,898.951 381.91,898.905L381.811,898.868L317.08,865.733C316.853,865.617 316.756,865.324 316.863,865.078Z" fill="#CCD7EE"/>
<path d="M307.065,873.464C307.163,873.256 307.377,873.155 307.577,873.209L307.675,873.248L356.106,900.038C356.329,900.161 356.418,900.457 356.304,900.7C356.207,900.907 355.993,901.008 355.793,900.955L355.695,900.915L307.264,874.126C307.041,874.002 306.952,873.706 307.065,873.464Z" fill="#CCD7EE"/>
<path d="M293.088,873.368C293.185,873.161 293.399,873.06 293.599,873.113L293.697,873.153L342.128,899.945C342.351,900.068 342.44,900.365 342.327,900.607C342.229,900.815 342.015,900.915 341.815,900.862L341.717,900.822L293.286,874.03C293.063,873.907 292.974,873.611 293.088,873.368Z" fill="#CCD7EE"/>
<path d="M280.085,874.26C280.182,874.052 280.396,873.952 280.596,874.005L280.694,874.045L329.125,900.834C329.348,900.957 329.437,901.254 329.323,901.496C329.226,901.704 329.012,901.804 328.812,901.751L328.714,901.711L280.283,874.922C280.06,874.799 279.971,874.502 280.085,874.26Z" fill="#CCD7EE"/>
<path d="M382.948,892.616C383.198,892.611 383.405,892.828 383.409,893.1C383.413,893.333 383.267,893.531 383.067,893.585L382.964,893.6L316.747,894.831C316.497,894.835 316.29,894.619 316.286,894.347C316.282,894.114 316.428,893.916 316.628,893.861L316.731,893.847L382.948,892.616Z" fill="#CCD7EE"/>
<path d="M368.99,885.39C369.24,885.386 369.446,885.602 369.451,885.874C369.454,886.107 369.308,886.305 369.109,886.36L369.006,886.374L302.791,887.607C302.541,887.612 302.334,887.396 302.33,887.124C302.326,886.891 302.472,886.693 302.672,886.638L302.775,886.623L368.99,885.39Z" fill="#CCD7EE"/>
<path d="M351.381,879.616C351.631,879.611 351.838,879.828 351.842,880.099C351.846,880.332 351.7,880.53 351.5,880.585L351.397,880.6L285.18,881.831C284.93,881.835 284.723,881.619 284.719,881.347C284.715,881.114 284.861,880.916 285.061,880.861L285.164,880.846L351.381,879.616Z" fill="#CCD7EE"/>
<path d="M340.185,868.387C340.435,868.382 340.641,868.599 340.645,868.871C340.649,869.104 340.503,869.302 340.304,869.356L340.2,869.371L273.983,870.604C273.733,870.609 273.527,870.392 273.522,870.121C273.519,869.888 273.665,869.69 273.864,869.635L273.968,869.62L340.185,868.387Z" fill="#CCD7EE"/>
<path d="M319.644,916.095L314.877,915.996L236.492,878.979L218.254,726.27L303.742,755.274L319.644,916.095Z" clip-rule="evenodd" fill-rule="evenodd" fill="#FFFFFF"/>
<path d="M314.706,915.986L232.04,876.99C231.287,876.635 230.757,875.873 230.65,874.985L212.976,728.214C212.753,726.368 214.368,724.896 216.002,725.453L297.08,753.092C297.969,753.396 298.608,754.241 298.708,755.247L314.706,915.986Z" clip-rule="evenodd" fill-rule="evenodd" fill="url(#pf_0_i_17_77;153_5724)"/>
<path d="M528.234,879.424L526.446,879.771C514.186,882.138 502.478,873.261 500.298,859.94L480.178,737.051C478,723.73 486.172,711.012 498.43,708.64L500.22,708.295C512.478,705.926 524.188,714.805 526.366,728.126L546.486,851.013C548.667,864.334 540.494,877.054 528.234,879.424Z" clip-rule="evenodd" fill-rule="evenodd" fill="#FFC999"/>
<path d="M535.031,781.035L525.657,723.789C523.399,709.988 511.158,700.706 498.456,703.16C485.755,705.616 477.21,718.915 479.469,732.714L488.753,789.42L535.031,781.035Z" clip-rule="evenodd" fill-rule="evenodd" fill="#FFFFFF"/>
<path d="M526.202,722.904C526.543,722.838 526.871,723.05 526.987,723.391L527.021,723.525L536.392,780.774C536.453,781.146 536.256,781.503 535.941,781.628L535.817,781.664L487.877,790.652C487.539,790.715 487.216,790.507 487.097,790.171L487.063,790.04L478.935,743.844C478.862,743.428 479.113,743.026 479.496,742.947C479.837,742.876 480.167,743.084 480.287,743.423L480.322,743.556L488.319,789.01L534.877,780.282L525.63,723.794C525.57,723.423 525.765,723.067 526.079,722.94L526.202,722.904Z" fill="#4E5C93"/>
<path d="M389.182,875.269C389.699,882.37 395.267,887.772 401.818,887.534L528.296,882.911C539.905,882.069 548.644,871.078 547.725,858.476C546.796,845.763 536.41,836.377 524.734,837.702L399.331,861.087C393.084,862.25 388.68,868.402 389.182,875.269Z" clip-rule="evenodd" fill-rule="evenodd" fill="#FFC999"/>
<path d="M413.304,886.705C404.452,894.233 375.785,891.241 375.785,891.241L357.309,902.506C354.435,903.946 353.636,901.862 352.186,901.944C348.275,902.166 348.062,897.705 348.062,897.705C346.681,897.084 344.562,898.327 343.783,894.324C343.783,894.324 341.036,894.266 340.667,890.666C340.474,888.765 356.98,860.217 356.98,860.217L383.611,859.505C383.611,859.505 422.495,858.103 427.305,867.325C432.113,876.547 413.304,886.705 413.304,886.705Z" clip-rule="evenodd" fill-rule="evenodd" fill="#FFC999"/>
<path d="M356.442,858.21L404.62,859.595C405.103,859.609 405.485,860.047 405.473,860.572C405.461,861.045 405.134,861.428 404.716,861.49L404.573,861.498L356.895,860.128L354.614,864.106L352.33,868.124C351.952,868.792 351.577,869.458 351.204,870.12L347.967,875.92C343.902,883.281 341.059,888.825 340.979,889.47L340.978,889.506C341.032,890.028 340.685,890.499 340.205,890.558C339.724,890.616 339.29,890.24 339.237,889.717C339.132,888.7 341.104,884.71 345.153,877.321L347.512,873.05C348.941,870.483 350.452,867.802 351.978,865.116L355.677,858.656C355.818,858.411 356.052,858.252 356.311,858.217L356.442,858.21Z" fill="#DD936F"/>
<path d="M366.716,866.928C367.156,866.709 367.676,866.919 367.877,867.396C368.059,867.827 367.92,868.327 367.57,868.583L367.446,868.658L357.666,873.527L344.511,894.854C344.269,895.247 343.804,895.381 343.42,895.191L343.296,895.115C342.934,894.852 342.811,894.346 342.986,893.93L343.056,893.794L356.349,872.246C356.416,872.136 356.504,872.044 356.605,871.973L356.712,871.91L366.716,866.928Z" fill="#DD936F"/>
<path d="M368.79,874.633C369.228,874.408 369.75,874.611 369.957,875.086C370.144,875.513 370.011,876.016 369.664,876.276L369.54,876.353L361.806,880.333L348.75,898.293C348.483,898.66 348.018,898.756 347.651,898.544L347.519,898.45C347.182,898.16 347.093,897.655 347.288,897.257L347.375,897.113L360.559,878.978C360.615,878.902 360.681,878.835 360.755,878.78L360.871,878.708L368.79,874.633Z" fill="#DD936F"/>
<path d="M376.67,878.73C377.096,878.481 377.627,878.654 377.857,879.117C378.063,879.534 377.955,880.043 377.621,880.322L377.501,880.406L366.787,886.673L353.279,901.986C352.982,902.323 352.51,902.371 352.164,902.121L352.04,902.014C351.73,901.691 351.686,901.179 351.915,900.802L352.014,900.668L365.616,885.25L365.833,885.071L376.67,878.73Z" fill="#DD936F"/>
<path d="M246.495,966.465C246.829,966.179 247.297,966.203 247.604,966.499L247.712,966.622L297.677,1035.556C297.973,1035.964 297.909,1036.556 297.533,1036.878C297.199,1037.163 296.731,1037.14 296.424,1036.844L296.317,1036.721L246.351,967.787C246.055,967.378 246.12,966.787 246.495,966.465Z" fill="#253368"/>
<defs>
<linearGradient id="pf_0_i_17_77;153_5705" x1="398.111" y1="865.982" x2="398.111" y2="1116.483" gradientUnits="userSpaceOnUse">
<stop stop-color="#4E5C93"/>
<stop offset="1" stop-color="#C961DE"/>
</linearGradient>
<linearGradient id="pf_0_i_17_77;153_5724" x1="408.922" y1="818.515" x2="263.83" y2="915.986" gradientUnits="userSpaceOnUse">
<stop offset="0.503" stop-color="#0500FF" stop-opacity="0.8"/>
<stop offset="1" stop-color="#994A88" stop-opacity="0.8"/>
</linearGradient>
</defs>
</svg>
