<svg width="460" height="948" viewBox="0 0 460 948" fill="none" xmlns="http://www.w3.org/2000/svg" xmlns:xlink="http://www.w3.org/1999/xlink">
<path d="M208.375,733.943C207.138,661.485 180.544,508.748 176.724,469.41C172.904,430.071 186.491,416.748 199.519,423.239C212.547,429.731 216.445,520.495 216.445,520.495C216.445,520.495 217.342,538.259 220.742,558.487C233.034,631.617 224.406,734.983 224.406,734.983C224.406,734.983 222.024,741.717 214.813,740.821C207.603,739.923 208.375,733.943 208.375,733.943Z" clip-rule="evenodd" fill-rule="evenodd" transform="rotate(360 201.709 581.286)" fill="#FFC999"/>
<path d="M194.065,737.028C194.228,737.77 196.678,711.242 196.56,703.42C186.391,704.804 176.99,703.815 176.99,703.815C176.99,703.815 178.333,734.062 177.95,737.028C185.239,741.575 194.065,737.028 194.065,737.028Z" clip-rule="evenodd" fill-rule="evenodd" transform="rotate(360 186.777 721.234)" fill="#FFFFFF"/>
<path d="M206.593,772.922C205.33,783.407 199.856,788.955 194.208,789.569C187.215,790.33 179.599,788.298 178.369,781.838C176.965,774.464 180.646,770.693 184.762,760.149C188.877,749.603 190.84,740.586 192.374,733.074C192.374,733.074 197.619,729.912 196.212,739.005C195.072,746.367 192.309,767.078 187.449,768.526C192.182,768.132 201.903,771.954 201.903,771.954C201.903,771.954 198.449,766.418 198.705,764.573C198.961,762.729 201.819,743.823 201.966,738.214C202.112,732.668 206.783,733.337 209.033,733.986C209.734,734.187 210.18,734.884 210.095,735.629C209.881,737.477 207.191,767.957 206.593,772.922Z" clip-rule="evenodd" fill-rule="evenodd" transform="rotate(360 194.085 761.131)" fill="#1F1F47"/>
<path d="M201.879,745.133C201.879,745.133 207.713,732.548 201.879,731.295C197.274,730.306 192.862,730.109 192.286,731.295C192.072,731.737 192.093,735.842 190.56,744.343C188.767,754.267 184.187,765.906 182.501,768.264C179.815,772.019 182.694,772.218 189.216,773.997C195.739,775.776 198.041,775.776 199.768,772.218C201.495,768.659 201.495,752.843 201.879,745.133Z" clip-rule="evenodd" fill-rule="evenodd" transform="rotate(360 192.986 752.822)" fill="#1F1F47"/>
<path d="M188.061,748.635C188.198,748.274 188.593,748.095 188.943,748.235C189.808,748.582 190.747,749.054 191.75,749.637C192.701,750.19 193.696,750.835 194.722,751.553C195.946,752.41 197.149,753.327 198.283,754.244L198.741,754.618C198.887,754.738 199.028,754.855 199.161,754.967L199.753,755.472C200.272,755.926 199.894,756.797 199.22,756.702C197.927,756.521 196.371,756.61 194.61,756.938C193.008,757.235 191.293,757.718 189.535,758.335C188.885,758.563 188.253,758.801 187.647,759.043L187.23,759.213L187.489,759.296C189.466,759.96 191.476,761.119 193.477,762.653L193.83,762.928C194.997,763.848 196.08,764.832 197.053,765.816L197.444,766.218C197.506,766.283 197.567,766.347 197.626,766.409L197.96,766.771C198.119,766.946 198.23,767.072 198.29,767.142C198.537,767.434 198.509,767.878 198.225,768.133C197.942,768.388 197.512,768.359 197.264,768.067L197.049,767.822L196.966,767.731C196.716,767.456 196.426,767.149 196.099,766.818C195.163,765.872 194.121,764.925 193.002,764.042C190.238,761.862 187.477,760.442 184.907,760.131C184.226,760.049 184.076,759.099 184.696,758.799L185.032,758.641L185.697,758.343C185.778,758.308 185.861,758.272 185.947,758.235C186.921,757.816 187.982,757.397 189.096,757.006C190.913,756.368 192.692,755.867 194.369,755.556C195.216,755.398 196.025,755.292 196.79,755.241L197.275,755.215L196.767,754.81C196.086,754.272 195.383,753.739 194.671,753.223L193.956,752.714C192.96,752.016 191.996,751.392 191.081,750.86C190.13,750.307 189.248,749.864 188.449,749.544C188.099,749.403 187.925,748.996 188.061,748.635Z" transform="rotate(360 192.15 758.247)" fill="#000000"/>
<path d="M197.287,749.961C199.106,749.735 200.701,749.747 202.019,750.049C202.386,750.133 202.618,750.508 202.536,750.886C202.455,751.265 202.091,751.503 201.724,751.419C200.579,751.157 199.129,751.146 197.45,751.354C196.063,751.526 194.576,751.84 193.057,752.255C192.551,752.394 192.061,752.538 191.592,752.684L191.461,752.725L191.676,752.83C193.252,753.617 194.784,754.614 196.264,755.779L196.707,756.133C198.11,757.276 199.38,758.5 200.497,759.724C200.81,760.068 201.093,760.392 201.345,760.692L201.689,761.109C201.783,761.227 201.853,761.317 201.897,761.375C202.23,761.816 201.953,762.446 201.438,762.504L201.319,762.507L201.178,762.505C200.334,762.495 199.221,762.509 197.937,762.566C196.02,762.651 194.129,762.816 192.365,763.081C189.268,763.546 186.84,764.277 185.367,765.289C185.054,765.505 184.631,765.417 184.422,765.095C184.214,764.772 184.298,764.337 184.611,764.121C186.293,762.966 188.887,762.185 192.168,761.692C193.983,761.42 195.918,761.25 197.879,761.163L198.643,761.133C198.891,761.125 199.13,761.119 199.362,761.113L199.878,761.103L199.723,760.929L199.504,760.686C198.43,759.509 197.208,758.332 195.862,757.234C193.762,755.523 191.558,754.169 189.293,753.305C188.701,753.078 188.7,752.215 189.292,751.988L189.884,751.774C190.002,751.733 190.127,751.69 190.259,751.645C191.013,751.39 191.838,751.136 192.707,750.898C194.284,750.468 195.831,750.141 197.287,749.961Z" transform="rotate(360 193.43 757.606)" fill="#000000"/>
<path d="M210.367,774.986C210.367,774.986 196.554,763.124 183.891,771.822C180.725,779.093 182.557,783.416 184.084,785.66C184.716,786.589 185.913,787.885 186.948,788.27C190.031,789.417 198.116,791.719 203.845,787.835C211.134,782.893 210.367,774.986 210.367,774.986Z" clip-rule="evenodd" fill-rule="evenodd" transform="rotate(360 196.271 779.317)" fill="#000000"/>
<path d="M184.435,771.911C184.529,771.729 184.748,771.66 184.924,771.757C185.101,771.854 185.167,772.08 185.073,772.261C183.489,775.323 185.203,779.414 187.514,781.001C189.203,782.161 195.57,783.284 200.598,783.048C202.886,782.941 204.764,781.451 206.259,779.007C206.81,778.106 207.269,777.137 207.639,776.168C207.768,775.829 207.877,775.515 207.966,775.233L208.069,774.887C208.122,774.688 208.321,774.572 208.513,774.626C208.706,774.681 208.82,774.886 208.767,775.084L208.685,775.362L208.654,775.464C208.561,775.759 208.447,776.088 208.312,776.441C207.927,777.451 207.449,778.46 206.871,779.405C205.262,782.034 203.198,783.673 200.631,783.793C195.463,784.035 188.957,782.888 187.113,781.621C184.524,779.844 182.648,775.364 184.435,771.911Z" transform="rotate(360 196.255 777.769)" fill="#A3B5D6"/>
<path d="M195.462,707.478C195.83,707.397 196.192,707.639 196.27,708.018C196.349,708.397 196.115,708.77 195.747,708.851L195.507,708.901C195.315,708.94 195.092,708.983 194.839,709.029L194.086,709.161C193.563,709.248 193,709.334 192.4,709.416C187.881,710.034 183.184,710.202 178.78,709.642C178.335,709.586 177.895,709.522 177.462,709.451C177.091,709.389 176.838,709.029 176.897,708.647C176.957,708.264 177.306,708.003 177.678,708.064C178.094,708.133 178.517,708.195 178.946,708.249C183.219,708.792 187.807,708.628 192.221,708.024C192.954,707.924 193.63,707.818 194.242,707.711L194.601,707.647C195.02,707.57 195.312,707.511 195.462,707.478Z" transform="rotate(360 186.587 708.723)" fill="#000000"/>
<path d="M190.212,742.126C190.525,742.114 190.797,742.322 190.887,742.616L190.899,742.67L190.959,742.686L191.045,742.722L191.527,742.967L192.128,743.281C192.339,743.393 192.558,743.51 192.786,743.634C194.088,744.34 195.391,745.095 196.609,745.868C197.796,746.621 198.841,747.354 199.706,748.054C200.847,748.977 201.653,749.824 202.08,750.612C202.653,751.669 202.548,752.689 201.652,753.399C200.173,754.572 198.208,753.736 195.872,751.545C195.006,750.733 194.098,749.74 193.164,748.605C192.24,747.483 191.341,746.284 190.5,745.084L190.285,744.775L189.852,744.14L189.304,744.617C188.429,745.366 187.5,746.116 186.555,746.816C185.752,747.411 184.971,747.945 184.226,748.402L183.792,748.661C180.509,750.573 178.114,750.799 177.312,748.321C176.407,745.521 179.111,743.858 183.907,742.886C185.289,742.606 186.764,742.403 188.239,742.266L188.983,742.203L189.664,742.155C189.923,742.139 190.11,742.13 190.212,742.126ZM191.972,744.779L192.104,744.964C192.778,745.899 193.484,746.824 194.203,747.697C195.102,748.79 195.971,749.74 196.789,750.507C198.672,752.272 200.082,752.873 200.822,752.286C201.132,752.04 201.158,751.789 200.891,751.296C200.571,750.707 199.875,749.976 198.864,749.158C198.045,748.495 197.041,747.791 195.894,747.063C194.943,746.459 193.936,745.865 192.917,745.297L192.152,744.876L191.972,744.779ZM188.271,743.674L187.646,743.736C186.456,743.865 185.278,744.038 184.17,744.263L183.611,744.382C179.975,745.197 178.131,746.413 178.605,747.877C179.019,749.158 180.709,748.922 183.53,747.195C184.238,746.761 184.986,746.249 185.76,745.676C186.493,745.133 187.219,744.557 187.916,743.975L188.271,743.674Z" transform="rotate(360 189.787 748.028)" fill="#000000"/>
<path d="M184.283,735.802C184.627,735.834 184.887,736.123 184.902,736.469L184.9,736.564L184.388,742.363C184.354,742.75 184.022,743.034 183.648,742.999C183.304,742.967 183.044,742.677 183.029,742.332L183.031,742.236L183.543,736.437C183.574,736.083 183.855,735.815 184.191,735.799L184.283,735.802Z" transform="rotate(360 183.965 739.401)" fill="#000000"/>
<path d="M193.237,733.957C193.58,733.989 193.841,734.278 193.855,734.624L193.853,734.719L193.341,740.518C193.307,740.905 192.976,741.189 192.601,741.154C192.258,741.122 191.997,740.832 191.982,740.487L191.984,740.391L192.496,734.592C192.528,734.238 192.809,733.97 193.144,733.954L193.237,733.957Z" transform="rotate(360 192.919 737.556)" fill="#000000"/>
<path d="M257.973,730.779C259.21,658.321 285.803,505.585 289.622,466.246C293.443,426.908 279.855,413.585 266.828,420.076C253.8,426.568 249.902,517.331 249.902,517.331C249.902,517.331 249.005,535.095 245.605,555.324C233.313,628.453 241.941,731.819 241.941,731.819C241.941,731.819 244.324,738.553 251.535,737.657C258.744,736.759 257.973,730.779 257.973,730.779Z" clip-rule="evenodd" fill-rule="evenodd" transform="rotate(360 264.638 578.123)" fill="#FFC999"/>
<path d="M210.173,404.655L211.041,399.232C211.041,399.232 234.483,399.253 262.456,399.431C262.648,402.197 263.416,405.559 263.416,405.559C263.416,405.559 243.204,412.544 210.173,404.655Z" clip-rule="evenodd" fill-rule="evenodd" transform="rotate(360 236.794 403.822)" fill="#002AB2"/>
<path d="M265.201,365.883L263.232,371.067C263.232,371.067 262.691,396.677 262.691,398.706C235.831,403.186 208.631,398.355 208.631,398.355L208.764,388.876L206.576,359.798L265.201,365.883Z" clip-rule="evenodd" fill-rule="evenodd" transform="rotate(360 235.888 380.204)" fill="#FFFFFF"/>
<path d="M263.12,365.494C263.208,365.262 263.462,365.148 263.687,365.239C263.887,365.319 263.996,365.535 263.957,365.745L263.934,365.823L261.993,370.933L261.21,398.233C261.203,398.585 261.199,398.832 261.199,398.968C261.199,399.186 261.049,399.372 260.842,399.411C245.348,402.374 229.493,402.21 214.908,400.155C212.828,399.862 210.94,399.549 209.266,399.235L208.716,399.131C208.188,399.029 207.715,398.933 207.299,398.845L206.477,398.663C206.296,398.62 206.164,398.465 206.141,398.28L206.139,398.199L206.653,388.624C206.667,388.376 206.873,388.185 207.114,388.199C207.329,388.211 207.498,388.381 207.524,388.593L207.527,388.674L207.032,397.865L207.236,397.911C207.547,397.978 207.894,398.05 208.277,398.127L208.877,398.245C210.67,398.591 212.73,398.938 215.027,399.262C229.211,401.261 244.607,401.46 259.678,398.713L260.328,398.59L260.399,395.579L260.758,382.936L261.121,370.828L261.151,370.678L263.12,365.494Z" transform="rotate(360 235.052 383.439)" fill="#1F1F47"/>
<path d="M250.242,270.336C250.242,270.336 263.472,268.359 266.968,282.769C279.787,287.572 276.291,301.981 276.291,301.981C276.291,301.981 282.729,313.302 269.939,319.101C268.915,330.699 256.126,328.589 256.126,328.589C256.126,328.589 253.056,337.552 243.335,333.862C232.848,342.268 220.352,332.003 220.352,332.003C220.352,332.003 208.699,336.806 204.039,332.003C193.55,335.605 181.896,322.396 181.896,322.396C181.896,322.396 175.349,324.11 170.687,313.302C158.511,315.249 145.208,299.258 156.362,284.306C149.045,272.372 157.384,265.327 157.384,265.327C157.384,265.327 155.083,237.913 173.501,234.224C182.964,219.462 203.43,231.324 203.43,231.324C203.43,231.324 216.987,228.425 221.848,240.551C236.997,242.952 236.287,251.532 237.453,258.738C251.009,259.528 250.242,270.336 250.242,270.336Z" clip-rule="evenodd" fill-rule="evenodd" transform="rotate(360 215.041 281.993)" fill="#000000"/>
<path d="M256.987,256.951C246.363,258.871 243.136,250.589 243.136,250.589C243.136,250.589 238.753,238.924 237.63,246.086C237.033,249.892 231.323,244.841 228.698,248.899C226.931,251.629 231.349,255.148 225.608,262.427C222.282,266.645 235.4,270.011 227.307,277.785C227.307,277.785 233.062,287.274 223.177,290.369L220.991,301.417L243.772,301.381L243.039,288.658C258.387,288.658 259.136,266.92 256.987,256.951Z" clip-rule="evenodd" fill-rule="evenodd" transform="rotate(360 239.432 272.589)" fill="#FFC999"/>
<path d="M233.279,268.522C233.545,268.248 233.976,268.248 234.242,268.522L234.381,268.653C234.445,268.71 234.526,268.779 234.623,268.859C234.956,269.13 235.347,269.402 235.792,269.657C237.299,270.521 239.019,270.968 240.913,270.779C241.287,270.741 241.62,271.024 241.656,271.41C241.693,271.796 241.419,272.139 241.044,272.176C238.854,272.395 236.864,271.878 235.13,270.884C234.25,270.38 233.624,269.871 233.279,269.515C233.013,269.24 233.013,268.796 233.279,268.522Z" transform="rotate(360 237.369 270.271)" fill="#F5222D"/>
<path d="M232.359,257.549C232.629,257.568 232.838,257.787 232.862,258.055L232.862,258.153C232.849,258.524 232.92,259.146 233.158,259.992C233.54,261.354 234.254,262.883 235.385,264.552C235.562,264.814 235.491,265.177 235.228,265.346L234.523,265.798C233.61,266.376 232.805,266.862 232.105,267.262L231.848,267.409C231.652,267.519 231.474,267.617 231.313,267.704L230.762,267.991C230.748,267.997 230.736,268.003 230.726,268.008C230.454,268.137 230.131,268.015 230.006,267.734C229.88,267.454 229.999,267.121 230.271,266.992L230.523,266.864L230.971,266.624C231.082,266.564 231.2,266.498 231.326,266.427C231.975,266.061 232.727,265.614 233.582,265.078L234.172,264.704L234.038,264.492C233.17,263.105 232.572,261.803 232.202,260.601L232.114,260.302C231.869,259.428 231.777,258.737 231.775,258.252L231.779,258.067C231.8,257.759 232.06,257.527 232.359,257.549Z" transform="rotate(360 232.719 262.803)" fill="#DD936F"/>
<path d="M247.064,388.952C247.064,388.952 276.182,396.91 289.464,387.371C303.902,377.003 286.222,337.551 281.598,327.272C277.629,318.445 268.976,312.727 261.1,311.374C253.351,310.044 247.43,309.57 247.43,309.57L245.728,302.735C245.48,301.74 244.609,301.043 243.612,301.043L220.397,301.043C219.309,301.043 218.389,301.867 218.234,302.976L217.338,309.45C217.338,309.45 197.797,308.694 188.548,317.519C179.69,325.972 182.249,344.943 189.68,362.502C197.11,380.064 203.368,393.999 215.792,395.279C238.76,397.646 274.663,377.04 274.663,377.04C274.663,377.04 280.787,373.66 286.475,374.562C285.163,366.446 280.787,360.586 268.1,363.967L222.82,373.66Z" clip-rule="evenodd" fill-rule="evenodd" transform="rotate(360 238.979 348.256)" fill="#FFFFFF"/>
<path d="M215.396,349.88C215.396,349.88 217.585,357.318 213.046,363.347L213.538,371.124L181.381,389.045C181.381,389.045 216.378,397.359 230.363,388.953C240.852,382.648 237.837,364.716 229.788,346.646C229.788,346.646 223.456,344.67 215.396,349.88Z" clip-rule="evenodd" fill-rule="evenodd" transform="rotate(360 209.236 369.495)" fill="#FFC999"/>
<path d="M218.317,351.908L227.286,371.969L263.157,361.935C273.876,359.003 285.254,363.179 288.098,371.969C282.849,372.645 272.895,375.012 272.895,375.012C272.895,375.012 238.443,397.158 221.052,396.314C208.579,395.707 203.726,380.739 196.295,363.179C196.295,363.179 200.818,353.261 218.317,351.908Z" clip-rule="evenodd" fill-rule="evenodd" transform="rotate(360 242.196 374.123)" fill="#FFC999"/>
<path d="M202.942,330.495C203.183,330.495 203.379,330.697 203.379,330.946L203.372,331.573L203.359,332.195C203.35,332.519 203.339,332.861 203.324,333.218C203.267,334.637 203.172,336.055 203.03,337.41L202.963,337.998L203.166,338.215C204.543,339.716 205.641,341.312 206.477,342.991L206.681,343.412C209.147,348.679 208.986,354.291 207.239,359.587C206.959,360.436 206.658,361.203 206.357,361.876L206.204,362.209L205.949,362.723C205.83,362.941 205.564,363.018 205.353,362.896C205.143,362.774 205.068,362.5 205.186,362.282L205.311,362.039C205.38,361.899 205.465,361.718 205.563,361.499C205.852,360.854 206.141,360.115 206.411,359.297C208.091,354.205 208.245,348.827 205.893,343.804C205.011,341.919 203.787,340.138 202.194,338.475C202.1,338.377 202.055,338.239 202.071,338.102C202.261,336.538 202.383,334.86 202.45,333.181L202.484,332.171L202.504,331.088L202.505,330.946C202.505,330.697 202.7,330.495 202.942,330.495Z" transform="rotate(360 205.306 346.724)" fill="#1F1F47"/>
<path d="M260.767,309.337C261.008,309.337 261.204,309.538 261.204,309.787C261.204,310.008 261.049,310.192 260.845,310.231L260.767,310.238L239.863,310.238C239.622,310.238 239.426,310.036 239.426,309.787C239.426,309.566 239.581,309.382 239.785,309.344L239.863,309.337L260.767,309.337Z" transform="rotate(360 250.315 309.787)" fill="#1F1F47"/>
<path d="M260.986,309.401C261.057,309.12 261.335,308.95 261.608,309.023C261.854,309.088 262.012,309.327 261.99,309.579L261.976,309.663L255.085,337.276C254.992,337.65 254.561,337.788 254.279,337.563L254.217,337.504L229.171,309.892C228.979,309.679 228.989,309.346 229.196,309.148C229.379,308.972 229.654,308.961 229.849,309.11L229.917,309.173L254.327,336.085L260.986,309.401Z" transform="rotate(360 245.513 323.339)" fill="#000000"/>
<path d="M242.244,340.219C244.562,344.248 243.516,349.3 239.911,351.504C236.304,353.708 231.501,352.227 229.183,348.2C226.865,344.171 227.909,339.12 231.516,336.916C235.123,334.712 239.925,336.191 242.244,340.219Z" clip-rule="evenodd" fill-rule="evenodd" transform="rotate(360 235.713 344.21)" fill="#000000"/>
<path d="M241.41,340.2C243.729,344.228 242.684,349.28 239.077,351.483C235.471,353.687 230.668,352.208 228.35,348.179C226.032,344.151 227.076,339.1 230.683,336.896C234.289,334.692 239.092,336.171 241.41,340.2Z" clip-rule="evenodd" fill-rule="evenodd" transform="rotate(360 234.88 344.189)" fill="#000000"/>
<path d="M239.963,340.901C241.762,344.029 240.951,347.952 238.15,349.663C235.351,351.373 231.622,350.225 229.823,347.098C228.023,343.969 228.833,340.047 231.633,338.337C234.434,336.624 238.163,337.774 239.963,340.901Z" clip-rule="evenodd" fill-rule="evenodd" transform="rotate(360 234.892 343.999)" fill="#8352FD"/>
<path d="M235.742,286.018C235.886,285.746 236.216,285.646 236.479,285.794C239.45,287.459 242.528,288.296 245.617,288.339C245.917,288.343 246.157,288.597 246.153,288.906C246.149,289.215 245.902,289.463 245.603,289.458C242.336,289.412 239.085,288.529 235.96,286.777C235.696,286.629 235.599,286.289 235.742,286.018Z" transform="rotate(360 240.915 287.592)" fill="#DD936F"/>
<path d="M273.936,367.469C273.936,367.469 260.838,356.162 252.788,356.754C245.131,357.318 240.538,363.742 241.849,367.349C241.849,367.349 240.102,370.505 242.944,371.519C242.561,373.83 245.787,373.66 245.787,373.66C245.787,373.66 245.241,375.125 247.538,375.463C249.834,375.801 252.371,370.954 258.333,371.951L273.936,367.469Z" clip-rule="evenodd" fill-rule="evenodd" transform="rotate(360 257.627 366.106)" fill="#FFC999"/>
<path d="M252.912,355.9C249.325,356.164 245.476,358.797 242.71,362.314C241.55,363.79 240.75,365.244 240.525,366.309L240.498,366.452C240.351,367.343 240.648,367.981 241.284,368.191L241.324,368.202L241.274,368.32C241.095,368.773 241.008,369.233 241.054,369.69L241.075,369.851C241.194,370.54 241.623,371.107 242.366,371.504L242.532,371.586L242.532,371.625C242.54,372.726 243.26,373.424 244.37,373.738L244.605,373.798C244.84,373.851 245.073,373.886 245.296,373.905L245.358,373.909L245.362,373.954C245.388,374.163 245.453,374.374 245.569,374.58C245.903,375.175 246.583,375.567 247.625,375.72C248.205,375.806 248.779,375.656 249.46,375.293L249.667,375.177C250.09,374.934 251.702,373.837 251.721,373.824C253.97,372.361 255.875,371.783 258.409,372.207C258.483,372.219 258.559,372.216 258.632,372.196L274.836,367.882C275.268,367.767 275.389,367.195 275.043,366.906L274.459,366.43L273.865,365.959C273.553,365.714 273.218,365.456 272.862,365.186C271.167,363.899 269.344,362.613 267.463,361.412C265.293,360.026 263.183,358.843 261.185,357.927C258.126,356.525 255.44,355.797 253.213,355.883L252.912,355.9ZM260.743,358.95C262.692,359.843 264.76,361.002 266.891,362.364C268.745,363.548 270.545,364.817 272.218,366.087L272.998,366.687L273.501,367.081L258.467,371.084L258.583,371.102C255.858,370.646 253.761,371.233 251.423,372.698L251.141,372.878C251.091,372.911 249.518,373.981 249.137,374.2C248.552,374.538 248.133,374.665 247.778,374.612C247.04,374.504 246.657,374.283 246.509,374.019C246.448,373.91 246.429,373.79 246.439,373.675L246.458,373.565C246.588,373.214 246.354,372.842 245.999,372.807L245.899,372.806C245.54,372.816 245.084,372.779 244.657,372.659C243.869,372.435 243.523,372.044 243.644,371.317C243.689,371.047 243.537,370.783 243.286,370.694C242.504,370.415 242.18,370.04 242.134,369.576C242.101,369.245 242.207,368.855 242.411,368.456C242.522,368.239 242.632,368.073 242.698,367.988C243.025,367.572 242.651,366.966 242.146,367.094L241.951,367.138C241.515,367.223 241.471,367.094 241.586,366.547C241.769,365.684 242.491,364.371 243.554,363.019C246.148,359.719 249.752,357.255 252.989,357.016C255.062,356.864 257.694,357.552 260.743,358.95Z" transform="rotate(360 257.852 365.81)" fill="#DD936F"/>
<path d="M273.118,359.806C273.415,359.767 273.687,359.985 273.724,360.291C273.761,360.598 273.55,360.878 273.252,360.916C271.186,361.182 268.948,362.397 266.696,364.262C265.783,365.017 264.932,365.828 264.165,366.638L263.786,367.047L263.328,367.567C263.273,367.631 263.234,367.678 263.209,367.708C263.016,367.945 262.674,367.976 262.444,367.777C262.214,367.579 262.184,367.226 262.377,366.989L262.646,366.672C262.861,366.426 263.109,366.152 263.387,365.857C264.183,365.016 265.066,364.175 266.015,363.389C268.41,361.406 270.813,360.102 273.118,359.806Z" transform="rotate(360 267.989 363.855)" fill="#DD936F"/>
<path d="M272.547,362.827C272.847,362.817 273.098,363.059 273.108,363.368C273.118,363.677 272.883,363.935 272.583,363.946C272.402,363.952 272.219,363.964 272.034,363.982C269.47,364.232 266.684,365.586 263.871,367.692C262.762,368.521 261.726,369.412 260.793,370.302C260.549,370.535 260.325,370.756 260.122,370.96L259.664,371.438C259.65,371.453 259.637,371.467 259.627,371.478C259.423,371.704 259.079,371.716 258.86,371.506C258.64,371.295 258.628,370.941 258.833,370.715L259.158,370.37L259.578,369.945C259.727,369.796 259.887,369.641 260.056,369.48C261.018,368.562 262.086,367.644 263.232,366.786C266.189,364.573 269.138,363.14 271.931,362.868C272.138,362.848 272.343,362.834 272.547,362.827Z" transform="rotate(360 265.898 367.241)" fill="#DD936F"/>
<path d="M269.652,366.385C269.952,366.366 270.21,366.6 270.229,366.908C270.248,367.217 270.021,367.483 269.721,367.502C268.794,367.563 267.642,367.973 266.326,368.684C265.399,369.184 264.414,369.82 263.396,370.56C262.456,371.244 261.541,371.977 260.688,372.71L260.263,373.081L259.598,373.683C259.377,373.892 259.033,373.877 258.83,373.649C258.627,373.421 258.642,373.067 258.863,372.858L259.167,372.578L259.556,372.231C259.693,372.109 259.839,371.983 259.992,371.851C260.866,371.1 261.804,370.348 262.77,369.646C263.824,368.879 264.848,368.218 265.822,367.692C267.261,366.916 268.546,366.458 269.652,366.385Z" transform="rotate(360 264.459 370.107)" fill="#DD936F"/>
<path d="M283.118,337.262C283.32,337.188 283.541,337.276 283.644,337.461L283.677,337.535L288.51,351.532C288.608,351.816 288.411,352.118 288.118,352.133L287.867,352.149C287.657,352.165 287.413,352.186 287.138,352.214C286.35,352.295 285.471,352.414 284.523,352.578C281.818,353.046 279.114,353.783 276.594,354.844C271.985,356.785 268.531,359.584 266.685,363.38C266.576,363.602 266.314,363.692 266.098,363.581C265.882,363.469 265.795,363.199 265.903,362.976C267.857,358.958 271.475,356.026 276.263,354.009C278.849,352.921 281.614,352.168 284.379,351.689C285.185,351.549 285.943,351.442 286.64,351.362L287.258,351.297L287.493,351.275L282.853,337.837C282.781,337.629 282.867,337.402 283.047,337.296L283.118,337.262Z" transform="rotate(360 277.196 350.432)" fill="#1F1F47"/>
<path d="M191.409,347.377C194.778,345.877 198.356,345.265 201.888,346.059C202.124,346.112 202.274,346.352 202.222,346.595C202.171,346.838 201.938,346.992 201.702,346.939C198.372,346.192 194.971,346.773 191.756,348.204C191.105,348.494 190.505,348.801 189.964,349.11L189.647,349.296C189.277,349.518 189.021,349.688 188.891,349.782C188.693,349.926 188.421,349.877 188.282,349.673C188.143,349.47 188.19,349.189 188.388,349.045L188.605,348.896C188.778,348.781 188.979,348.654 189.207,348.517C189.856,348.128 190.595,347.739 191.409,347.377Z" transform="rotate(360 195.217 347.787)" fill="#1F1F47"/>
<path d="M230.202,362.375C230.32,362.091 230.639,361.96 230.915,362.081C232.843,362.933 234.62,364.299 236.238,366.035C237.226,367.096 238.095,368.231 238.839,369.366C239.035,369.664 239.211,369.947 239.368,370.21L239.64,370.682C239.693,370.775 239.731,370.847 239.757,370.896C239.916,371.203 239.766,371.575 239.46,371.687L239.38,371.709L229.479,373.671L196.795,390.575C196.554,390.7 196.265,390.622 196.112,390.403L196.066,390.326C195.945,390.077 196.021,389.78 196.232,389.622L196.308,389.574L229.059,372.637L229.2,372.588L238.42,370.76L238.287,370.54C238.233,370.452 238.177,370.363 238.119,370.272L237.939,369.993C237.227,368.907 236.396,367.822 235.454,366.81C233.93,365.174 232.267,363.896 230.487,363.11C230.211,362.988 230.084,362.659 230.202,362.375Z" transform="rotate(360 217.915 376.335)" fill="#DD936F"/>
<path d="M210.263,404.383C210.352,404.107 210.642,403.959 210.909,404.051L211.459,404.229L211.942,404.379C212.282,404.482 212.656,404.592 213.064,404.707C214.817,405.202 216.823,405.698 219.051,406.161C233.18,409.097 248.222,409.318 262.405,405.054C262.676,404.973 262.96,405.133 263.039,405.412C263.118,405.691 262.962,405.983 262.692,406.065C248.327,410.383 233.127,410.16 218.849,407.193C216.598,406.725 214.569,406.224 212.794,405.722L212.198,405.551C211.912,405.467 211.646,405.387 211.399,405.311L210.716,405.093C210.662,405.075 210.619,405.061 210.585,405.049C210.318,404.957 210.173,404.659 210.263,404.383Z" transform="rotate(360 236.648 406.697)" fill="#000000"/>
<path d="M247.43,257.475C247.792,257.475 248.086,257.778 248.086,258.151C248.086,260.747 246.189,262.873 243.82,262.873C241.452,262.873 239.557,260.747 239.557,258.151C239.557,257.778 239.85,257.475 240.212,257.475C240.574,257.475 240.868,257.778 240.868,258.151C240.868,260.025 242.202,261.522 243.82,261.522C245.439,261.522 246.775,260.025 246.775,258.151C246.775,257.778 247.068,257.475 247.43,257.475Z" transform="rotate(360 243.821 260.174)" fill="#000000"/>
<path d="M230.169,257.94C230.512,257.94 230.791,258.227 230.791,258.581C230.791,261.145 229.087,263.268 226.921,263.268C224.755,263.268 223.051,261.145 223.051,258.581C223.051,258.227 223.329,257.94 223.673,257.94C224.016,257.94 224.295,258.227 224.295,258.581C224.295,260.485 225.499,261.986 226.921,261.986C228.342,261.986 229.547,260.485 229.547,258.581C229.547,258.227 229.825,257.94 230.169,257.94Z" transform="rotate(360 226.921 260.604)" fill="#000000"/>
<path d="M239.698,250.2C242.201,249.111 244.85,249.22 247.355,250.05C248.075,250.288 248.613,250.528 248.921,250.696C249.241,250.87 249.364,251.279 249.195,251.609C249.026,251.939 248.629,252.065 248.309,251.891L248.144,251.809C248.093,251.784 248.033,251.756 247.964,251.725C247.669,251.593 247.33,251.46 246.954,251.336C244.722,250.597 242.379,250.501 240.208,251.445C239.812,251.617 239.426,251.823 239.05,252.065C238.743,252.263 238.339,252.167 238.147,251.85C237.955,251.534 238.048,251.117 238.355,250.919C238.79,250.639 239.238,250.4 239.698,250.2Z" transform="rotate(360 243.659 250.787)" fill="#000000"/>
<path d="M271.373,404.373C282.883,405.163 311.024,479.726 321.639,506.382C320.325,511.792 312.047,521.407 312.047,521.407C312.047,521.407 312.991,525.69 313.572,528.263C303.853,536.698 284.924,541.443 284.924,541.443L284.924,545.133C254.738,559.895 213.944,546.58 213.944,546.58C213.944,546.58 213.176,545.79 213.688,542.89C199.907,542.89 170.202,525.229 170.202,525.229L174.295,516.268L162.016,503.614C162.016,503.614 199.538,437.493 205.93,422.956C213.049,406.766 220.916,403.759 220.916,403.759C220.916,403.759 250.948,402.969 271.373,404.373Z" clip-rule="evenodd" fill-rule="evenodd" transform="rotate(360 241.828 477.814)" fill="url(#pf_0_i_43_359;153_5425)"/>
<path d="M306.087,445.925C306.209,445.663 306.514,445.552 306.768,445.677C306.997,445.789 307.108,446.055 307.039,446.298L307.01,446.378L270.866,524.536L271.321,524.872L271.706,525.15C272.679,525.845 273.826,526.62 275.139,527.456C278.894,529.845 283.226,532.236 288.075,534.467C295.859,538.049 304.217,540.869 313.041,542.638C313.318,542.693 313.498,542.97 313.445,543.255C313.391,543.54 313.123,543.727 312.846,543.671C303.942,541.886 295.511,539.042 287.658,535.428C282.766,533.177 278.395,530.765 274.602,528.351C273.421,527.6 272.372,526.896 271.46,526.253L271.124,526.015C270.916,525.866 270.725,525.728 270.551,525.6L270.065,525.236C269.997,525.184 269.946,525.146 269.914,525.12C269.746,524.988 269.677,524.766 269.732,524.561L269.763,524.475L306.087,445.925Z" transform="rotate(360 291.584 494.653)" fill="#000000"/>
<path d="M169.384,439.072C169.621,438.977 169.884,439.076 170.009,439.294L170.046,439.371L203.934,528.598C204.021,528.828 203.942,529.089 203.744,529.227L203.506,529.388C203.313,529.517 203.085,529.667 202.824,529.836L202.156,530.261C201.575,530.625 200.934,531.016 200.236,531.427C197.447,533.071 194.324,534.714 190.94,536.248C185.571,538.682 180.059,540.605 174.532,541.826C174.256,541.887 173.984,541.706 173.925,541.422C173.866,541.138 174.042,540.858 174.317,540.797C179.772,539.592 185.22,537.692 190.529,535.285C193.878,533.767 196.97,532.14 199.729,530.513C200.694,529.945 201.548,529.417 202.282,528.943L202.831,528.583L169.095,439.754C169.002,439.511 169.098,439.239 169.309,439.11L169.384,439.072Z" transform="rotate(360 186.514 490.437)" fill="#000000"/>
<path d="M246.207,418.488C246.484,418.428 246.754,418.61 246.812,418.895L248.656,428.041C249.312,431.311 250.01,434.811 250.744,438.509L251.415,441.889C254.601,457.984 257.787,474.401 260.793,490.328L261.54,494.299C262.092,497.239 262.634,500.139 263.163,502.996L264.31,509.211C266.786,522.688 268.945,534.899 270.727,545.571C270.769,545.824 270.629,546.072 270.394,546.157C268.684,546.779 266.949,547.35 265.19,547.87C246.868,553.294 227.331,553.12 208.935,549.574C206.114,549.03 203.571,548.447 201.347,547.864L200.599,547.664C200.361,547.6 200.133,547.537 199.916,547.476L199.025,547.218C198.82,547.157 198.671,547.111 198.582,547.083C198.36,547.011 198.216,546.796 198.222,546.564L198.233,546.476L215.892,456.34C215.948,456.055 216.218,455.871 216.494,455.928C216.743,455.98 216.913,456.21 216.904,456.463L216.894,456.548L199.327,546.212L200.186,546.461C200.614,546.581 201.085,546.709 201.599,546.844C203.802,547.421 206.324,547.999 209.122,548.539C227.376,552.058 246.761,552.23 264.908,546.859C266.299,546.447 267.676,546.003 269.036,545.527L269.646,545.309L268.988,541.402C267.295,531.438 265.304,520.255 263.058,508.055L262.555,505.327C261.9,501.785 261.227,498.173 260.537,494.499C257.812,479.983 254.921,464.997 252.006,450.169L249.093,435.447L245.812,419.111C245.755,418.826 245.931,418.547 246.207,418.488Z" transform="rotate(360 234.478 485.293)" fill="#000000"/>
<path d="M241.855,420.191C242.109,420.206 242.309,420.408 242.336,420.66L242.338,420.745L237.871,507.596C237.856,507.886 237.615,508.109 237.334,508.094C237.08,508.08 236.88,507.878 236.853,507.626L236.851,507.54L241.318,420.69C241.333,420.399 241.573,420.177 241.855,420.191Z" transform="rotate(360 239.594 464.143)" fill="#000000"/>
<path d="M268.202,406.976C268.29,406.7 268.579,406.549 268.847,406.64C269.088,406.722 269.23,406.971 269.192,407.221L269.173,407.304L252.291,460.286C252.203,460.562 251.914,460.713 251.646,460.622C251.405,460.54 251.263,460.291 251.301,460.041L251.32,459.958L268.202,406.976Z" transform="rotate(360 260.247 433.631)" fill="#000000"/>
<path d="M272.283,733.865C272.12,734.607 269.67,708.079 269.787,700.256C279.957,701.641 289.358,700.652 289.358,700.652C289.358,700.652 288.014,730.899 288.398,733.865C281.108,738.412 272.283,733.865 272.283,733.865Z" clip-rule="evenodd" fill-rule="evenodd" transform="rotate(360 279.571 718.071)" fill="#FFFFFF"/>
<path d="M259.753,769.758C261.015,780.244 266.49,785.792 272.138,786.406C279.132,787.167 286.747,785.135 287.978,778.675C289.382,771.301 285.699,767.529 281.585,756.985C277.47,746.441 275.507,737.423 273.973,729.912C273.973,729.912 268.728,726.748 270.135,735.841C271.275,743.204 274.036,763.915 278.896,765.363C274.163,764.969 264.442,768.79 264.442,768.79C264.442,768.79 267.897,763.255 267.642,761.41C267.386,759.565 264.527,740.66 264.38,735.051C264.234,729.505 259.564,730.174 257.313,730.823C256.613,731.024 256.167,731.721 256.251,732.467C256.464,734.314 259.156,764.794 259.753,769.758Z" clip-rule="evenodd" fill-rule="evenodd" transform="rotate(360 272.262 757.968)" fill="#1F1F47"/>
<path d="M264.468,741.971C264.468,741.971 258.634,729.385 264.468,728.133C269.073,727.144 273.485,726.945 274.061,728.133C274.275,728.574 274.253,732.679 275.787,741.179C277.579,751.104 282.16,762.743 283.846,765.101C286.532,768.857 283.653,769.054 277.131,770.834C270.608,772.613 268.306,772.613 266.578,769.054C264.852,765.496 264.852,749.681 264.468,741.971Z" clip-rule="evenodd" fill-rule="evenodd" transform="rotate(360 273.361 749.659)" fill="#1F1F47"/>
<path d="M277.404,745.072C277.755,744.932 278.15,745.111 278.286,745.472C278.423,745.833 278.249,746.24 277.898,746.381C277.1,746.701 276.218,747.145 275.267,747.697C274.352,748.229 273.388,748.853 272.392,749.551C271.435,750.221 270.489,750.93 269.58,751.647L269.072,752.052L269.104,752.054C269.872,752.083 270.688,752.172 271.545,752.316L271.978,752.393C273.655,752.704 275.433,753.205 277.251,753.843C278.365,754.234 279.426,754.653 280.4,755.072L280.885,755.284L281.65,755.636C282.27,755.936 282.12,756.886 281.44,756.968C278.87,757.279 276.109,758.699 273.345,760.88C272.227,761.762 271.185,762.709 270.249,763.655C270.053,763.854 269.87,764.044 269.701,764.223L269.382,764.568C269.234,764.731 269.133,764.845 269.084,764.904C268.836,765.196 268.405,765.225 268.122,764.97C267.839,764.715 267.81,764.271 268.058,763.98L268.298,763.707L268.388,763.608C268.65,763.319 268.953,762.998 269.294,762.653C270.268,761.669 271.351,760.685 272.517,759.765C274.635,758.095 276.764,756.836 278.858,756.133L279.116,756.049L278.7,755.88C278.296,755.719 277.88,755.56 277.455,755.403L276.812,755.172C275.054,754.555 273.339,754.072 271.736,753.774C269.976,753.447 268.42,753.358 267.128,753.539C266.454,753.634 266.076,752.763 266.594,752.309L266.992,751.968L267.607,751.455C267.753,751.334 267.906,751.209 268.065,751.081C269.198,750.164 270.402,749.247 271.626,748.39C272.651,747.672 273.647,747.027 274.597,746.475C275.601,745.891 276.54,745.419 277.404,745.072Z" transform="rotate(360 274.197 755.084)" fill="#000000"/>
<path d="M264.328,746.886C265.646,746.584 267.241,746.572 269.06,746.797C270.516,746.978 272.063,747.305 273.639,747.735C274.335,747.925 275.002,748.126 275.627,748.329L276.28,748.548L277.055,748.825C277.647,749.052 277.646,749.915 277.054,750.141C274.789,751.006 272.585,752.36 270.485,754.071C269.306,755.031 268.223,756.053 267.252,757.082L266.731,757.645L266.467,757.94L267.337,757.959C267.577,757.966 267.824,757.974 268.079,757.984L268.467,758C270.428,758.087 272.364,758.256 274.178,758.529C277.459,759.021 280.054,759.803 281.735,760.958C282.048,761.173 282.133,761.609 281.924,761.932C281.716,762.254 281.293,762.341 280.98,762.126C279.506,761.114 277.079,760.383 273.982,759.918C272.218,759.653 270.326,759.487 268.409,759.403C267.51,759.363 266.695,759.344 265.997,759.34L265.001,759.344C264.427,759.357 264.096,758.678 264.448,758.212L264.733,757.853L264.818,757.749C265.113,757.39 265.458,756.99 265.849,756.561C266.966,755.337 268.237,754.113 269.64,752.97C271.256,751.652 272.938,750.533 274.67,749.667L274.885,749.562L274.755,749.521C274.443,749.423 274.12,749.327 273.791,749.232L273.29,749.092C271.771,748.677 270.284,748.363 268.897,748.191C267.218,747.983 265.768,747.994 264.623,748.256C264.256,748.34 263.892,748.102 263.81,747.723C263.729,747.345 263.96,746.97 264.328,746.886Z" transform="rotate(360 272.916 754.443)" fill="#000000"/>
<path d="M255.98,771.822C255.98,771.822 269.794,759.96 282.456,768.659C285.622,775.93 283.792,780.253 282.265,782.497C281.633,783.426 280.435,784.722 279.401,785.106C276.318,786.253 268.233,788.556 262.504,784.672C255.213,779.729 255.98,771.822 255.98,771.822Z" clip-rule="evenodd" fill-rule="evenodd" transform="rotate(360 270.077 776.154)" fill="#000000"/>
<path d="M281.422,768.594C281.598,768.497 281.817,768.566 281.911,768.747C283.698,772.2 281.823,776.679 279.233,778.459C277.39,779.725 270.884,780.872 265.715,780.63C263.148,780.509 261.084,778.871 259.475,776.242C258.897,775.297 258.419,774.287 258.034,773.278C257.933,773.013 257.844,772.761 257.766,772.528L257.634,772.11C257.609,772.027 257.591,771.964 257.58,771.921C257.527,771.722 257.64,771.517 257.833,771.463C258.026,771.408 258.225,771.525 258.278,771.724L258.381,772.07L258.529,772.516C258.583,772.672 258.643,772.835 258.707,773.005C259.077,773.974 259.536,774.942 260.087,775.844C261.582,778.287 263.459,779.777 265.748,779.885C270.777,780.12 277.143,778.998 278.832,777.839C281.144,776.249 282.857,772.159 281.273,769.098C281.179,768.916 281.245,768.691 281.422,768.594Z" transform="rotate(360 270.091 774.606)" fill="#A3B5D6"/>
<path d="M270.076,704.854C270.155,704.475 270.517,704.234 270.885,704.315L271.456,704.43L271.746,704.484C272.448,704.612 273.246,704.741 274.125,704.861C278.539,705.465 283.127,705.629 287.4,705.086C287.829,705.031 288.252,704.97 288.669,704.901C289.04,704.84 289.39,705.1 289.449,705.483C289.509,705.866 289.256,706.226 288.884,706.287C288.451,706.359 288.012,706.423 287.567,706.479C283.163,707.04 278.465,706.872 273.946,706.253C273.196,706.151 272.503,706.042 271.876,705.932L271.15,705.799L270.6,705.688C270.232,705.606 269.997,705.233 270.076,704.854Z" transform="rotate(360 279.759 705.56)" fill="#000000"/>
<path d="M276.042,738.965L276.134,738.962L276.683,738.992C277.113,739.018 277.592,739.055 278.108,739.103C279.582,739.24 281.058,739.442 282.44,739.723C287.235,740.696 289.94,742.358 289.034,745.159C288.197,747.744 285.625,747.385 282.121,745.239C281.375,744.782 280.595,744.248 279.791,743.653C278.846,742.952 277.917,742.203 277.043,741.453L276.818,741.26L276.494,740.976L276.062,741.611L275.846,741.92C275.005,743.12 274.106,744.32 273.182,745.442C272.249,746.577 271.341,747.57 270.474,748.382C268.138,750.572 266.174,751.409 264.694,750.237C263.798,749.527 263.694,748.506 264.266,747.45C264.692,746.662 265.499,745.815 266.639,744.892C267.504,744.192 268.549,743.459 269.738,742.705C270.956,741.932 272.258,741.177 273.56,740.471L274.218,740.119L275.302,739.559C275.33,739.545 275.359,739.533 275.388,739.524L275.446,739.508L275.459,739.452C275.54,739.188 275.769,738.993 276.042,738.965ZM274.372,741.618L274.195,741.713C272.918,742.406 271.641,743.145 270.452,743.9C269.304,744.628 268.3,745.333 267.48,745.996C266.47,746.814 265.775,747.544 265.455,748.134C265.189,748.627 265.214,748.878 265.525,749.124C266.264,749.71 267.674,749.109 269.558,747.343C270.376,746.577 271.245,745.626 272.143,744.534C272.862,743.661 273.568,742.736 274.242,741.801L274.372,741.618ZM278.074,740.509L278.431,740.811C279.127,741.393 279.853,741.969 280.587,742.513C281.36,743.086 282.108,743.598 282.817,744.032C285.637,745.759 287.327,745.995 287.741,744.715C288.239,743.177 286.182,741.913 282.176,741.1C281.068,740.875 279.89,740.701 278.7,740.573L278.074,740.509Z" transform="rotate(360 276.559 744.865)" fill="#000000"/>
<path d="M282.065,732.638C282.408,732.606 282.715,732.843 282.79,733.18L282.805,733.274L283.316,739.073C283.35,739.459 283.073,739.801 282.699,739.836C282.355,739.868 282.048,739.631 281.973,739.294L281.959,739.2L281.448,733.401C281.414,733.015 281.69,732.673 282.065,732.638Z" transform="rotate(360 282.382 736.237)" fill="#000000"/>
<path d="M273.112,730.794C273.455,730.761 273.762,730.998 273.837,731.335L273.852,731.429L274.362,737.228C274.396,737.614 274.12,737.956 273.746,737.991C273.402,738.023 273.095,737.786 273.02,737.449L273.005,737.355L272.495,731.556C272.461,731.17 272.737,730.829 273.112,730.794Z" transform="rotate(360 273.429 734.392)" fill="#000000"/>
<defs>
<linearGradient id="pf_0_i_43_359;153_5425" x1="241.828" y1="403.538" x2="241.828" y2="552.091" gradientUnits="userSpaceOnUse">
<stop stop-color="#C961DE"/>
<stop offset="1" stop-color="#00124C"/>
</linearGradient>
</defs>
</svg>
