<svg width="462" height="948" viewBox="0 0 462 948" fill="none" xmlns="http://www.w3.org/2000/svg" xmlns:xlink="http://www.w3.org/1999/xlink">
<path d="M209.323,733.425C208.086,660.967 181.492,508.23 177.672,468.892C173.852,429.554 187.439,416.231 200.467,422.721C213.495,429.213 217.393,519.977 217.393,519.977C217.393,519.977 218.29,537.741 221.69,557.97C233.982,631.099 225.354,734.465 225.354,734.465C225.354,734.465 222.972,741.199 215.761,740.303C208.551,739.405 209.323,733.425 209.323,733.425Z" clip-rule="evenodd" fill-rule="evenodd" transform="rotate(360 202.657 580.769)" fill="#FFC999"/>
<path d="M195.011,736.511C195.174,737.253 197.624,710.725 197.506,702.902C187.338,704.287 177.936,703.298 177.936,703.298C177.936,703.298 179.279,733.545 178.896,736.511C186.185,741.058 195.011,736.511 195.011,736.511Z" clip-rule="evenodd" fill-rule="evenodd" transform="rotate(360 187.723 720.717)" fill="#FFFFFF"/>
<path d="M207.541,772.404C206.278,782.89 200.804,788.438 195.156,789.051C188.163,789.812 180.547,787.781 179.317,781.321C177.913,773.947 181.594,770.175 185.71,759.631C189.825,749.085 191.788,740.069 193.322,732.556C193.322,732.556 198.567,729.394 197.16,738.487C196.02,745.85 193.257,766.56 188.397,768.009C193.13,767.614 202.851,771.436 202.851,771.436C202.851,771.436 199.397,765.901 199.653,764.055C199.909,762.211 202.767,743.306 202.914,737.697C203.06,732.151 207.731,732.82 209.981,733.468C210.682,733.67 211.128,734.367 211.043,735.111C210.829,736.959 208.139,767.439 207.541,772.404Z" clip-rule="evenodd" fill-rule="evenodd" transform="rotate(360 195.033 760.613)" fill="#1F1F47"/>
<path d="M202.826,744.616C202.826,744.616 208.66,732.03 202.826,730.778C198.221,729.789 193.809,729.592 193.233,730.778C193.019,731.219 193.041,735.324 191.507,743.826C189.715,753.749 185.134,765.389 183.448,767.747C180.762,771.502 183.641,771.7 190.163,773.479C196.686,775.258 198.988,775.258 200.716,771.7C202.442,768.141 202.442,752.326 202.826,744.616Z" clip-rule="evenodd" fill-rule="evenodd" transform="rotate(360 193.933 752.304)" fill="#1F1F47"/>
<path d="M189.008,748.118C189.145,747.756 189.54,747.577 189.89,747.718C190.755,748.064 191.694,748.537 192.697,749.12C193.648,749.673 194.643,750.317 195.669,751.036C196.893,751.893 198.096,752.81 199.23,753.727L199.688,754.1C199.834,754.221 199.975,754.338 200.108,754.449L200.7,754.954C201.219,755.409 200.841,756.279 200.167,756.185C198.874,756.003 197.318,756.093 195.557,756.42C193.955,756.718 192.24,757.201 190.482,757.818C189.832,758.046 189.2,758.284 188.594,758.526L188.177,758.695L188.436,758.779C190.413,759.443 192.423,760.602 194.424,762.136L194.777,762.41C195.944,763.33 197.027,764.314 198,765.299L198.391,765.701C198.453,765.766 198.514,765.829 198.573,765.892L198.907,766.253C199.066,766.428 199.177,766.555 199.237,766.625C199.484,766.917 199.456,767.36 199.172,767.616C198.889,767.871 198.459,767.841 198.211,767.549L197.996,767.305L197.913,767.213C197.663,766.938 197.373,766.632 197.046,766.301C196.11,765.354 195.068,764.407 193.949,763.525C191.185,761.345 188.424,759.925 185.854,759.613C185.173,759.531 185.023,758.582 185.643,758.281L185.979,758.124L186.644,757.826C186.725,757.79 186.808,757.754 186.894,757.718C187.868,757.299 188.929,756.88 190.043,756.489C191.86,755.851 193.639,755.35 195.316,755.038C196.164,754.881 196.972,754.774 197.737,754.723L198.222,754.698L197.714,754.292C197.033,753.755 196.33,753.222 195.618,752.706L194.903,752.197C193.907,751.499 192.943,750.875 192.028,750.343C191.077,749.79 190.195,749.346 189.396,749.026C189.046,748.886 188.872,748.479 189.008,748.118Z" transform="rotate(360 193.097 757.73)" fill="#000000"/>
<path d="M198.234,749.443C200.053,749.217 201.648,749.23 202.966,749.531C203.334,749.615 203.565,749.99 203.484,750.369C203.402,750.747 203.038,750.986 202.671,750.902C201.526,750.64 200.076,750.629 198.397,750.837C197.01,751.009 195.523,751.323 194.004,751.738C193.498,751.876 193.008,752.02 192.539,752.167L192.408,752.208L192.624,752.312C194.199,753.1 195.731,754.096 197.212,755.261L197.654,755.615C199.057,756.759 200.327,757.983 201.444,759.207C201.757,759.55 202.04,759.874 202.292,760.174L202.636,760.592C202.73,760.71 202.8,760.799 202.844,760.858C203.177,761.298 202.9,761.928 202.385,761.986L202.266,761.99L202.125,761.988C201.281,761.978 200.168,761.992 198.884,762.048C196.967,762.133 195.076,762.299 193.312,762.564C190.215,763.029 187.787,763.76 186.314,764.772C186.001,764.987 185.578,764.9 185.37,764.577C185.161,764.255 185.246,763.819 185.559,763.604C187.24,762.449 189.835,761.667 193.116,761.174C194.93,760.902 196.866,760.732 198.826,760.646L199.591,760.616C199.838,760.608 200.078,760.601 200.309,760.596L200.825,760.586L200.67,760.411L200.451,760.168C199.378,758.992 198.156,757.814 196.809,756.717C194.709,755.005 192.505,753.651 190.24,752.787C189.648,752.561 189.647,751.698 190.239,751.471L190.831,751.257C190.949,751.215 191.074,751.172 191.207,751.128C191.96,750.873 192.785,750.618 193.655,750.381C195.231,749.95 196.778,749.624 198.234,749.443Z" transform="rotate(360 194.378 757.089)" fill="#000000"/>
<path d="M211.315,774.468C211.315,774.468 197.501,762.606 184.839,771.305C181.673,778.576 183.504,782.899 185.031,785.143C185.663,786.072 186.86,787.367 187.895,787.752C190.979,788.899 199.063,791.202 204.792,787.318C212.082,782.375 211.315,774.468 211.315,774.468Z" clip-rule="evenodd" fill-rule="evenodd" transform="rotate(360 197.219 778.799)" fill="#000000"/>
<path d="M185.382,771.393C185.476,771.211 185.695,771.142 185.871,771.239C186.048,771.336 186.114,771.562 186.02,771.744C184.436,774.805 186.15,778.896 188.461,780.483C190.15,781.643 196.517,782.766 201.545,782.53C203.833,782.423 205.711,780.933 207.206,778.49C207.757,777.588 208.216,776.619 208.586,775.65C208.715,775.311 208.824,774.997 208.913,774.715L209.016,774.369C209.069,774.171 209.268,774.054 209.46,774.108C209.653,774.163 209.767,774.368 209.714,774.566L209.632,774.845L209.601,774.946C209.508,775.241 209.394,775.57 209.259,775.923C208.874,776.933 208.396,777.943 207.818,778.887C206.209,781.517 204.145,783.155 201.578,783.275C196.41,783.517 189.904,782.37 188.06,781.103C185.471,779.326 183.595,774.846 185.382,771.393Z" transform="rotate(360 197.202 777.251)" fill="#A3B5D6"/>
<path d="M196.41,706.96C196.777,706.879 197.139,707.121 197.218,707.5C197.297,707.879 197.062,708.252 196.695,708.333L196.455,708.383C196.263,708.422 196.04,708.465 195.787,708.512L195.034,708.643C194.511,708.731 193.948,708.817 193.348,708.899C188.829,709.517 184.131,709.684 179.727,709.125C179.282,709.068 178.843,709.004 178.41,708.933C178.039,708.872 177.786,708.512 177.845,708.129C177.904,707.746 178.254,707.486 178.625,707.547C179.042,707.615 179.465,707.677 179.894,707.732C184.167,708.274 188.755,708.11 193.169,707.507C193.902,707.407 194.578,707.301 195.189,707.194L195.548,707.129C195.967,707.053 196.259,706.994 196.41,706.96Z" transform="rotate(360 187.535 708.205)" fill="#000000"/>
<path d="M191.159,741.609C191.472,741.597 191.744,741.805 191.834,742.099L191.845,742.153L191.905,742.169L191.991,742.204L192.474,742.45L193.075,742.764C193.285,742.875 193.505,742.993 193.733,743.116C195.035,743.823 196.337,744.577 197.555,745.35C198.743,746.104 199.788,746.836 200.653,747.536C201.793,748.459 202.6,749.307 203.027,750.094C203.599,751.151 203.495,752.172 202.599,752.882C201.119,754.055 199.155,753.218 196.819,751.028C195.952,750.216 195.044,749.223 194.11,748.088C193.187,746.966 192.287,745.766 191.447,744.566L191.231,744.257L190.799,743.623L190.25,744.1C189.376,744.849 188.447,745.598 187.502,746.299C186.698,746.894 185.918,747.428 185.172,747.884L184.739,748.143C181.456,750.055 179.06,750.282 178.259,747.804C177.353,745.003 180.058,743.341 184.853,742.368C186.235,742.088 187.711,741.886 189.185,741.749L189.93,741.685L190.61,741.638C190.87,741.622 191.057,741.613 191.159,741.609ZM192.919,744.262L193.051,744.447C193.725,745.382 194.431,746.307 195.15,747.18C196.048,748.272 196.917,749.223 197.735,749.989C199.618,751.755 201.029,752.355 201.768,751.769C202.079,751.523 202.104,751.272 201.837,750.779C201.518,750.189 200.822,749.458 199.811,748.64C198.992,747.977 197.988,747.273 196.841,746.545C195.889,745.942 194.882,745.348 193.863,744.78L193.098,744.359L192.919,744.262ZM189.217,743.156L188.593,743.219C187.403,743.348 186.225,743.521 185.117,743.746L184.558,743.865C180.921,744.679 179.078,745.896 179.552,747.36C179.966,748.64 181.656,748.404 184.476,746.677C185.185,746.243 185.933,745.732 186.706,745.159C187.44,744.615 188.165,744.039 188.862,743.458L189.217,743.156Z" transform="rotate(360 190.734 747.511)" fill="#000000"/>
<path d="M185.23,735.284C185.573,735.316 185.834,735.606 185.849,735.951L185.846,736.047L185.334,741.846C185.3,742.232 184.969,742.516 184.594,742.481C184.251,742.449 183.99,742.159 183.975,741.814L183.977,741.719L184.49,735.919C184.521,735.566 184.802,735.297 185.137,735.282L185.23,735.284Z" transform="rotate(360 184.912 738.883)" fill="#000000"/>
<path d="M194.184,733.439C194.527,733.471 194.788,733.761 194.803,734.106L194.801,734.201L194.288,740.001C194.254,740.387 193.923,740.671 193.548,740.636C193.205,740.604 192.944,740.314 192.929,739.969L192.932,739.873L193.444,734.074C193.475,733.72 193.756,733.452 194.091,733.437L194.184,733.439Z" transform="rotate(360 193.866 737.038)" fill="#000000"/>
<path d="M258.92,730.262C260.157,657.804 286.75,505.067 290.57,465.729C294.39,426.39 280.802,413.068 267.775,419.558C254.748,426.05 250.849,516.814 250.849,516.814C250.849,516.814 249.953,534.578 246.553,554.807C234.261,627.936 242.888,731.302 242.888,731.302C242.888,731.302 245.271,738.036 252.482,737.14C259.691,736.242 258.92,730.262 258.92,730.262Z" clip-rule="evenodd" fill-rule="evenodd" transform="rotate(360 265.585 577.606)" fill="#FFC999"/>
<path d="M211.12,404.138L211.988,398.715C211.988,398.715 235.43,398.736 263.404,398.913C263.595,401.68 264.363,405.042 264.363,405.042C264.363,405.042 244.151,412.027 211.12,404.138Z" clip-rule="evenodd" fill-rule="evenodd" transform="rotate(360 237.742 403.305)" fill="#002AB2"/>
<path d="M266.148,365.366L264.179,370.55C264.179,370.55 263.639,396.16 263.639,398.189C236.779,402.668 209.579,397.837 209.579,397.837L209.711,388.358L207.524,359.281L266.148,365.366Z" clip-rule="evenodd" fill-rule="evenodd" transform="rotate(360 236.836 379.687)" fill="#FFFFFF"/>
<path d="M264.066,364.977C264.154,364.745 264.408,364.631 264.633,364.722C264.833,364.802 264.943,365.018 264.903,365.227L264.881,365.305L262.939,370.415L262.156,397.715C262.149,398.068 262.146,398.315 262.146,398.451C262.146,398.668 261.995,398.855 261.788,398.894C246.294,401.857 230.439,401.693 215.855,399.637C213.775,399.344 211.886,399.032 210.213,398.718L209.663,398.614C209.135,398.512 208.662,398.416 208.246,398.327L207.424,398.146C207.242,398.103 207.11,397.948 207.088,397.763L207.085,397.682L207.6,388.107C207.613,387.859 207.82,387.668 208.061,387.682C208.275,387.694 208.445,387.864 208.471,388.076L208.473,388.157L207.978,397.348L208.182,397.393C208.493,397.461 208.84,397.533 209.223,397.61L209.824,397.728C211.617,398.074 213.677,398.421 215.973,398.744C230.157,400.743 245.553,400.943 260.624,398.196L261.274,398.073L261.345,395.062L261.704,382.419L262.068,370.311L262.097,370.161L264.066,364.977Z" transform="rotate(360 235.998 382.922)" fill="#1F1F47"/>
<path d="M251.189,269.819C251.189,269.819 264.419,267.841 267.915,282.252C280.734,287.055 277.238,301.464 277.238,301.464C277.238,301.464 283.676,312.784 270.887,318.583C269.862,330.182 257.073,328.072 257.073,328.072C257.073,328.072 254.003,337.035 244.283,333.345C233.795,341.751 221.3,331.486 221.3,331.486C221.3,331.486 209.646,336.289 204.986,331.486C194.497,335.088 182.843,321.879 182.843,321.879C182.843,321.879 176.296,323.592 171.634,312.784C159.458,314.731 146.156,298.741 157.309,283.789C149.992,271.855 158.332,264.81 158.332,264.81C158.332,264.81 156.03,237.396 174.448,233.706C183.912,218.945 204.377,230.807 204.377,230.807C204.377,230.807 217.934,227.907 222.795,240.033C237.944,242.434 237.234,251.015 238.4,258.221C251.956,259.011 251.189,269.819 251.189,269.819Z" clip-rule="evenodd" fill-rule="evenodd" transform="rotate(360 215.988 281.476)" fill="#000000"/>
<path d="M257.934,256.433C247.311,258.354 244.083,250.072 244.083,250.072C244.083,250.072 239.701,238.407 238.578,245.568C237.981,249.374 232.271,244.324 229.646,248.382C227.879,251.112 232.297,254.631 226.556,261.91C223.23,266.127 236.348,269.493 228.255,277.267C228.255,277.267 234.009,286.756 224.124,289.851L221.938,300.9L244.719,300.864L243.986,288.141C259.335,288.141 260.084,266.402 257.934,256.433Z" clip-rule="evenodd" fill-rule="evenodd" transform="rotate(360 240.379 272.071)" fill="#FFC999"/>
<path d="M234.226,268.004C234.492,267.73 234.924,267.73 235.19,268.004L235.329,268.136C235.393,268.193 235.473,268.262 235.571,268.341C235.904,268.612 236.295,268.885 236.74,269.14C238.247,270.004 239.967,270.451 241.86,270.261C242.235,270.224 242.568,270.506 242.604,270.892C242.641,271.278 242.366,271.621 241.992,271.659C239.801,271.878 237.812,271.361 236.077,270.367C235.198,269.862 234.572,269.353 234.226,268.997C233.96,268.723 233.96,268.279 234.226,268.004Z" transform="rotate(360 238.317 269.754)" fill="#F5222D"/>
<path d="M233.308,257.031C233.577,257.051 233.786,257.269 233.81,257.538L233.811,257.635C233.798,258.006 233.869,258.628 234.106,259.474C234.488,260.836 235.202,262.365 236.333,264.034C236.511,264.297 236.439,264.659 236.176,264.829L235.471,265.28C234.558,265.858 233.753,266.344 233.053,266.745L232.796,266.891C232.6,267.001 232.422,267.099 232.261,267.186L231.71,267.473C231.696,267.48 231.685,267.485 231.675,267.49C231.402,267.62 231.08,267.497 230.954,267.216C230.828,266.936 230.947,266.603 231.219,266.474L231.471,266.346L231.919,266.107C232.03,266.046 232.148,265.98 232.275,265.909C232.923,265.543 233.675,265.096 234.531,264.56L235.121,264.186L234.986,263.974C234.118,262.587 233.52,261.285 233.15,260.083L233.062,259.785C232.817,258.91 232.725,258.219 232.723,257.734L232.727,257.549C232.749,257.241 233.008,257.009 233.308,257.031Z" transform="rotate(360 233.667 262.285)" fill="#DD936F"/>
<path d="M248.011,388.435C248.011,388.435 277.129,396.392 290.411,386.853C304.849,376.485 287.169,337.033 282.545,326.754C278.576,317.928 269.923,312.209 262.047,310.857C254.298,309.526 248.377,309.053 248.377,309.053L246.675,302.218C246.427,301.222 245.556,300.525 244.559,300.525L221.344,300.525C220.256,300.525 219.336,301.35 219.181,302.458L218.285,308.932C218.285,308.932 198.744,308.177 189.495,317.002C180.637,325.454 183.196,344.425 190.627,361.985C198.057,379.546 204.315,393.481 216.739,394.762C239.707,397.128 275.61,376.523 275.61,376.523C275.61,376.523 281.734,373.143 287.422,374.044C286.11,365.929 281.734,360.068 269.047,363.45L223.767,373.143Z" clip-rule="evenodd" fill-rule="evenodd" transform="rotate(360 239.926 347.738)" fill="#FFFFFF"/>
<path d="M216.343,349.362C216.343,349.362 218.531,356.8 213.992,362.829L214.484,370.606L182.328,388.527C182.328,388.527 217.325,396.841 231.31,388.435C241.799,382.131 238.784,364.199 230.734,346.128C230.734,346.128 224.403,344.152 216.343,349.362Z" clip-rule="evenodd" fill-rule="evenodd" transform="rotate(360 210.183 368.978)" fill="#FFC999"/>
<path d="M219.264,351.391L228.232,371.452L264.103,361.417C274.822,358.486 286.2,362.662 289.044,371.452C283.795,372.128 273.841,374.495 273.841,374.495C273.841,374.495 239.39,396.641 221.998,395.797C209.525,395.19 204.673,380.221 197.242,362.662C197.242,362.662 201.764,352.744 219.264,351.391Z" clip-rule="evenodd" fill-rule="evenodd" transform="rotate(360 243.143 373.606)" fill="#FFC999"/>
<path d="M203.89,329.978C204.131,329.978 204.327,330.179 204.327,330.428L204.32,331.056L204.306,331.678C204.298,332.002 204.286,332.344 204.272,332.701C204.215,334.119 204.119,335.538 203.978,336.892L203.911,337.481L204.114,337.698C205.491,339.199 206.589,340.795 207.425,342.473L207.628,342.895C210.095,348.162 209.934,353.774 208.187,359.07C207.906,359.919 207.606,360.686 207.305,361.359L207.152,361.692L206.896,362.206C206.778,362.423 206.512,362.501 206.301,362.379C206.09,362.257 206.015,361.982 206.134,361.765L206.259,361.521C206.327,361.382 206.413,361.201 206.511,360.981C206.799,360.336 207.088,359.598 207.358,358.78C209.038,353.687 209.193,348.309 206.841,343.286C205.958,341.402 204.735,339.62 203.142,337.958C203.048,337.859 203.003,337.722 203.019,337.585C203.208,336.021 203.33,334.342 203.398,332.663L203.432,331.654L203.452,330.571L203.452,330.428C203.452,330.179 203.648,329.978 203.89,329.978Z" transform="rotate(360 206.253 346.207)" fill="#1F1F47"/>
<path d="M261.713,308.819C261.955,308.819 262.15,309.021 262.15,309.27C262.15,309.491 261.996,309.675 261.792,309.713L261.713,309.721L240.81,309.721C240.568,309.721 240.372,309.519 240.372,309.27C240.372,309.049 240.527,308.865 240.731,308.827L240.81,308.819L261.713,308.819Z" transform="rotate(360 251.261 309.27)" fill="#1F1F47"/>
<path d="M261.934,308.884C262.004,308.602 262.283,308.433 262.556,308.505C262.802,308.57 262.959,308.809 262.937,309.061L262.923,309.146L256.033,336.758C255.939,337.132 255.508,337.27 255.227,337.045L255.165,336.986L230.119,309.374C229.926,309.162 229.937,308.829 230.143,308.63C230.326,308.454 230.602,308.443 230.796,308.592L230.865,308.655L255.274,335.567L261.934,308.884Z" transform="rotate(360 246.46 322.821)" fill="#000000"/>
<path d="M243.191,339.702C245.509,343.73 244.463,348.782 240.858,350.986C237.25,353.19 232.447,351.71 230.129,347.683C227.811,343.654 228.856,338.602 232.462,336.398C236.07,334.194 240.871,335.673 243.191,339.702Z" clip-rule="evenodd" fill-rule="evenodd" transform="rotate(360 236.66 343.692)" fill="#000000"/>
<path d="M242.357,339.682C244.676,343.711 243.63,348.763 240.024,350.965C236.418,353.169 231.615,351.69 229.297,347.662C226.979,343.633 228.023,338.583 231.629,336.379C235.236,334.175 240.039,335.654 242.357,339.682Z" clip-rule="evenodd" fill-rule="evenodd" transform="rotate(360 235.827 343.672)" fill="#000000"/>
<path d="M240.909,340.384C242.708,343.511 241.897,347.434 239.096,349.145C236.297,350.856 232.568,349.708 230.769,346.58C228.969,343.452 229.779,339.53 232.579,337.819C235.38,336.107 239.109,337.257 240.909,340.384Z" clip-rule="evenodd" fill-rule="evenodd" transform="rotate(360 235.839 343.482)" fill="#8352FD"/>
<path d="M236.689,285.5C236.832,285.229 237.162,285.128 237.426,285.276C240.396,286.941 243.475,287.778 246.564,287.822C246.864,287.826 247.104,288.08 247.1,288.389C247.095,288.698 246.849,288.945 246.549,288.941C243.283,288.895 240.031,288.011 236.906,286.259C236.643,286.112 236.546,285.772 236.689,285.5Z" transform="rotate(360 241.861 287.074)" fill="#DD936F"/>
<path d="M274.883,366.952C274.883,366.952 261.785,355.644 253.735,356.237C246.078,356.801 241.485,363.225 242.796,366.831C242.796,366.831 241.049,369.988 243.891,371.001C243.508,373.312 246.734,373.143 246.734,373.143C246.734,373.143 246.189,374.608 248.485,374.945C250.781,375.284 253.318,370.436 259.28,371.433L274.883,366.952Z" clip-rule="evenodd" fill-rule="evenodd" transform="rotate(360 258.574 365.588)" fill="#FFC999"/>
<path d="M253.859,355.382C250.273,355.646 246.423,358.279 243.658,361.796C242.498,363.272 241.698,364.726 241.473,365.791L241.446,365.934C241.299,366.826 241.596,367.464 242.232,367.673L242.272,367.684L242.222,367.802C242.043,368.255 241.956,368.715 242.001,369.172L242.023,369.333C242.141,370.022 242.571,370.589 243.314,370.986L243.48,371.069L243.48,371.107C243.487,372.208 244.207,372.906 245.318,373.22L245.553,373.28C245.787,373.333 246.021,373.368 246.244,373.387L246.306,373.391L246.31,373.437C246.336,373.645 246.401,373.856 246.517,374.062C246.851,374.657 247.53,375.05 248.572,375.203C249.153,375.288 249.727,375.138 250.407,374.775L250.615,374.659C251.038,374.416 252.65,373.319 252.669,373.307C254.918,371.843 256.823,371.265 259.357,371.689C259.431,371.701 259.507,371.698 259.58,371.678L275.784,367.364C276.215,367.249 276.336,366.677 275.99,366.388L275.406,365.912L274.813,365.441C274.5,365.196 274.165,364.938 273.809,364.668C272.114,363.382 270.292,362.096 268.411,360.894C266.24,359.508 264.131,358.325 262.133,357.409C259.074,356.007 256.388,355.279 254.16,355.365L253.859,355.382ZM261.691,358.432C263.64,359.325 265.707,360.485 267.839,361.846C269.693,363.03 271.492,364.299 273.165,365.569L273.946,366.169L274.448,366.563L259.415,370.566L259.531,370.584C256.806,370.128 254.709,370.715 252.371,372.18L252.089,372.36C252.038,372.393 250.466,373.463 250.085,373.683C249.5,374.02 249.081,374.147 248.726,374.095C247.987,373.986 247.605,373.765 247.457,373.501C247.396,373.392 247.377,373.272 247.387,373.157L247.406,373.047C247.536,372.696 247.302,372.324 246.947,372.289L246.846,372.288C246.488,372.298 246.032,372.261 245.605,372.141C244.816,371.918 244.471,371.526 244.592,370.799C244.636,370.529 244.485,370.266 244.234,370.176C243.452,369.897 243.128,369.522 243.082,369.058C243.049,368.728 243.155,368.337 243.359,367.938C243.47,367.721 243.58,367.555 243.646,367.471C243.972,367.054 243.599,366.448 243.094,366.576L242.898,366.62C242.463,366.705 242.419,366.576 242.534,366.029C242.717,365.166 243.439,363.853 244.502,362.501C247.096,359.202 250.7,356.737 253.937,356.499C256.01,356.346 258.642,357.034 261.691,358.432Z" transform="rotate(360 258.8 365.292)" fill="#DD936F"/>
<path d="M274.064,359.288C274.362,359.25 274.633,359.467 274.671,359.774C274.708,360.081 274.497,360.36 274.199,360.399C272.133,360.665 269.895,361.879 267.642,363.744C266.73,364.5 265.878,365.31 265.112,366.121L264.733,366.529L264.274,367.05C264.22,367.113 264.181,367.161 264.156,367.191C263.963,367.428 263.621,367.459 263.391,367.26C263.161,367.061 263.131,366.708 263.324,366.471L263.593,366.155C263.808,365.908 264.055,365.634 264.334,365.34C265.129,364.499 266.013,363.658 266.962,362.872C269.357,360.889 271.76,359.585 274.064,359.288Z" transform="rotate(360 268.936 363.337)" fill="#DD936F"/>
<path d="M273.494,362.31C273.793,362.3 274.044,362.542 274.054,362.851C274.064,363.16 273.829,363.418 273.53,363.429C273.348,363.435 273.165,363.447 272.98,363.465C270.417,363.715 267.63,365.069 264.817,367.174C263.708,368.004 262.673,368.894 261.74,369.784C261.495,370.018 261.271,370.238 261.069,370.443L260.61,370.921C260.596,370.936 260.584,370.95 260.574,370.961C260.369,371.187 260.026,371.199 259.806,370.989C259.587,370.778 259.575,370.424 259.779,370.198L260.105,369.853L260.524,369.428C260.674,369.279 260.833,369.124 261.002,368.963C261.965,368.045 263.033,367.127 264.179,366.269C267.135,364.056 270.085,362.623 272.878,362.351C273.085,362.331 273.29,362.317 273.494,362.31Z" transform="rotate(360 266.844 366.724)" fill="#DD936F"/>
<path d="M270.6,365.868C270.899,365.848 271.158,366.082 271.177,366.391C271.196,366.699 270.968,366.965 270.669,366.985C269.742,367.046 268.59,367.456 267.274,368.166C266.347,368.667 265.361,369.303 264.344,370.042C263.404,370.726 262.489,371.459 261.636,372.193L261.21,372.563L260.545,373.165C260.324,373.374 259.981,373.359 259.778,373.132C259.575,372.904 259.59,372.55 259.811,372.341L260.115,372.061L260.504,371.713C260.641,371.592 260.787,371.465 260.94,371.333C261.814,370.582 262.752,369.83 263.718,369.128C264.772,368.362 265.796,367.7 266.77,367.175C268.209,366.398 269.494,365.94 270.6,365.868Z" transform="rotate(360 265.406 369.59)" fill="#DD936F"/>
<path d="M284.066,336.744C284.269,336.67 284.489,336.758 284.592,336.944L284.625,337.017L289.458,351.014C289.556,351.299 289.36,351.601 289.067,351.615L288.815,351.632C288.605,351.647 288.361,351.668 288.086,351.697C287.298,351.777 286.419,351.896 285.472,352.06C282.767,352.528 280.062,353.265 277.542,354.326C272.934,356.267 269.479,359.067 267.633,362.862C267.525,363.085 267.262,363.175 267.046,363.063C266.83,362.952 266.743,362.681 266.851,362.458C268.806,358.441 272.424,355.508 277.211,353.492C279.797,352.403 282.562,351.65 285.327,351.171C286.133,351.032 286.891,350.924 287.589,350.844L288.206,350.779L288.441,350.757L283.801,337.32C283.729,337.111 283.815,336.884 283.995,336.778L284.066,336.744Z" transform="rotate(360 278.144 349.914)" fill="#1F1F47"/>
<path d="M192.356,346.859C195.724,345.359 199.302,344.748 202.834,345.541C203.07,345.594 203.22,345.834 203.169,346.077C203.117,346.32 202.884,346.475 202.648,346.422C199.318,345.674 195.917,346.255 192.702,347.686C192.051,347.976 191.451,348.283 190.911,348.592L190.593,348.778C190.224,349 189.967,349.17 189.837,349.265C189.64,349.408 189.367,349.359 189.228,349.155C189.089,348.952 189.136,348.671 189.334,348.528L189.552,348.378C189.724,348.263 189.925,348.136 190.153,347.999C190.803,347.61 191.541,347.221 192.356,346.859Z" transform="rotate(360 196.163 347.27)" fill="#1F1F47"/>
<path d="M231.149,361.858C231.268,361.574 231.587,361.442 231.863,361.564C233.791,362.415 235.567,363.781 237.185,365.518C238.173,366.579 239.042,367.714 239.787,368.849C239.982,369.147 240.159,369.43 240.316,369.693L240.588,370.164C240.64,370.258 240.679,370.33 240.704,370.379C240.863,370.686 240.714,371.058 240.407,371.17L240.328,371.192L230.426,373.154L197.743,390.058C197.501,390.182 197.213,390.104 197.059,389.886L197.014,389.808C196.892,389.56 196.968,389.263 197.18,389.105L197.255,389.057L230.006,372.12L230.147,372.07L239.368,370.242L239.235,370.022C239.181,369.935 239.125,369.846 239.067,369.754L238.886,369.475C238.175,368.39 237.344,367.305 236.402,366.293C234.877,364.657 233.215,363.379 231.435,362.593C231.159,362.471 231.031,362.142 231.149,361.858Z" transform="rotate(360 218.862 375.818)" fill="#DD936F"/>
<path d="M211.211,403.865C211.301,403.59 211.59,403.441 211.858,403.533L212.407,403.712L212.89,403.861C213.23,403.964 213.605,404.074 214.013,404.189C215.766,404.685 217.772,405.181 219.999,405.643C234.129,408.58 249.17,408.801 263.354,404.537C263.625,404.455 263.908,404.615 263.987,404.894C264.066,405.174 263.911,405.466 263.64,405.547C249.275,409.866 234.075,409.642 219.797,406.675C217.546,406.208 215.517,405.706 213.743,405.205L213.146,405.033C212.861,404.949 212.594,404.869 212.348,404.793L211.665,404.576C211.611,404.558 211.567,404.543 211.534,404.531C211.266,404.439 211.122,404.141 211.211,403.865Z" transform="rotate(360 237.596 406.18)" fill="#000000"/>
<path d="M248.378,256.958C248.74,256.958 249.033,257.26 249.033,257.633C249.033,260.229 247.136,262.355 244.767,262.355C242.399,262.355 240.504,260.229 240.504,257.633C240.504,257.26 240.797,256.958 241.16,256.958C241.522,256.958 241.815,257.26 241.815,257.633C241.815,259.507 243.15,261.004 244.767,261.004C246.386,261.004 247.722,259.507 247.722,257.633C247.722,257.26 248.015,256.958 248.378,256.958Z" transform="rotate(360 244.769 259.656)" fill="#000000"/>
<path d="M231.116,257.422C231.46,257.422 231.738,257.709 231.738,258.063C231.738,260.628 230.034,262.751 227.868,262.751C225.703,262.751 223.999,260.628 223.999,258.063C223.999,257.709 224.277,257.422 224.621,257.422C224.964,257.422 225.243,257.709 225.243,258.063C225.243,259.968 226.447,261.469 227.868,261.469C229.29,261.469 230.494,259.968 230.494,258.063C230.494,257.709 230.773,257.422 231.116,257.422Z" transform="rotate(360 227.868 260.087)" fill="#000000"/>
<path d="M240.645,249.682C243.148,248.594 245.798,248.703 248.302,249.532C249.022,249.77 249.56,250.011 249.868,250.178C250.188,250.352 250.311,250.761 250.142,251.091C249.973,251.421 249.576,251.547 249.256,251.373L249.091,251.291C249.04,251.266 248.98,251.239 248.911,251.208C248.616,251.075 248.277,250.942 247.901,250.818C245.669,250.079 243.326,249.983 241.155,250.927C240.759,251.099 240.373,251.305 239.998,251.547C239.69,251.745 239.286,251.649 239.094,251.332C238.902,251.016 238.995,250.599 239.303,250.401C239.737,250.121 240.185,249.882 240.645,249.682Z" transform="rotate(360 244.606 250.269)" fill="#000000"/>
<path d="M272.321,403.855C283.831,404.646 311.971,479.209 322.587,505.864C321.273,511.275 312.994,520.89 312.994,520.89C312.994,520.89 313.939,525.173 314.52,527.746C304.801,536.181 285.871,540.926 285.871,540.926L285.871,544.615C255.685,559.377 214.892,546.062 214.892,546.062C214.892,546.062 214.124,545.272 214.636,542.373C200.854,542.373 171.149,524.712 171.149,524.712L175.242,515.75L162.964,503.097C162.964,503.097 200.485,436.975 206.877,422.439C213.997,406.248 221.863,403.242 221.863,403.242C221.863,403.242 251.896,402.451 272.321,403.855Z" clip-rule="evenodd" fill-rule="evenodd" transform="rotate(360 242.775 477.297)" fill="url(#pf_0_i_109_1400;153_5425)"/>
<path d="M307.036,445.408C307.157,445.146 307.462,445.034 307.717,445.159C307.946,445.272 308.056,445.537 307.988,445.781L307.958,445.861L271.814,524.018L272.269,524.355L272.654,524.633C273.627,525.328 274.774,526.103 276.087,526.939C279.843,529.328 284.174,531.719 289.023,533.95C296.808,537.532 305.165,540.352 313.989,542.121C314.266,542.176 314.447,542.452 314.393,542.738C314.339,543.023 314.071,543.209 313.794,543.154C304.89,541.369 296.459,538.525 288.607,534.911C283.715,532.66 279.343,530.247 275.551,527.834C274.369,527.083 273.32,526.379 272.408,525.736L272.072,525.498C271.864,525.349 271.673,525.211 271.499,525.082L271.013,524.719C270.945,524.667 270.894,524.628 270.862,524.603C270.694,524.471 270.625,524.248 270.68,524.044L270.711,523.958L307.036,445.408Z" transform="rotate(360 292.532 494.136)" fill="#000000"/>
<path d="M170.331,438.554C170.567,438.459 170.831,438.558 170.956,438.776L170.993,438.853L204.881,528.08C204.968,528.31 204.889,528.571 204.691,528.709L204.453,528.87C204.26,528.999 204.032,529.149 203.77,529.318L203.102,529.743C202.521,530.107 201.881,530.498 201.183,530.909C198.394,532.553 195.271,534.197 191.887,535.731C186.518,538.164 181.006,540.088 175.478,541.308C175.203,541.369 174.931,541.188 174.872,540.904C174.813,540.62 174.988,540.34 175.264,540.279C180.719,539.074 186.167,537.174 191.476,534.767C194.825,533.249 197.917,531.622 200.676,529.996C201.64,529.427 202.494,528.899 203.228,528.426L203.778,528.065L170.041,439.236C169.949,438.993 170.045,438.721 170.256,438.592L170.331,438.554Z" transform="rotate(360 187.461 489.919)" fill="#000000"/>
<path d="M247.154,417.97C247.431,417.91 247.701,418.092 247.759,418.377L249.603,427.524C250.259,430.793 250.957,434.293 251.691,437.991L252.362,441.372C255.548,457.466 258.734,473.883 261.74,489.81L262.487,493.781C263.039,496.722 263.581,499.622 264.11,502.478L265.257,508.693C267.733,522.17 269.892,534.382 271.674,545.054C271.716,545.306 271.576,545.554 271.341,545.639C269.631,546.261 267.896,546.832 266.137,547.352C247.815,552.776 228.278,552.602 209.882,549.056C207.061,548.512 204.518,547.929 202.294,547.346L201.546,547.147C201.308,547.082 201.08,547.019 200.863,546.958L199.972,546.7C199.767,546.639 199.618,546.593 199.529,546.565C199.307,546.494 199.163,546.279 199.169,546.046L199.18,545.958L216.839,455.822C216.895,455.537 217.165,455.353 217.441,455.41C217.69,455.462 217.86,455.692 217.851,455.945L217.841,456.03L200.274,545.694L201.133,545.943C201.561,546.063 202.032,546.191 202.546,546.326C204.749,546.904 207.271,547.482 210.069,548.021C228.323,551.54 247.708,551.713 265.855,546.341C267.246,545.929 268.623,545.485 269.983,545.009L270.593,544.791L269.935,540.884C268.242,530.92 266.251,519.737 264.005,507.537L263.502,504.809C262.847,501.267 262.174,497.656 261.484,493.981C258.759,479.465 255.868,464.479 252.953,449.651L250.04,434.929L246.759,418.593C246.702,418.308 246.878,418.029 247.154,417.97Z" transform="rotate(360 235.425 484.776)" fill="#000000"/>
<path d="M242.801,419.674C243.055,419.689 243.255,419.891 243.282,420.143L243.284,420.228L238.817,507.079C238.802,507.369 238.561,507.592 238.28,507.577C238.026,507.562 237.826,507.36 237.799,507.108L237.797,507.023L242.264,420.172C242.279,419.882 242.519,419.659 242.801,419.674Z" transform="rotate(360 240.54 463.625)" fill="#000000"/>
<path d="M269.149,406.458C269.237,406.182 269.526,406.032 269.794,406.123C270.035,406.204 270.177,406.453 270.139,406.704L270.12,406.787L253.238,459.769C253.15,460.045 252.861,460.195 252.593,460.105C252.352,460.023 252.21,459.774 252.248,459.524L252.267,459.44L269.149,406.458Z" transform="rotate(360 261.194 433.114)" fill="#000000"/>
<path d="M273.23,733.347C273.067,734.089 270.617,707.561 270.734,699.739C280.903,701.123 290.305,700.135 290.305,700.135C290.305,700.135 288.961,730.381 289.345,733.347C282.054,737.894 273.23,733.347 273.23,733.347Z" clip-rule="evenodd" fill-rule="evenodd" transform="rotate(360 280.517 717.553)" fill="#FFFFFF"/>
<path d="M260.7,769.24C261.963,779.726 267.437,785.274 273.085,785.888C280.079,786.649 287.695,784.617 288.925,778.157C290.33,770.783 286.646,767.012 282.532,756.467C278.418,745.923 276.454,736.905 274.92,729.394C274.92,729.394 269.675,726.23 271.082,735.323C272.222,742.686 274.984,763.397 279.843,764.845C275.11,764.451 265.39,768.273 265.39,768.273C265.39,768.273 268.844,762.737 268.589,760.892C268.333,759.048 265.475,740.142 265.328,734.533C265.181,728.987 260.511,729.656 258.261,730.305C257.56,730.506 257.114,731.203 257.199,731.949C257.412,733.796 260.103,764.276 260.7,769.24Z" clip-rule="evenodd" fill-rule="evenodd" transform="rotate(360 273.209 757.45)" fill="#1F1F47"/>
<path d="M265.416,741.453C265.416,741.453 259.582,728.868 265.416,727.615C270.021,726.626 274.433,726.428 275.008,727.615C275.223,728.057 275.201,732.162 276.735,740.662C278.527,750.587 283.108,762.225 284.794,764.583C287.48,768.339 284.601,768.537 278.078,770.317C271.556,772.096 269.254,772.096 267.526,768.536C265.8,764.979 265.8,749.163 265.416,741.453Z" clip-rule="evenodd" fill-rule="evenodd" transform="rotate(360 274.309 749.141)" fill="#1F1F47"/>
<path d="M278.352,744.555C278.703,744.414 279.097,744.593 279.234,744.955C279.37,745.316 279.196,745.723 278.846,745.863C278.047,746.183 277.165,746.627 276.214,747.18C275.299,747.712 274.335,748.336 273.339,749.034C272.383,749.703 271.437,750.412 270.528,751.129L270.019,751.534L270.051,751.536C270.82,751.566 271.635,751.655 272.493,751.799L272.925,751.875C274.602,752.187 276.381,752.688 278.199,753.326C279.313,753.717 280.374,754.136 281.347,754.555L281.833,754.767L282.598,755.118C283.217,755.419 283.067,756.368 282.387,756.45C279.817,756.762 277.057,758.182 274.293,760.362C273.174,761.244 272.132,762.191 271.196,763.138C271,763.336 270.817,763.526 270.648,763.705L270.33,764.05C270.181,764.213 270.081,764.328 270.031,764.386C269.783,764.678 269.353,764.708 269.07,764.452C268.787,764.197 268.758,763.754 269.006,763.462L269.246,763.189L269.335,763.09C269.597,762.802 269.901,762.481 270.242,762.136C271.215,761.151 272.298,760.167 273.465,759.247C275.582,757.577 277.712,756.319 279.805,755.616L280.064,755.532L279.647,755.363C279.243,755.202 278.828,755.042 278.403,754.886L277.759,754.655C276.001,754.038 274.286,753.555 272.684,753.257C270.924,752.93 269.367,752.84 268.075,753.021C267.401,753.116 267.024,752.246 267.542,751.791L267.939,751.451L268.554,750.937C268.701,750.817 268.854,750.692 269.012,750.563C270.146,749.646 271.35,748.729 272.573,747.872C273.599,747.154 274.594,746.509 275.545,745.957C276.548,745.374 277.487,744.901 278.352,744.555Z" transform="rotate(360 275.145 754.566)" fill="#000000"/>
<path d="M265.275,746.368C266.593,746.066 268.189,746.054 270.007,746.28C271.464,746.461 273.011,746.787 274.587,747.218C275.283,747.408 275.95,747.609 276.574,747.812L277.228,748.03L278.002,748.308C278.594,748.535 278.594,749.398 278.001,749.624C275.736,750.488 273.532,751.842 271.432,753.553C270.254,754.514 269.171,755.535 268.199,756.564L267.678,757.128L267.415,757.422L268.285,757.442C268.524,757.448 268.772,757.457 269.027,757.466L269.415,757.483C271.375,757.569 273.311,757.739 275.126,758.011C278.406,758.504 281.001,759.286 282.683,760.441C282.996,760.656 283.081,761.092 282.872,761.414C282.663,761.737 282.24,761.824 281.927,761.609C280.454,760.597 278.026,759.866 274.93,759.401C273.165,759.136 271.274,758.97 269.356,758.885C268.458,758.845 267.642,758.827 266.945,758.823L265.949,758.827C265.375,758.84 265.044,758.161 265.396,757.694L265.68,757.335L265.765,757.231C266.06,756.872 266.405,756.473 266.797,756.044C267.914,754.819 269.184,753.596 270.587,752.452C272.204,751.135 273.885,750.016 275.618,749.149L275.832,749.045L275.703,749.004C275.39,748.906 275.068,748.809 274.738,748.715L274.238,748.575C272.718,748.16 271.231,747.846 269.844,747.674C268.166,747.466 266.716,747.477 265.571,747.739C265.203,747.823 264.84,747.584 264.758,747.206C264.676,746.827 264.908,746.452 265.275,746.368Z" transform="rotate(360 273.864 753.926)" fill="#000000"/>
<path d="M256.927,771.305C256.927,771.305 270.741,759.443 283.404,768.141C286.569,775.412 284.739,779.735 283.212,781.979C282.58,782.908 281.382,784.204 280.348,784.589C277.265,785.736 269.18,788.038 263.451,784.154C256.161,779.212 256.927,771.305 256.927,771.305Z" clip-rule="evenodd" fill-rule="evenodd" transform="rotate(360 271.024 775.636)" fill="#000000"/>
<path d="M282.37,768.076C282.547,767.979 282.766,768.048 282.86,768.23C284.647,771.683 282.771,776.161 280.182,777.942C278.338,779.208 271.832,780.354 266.664,780.112C264.096,779.992 262.032,778.353 260.423,775.724C259.845,774.779 259.367,773.77 258.982,772.76C258.881,772.495 258.792,772.244 258.715,772.01L258.582,771.592C258.558,771.51 258.54,771.446 258.528,771.403C258.475,771.205 258.589,771 258.781,770.945C258.974,770.891 259.173,771.008 259.226,771.206L259.329,771.552L259.477,771.998C259.532,772.154 259.591,772.318 259.656,772.487C260.025,773.456 260.484,774.425 261.036,775.327C262.53,777.77 264.408,779.26 266.696,779.367C271.725,779.603 278.092,778.481 279.781,777.321C282.093,775.732 283.805,771.642 282.221,768.581C282.127,768.399 282.194,768.173 282.37,768.076Z" transform="rotate(360 271.04 774.088)" fill="#A3B5D6"/>
<path d="M271.023,704.337C271.102,703.958 271.464,703.716 271.832,703.797L272.403,703.912L272.693,703.966C273.395,704.095 274.193,704.224 275.072,704.344C279.487,704.948 284.074,705.112 288.347,704.569C288.776,704.514 289.199,704.452 289.616,704.384C289.988,704.322 290.337,704.583 290.397,704.966C290.456,705.349 290.203,705.709 289.832,705.77C289.398,705.841 288.959,705.905 288.514,705.962C284.11,706.522 279.413,706.354 274.893,705.736C274.143,705.633 273.451,705.525 272.823,705.415L272.098,705.282L271.547,705.17C271.179,705.089 270.945,704.716 271.023,704.337Z" transform="rotate(360 280.707 705.042)" fill="#000000"/>
<path d="M276.989,738.448L277.081,738.445L277.629,738.474C278.06,738.5 278.539,738.537 279.054,738.585C280.529,738.722 282.005,738.925 283.386,739.205C288.182,740.178 290.887,741.841 289.981,744.641C289.144,747.227 286.572,746.868 283.068,744.721C282.322,744.265 281.542,743.731 280.738,743.135C279.793,742.434 278.864,741.685 277.989,740.936L277.765,740.743L277.441,740.458L277.008,741.093L276.793,741.403C275.952,742.602 275.052,743.802 274.129,744.924C273.195,746.059 272.288,747.052 271.421,747.864C269.085,750.055 267.121,750.892 265.641,749.719C264.745,749.009 264.64,747.988 265.213,746.932C265.639,746.144 266.445,745.297 267.585,744.374C268.45,743.674 269.496,742.941 270.684,742.187C271.902,741.414 273.205,740.66 274.507,739.953L275.165,739.601L276.248,739.042C276.277,739.028 276.305,739.016 276.334,739.006L276.393,738.99L276.406,738.935C276.487,738.67 276.715,738.475 276.989,738.448ZM275.319,741.1L275.142,741.196C273.865,741.888 272.588,742.628 271.399,743.382C270.251,744.111 269.246,744.815 268.427,745.478C267.417,746.296 266.722,747.027 266.402,747.616C266.135,748.109 266.161,748.36 266.472,748.606C267.211,749.192 268.621,748.591 270.504,746.826C271.322,746.059 272.191,745.108 273.09,744.016C273.809,743.143 274.515,742.218 275.189,741.283L275.319,741.1ZM279.02,739.992L279.377,740.294C280.074,740.876 280.8,741.452 281.533,741.995C282.307,742.569 283.055,743.08 283.764,743.515C286.584,745.241 288.274,745.477 288.688,744.197C289.186,742.66 287.128,741.395 283.123,740.582C282.015,740.357 280.837,740.184 279.647,740.055L279.02,739.992Z" transform="rotate(360 277.506 744.347)" fill="#000000"/>
<path d="M283.013,732.121C283.356,732.089 283.663,732.325 283.738,732.662L283.753,732.757L284.264,738.556C284.298,738.942 284.022,739.283 283.647,739.318C283.303,739.351 282.996,739.114 282.921,738.777L282.907,738.683L282.396,732.884C282.362,732.498 282.638,732.156 283.013,732.121Z" transform="rotate(360 283.33 735.72)" fill="#000000"/>
<path d="M274.059,730.276C274.402,730.244 274.709,730.48 274.784,730.817L274.799,730.911L275.31,736.711C275.344,737.097 275.067,737.438 274.693,737.473C274.349,737.505 274.042,737.269 273.967,736.932L273.953,736.837L273.442,731.038C273.408,730.652 273.684,730.311 274.059,730.276Z" transform="rotate(360 274.376 733.874)" fill="#000000"/>
<defs>
<linearGradient id="pf_0_i_109_1400;153_5425" x1="242.775" y1="403.02" x2="242.775" y2="551.573" gradientUnits="userSpaceOnUse">
<stop stop-color="#C961DE"/>
<stop offset="1" stop-color="#00124C"/>
</linearGradient>
</defs>
</svg>
