<svg width="2350" height="1050" viewBox="0 0 2350 1050" fill="none" xmlns="http://www.w3.org/2000/svg" xmlns:xlink="http://www.w3.org/1999/xlink">
<g style="mix-blend-mode:overlay">
<path d="M2346.569,524.616C2346.569,596.698 2313.869,665.422 2254.609,727.99C2195.329,790.562 2109.549,846.944 2003.469,894.31C1791.327,989.04 1498.205,1047.652 1174.393,1047.652L1174.393,1049.092C1498.359,1049.092 1791.691,990.456 2004.049,895.624C2110.229,848.21 2196.209,791.732 2255.649,728.98C2315.089,666.226 2348.009,597.164 2348.009,524.616L2346.569,524.616ZM1174.393,1047.652C850.583,1047.652 557.461,989.04 345.319,894.31C239.247,846.944 153.451,790.562 94.184,727.99C34.921,665.422 2.209,596.698 2.209,524.616L0.768,524.616C0.768,597.164 33.698,666.226 93.138,728.98C152.575,791.732 238.549,848.21 344.731,895.624C557.097,990.456 850.429,1049.092 1174.393,1049.092L1174.393,1047.652ZM2.209,524.616C2.209,452.532 34.921,383.808 94.184,321.24C153.451,258.668 239.247,202.286 345.319,154.921C557.461,60.189 850.583,1.578 1174.393,1.578L1174.393,0.138C850.429,0.138 557.097,58.774 344.731,153.605C238.549,201.02 152.575,257.498 93.138,320.25C33.698,383.004 0.768,452.066 0.768,524.616L2.209,524.616ZM1174.393,1.578C1498.205,1.578 1791.327,60.189 2003.469,154.921C2109.549,202.286 2195.329,258.668 2254.609,321.24C2313.869,383.808 2346.569,452.532 2346.569,524.616L2348.009,524.616C2348.009,452.066 2315.089,383.004 2255.649,320.25C2196.209,257.498 2110.229,201.02 2004.049,153.605C1791.691,58.774 1498.359,0.138 1174.393,0.138L1174.393,1.578Z" transform="rotate(5.328 1174.393 524.615)" fill="url(#ps_0_48_290)"/>
</g>
<defs>
<linearGradient id="ps_0_48_290" x1="-59.416" y1="517.531" x2="2437.336" y2="633.707" gradientUnits="userSpaceOnUse">
<stop stop-color="#FFFFFF" stop-opacity="0.4"/>
<stop offset="0.458" stop-color="#FFFFFF"/>
<stop offset="1" stop-color="#FFFFFF" stop-opacity="0.4"/>
</linearGradient>
</defs>
</svg>
