<svg width="2350" height="1050" viewBox="0 0 2350 1050" fill="none" xmlns="http://www.w3.org/2000/svg" xmlns:xlink="http://www.w3.org/1999/xlink">
<g style="mix-blend-mode:overlay">
<path d="M2346.768,523.573C2346.768,595.657 2314.068,664.381 2254.808,726.949C2195.528,789.521 2109.748,845.903 2003.668,893.269C1791.526,987.999 1498.404,1046.611 1174.592,1046.611L1174.592,1048.051C1498.558,1048.051 1791.89,989.415 2004.248,894.583C2110.428,847.169 2196.408,790.691 2255.848,727.939C2315.288,665.185 2348.208,596.123 2348.208,523.573L2346.768,523.573ZM1174.592,1046.611C850.782,1046.611 557.66,987.999 345.518,893.269C239.446,845.903 153.65,789.521 94.383,726.949C35.12,664.381 2.408,595.657 2.408,523.573L0.967,523.573C0.967,596.123 33.897,665.185 93.337,727.939C152.774,790.691 238.748,847.169 344.93,894.583C557.296,989.415 850.628,1048.051 1174.592,1048.051L1174.592,1046.611ZM2.408,523.573C2.408,451.491 35.12,382.767 94.383,320.199C153.65,257.627 239.446,201.245 345.518,153.879C557.66,59.148 850.782,0.537 1174.592,0.537L1174.592,-0.904C850.628,-0.904 557.296,57.733 344.93,152.564C238.748,199.979 152.774,256.457 93.337,319.209C33.897,381.963 0.967,451.025 0.967,523.573L2.408,523.573ZM1174.592,0.537C1498.404,0.537 1791.526,59.148 2003.668,153.879C2109.748,201.245 2195.528,257.627 2254.808,320.199C2314.068,382.767 2346.768,451.491 2346.768,523.573L2348.208,523.573C2348.208,451.025 2315.288,381.963 2255.848,319.209C2196.408,256.457 2110.428,199.979 2004.248,152.564C1791.89,57.733 1498.558,-0.904 1174.592,-0.904L1174.592,0.537Z" transform="rotate(5.328 1174.592 523.574)" fill="url(#ps_0_79_602)"/>
</g>
<defs>
<linearGradient id="ps_0_79_602" x1="-59.217" y1="516.49" x2="2437.534" y2="632.666" gradientUnits="userSpaceOnUse">
<stop stop-color="#763CAC"/>
<stop offset="0.458" stop-color="#763CAC"/>
<stop offset="1" stop-color="#763CAC"/>
</linearGradient>
</defs>
</svg>
