<svg width="2350" height="1050" viewBox="0 0 2350 1050" fill="none" xmlns="http://www.w3.org/2000/svg" xmlns:xlink="http://www.w3.org/1999/xlink">
<g style="mix-blend-mode:overlay">
<path d="M2346.568,524.616C2346.568,596.698 2313.868,665.422 2254.608,727.99C2195.328,790.562 2109.548,846.944 2003.468,894.31C1791.326,989.04 1498.204,1047.652 1174.392,1047.652L1174.392,1049.092C1498.358,1049.092 1791.69,990.456 2004.048,895.624C2110.228,848.21 2196.208,791.732 2255.648,728.98C2315.088,666.226 2348.008,597.164 2348.008,524.616L2346.568,524.616ZM1174.392,1047.652C850.582,1047.652 557.46,989.04 345.318,894.31C239.246,846.944 153.451,790.562 94.184,727.99C34.92,665.422 2.209,596.698 2.209,524.616L0.768,524.616C0.768,597.164 33.697,666.226 93.138,728.98C152.575,791.732 238.548,848.21 344.73,895.624C557.096,990.456 850.428,1049.092 1174.392,1049.092L1174.392,1047.652ZM2.209,524.616C2.209,452.532 34.92,383.808 94.184,321.24C153.451,258.668 239.246,202.286 345.318,154.921C557.46,60.189 850.582,1.578 1174.392,1.578L1174.392,0.138C850.428,0.138 557.096,58.774 344.73,153.605C238.548,201.02 152.575,257.498 93.138,320.25C33.697,383.004 0.768,452.066 0.768,524.616L2.209,524.616ZM1174.392,1.578C1498.204,1.578 1791.326,60.189 2003.468,154.921C2109.548,202.286 2195.328,258.668 2254.608,321.24C2313.868,383.808 2346.568,452.532 2346.568,524.616L2348.008,524.616C2348.008,452.066 2315.088,383.004 2255.648,320.25C2196.208,257.498 2110.228,201.02 2004.048,153.605C1791.69,58.774 1498.358,0.138 1174.392,0.138L1174.392,1.578Z" transform="rotate(5.328 1174.393 524.615)" fill="url(#ps_0_109_1608)"/>
</g>
<defs>
<linearGradient id="ps_0_109_1608" x1="-59.416" y1="517.531" x2="2437.335" y2="633.708" gradientUnits="userSpaceOnUse">
<stop stop-color="#FFFFFF" stop-opacity="0.4"/>
<stop offset="0.458" stop-color="#FFFFFF"/>
<stop offset="1" stop-color="#FFFFFF" stop-opacity="0.4"/>
</linearGradient>
</defs>
</svg>
