<svg width="2348" height="1050" viewBox="0 0 2348 1050" fill="none" xmlns="http://www.w3.org/2000/svg" xmlns:xlink="http://www.w3.org/1999/xlink">
<g style="mix-blend-mode:overlay">
<path d="M2346.269,525.177C2346.269,597.259 2313.569,665.983 2254.309,728.551C2195.029,791.123 2109.249,847.505 2003.169,894.871C1791.027,989.601 1497.905,1048.213 1174.093,1048.213L1174.093,1049.653C1498.059,1049.653 1791.391,991.017 2003.749,896.185C2109.929,848.771 2195.909,792.293 2255.349,729.541C2314.789,666.787 2347.709,597.725 2347.709,525.177L2346.269,525.177ZM1174.093,1048.213C850.283,1048.213 557.161,989.601 345.019,894.871C238.947,847.505 153.152,791.123 93.885,728.551C34.621,665.983 1.909,597.259 1.909,525.177L0.469,525.177C0.469,597.725 33.398,666.787 92.839,729.541C152.276,792.293 238.249,848.771 344.431,896.185C556.797,991.017 850.129,1049.653 1174.093,1049.653L1174.093,1048.213ZM1.909,525.177C1.909,453.093 34.621,384.369 93.885,321.801C153.152,259.229 238.947,202.847 345.019,155.482C557.161,60.751 850.283,2.14 1174.093,2.14L1174.093,0.699C850.129,0.699 556.797,59.335 344.431,154.167C238.249,201.581 152.276,258.059 92.839,320.811C33.398,383.565 0.469,452.627 0.469,525.177L1.909,525.177ZM1174.093,2.14C1497.905,2.14 1791.027,60.751 2003.169,155.482C2109.249,202.847 2195.029,259.229 2254.309,321.801C2313.569,384.369 2346.269,453.093 2346.269,525.177L2347.709,525.177C2347.709,452.627 2314.789,383.565 2255.349,320.811C2195.909,258.059 2109.929,201.581 2003.749,154.167C1791.391,59.335 1498.059,0.699 1174.093,0.699L1174.093,2.14Z" transform="rotate(5.328 1174.094 525.176)" fill="url(#ps_0_79_598)"/>
</g>
<defs>
<linearGradient id="ps_0_79_598" x1="-59.716" y1="518.093" x2="2437.036" y2="634.269" gradientUnits="userSpaceOnUse">
<stop stop-color="#301080" stop-opacity="0.6"/>
<stop offset="0.458" stop-color="#763CAC"/>
<stop offset="1" stop-color="#301080" stop-opacity="0.6"/>
</linearGradient>
</defs>
</svg>
