<svg width="2348" height="1050" viewBox="0 0 2348 1050" fill="none" xmlns="http://www.w3.org/2000/svg" xmlns:xlink="http://www.w3.org/1999/xlink">
<g style="mix-blend-mode:overlay">
<path d="M2346.419,524.897C2346.419,596.979 2313.719,665.703 2254.459,728.271C2195.179,790.843 2109.399,847.225 2003.319,894.591C1791.177,989.321 1498.055,1047.933 1174.243,1047.933L1174.243,1049.373C1498.209,1049.373 1791.541,990.737 2003.899,895.905C2110.079,848.491 2196.059,792.013 2255.499,729.261C2314.939,666.507 2347.859,597.445 2347.859,524.897L2346.419,524.897ZM1174.243,1047.933C850.433,1047.933 557.311,989.321 345.169,894.591C239.097,847.225 153.302,790.843 94.035,728.271C34.771,665.703 2.06,596.979 2.06,524.897L0.619,524.897C0.619,597.445 33.548,666.507 92.989,729.261C152.426,792.013 238.399,848.491 344.581,895.905C556.947,990.737 850.279,1049.373 1174.243,1049.373L1174.243,1047.933ZM2.06,524.897C2.06,452.813 34.771,384.089 94.035,321.521C153.302,258.949 239.097,202.567 345.169,155.201C557.311,60.47 850.433,1.859 1174.243,1.859L1174.243,0.418C850.279,0.418 556.947,59.054 344.581,153.886C238.399,201.301 152.426,257.779 92.989,320.531C33.548,383.285 0.619,452.347 0.619,524.897L2.06,524.897ZM1174.243,1.859C1498.055,1.859 1791.177,60.47 2003.319,155.201C2109.399,202.567 2195.179,258.949 2254.459,321.521C2313.719,384.089 2346.419,452.813 2346.419,524.897L2347.859,524.897C2347.859,452.347 2314.939,383.285 2255.499,320.531C2196.059,257.779 2110.079,201.301 2003.899,153.886C1791.541,59.054 1498.209,0.418 1174.243,0.418L1174.243,1.859Z" transform="rotate(5.328 1174.244 524.896)" fill="url(#ps_0_79_600)"/>
</g>
<defs>
<linearGradient id="ps_0_79_600" x1="-59.565" y1="517.812" x2="2437.186" y2="633.988" gradientUnits="userSpaceOnUse">
<stop stop-color="#301080" stop-opacity="0.6"/>
<stop offset="0.458" stop-color="#763CAC"/>
<stop offset="1" stop-color="#301080" stop-opacity="0.6"/>
</linearGradient>
</defs>
</svg>
