<svg width="2348" height="1050" viewBox="0 0 2348 1050" fill="none" xmlns="http://www.w3.org/2000/svg" xmlns:xlink="http://www.w3.org/1999/xlink">
<g style="mix-blend-mode:overlay">
<path d="M2346.319,524.417C2346.319,596.499 2313.619,665.223 2254.359,727.791C2195.079,790.363 2109.299,846.745 2003.219,894.111C1791.077,988.841 1497.955,1047.453 1174.143,1047.453L1174.143,1048.893C1498.109,1048.893 1791.441,990.257 2003.799,895.425C2109.979,848.011 2195.959,791.533 2255.399,728.781C2314.839,666.027 2347.759,596.965 2347.759,524.417L2346.319,524.417ZM1174.143,1047.453C850.333,1047.453 557.211,988.841 345.069,894.111C238.997,846.745 153.202,790.363 93.935,727.791C34.671,665.223 1.96,596.499 1.96,524.417L0.519,524.417C0.519,596.965 33.448,666.027 92.889,728.781C152.326,791.533 238.299,848.011 344.481,895.425C556.847,990.257 850.179,1048.893 1174.143,1048.893L1174.143,1047.453ZM1.96,524.417C1.96,452.333 34.671,383.609 93.935,321.041C153.202,258.469 238.997,202.087 345.069,154.722C557.211,59.99 850.333,1.379 1174.143,1.379L1174.143,-0.061C850.179,-0.061 556.847,58.575 344.481,153.406C238.299,200.821 152.326,257.299 92.889,320.051C33.448,382.805 0.519,451.867 0.519,524.417L1.96,524.417ZM1174.143,1.379C1497.955,1.379 1791.077,59.99 2003.219,154.722C2109.299,202.087 2195.079,258.469 2254.359,321.041C2313.619,383.609 2346.319,452.333 2346.319,524.417L2347.759,524.417C2347.759,451.867 2314.839,382.805 2255.399,320.051C2195.959,257.299 2109.979,200.821 2003.799,153.406C1791.441,58.575 1498.109,-0.061 1174.143,-0.061L1174.143,1.379Z" transform="rotate(5.328 1174.144 524.416)" fill="url(#ps_0_48_288)"/>
</g>
<defs>
<linearGradient id="ps_0_48_288" x1="-59.665" y1="517.332" x2="2437.086" y2="633.508" gradientUnits="userSpaceOnUse">
<stop stop-color="#FFFFFF" stop-opacity="0.4"/>
<stop offset="0.458" stop-color="#FFFFFF"/>
<stop offset="1" stop-color="#FFFFFF" stop-opacity="0.4"/>
</linearGradient>
</defs>
</svg>
