<svg width="2348" height="1050" viewBox="0 0 2348 1050" fill="none" xmlns="http://www.w3.org/2000/svg" xmlns:xlink="http://www.w3.org/1999/xlink">
<g style="mix-blend-mode:overlay">
<path d="M2346.318,524.417C2346.318,596.499 2313.618,665.223 2254.358,727.791C2195.078,790.363 2109.298,846.745 2003.218,894.111C1791.076,988.841 1497.954,1047.453 1174.142,1047.453L1174.142,1048.893C1498.108,1048.893 1791.44,990.257 2003.798,895.425C2109.978,848.011 2195.958,791.533 2255.398,728.781C2314.838,666.027 2347.758,596.965 2347.758,524.417L2346.318,524.417ZM1174.142,1047.453C850.332,1047.453 557.21,988.841 345.068,894.111C238.996,846.745 153.201,790.363 93.934,727.791C34.67,665.223 1.959,596.499 1.959,524.417L0.518,524.417C0.518,596.965 33.447,666.027 92.888,728.781C152.325,791.533 238.298,848.011 344.48,895.425C556.846,990.257 850.178,1048.893 1174.142,1048.893L1174.142,1047.453ZM1.959,524.417C1.959,452.333 34.67,383.609 93.934,321.041C153.201,258.469 238.996,202.087 345.068,154.722C557.21,59.99 850.332,1.379 1174.142,1.379L1174.142,-0.061C850.178,-0.061 556.846,58.575 344.48,153.406C238.298,200.821 152.325,257.299 92.888,320.051C33.447,382.805 0.518,451.867 0.518,524.417L1.959,524.417ZM1174.142,1.379C1497.954,1.379 1791.076,59.99 2003.218,154.722C2109.298,202.087 2195.078,258.469 2254.358,321.041C2313.618,383.609 2346.318,452.333 2346.318,524.417L2347.758,524.417C2347.758,451.867 2314.838,382.805 2255.398,320.051C2195.958,257.299 2109.978,200.821 2003.798,153.406C1791.44,58.575 1498.108,-0.061 1174.142,-0.061L1174.142,1.379Z" transform="rotate(5.328 1174.143 524.416)" fill="url(#ps_0_109_1606)"/>
</g>
<defs>
<linearGradient id="ps_0_109_1606" x1="-59.666" y1="517.332" x2="2437.085" y2="633.508" gradientUnits="userSpaceOnUse">
<stop stop-color="#FFFFFF" stop-opacity="0.4"/>
<stop offset="0.458" stop-color="#FFFFFF"/>
<stop offset="1" stop-color="#FFFFFF" stop-opacity="0.4"/>
</linearGradient>
</defs>
</svg>
