<svg width="32" height="32" viewBox="0 0 32 32" fill="none" xmlns="http://www.w3.org/2000/svg" xmlns:xlink="http://www.w3.org/1999/xlink">
<path d="M5.95,-0.435L25.252,-0.435C25.954,-0.435 26.56,-0.435 27.061,-0.392C27.589,-0.347 28.117,-0.248 28.638,0.022C29.814,0.631 30.749,1.799 31.236,3.269C31.452,3.921 31.531,4.581 31.567,5.24C31.601,5.867 31.601,6.624 31.601,7.501L31.601,23.629C31.601,24.506 31.601,25.263 31.567,25.89C31.531,26.549 31.452,27.209 31.236,27.861C30.749,29.331 29.814,30.499 28.638,31.108C28.117,31.378 27.589,31.477 27.061,31.522C26.56,31.565 25.954,31.565 25.252,31.565L5.95,31.565C5.248,31.565 4.643,31.565 4.141,31.522C3.614,31.477 3.086,31.378 2.564,31.108C1.388,30.499 0.454,29.331 -0.033,27.861C-0.249,27.209 -0.329,26.549 -0.365,25.89C-0.399,25.263 -0.399,24.506 -0.399,23.629L-0.399,7.501C-0.399,6.624 -0.399,5.867 -0.365,5.24C-0.329,4.581 -0.249,3.921 -0.033,3.269C0.454,1.799 1.388,0.631 2.564,0.022C3.086,-0.248 3.614,-0.347 4.141,-0.392C4.643,-0.435 5.248,-0.435 5.95,-0.435ZM3.968,4.84C4.297,4.539 4.808,4.562 5.11,4.891L15.004,15.714C15.325,16.064 15.877,16.064 16.198,15.714L26.092,4.891C26.394,4.562 26.905,4.539 27.234,4.84C27.564,5.141 27.587,5.653 27.285,5.982L17.391,16.805C16.429,17.856 14.773,17.856 13.811,16.805L3.917,5.982C3.615,5.653 3.638,5.141 3.968,4.84Z" clip-rule="evenodd" fill-rule="evenodd" fill="#FFFFFF"/>
</svg>
