<svg width="32" height="34" viewBox="0 0 32 34" fill="none" xmlns="http://www.w3.org/2000/svg" xmlns:xlink="http://www.w3.org/1999/xlink">
<path d="M5.95,0.861L25.253,0.861C25.955,0.861 26.56,0.861 27.061,0.904C27.589,0.949 28.117,1.048 28.638,1.318C29.815,1.927 30.749,3.095 31.236,4.565C31.452,5.217 31.531,5.876 31.567,6.536C31.602,7.163 31.602,7.92 31.602,8.797L31.602,24.925C31.602,25.802 31.602,26.559 31.567,27.186C31.531,27.845 31.452,28.505 31.236,29.157C30.749,30.627 29.815,31.795 28.638,32.404C28.117,32.674 27.589,32.773 27.061,32.818C26.56,32.861 25.955,32.861 25.253,32.861L5.95,32.861C5.249,32.861 4.643,32.861 4.142,32.818C3.614,32.773 3.086,32.674 2.565,32.404C1.389,31.795 0.454,30.627 -0.033,29.157C-0.249,28.505 -0.328,27.845 -0.364,27.186C-0.398,26.559 -0.398,25.802 -0.398,24.925L-0.398,8.797C-0.398,7.92 -0.398,7.163 -0.364,6.536C-0.328,5.876 -0.249,5.217 -0.033,4.565C0.454,3.095 1.389,1.927 2.565,1.318C3.086,1.048 3.614,0.949 4.142,0.904C4.643,0.861 5.249,0.861 5.95,0.861ZM3.968,6.136C4.297,5.835 4.809,5.858 5.11,6.187L15.005,17.01C15.325,17.36 15.877,17.36 16.198,17.01L26.093,6.187C26.394,5.858 26.905,5.835 27.235,6.136C27.564,6.437 27.587,6.948 27.286,7.278L17.391,18.1C16.43,19.152 14.773,19.152 13.812,18.1L3.917,7.278C3.616,6.948 3.639,6.437 3.968,6.136Z" clip-rule="evenodd" fill-rule="evenodd" fill="#FFFFFF"/>
</svg>
