<svg width="16" height="14" viewBox="0 0 16 14" fill="none" xmlns="http://www.w3.org/2000/svg" xmlns:xlink="http://www.w3.org/1999/xlink">
<path d="M2.785,-0.253L12.536,-0.253C12.89,-0.253 13.196,-0.253 13.449,-0.236C13.716,-0.218 13.982,-0.178 14.246,-0.069C14.84,0.178 15.312,0.65 15.558,1.244C15.667,1.507 15.707,1.774 15.726,2.04C15.743,2.294 15.743,2.6 15.743,2.954L15.743,9.472C15.743,9.826 15.743,10.132 15.726,10.386C15.707,10.652 15.667,10.919 15.558,11.182C15.312,11.776 14.84,12.248 14.246,12.495C13.982,12.604 13.716,12.644 13.449,12.662C13.196,12.679 12.89,12.679 12.536,12.679L2.785,12.679C2.43,12.679 2.124,12.679 1.871,12.662C1.604,12.644 1.338,12.604 1.074,12.495C0.48,12.248 0.008,11.776 -0.238,11.182C-0.347,10.919 -0.387,10.652 -0.405,10.386C-0.423,10.132 -0.423,9.826 -0.423,9.472L-0.423,2.954C-0.423,2.6 -0.423,2.294 -0.405,2.04C-0.387,1.774 -0.347,1.507 -0.238,1.244C0.008,0.65 0.48,0.178 1.074,-0.069C1.338,-0.178 1.604,-0.218 1.871,-0.236C2.124,-0.253 2.43,-0.253 2.785,-0.253ZM1.451,1.587C1.744,1.252 2.255,1.217 2.591,1.511L7.128,5.481C7.433,5.748 7.888,5.748 8.192,5.481L12.729,1.511C13.065,1.217 13.576,1.252 13.87,1.587C14.164,1.923 14.13,2.434 13.794,2.728L9.257,6.698C8.343,7.498 6.978,7.498 6.063,6.698L1.527,2.728C1.191,2.434 1.157,1.923 1.451,1.587Z" clip-rule="evenodd" fill-rule="evenodd" fill="#FFFFFF"/>
</svg>
