<svg width="32" height="32" viewBox="0 0 32 32" fill="none" xmlns="http://www.w3.org/2000/svg" xmlns:xlink="http://www.w3.org/1999/xlink">
<path d="M5.95,-0.435L25.253,-0.435C25.955,-0.435 26.56,-0.435 27.061,-0.392C27.589,-0.347 28.117,-0.248 28.638,0.022C29.815,0.631 30.749,1.799 31.236,3.269C31.452,3.921 31.531,4.581 31.567,5.24C31.602,5.867 31.602,6.624 31.602,7.501L31.602,23.629C31.602,24.506 31.602,25.263 31.567,25.89C31.531,26.549 31.452,27.209 31.236,27.861C30.749,29.331 29.815,30.499 28.638,31.108C28.117,31.378 27.589,31.477 27.061,31.522C26.56,31.565 25.955,31.565 25.253,31.565L5.95,31.565C5.249,31.565 4.643,31.565 4.142,31.522C3.614,31.477 3.086,31.378 2.565,31.108C1.389,30.499 0.454,29.331 -0.033,27.861C-0.249,27.209 -0.328,26.549 -0.364,25.89C-0.398,25.263 -0.398,24.506 -0.398,23.629L-0.398,7.501C-0.398,6.624 -0.398,5.867 -0.364,5.24C-0.328,4.581 -0.249,3.921 -0.033,3.269C0.454,1.799 1.389,0.631 2.565,0.022C3.086,-0.248 3.614,-0.347 4.142,-0.392C4.643,-0.435 5.249,-0.435 5.95,-0.435ZM3.968,4.84C4.297,4.539 4.809,4.562 5.11,4.891L15.005,15.714C15.325,16.064 15.877,16.064 16.198,15.714L26.093,4.891C26.394,4.562 26.905,4.539 27.235,4.84C27.564,5.141 27.587,5.653 27.286,5.982L17.391,16.805C16.43,17.856 14.773,17.856 13.812,16.805L3.917,5.982C3.616,5.653 3.639,5.141 3.968,4.84Z" clip-rule="evenodd" fill-rule="evenodd" fill="#FFFFFF"/>
</svg>
