<svg width="16" height="14" viewBox="0 0 16 14" fill="none" xmlns="http://www.w3.org/2000/svg" xmlns:xlink="http://www.w3.org/1999/xlink">
<path d="M2.785,-0.253L12.536,-0.253C12.891,-0.253 13.197,-0.253 13.45,-0.236C13.717,-0.218 13.983,-0.178 14.247,-0.069C14.841,0.178 15.313,0.65 15.559,1.244C15.668,1.507 15.708,1.774 15.726,2.04C15.744,2.294 15.744,2.6 15.744,2.954L15.744,9.472C15.744,9.826 15.744,10.132 15.726,10.386C15.708,10.652 15.668,10.919 15.559,11.182C15.313,11.776 14.841,12.248 14.247,12.495C13.983,12.604 13.717,12.644 13.45,12.662C13.197,12.679 12.891,12.679 12.536,12.679L2.785,12.679C2.431,12.679 2.125,12.679 1.872,12.662C1.605,12.644 1.338,12.604 1.075,12.495C0.481,12.248 0.009,11.776 -0.237,11.182C-0.346,10.919 -0.386,10.652 -0.405,10.386C-0.422,10.132 -0.422,9.826 -0.422,9.472L-0.422,2.954C-0.422,2.6 -0.422,2.294 -0.405,2.04C-0.386,1.774 -0.346,1.507 -0.237,1.244C0.009,0.65 0.481,0.178 1.075,-0.069C1.338,-0.178 1.605,-0.218 1.872,-0.236C2.125,-0.253 2.431,-0.253 2.785,-0.253ZM1.451,1.587C1.745,1.252 2.256,1.217 2.592,1.511L7.129,5.481C7.433,5.748 7.888,5.748 8.193,5.481L12.73,1.511C13.066,1.217 13.576,1.252 13.87,1.587C14.164,1.923 14.13,2.434 13.794,2.728L9.258,6.698C8.343,7.498 6.978,7.498 6.064,6.698L1.527,2.728C1.191,2.434 1.157,1.923 1.451,1.587Z" clip-rule="evenodd" fill-rule="evenodd" fill="#FFFFFF"/>
</svg>
