<svg width="24" height="22" viewBox="0 0 24 22" fill="none" xmlns="http://www.w3.org/2000/svg" xmlns:xlink="http://www.w3.org/1999/xlink">
<path d="M5.196,-0.065L8.699,-0.065L8.699,0.919L6.661,0.919L6.661,1.903L8.699,1.903L8.699,2.887L5.196,2.887L5.196,-0.065ZM9.399,-0.065L12.903,-0.065L12.903,0.792L10.865,0.792L10.865,0.962L12.903,0.962L12.903,2.93L9.399,2.93L9.399,2.032L11.437,2.032L11.437,1.86L9.399,1.86L9.399,-0.065ZM13.604,-0.065L17.105,-0.065L17.105,0.792L15.067,0.792L15.067,0.962L17.105,0.962L17.105,2.93L13.604,2.93L13.604,2.032L15.642,2.032L15.642,1.86L13.604,1.86L13.604,-0.065Z" fill="url(#pf_0_59_440)"/>
<path d="M11.281,21.274L1.983,19.571L-0.758,4.24L23.344,4.24L20.605,19.569L11.281,21.274ZM4.661,11.18L4.917,13.06L14.795,13.06L14.464,15.498L11.285,16.065L11.282,16.065L8.109,15.5L7.905,14.001L5.044,14.001L5.443,16.953L11.281,18.022L17.128,16.953L17.841,11.684L17.91,11.18L18.425,7.373L4.148,7.373L4.408,9.254L15.302,9.254L15.042,11.18L4.661,11.18L4.661,11.18Z" clip-rule="evenodd" fill-rule="evenodd" fill="url(#pf_0_59_441)"/>
<defs>
<linearGradient id="pf_0_59_440" x1="11.151" y1="-0.065" x2="11.151" y2="2.93" gradientUnits="userSpaceOnUse">
<stop stop-color="#693B93" stop-opacity="0.53"/>
<stop offset="1" stop-color="#FFC024"/>
</linearGradient>
<linearGradient id="pf_0_59_441" x1="11.293" y1="4.24" x2="11.293" y2="21.274" gradientUnits="userSpaceOnUse">
<stop stop-color="#693B93" stop-opacity="0.53"/>
<stop offset="1" stop-color="#FFC024"/>
</linearGradient>
</defs>
</svg>
