<svg width="608" height="416" viewBox="0 0 608 416" fill="none" xmlns="http://www.w3.org/2000/svg" xmlns:xlink="http://www.w3.org/1999/xlink">
<g style="mix-blend-mode:overlay">
<path d="M598.248,202C598.248,250.549 565.414,294.627 512.062,326.605C458.724,358.573 384.994,378.371 303.514,378.371L303.514,379.811C385.21,379.811 459.206,359.965 512.802,327.839C566.384,295.723 599.69,251.255 599.69,202L598.248,202ZM303.514,378.371C222.034,378.371 148.303,358.573 94.965,326.605C41.614,294.627 8.778,250.549 8.778,202L7.338,202C7.338,251.255 40.642,295.723 94.225,327.839C147.821,359.965 221.818,379.811 303.514,379.811L303.514,378.371ZM8.778,202C8.778,153.45 41.614,109.373 94.965,77.395C148.303,45.426 222.034,25.629 303.514,25.629L303.514,24.189C221.818,24.189 147.821,44.035 94.225,76.16C40.642,108.276 7.338,152.745 7.338,202L8.778,202ZM303.514,25.629C384.994,25.629 458.724,45.426 512.062,77.395C565.414,109.373 598.248,153.45 598.248,202L599.69,202C599.69,152.745 566.384,108.276 512.802,76.16C459.206,44.035 385.21,24.189 303.514,24.189L303.514,25.629Z" transform="rotate(8.982 303.514 202)" fill="url(#ps_0_109_1423)"/>
</g>
<g style="mix-blend-mode:overlay">
<path d="M598.258,204.193C598.258,252.742 565.424,296.82 512.072,328.798C458.734,360.766 385.004,380.564 303.524,380.564L303.524,382.004C385.22,382.004 459.216,362.158 512.812,330.032C566.394,297.916 599.7,253.448 599.7,204.193L598.258,204.193ZM303.524,380.564C222.044,380.564 148.312,360.766 94.975,328.798C41.623,296.82 8.788,252.742 8.788,204.193L7.347,204.193C7.347,253.448 40.652,297.916 94.234,330.032C147.831,362.158 221.828,382.004 303.524,382.004L303.524,380.564ZM8.788,204.193C8.788,155.643 41.623,111.567 94.975,79.589C148.312,47.619 222.044,27.822 303.524,27.822L303.524,26.382C221.828,26.382 147.831,46.228 94.234,78.353C40.652,110.469 7.347,154.938 7.347,204.193L8.788,204.193ZM303.524,27.822C385.004,27.822 458.734,47.619 512.072,79.589C565.424,111.567 598.258,155.643 598.258,204.193L599.7,204.193C599.7,154.938 566.394,110.469 512.812,78.353C459.216,46.228 385.22,26.382 303.524,26.382L303.524,27.822Z" transform="rotate(8.982 303.523 204.193)" fill="url(#ps_0_109_1424)"/>
</g>
<g style="mix-blend-mode:overlay">
<path d="M598.271,207.482C598.271,256.031 565.437,300.109 512.085,332.087C458.747,364.055 385.017,383.853 303.537,383.853L303.537,385.293C385.233,385.293 459.229,365.447 512.825,333.321C566.407,301.205 599.713,256.737 599.713,207.482L598.271,207.482ZM303.537,383.853C222.057,383.853 148.326,364.055 94.989,332.087C41.637,300.109 8.802,256.031 8.802,207.482L7.361,207.482C7.361,256.737 40.666,301.205 94.248,333.321C147.845,365.447 221.841,385.293 303.537,385.293L303.537,383.853ZM8.802,207.482C8.802,158.933 41.637,114.856 94.989,82.878C148.326,50.909 222.057,31.112 303.537,31.112L303.537,29.671C221.841,29.671 147.845,49.517 94.248,81.642C40.666,113.759 7.361,158.227 7.361,207.482L8.802,207.482ZM303.537,31.112C385.017,31.112 458.747,50.909 512.085,82.878C565.437,114.856 598.271,158.933 598.271,207.482L599.713,207.482C599.713,158.227 566.407,113.759 512.825,81.642C459.229,49.517 385.233,29.671 303.537,29.671L303.537,31.112Z" transform="rotate(8.982 303.537 207.482)" fill="url(#ps_0_109_1425)"/>
</g>
<g style="mix-blend-mode:overlay">
<path d="M598.29,211.868C598.29,260.417 565.456,304.493 512.104,336.473C458.766,368.441 385.036,388.239 303.556,388.239L303.556,389.679C385.252,389.679 459.248,369.833 512.844,337.707C566.426,305.591 599.732,261.123 599.732,211.868L598.29,211.868ZM303.556,388.239C222.076,388.239 148.344,368.441 95.007,336.473C41.655,304.493 8.82,260.417 8.82,211.868L7.38,211.868C7.38,261.123 40.684,305.591 94.266,337.707C147.863,369.833 221.86,389.679 303.556,389.679L303.556,388.239ZM8.82,211.868C8.82,163.318 41.655,119.242 95.007,87.264C148.344,55.294 222.076,35.497 303.556,35.497L303.556,34.057C221.86,34.057 147.863,53.903 94.266,86.028C40.684,118.144 7.38,162.613 7.38,211.868L8.82,211.868ZM303.556,35.497C385.036,35.497 458.766,55.294 512.104,87.264C565.456,119.242 598.29,163.318 598.29,211.868L599.732,211.868C599.732,162.613 566.426,118.144 512.844,86.028C459.248,53.903 385.252,34.057 303.556,34.057L303.556,35.497Z" transform="rotate(8.982 303.555 211.868)" fill="url(#ps_0_109_1426)"/>
</g>
<defs>
<linearGradient id="ps_0_109_1423" x1="-7.408" y1="194.628" x2="620.272" y2="243.931" gradientUnits="userSpaceOnUse">
<stop stop-color="#FFFFFF" stop-opacity="0.4"/>
<stop offset="0.458" stop-color="#FFFFFF"/>
<stop offset="1" stop-color="#FFFFFF" stop-opacity="0.4"/>
</linearGradient>
<linearGradient id="ps_0_109_1424" x1="-7.399" y1="196.821" x2="620.282" y2="246.124" gradientUnits="userSpaceOnUse">
<stop stop-color="#FFFFFF" stop-opacity="0.4"/>
<stop offset="0.458" stop-color="#FFFFFF"/>
<stop offset="1" stop-color="#FFFFFF" stop-opacity="0.4"/>
</linearGradient>
<linearGradient id="ps_0_109_1425" x1="-7.385" y1="200.11" x2="620.296" y2="249.413" gradientUnits="userSpaceOnUse">
<stop stop-color="#FFFFFF" stop-opacity="0.4"/>
<stop offset="0.458" stop-color="#FFFFFF"/>
<stop offset="1" stop-color="#FFFFFF" stop-opacity="0.4"/>
</linearGradient>
<linearGradient id="ps_0_109_1426" x1="-7.367" y1="204.496" x2="620.314" y2="253.799" gradientUnits="userSpaceOnUse">
<stop stop-color="#FFFFFF" stop-opacity="0.4"/>
<stop offset="0.458" stop-color="#FFFFFF"/>
<stop offset="1" stop-color="#FFFFFF" stop-opacity="0.4"/>
</linearGradient>
</defs>
</svg>
