<svg width="16" height="16" viewBox="0 0 16 16" fill="none" xmlns="http://www.w3.org/2000/svg" xmlns:xlink="http://www.w3.org/1999/xlink">
<path d="M3.953,-0.49L6.278,-0.49L6.278,0.248L4.925,0.248L4.925,0.986L6.278,0.986L6.278,1.724L3.953,1.724L3.953,-0.49ZM6.743,-0.49L9.069,-0.49L9.069,0.152L7.716,0.152L7.716,0.28L9.069,0.28L9.069,1.756L6.743,1.756L6.743,1.082L8.096,1.082L8.096,0.954L6.743,0.954L6.743,-0.49ZM9.535,-0.49L11.859,-0.49L11.859,0.152L10.506,0.152L10.506,0.28L11.859,0.28L11.859,1.756L9.535,1.756L9.535,1.082L10.888,1.082L10.888,0.954L9.535,0.954L9.535,-0.49Z" fill="url(#pf_0_109_1552)"/>
<path d="M7.992,15.51L1.82,14.233L0,2.738L16,2.738L14.181,14.232L7.992,15.51ZM3.597,7.942L3.767,9.351L10.324,9.351L10.105,11.179L7.995,11.604L7.993,11.604L5.886,11.181L5.751,10.056L3.852,10.056L4.116,12.27L7.992,13.072L11.874,12.27L12.347,8.32L12.393,7.942L12.734,5.087L3.257,5.087L3.429,6.498L10.661,6.498L10.489,7.942L3.597,7.942L3.597,7.942Z" clip-rule="evenodd" fill-rule="evenodd" fill="url(#pf_0_109_1553)"/>
<defs>
<linearGradient id="pf_0_109_1552" x1="7.906" y1="-0.49" x2="7.906" y2="1.756" gradientUnits="userSpaceOnUse">
<stop stop-color="#693B93" stop-opacity="0.53"/>
<stop offset="1" stop-color="#693B93"/>
</linearGradient>
<linearGradient id="pf_0_109_1553" x1="8" y1="2.738" x2="8" y2="15.51" gradientUnits="userSpaceOnUse">
<stop stop-color="#693B93" stop-opacity="0.53"/>
<stop offset="1" stop-color="#693B93"/>
</linearGradient>
</defs>
</svg>
