<svg width="60" height="54" viewBox="0 0 60 54" fill="none" xmlns="http://www.w3.org/2000/svg" xmlns:xlink="http://www.w3.org/1999/xlink">
<path d="M52.642,-0.655C54.41,-0.655 56.106,-0.022 57.356,1.106C58.606,2.234 59.309,3.763 59.309,5.358L59.309,47.454C59.309,49.049 58.606,50.579 57.356,51.707C56.106,52.835 54.41,53.468 52.642,53.468L5.975,53.468C4.207,53.468 2.511,52.835 1.261,51.707C0.011,50.579 -0.691,49.049 -0.691,47.454L-0.691,5.358C-0.691,3.763 0.011,2.234 1.261,1.106C2.511,-0.022 4.207,-0.655 5.975,-0.655L52.642,-0.655ZM50.975,45.951L50.975,30.015C50.975,27.415 49.83,24.922 47.792,23.083C45.755,21.245 42.991,20.212 40.109,20.212C37.275,20.212 33.975,21.776 32.375,24.121L32.375,20.784L23.075,20.784L23.075,45.951L32.375,45.951L32.375,31.127C32.375,28.812 34.442,26.918 37.009,26.918C38.246,26.918 39.433,27.361 40.308,28.151C41.184,28.94 41.675,30.011 41.675,31.127L41.675,45.951L50.975,45.951ZM12.242,16.063C13.727,16.063 15.152,15.531 16.202,14.583C17.252,13.636 17.842,12.351 17.842,11.011C17.842,8.215 15.342,5.93 12.242,5.93C10.748,5.93 9.315,6.465 8.259,7.418C7.202,8.371 6.609,9.664 6.609,11.011C6.609,13.808 9.142,16.063 12.242,16.063ZM16.875,45.951L16.875,20.784L7.642,20.784L7.642,45.951L16.875,45.951Z" fill="#FFFEFE"/>
</svg>
