<svg width="60" height="56" viewBox="0 0 60 56" fill="none" xmlns="http://www.w3.org/2000/svg" xmlns:xlink="http://www.w3.org/1999/xlink">
<path d="M52.642,0.049C54.41,0.049 56.106,0.682 57.356,1.81C58.606,2.938 59.309,4.468 59.309,6.063L59.309,48.158C59.309,49.753 58.606,51.283 57.356,52.411C56.106,53.539 54.41,54.172 52.642,54.172L5.975,54.172C4.207,54.172 2.511,53.539 1.261,52.411C0.011,51.283 -0.691,49.753 -0.691,48.158L-0.691,6.063C-0.691,4.468 0.011,2.938 1.261,1.81C2.511,0.682 4.207,0.049 5.975,0.049L52.642,0.049ZM50.975,46.655L50.975,30.719C50.975,28.119 49.83,25.626 47.792,23.787C45.755,21.949 42.991,20.916 40.109,20.916C37.275,20.916 33.975,22.48 32.375,24.825L32.375,21.488L23.075,21.488L23.075,46.655L32.375,46.655L32.375,31.831C32.375,29.516 34.442,27.622 37.009,27.622C38.246,27.622 39.433,28.065 40.308,28.855C41.184,29.644 41.675,30.715 41.675,31.831L41.675,46.655L50.975,46.655ZM12.242,16.767C13.727,16.767 15.152,16.235 16.202,15.287C17.252,14.34 17.842,13.055 17.842,11.715C17.842,8.919 15.342,6.634 12.242,6.634C10.748,6.634 9.315,7.169 8.259,8.122C7.202,9.075 6.609,10.368 6.609,11.715C6.609,14.512 9.142,16.767 12.242,16.767ZM16.875,46.655L16.875,21.488L7.642,21.488L7.642,46.655L16.875,46.655Z" fill="#FFFEFE"/>
</svg>
