<svg width="60" height="56" viewBox="0 0 60 56" fill="none" xmlns="http://www.w3.org/2000/svg" xmlns:xlink="http://www.w3.org/1999/xlink">
<path d="M52.642,0.049C54.41,0.049 56.105,0.682 57.356,1.81C58.606,2.938 59.308,4.468 59.308,6.063L59.308,48.158C59.308,49.753 58.606,51.283 57.356,52.411C56.105,53.539 54.41,54.172 52.642,54.172L5.975,54.172C4.207,54.172 2.511,53.539 1.261,52.411C0.01,51.283 -0.692,49.753 -0.692,48.158L-0.692,6.063C-0.692,4.468 0.01,2.938 1.261,1.81C2.511,0.682 4.207,0.049 5.975,0.049L52.642,0.049ZM50.975,46.655L50.975,30.719C50.975,28.119 49.83,25.626 47.792,23.787C45.754,21.949 42.99,20.916 40.108,20.916C37.275,20.916 33.975,22.48 32.375,24.825L32.375,21.488L23.075,21.488L23.075,46.655L32.375,46.655L32.375,31.831C32.375,29.516 34.442,27.622 37.008,27.622C38.246,27.622 39.433,28.065 40.308,28.855C41.183,29.644 41.675,30.715 41.675,31.831L41.675,46.655L50.975,46.655ZM12.241,16.767C13.727,16.767 15.151,16.235 16.201,15.287C17.251,14.34 17.841,13.055 17.841,11.715C17.841,8.919 15.341,6.634 12.241,6.634C10.747,6.634 9.315,7.169 8.258,8.122C7.202,9.075 6.608,10.368 6.608,11.715C6.608,14.512 9.141,16.767 12.241,16.767ZM16.875,46.655L16.875,21.488L7.641,21.488L7.641,46.655L16.875,46.655Z" fill="#FFFEFE"/>
</svg>
