<svg width="30" height="32" viewBox="0 0 30 32" fill="none" xmlns="http://www.w3.org/2000/svg" xmlns:xlink="http://www.w3.org/1999/xlink">
<path d="M26.667,0C27.551,0 28.399,0.375 29.024,1.041C29.649,1.708 30,2.613 30,3.556L30,28.444C30,29.387 29.649,30.292 29.024,30.959C28.399,31.625 27.551,32 26.667,32L3.333,32C2.449,32 1.601,31.625 0.976,30.959C0.351,30.292 0,29.387 0,28.444L0,3.556C0,2.613 0.351,1.708 0.976,1.041C1.601,0.375 2.449,0 3.333,0L26.667,0ZM25.833,27.556L25.833,18.133C25.833,16.596 25.261,15.122 24.242,14.035C23.223,12.948 21.841,12.338 20.4,12.338C18.983,12.338 17.333,13.262 16.533,14.649L16.533,12.676L11.883,12.676L11.883,27.556L16.533,27.556L16.533,18.791C16.533,17.422 17.567,16.302 18.85,16.302C19.469,16.302 20.062,16.564 20.5,17.031C20.938,17.498 21.183,18.131 21.183,18.791L21.183,27.556L25.833,27.556ZM6.467,9.884C7.209,9.884 7.921,9.57 8.447,9.01C8.972,8.45 9.267,7.69 9.267,6.898C9.267,5.244 8.017,3.893 6.467,3.893C5.72,3.893 5.003,4.21 4.475,4.773C3.947,5.337 3.65,6.101 3.65,6.898C3.65,8.551 4.917,9.884 6.467,9.884ZM8.783,27.556L8.783,12.676L4.167,12.676L4.167,27.556L8.783,27.556Z" fill="#FFFEFE"/>
</svg>
