<svg width="40" height="42" viewBox="0 0 40 42" fill="none" xmlns="http://www.w3.org/2000/svg" xmlns:xlink="http://www.w3.org/1999/xlink">
<path d="M-0.117,5.665C0.282,2.72 2.881,0.861 5.582,0.861L10.719,0.861C13.301,0.861 15.594,2.513 16.411,4.963L18.51,11.26C19.412,13.966 17.819,16.868 15.051,17.56C14.374,17.729 14.141,18.572 14.634,19.065L21.397,25.828C21.891,26.321 22.733,26.088 22.902,25.411C23.594,22.644 26.496,21.051 29.202,21.953L35.499,24.052C37.949,24.868 39.602,27.161 39.602,29.744L39.602,34.881C39.602,37.582 37.742,40.18 34.797,40.579C33.424,40.765 32.024,40.861 30.602,40.861C13.481,40.861 -0.398,26.982 -0.398,9.861C-0.398,8.439 -0.303,7.038 -0.117,5.665Z" clip-rule="evenodd" fill-rule="evenodd" fill="#FFFFFF"/>
</svg>
