<svg width="16" height="16" viewBox="0 0 16 16" fill="none" xmlns="http://www.w3.org/2000/svg" xmlns:xlink="http://www.w3.org/1999/xlink">
<path d="M-0.309,1.617C-0.147,0.427 0.903,-0.324 1.994,-0.324L4.07,-0.324C5.114,-0.324 6.041,0.343 6.371,1.334L7.219,3.878C7.583,4.972 6.94,6.145 5.821,6.424C5.548,6.493 5.453,6.833 5.653,7.033L8.386,9.766C8.585,9.965 8.926,9.871 8.994,9.597C9.274,8.479 10.446,7.835 11.54,8.2L14.085,9.048C15.075,9.378 15.743,10.304 15.743,11.348L15.743,13.424C15.743,14.516 14.992,15.566 13.801,15.727C13.246,15.802 12.68,15.841 12.106,15.841C5.187,15.841 -0.422,10.232 -0.422,3.313C-0.422,2.738 -0.384,2.172 -0.309,1.617Z" clip-rule="evenodd" fill-rule="evenodd" fill="#FFFFFF"/>
</svg>
