<svg width="16" height="16" viewBox="0 0 16 16" fill="none" xmlns="http://www.w3.org/2000/svg" xmlns:xlink="http://www.w3.org/1999/xlink">
<path d="M-0.308,1.617C-0.147,0.427 0.903,-0.324 1.995,-0.324L4.071,-0.324C5.115,-0.324 6.041,0.343 6.371,1.334L7.219,3.878C7.584,4.972 6.94,6.145 5.822,6.424C5.548,6.493 5.454,6.833 5.653,7.033L8.387,9.766C8.586,9.965 8.926,9.871 8.995,9.597C9.274,8.479 10.447,7.835 11.541,8.2L14.086,9.048C15.076,9.378 15.744,10.304 15.744,11.348L15.744,13.424C15.744,14.516 14.992,15.566 13.802,15.727C13.247,15.802 12.681,15.841 12.106,15.841C5.187,15.841 -0.422,10.232 -0.422,3.313C-0.422,2.738 -0.383,2.172 -0.308,1.617Z" clip-rule="evenodd" fill-rule="evenodd" fill="#FFFFFF"/>
</svg>
