<svg width="40" height="40" viewBox="0 0 40 40" fill="none" xmlns="http://www.w3.org/2000/svg" xmlns:xlink="http://www.w3.org/1999/xlink">
<path d="M-0.117,4.369C0.282,1.424 2.881,-0.435 5.582,-0.435L10.719,-0.435C13.301,-0.435 15.594,1.218 16.411,3.668L18.51,9.964C19.412,12.671 17.819,15.572 15.051,16.264C14.374,16.433 14.141,17.276 14.634,17.769L21.397,24.532C21.891,25.026 22.733,24.792 22.902,24.115C23.594,21.348 26.496,19.755 29.202,20.657L35.499,22.756C37.949,23.573 39.602,25.865 39.602,28.448L39.602,33.585C39.602,36.286 37.742,38.885 34.797,39.283C33.424,39.469 32.024,39.565 30.602,39.565C13.481,39.565 -0.398,25.686 -0.398,8.565C-0.398,7.143 -0.303,5.742 -0.117,4.369Z" clip-rule="evenodd" fill-rule="evenodd" fill="#FFFFFF"/>
</svg>
