<svg width="26" height="24" viewBox="0 0 26 24" fill="none" xmlns="http://www.w3.org/2000/svg" xmlns:xlink="http://www.w3.org/1999/xlink">
<path d="M12.83,1.915L12.318,2.716C12.05,2.351 11.484,1.611 11.367,1.577C11.25,1.544 10.611,0.832 10.306,0.481C10.025,0.27 9.435,-0.152 9.318,-0.152C9.201,-0.152 8.415,-0.489 8.037,-0.658L6.684,-0.827L5.659,-0.658L4.452,-0.152L3.391,0.481L2.403,1.409L1.635,2.379L0.647,4.53L0.281,6.006L0.281,7.019L0.281,8.706L0.647,10.013L1.086,11.363L3.94,15.665L6.574,18.66L11.769,23.089L12.94,23.089L16.269,20.347L18.72,17.943L19.708,16.846L21.208,14.99L22.781,12.586L23.623,10.899L23.879,10.14L24.062,9.465L24.171,8.917L24.208,8.537L24.281,8.242L24.281,6.091L24.171,5.669L24.062,5.205L23.952,4.699L23.806,4.235L23.659,3.771L23.184,2.632L22.232,1.282L21.171,0.27L20.732,-0.068L20.257,-0.363L19.854,-0.532L19.415,-0.7L19.086,-0.827L18.83,-0.911L18.135,-0.911L17.33,-0.911L16.671,-0.827L16.342,-0.7L15.976,-0.532L15.611,-0.363L14.842,0.059L14.257,0.481L13.562,1.113L12.83,1.915Z" fill="#E51723"/>
</svg>
