<svg width="20" height="20" viewBox="0 0 20 20" fill="none" xmlns="http://www.w3.org/2000/svg" xmlns:xlink="http://www.w3.org/1999/xlink">
<path d="M10.457,2.355L10.03,3.023C9.807,2.718 9.335,2.102 9.238,2.074C9.14,2.046 8.608,1.453 8.354,1.16C8.12,0.984 7.628,0.633 7.53,0.633C7.433,0.633 6.778,0.351 6.463,0.211L5.335,0.07L4.482,0.211L3.476,0.633L2.591,1.16L1.768,1.933L1.128,2.742L0.305,4.534L0,5.765L0,6.608L0,8.014L0.305,9.104L0.671,10.228L3.049,13.814L5.244,16.309L9.573,20L10.549,20L13.323,17.715L15.366,15.712L16.189,14.798L17.439,13.251L18.75,11.248L19.451,9.842L19.665,9.209L19.817,8.647L19.909,8.19L19.939,7.873L20,7.627L20,5.835L19.909,5.483L19.817,5.097L19.726,4.675L19.604,4.288L19.482,3.902L19.085,2.953L18.293,1.828L17.409,0.984L17.043,0.703L16.646,0.457L16.311,0.316L15.945,0.176L15.671,0.07L15.457,0L14.878,0L14.207,0L13.659,0.07L13.384,0.176L13.079,0.316L12.774,0.457L12.134,0.808L11.646,1.16L11.067,1.687L10.457,2.355Z" fill="#E51723"/>
</svg>
