<svg width="10" height="16" viewBox="0 0 10 16" fill="none" xmlns="http://www.w3.org/2000/svg" xmlns:xlink="http://www.w3.org/1999/xlink">
<path d="M3.414,0.586C2.633,-0.195 1.367,-0.195 0.586,0.586C-0.195,1.367 -0.195,2.633 0.586,3.414L3.414,0.586ZM8,8L9.414,9.414C10.195,8.633 10.195,7.367 9.414,6.586L8,8ZM0.586,12.586C-0.195,13.367 -0.195,14.633 0.586,15.414C1.367,16.195 2.633,16.195 3.414,15.414L0.586,12.586ZM0.586,3.414L6.586,9.414L9.414,6.586L3.414,0.586L0.586,3.414ZM6.586,6.586L0.586,12.586L3.414,15.414L9.414,9.414L6.586,6.586Z" fill="#FFFFFF"/>
</svg>
