<svg width="14" height="16" viewBox="0 0 14 16" fill="none" xmlns="http://www.w3.org/2000/svg" xmlns:xlink="http://www.w3.org/1999/xlink">
<path d="M0.734,1.471L1.229,0.976C1.545,0.66 2.057,0.66 2.372,0.976L4.462,3.066C4.778,3.381 4.778,3.893 4.462,4.209L3.014,5.657C2.772,5.899 2.712,6.268 2.865,6.574C3.748,8.34 5.18,9.772 6.947,10.656C7.253,10.809 7.622,10.749 7.863,10.507L9.312,9.058C9.628,8.743 10.139,8.743 10.455,9.058L12.545,11.148C12.861,11.464 12.861,11.976 12.545,12.291L12.049,12.787C10.343,14.494 7.641,14.686 5.71,13.238L4.734,12.505C3.324,11.448 2.072,10.196 1.016,8.787L0.283,7.81C-1.165,5.88 -0.973,3.178 0.734,1.471Z" fill="#FFFFFF"/>
</svg>
