<svg width="26" height="24" viewBox="0 0 26 24" fill="none" xmlns="http://www.w3.org/2000/svg" xmlns:xlink="http://www.w3.org/1999/xlink">
<path d="M12.831,2.619L12.318,3.42C12.05,3.055 11.484,2.315 11.367,2.282C11.25,2.248 10.611,1.536 10.306,1.185C10.026,0.974 9.436,0.552 9.318,0.552C9.201,0.552 8.416,0.215 8.038,0.046L6.684,-0.123L5.66,0.046L4.453,0.552L3.392,1.185L2.404,2.113L1.636,3.083L0.648,5.234L0.282,6.71L0.282,7.723L0.282,9.41L0.648,10.717L1.087,12.067L3.94,16.369L6.575,19.364L11.77,23.793L12.94,23.793L16.27,21.051L18.721,18.647L19.709,17.55L21.209,15.695L22.782,13.29L23.623,11.603L23.879,10.844L24.062,10.169L24.172,9.621L24.209,9.241L24.282,8.946L24.282,6.795L24.172,6.373L24.062,5.909L23.953,5.403L23.806,4.939L23.66,4.475L23.184,3.336L22.233,1.986L21.172,0.974L20.733,0.637L20.257,0.341L19.855,0.173L19.416,0.004L19.087,-0.123L18.831,-0.207L18.136,-0.207L17.331,-0.207L16.672,-0.123L16.343,0.004L15.977,0.173L15.611,0.341L14.843,0.763L14.257,1.185L13.562,1.818L12.831,2.619Z" fill="#E51723"/>
</svg>
