<svg width="24" height="20" viewBox="0 0 24 20" fill="none" xmlns="http://www.w3.org/2000/svg" xmlns:xlink="http://www.w3.org/1999/xlink">
<path d="M11.995,20C11.635,20 11.269,19.929 10.953,19.794L7.638,18.345C7.144,18.139 7.386,18.067 7.547,18.028C8.208,17.857 8.342,17.821 9.046,17.524C9.121,17.492 9.218,17.504 9.293,17.539L11.839,18.655C11.93,18.694 12.059,18.694 12.145,18.655L22.066,14.424C22.158,14.384 22.217,14.305 22.217,14.226L22.217,5.764C22.217,5.681 22.158,5.606 22.061,5.562L12.145,1.335C12.054,1.296 11.93,1.296 11.839,1.335L1.928,5.566C1.832,5.606 1.773,5.685 1.773,5.768L1.773,14.226C1.773,14.305 1.832,14.384 1.928,14.42L4.646,15.579C6.124,16.123 7.026,15.484 7.026,14.837L7.026,6.487C7.026,6.368 7.155,6.276 7.316,6.276L8.573,6.276C8.729,6.276 8.863,6.368 8.863,6.487L8.863,14.841C8.863,16.293 7.789,17.127 5.925,17.127C5.35,17.127 4.899,17.127 3.642,16.666L1.042,15.559C0.397,15.285 0,14.773 0,14.222L0,5.764C0,5.217 0.397,4.701 1.042,4.427L10.953,0.196C11.581,-0.065 12.414,-0.065 13.037,0.196L22.958,4.431C23.603,4.705 24,5.217 24,5.768L24,14.226C24,14.773 23.603,15.285 22.958,15.563L13.037,19.794C12.72,19.929 12.36,20 11.995,20ZM20.004,11.662C20.004,10.078 18.553,9.658 15.508,9.36C12.424,9.058 12.113,8.904 12.113,8.372C12.113,7.931 12.376,7.344 14.659,7.344C16.695,7.344 17.447,7.669 17.758,8.685C17.785,8.781 17.903,8.852 18.038,8.852L19.327,8.852C19.407,8.852 19.483,8.828 19.536,8.785C19.59,8.741 19.617,8.681 19.611,8.622C19.413,6.872 17.839,6.058 14.659,6.058C11.828,6.058 10.141,6.939 10.141,8.419C10.141,10.023 11.823,10.467 14.535,10.666C17.785,10.9 18.038,11.253 18.038,11.725C18.038,12.543 17.146,12.892 15.056,12.892C12.43,12.892 11.855,12.404 11.662,11.44C11.64,11.336 11.522,11.261 11.377,11.261L10.093,11.261C9.932,11.261 9.808,11.356 9.808,11.471C9.808,12.706 10.716,14.178 15.062,14.178C18.199,14.174 20.004,13.257 20.004,11.662L20.004,11.662Z" fill="url(#pf_0_59_437)"/>
<defs>
<linearGradient id="pf_0_59_437" x1="12" y1="0" x2="12" y2="20" gradientUnits="userSpaceOnUse">
<stop stop-color="#693B93" stop-opacity="0.53"/>
<stop offset="1" stop-color="#FFC024"/>
</linearGradient>
</defs>
</svg>
