<svg width="24" height="22" viewBox="0 0 24 22" fill="none" xmlns="http://www.w3.org/2000/svg" xmlns:xlink="http://www.w3.org/1999/xlink">
<path d="M12,0C5.372,0 0,4.925 0,11C0,17.075 5.372,22 12,22C18.627,22 24,17.075 24,11C24,4.925 18.627,0 12,0ZM12.14,17.433C8.272,17.433 5.14,14.555 5.14,11C5.14,7.445 8.272,4.567 12.14,4.567C14.03,4.567 15.61,5.206 16.822,6.243L14.848,8.057L14.848,8.053C14.113,7.409 13.181,7.079 12.14,7.079C9.83,7.079 7.953,8.872 7.953,10.996C7.953,13.118 9.83,14.917 12.14,14.917C14.236,14.917 15.662,13.815 15.956,12.303L12.14,12.303L12.14,9.794L18.725,9.794C18.813,10.225 18.86,10.674 18.86,11.145C18.86,14.821 16.183,17.433 12.14,17.433L12.14,17.433Z" clip-rule="evenodd" fill-rule="evenodd" fill="url(#pf_0_59_438)"/>
<defs>
<linearGradient id="pf_0_59_438" x1="12" y1="0" x2="12" y2="22" gradientUnits="userSpaceOnUse">
<stop stop-color="#693B93" stop-opacity="0.53"/>
<stop offset="1" stop-color="#FFC024"/>
</linearGradient>
</defs>
</svg>
