<svg width="38" height="38" viewBox="0 0 38 38" fill="none" xmlns="http://www.w3.org/2000/svg" xmlns:xlink="http://www.w3.org/1999/xlink">
<path d="M0.974,6.61L7.955,-0.37C8.27,-0.686 8.782,-0.686 9.098,-0.37L16.376,6.908C16.691,7.223 16.691,7.735 16.376,8.051L11.455,12.971C10.963,13.463 10.841,14.215 11.153,14.837L12.071,16.673C13.87,20.271 16.787,23.189 20.385,24.987L22.221,25.906C22.843,26.217 23.595,26.095 24.087,25.603L29.007,20.682C29.323,20.367 29.835,20.367 30.15,20.682L37.428,27.96C37.744,28.276 37.744,28.788 37.428,29.103L30.448,36.084C28.741,37.791 26.04,37.983 24.109,36.535L12.756,28.02C11.347,26.963 10.095,25.711 9.038,24.302L0.524,12.949C-0.924,11.019 -0.732,8.317 0.974,6.61Z" fill="#FFFFFF"/>
</svg>
