<svg width="16" height="16" viewBox="0 0 16 16" fill="none" xmlns="http://www.w3.org/2000/svg" xmlns:xlink="http://www.w3.org/1999/xlink">
<path d="M8,-0.192C3.581,-0.192 0,3.325 0,7.663C0,12.002 3.581,15.519 8,15.519C12.418,15.519 16,12.002 16,7.663C16,3.325 12.418,-0.192 8,-0.192ZM8.093,12.258C5.515,12.258 3.427,10.202 3.427,7.663C3.427,5.125 5.515,3.069 8.093,3.069C9.353,3.069 10.407,3.525 11.215,4.266L9.899,5.561L9.899,5.559C9.409,5.099 8.787,4.863 8.093,4.863C6.553,4.863 5.302,6.144 5.302,7.661C5.302,9.176 6.553,10.461 8.093,10.461C9.491,10.461 10.441,9.674 10.637,8.594L8.093,8.594L8.093,6.802L12.483,6.802C12.542,7.11 12.573,7.43 12.573,7.767C12.573,10.392 10.789,12.258 8.093,12.258L8.093,12.258Z" clip-rule="evenodd" fill-rule="evenodd" fill="url(#pf_0_109_1550)"/>
<defs>
<linearGradient id="pf_0_109_1550" x1="8" y1="-0.192" x2="8" y2="15.519" gradientUnits="userSpaceOnUse">
<stop stop-color="#693B93" stop-opacity="0.53"/>
<stop offset="1" stop-color="#693B93"/>
</linearGradient>
</defs>
</svg>
