<svg width="16" height="16" viewBox="0 0 16 16" fill="none" xmlns="http://www.w3.org/2000/svg" xmlns:xlink="http://www.w3.org/1999/xlink">
<path d="M14.286,0.116L1.714,0.116C0.768,0.116 0,0.87 0,1.799L0,14.144C0,15.073 0.768,15.827 1.714,15.827L14.286,15.827C15.232,15.827 16,15.073 16,14.144L16,1.799C16,0.87 15.232,0.116 14.286,0.116ZM8.707,12.37C8.707,13.899 7.793,14.596 6.461,14.596C5.257,14.596 4.561,13.986 4.204,13.246L5.429,12.52C5.664,12.931 5.879,13.278 6.396,13.278C6.889,13.278 7.204,13.088 7.204,12.348L7.204,7.33L8.707,7.33L8.707,12.37L8.707,12.37ZM12.264,14.596C10.868,14.596 9.964,13.944 9.525,13.088L10.75,12.394C11.071,12.91 11.493,13.292 12.232,13.292C12.854,13.292 13.254,12.987 13.254,12.562C13.254,12.057 12.846,11.879 12.157,11.58L11.782,11.423C10.696,10.97 9.979,10.399 9.979,9.196C9.979,8.087 10.839,7.246 12.179,7.246C13.136,7.246 13.821,7.572 14.314,8.428L13.143,9.164C12.886,8.712 12.607,8.533 12.175,8.533C11.736,8.533 11.457,8.806 11.457,9.164C11.457,9.606 11.736,9.785 12.382,10.062L12.757,10.22C14.036,10.756 14.754,11.307 14.754,12.541C14.754,13.867 13.689,14.596 12.264,14.596L12.264,14.596Z" fill="url(#pf_0_109_1548)"/>
<defs>
<linearGradient id="pf_0_109_1548" x1="8" y1="0.116" x2="8" y2="15.827" gradientUnits="userSpaceOnUse">
<stop stop-color="#693B93" stop-opacity="0.53"/>
<stop offset="1" stop-color="#693B93"/>
</linearGradient>
</defs>
</svg>
