<svg width="24" height="22" viewBox="0 0 24 22" fill="none" xmlns="http://www.w3.org/2000/svg" xmlns:xlink="http://www.w3.org/1999/xlink">
<path d="M21.429,0L2.571,0C1.152,0 0,1.056 0,2.357L0,19.643C0,20.944 1.152,22 2.571,22L21.429,22C22.848,22 24,20.944 24,19.643L24,2.357C24,1.056 22.848,0 21.429,0ZM13.061,17.158C13.061,19.299 11.689,20.276 9.691,20.276C7.886,20.276 6.841,19.422 6.305,18.386L8.143,17.369C8.496,17.944 8.818,18.43 9.595,18.43C10.334,18.43 10.805,18.165 10.805,17.129L10.805,10.101L13.061,10.101L13.061,17.158L13.061,17.158ZM18.396,20.276C16.302,20.276 14.946,19.363 14.288,18.165L16.125,17.192C16.607,17.914 17.239,18.45 18.348,18.45C19.28,18.45 19.88,18.022 19.88,17.428C19.88,16.721 19.27,16.471 18.236,16.053L17.673,15.832C16.045,15.199 14.968,14.398 14.968,12.714C14.968,11.162 16.259,9.983 18.268,9.983C19.704,9.983 20.732,10.44 21.471,11.638L19.714,12.67C19.329,12.036 18.911,11.786 18.262,11.786C17.604,11.786 17.186,12.169 17.186,12.67C17.186,13.288 17.604,13.539 18.573,13.927L19.136,14.148C21.054,14.899 22.13,15.67 22.13,17.399C22.13,19.255 20.534,20.276 18.396,20.276L18.396,20.276Z" fill="url(#pf_0_59_436)"/>
<defs>
<linearGradient id="pf_0_59_436" x1="12" y1="0" x2="12" y2="22" gradientUnits="userSpaceOnUse">
<stop stop-color="#693B93" stop-opacity="0.53"/>
<stop offset="1" stop-color="#FFC024"/>
</linearGradient>
</defs>
</svg>
