<svg width="38" height="40" viewBox="0 0 38 40" fill="none" xmlns="http://www.w3.org/2000/svg" xmlns:xlink="http://www.w3.org/1999/xlink">
<path d="M0.974,7.906L7.955,0.926C8.27,0.61 8.782,0.61 9.098,0.926L16.376,8.204C16.691,8.519 16.691,9.031 16.376,9.347L11.455,14.267C10.963,14.759 10.841,15.511 11.153,16.133L12.071,17.969C13.87,21.567 16.787,24.484 20.385,26.283L22.221,27.201C22.843,27.513 23.595,27.391 24.087,26.899L29.007,21.978C29.323,21.663 29.835,21.663 30.15,21.978L37.428,29.256C37.744,29.572 37.744,30.084 37.428,30.399L30.448,37.38C28.741,39.086 26.04,39.278 24.109,37.83L12.756,29.316C11.347,28.259 10.095,27.007 9.038,25.598L0.524,14.245C-0.924,12.314 -0.732,9.613 0.974,7.906Z" fill="#FFFFFF"/>
</svg>
