<svg width="18" height="34" viewBox="0 0 18 34" fill="none" xmlns="http://www.w3.org/2000/svg" xmlns:xlink="http://www.w3.org/1999/xlink">
<path d="M12.91,32.112C13.651,32.932 14.916,32.996 15.735,32.255C16.555,31.515 16.619,30.25 15.878,29.431L12.91,32.112ZM1.131,16.092L-0.353,14.751C-1.041,15.513 -1.041,16.672 -0.353,17.433L1.131,16.092ZM15.878,2.754C16.619,1.934 16.555,0.67 15.735,-0.071C14.916,-0.811 13.651,-0.747 12.91,0.072L15.878,2.754ZM15.878,29.431L2.615,14.751L-0.353,17.433L12.91,32.112L15.878,29.431ZM2.615,17.433L15.878,2.754L12.91,0.072L-0.353,14.751L2.615,17.433Z" transform="rotate(-178.614 7.763 16.092)" fill="#FFFFFF"/>
</svg>
