<svg width="16" height="16" viewBox="0 0 16 16" fill="none" xmlns="http://www.w3.org/2000/svg" xmlns:xlink="http://www.w3.org/1999/xlink">
<path d="M7.996,15.194C7.756,15.194 7.513,15.138 7.302,15.032L5.092,13.894C4.763,13.732 4.924,13.676 5.031,13.645C5.472,13.511 5.561,13.483 6.03,13.249C6.081,13.224 6.145,13.233 6.195,13.261L7.893,14.137C7.953,14.169 8.039,14.169 8.097,14.137L14.711,10.814C14.772,10.783 14.811,10.721 14.811,10.658L14.811,4.011C14.811,3.946 14.772,3.887 14.707,3.852L8.097,0.532C8.036,0.501 7.953,0.501 7.893,0.532L1.286,3.855C1.221,3.887 1.182,3.949 1.182,4.014L1.182,10.658C1.182,10.721 1.221,10.783 1.286,10.811L3.098,11.721C4.082,12.148 4.684,11.646 4.684,11.138L4.684,4.579C4.684,4.485 4.77,4.413 4.877,4.413L5.715,4.413C5.819,4.413 5.909,4.485 5.909,4.579L5.909,11.141C5.909,12.282 5.192,12.937 3.95,12.937C3.567,12.937 3.266,12.937 2.428,12.576L0.695,11.706C0.265,11.491 0,11.088 0,10.655L0,4.011C0,3.581 0.265,3.176 0.695,2.961L7.302,-0.363C7.721,-0.569 8.276,-0.569 8.691,-0.363L15.305,2.964C15.735,3.179 16,3.581 16,4.014L16,10.658C16,11.088 15.735,11.491 15.305,11.709L8.691,15.032C8.48,15.138 8.24,15.194 7.996,15.194ZM13.336,8.644C13.336,7.4 12.369,7.07 10.338,6.836C8.283,6.599 8.075,6.477 8.075,6.06C8.075,5.714 8.251,5.252 9.773,5.252C11.13,5.252 11.631,5.508 11.839,6.306C11.857,6.381 11.936,6.437 12.025,6.437L12.885,6.437C12.938,6.437 12.988,6.418 13.024,6.384C13.06,6.35 13.078,6.303 13.074,6.256C12.942,4.881 11.893,4.242 9.773,4.242C7.885,4.242 6.761,4.934 6.761,6.097C6.761,7.357 7.882,7.706 9.69,7.862C11.857,8.046 12.025,8.323 12.025,8.694C12.025,9.336 11.431,9.611 10.038,9.611C8.286,9.611 7.903,9.227 7.774,8.47C7.76,8.389 7.681,8.329 7.585,8.329L6.729,8.329C6.621,8.329 6.539,8.404 6.539,8.495C6.539,9.464 7.144,10.621 10.041,10.621C12.132,10.618 13.336,9.897 13.336,8.644L13.336,8.644Z" fill="url(#pf_0_109_1549)"/>
<defs>
<linearGradient id="pf_0_109_1549" x1="8" y1="-0.517" x2="8" y2="15.194" gradientUnits="userSpaceOnUse">
<stop stop-color="#693B93" stop-opacity="0.53"/>
<stop offset="1" stop-color="#693B93"/>
</linearGradient>
</defs>
</svg>
