<svg width="26" height="24" viewBox="0 0 26 24" fill="none" xmlns="http://www.w3.org/2000/svg" xmlns:xlink="http://www.w3.org/1999/xlink">
<path d="M12.83,2.619L12.318,3.42C12.05,3.055 11.484,2.315 11.367,2.282C11.25,2.248 10.611,1.536 10.306,1.185C10.025,0.974 9.435,0.552 9.318,0.552C9.201,0.552 8.415,0.215 8.037,0.046L6.684,-0.123L5.659,0.046L4.452,0.552L3.391,1.185L2.403,2.113L1.635,3.083L0.647,5.234L0.281,6.71L0.281,7.723L0.281,9.41L0.647,10.717L1.086,12.067L3.94,16.369L6.574,19.364L11.769,23.793L12.94,23.793L16.269,21.051L18.72,18.647L19.708,17.55L21.208,15.695L22.781,13.29L23.623,11.603L23.879,10.844L24.062,10.169L24.171,9.621L24.208,9.241L24.281,8.946L24.281,6.795L24.171,6.373L24.062,5.909L23.952,5.403L23.806,4.939L23.659,4.475L23.184,3.336L22.232,1.986L21.171,0.974L20.732,0.637L20.257,0.341L19.854,0.173L19.415,0.004L19.086,-0.123L18.83,-0.207L18.135,-0.207L17.33,-0.207L16.671,-0.123L16.342,0.004L15.976,0.173L15.611,0.341L14.842,0.763L14.257,1.185L13.562,1.818L12.83,2.619Z" fill="#E51723"/>
</svg>
