<svg width="16" height="16" viewBox="0 0 16 16" fill="none" xmlns="http://www.w3.org/2000/svg" xmlns:xlink="http://www.w3.org/1999/xlink">
<path d="M-0.472,1.337C-0.472,0.982 -0.331,0.642 -0.08,0.392C0.171,0.141 0.511,0 0.865,0L14.19,0C14.366,0 14.54,0.034 14.702,0.101C14.865,0.168 15.012,0.267 15.137,0.391C15.261,0.515 15.359,0.662 15.427,0.825C15.494,0.987 15.528,1.161 15.528,1.337L15.528,14.662C15.529,14.838 15.494,15.012 15.427,15.174C15.36,15.336 15.261,15.484 15.137,15.608C15.013,15.733 14.865,15.831 14.703,15.898C14.541,15.966 14.367,16 14.191,16L0.865,16C0.689,16 0.516,15.965 0.353,15.898C0.191,15.831 0.044,15.732 -0.08,15.608C-0.205,15.484 -0.303,15.337 -0.37,15.174C-0.437,15.012 -0.472,14.838 -0.472,14.663L-0.472,1.337ZM5.861,6.1L8.028,6.1L8.028,7.188C8.341,6.563 9.141,6 10.343,6C12.648,6 13.194,7.246 13.194,9.532L13.194,13.766L10.861,13.766L10.861,10.052C10.861,8.751 10.549,8.016 9.755,8.016C8.653,8.016 8.195,8.808 8.195,10.052L8.195,13.766L5.861,13.766L5.861,6.1ZM1.861,13.666L4.195,13.666L4.195,6L1.861,6L1.861,13.665L1.861,13.666ZM4.528,3.5C4.533,3.699 4.497,3.898 4.424,4.084C4.35,4.27 4.241,4.439 4.101,4.582C3.961,4.725 3.794,4.838 3.61,4.916C3.426,4.993 3.228,5.033 3.028,5.033C2.829,5.033 2.631,4.993 2.447,4.916C2.262,4.838 2.096,4.725 1.956,4.582C1.816,4.439 1.706,4.27 1.633,4.084C1.559,3.898 1.524,3.699 1.528,3.5C1.537,3.108 1.699,2.734 1.979,2.46C2.26,2.186 2.636,2.032 3.028,2.032C3.421,2.032 3.797,2.186 4.078,2.46C4.358,2.734 4.52,3.108 4.528,3.5L4.528,3.5Z" clip-rule="evenodd" fill-rule="evenodd" fill="url(#pf_0_109_1555)"/>
<defs>
<linearGradient id="pf_0_109_1555" x1="7.528" y1="0" x2="7.528" y2="16" gradientUnits="userSpaceOnUse">
<stop stop-color="#693B93" stop-opacity="0.53"/>
<stop offset="1" stop-color="#693B93"/>
</linearGradient>
</defs>
</svg>
