<svg width="24" height="22" viewBox="0 0 24 22" fill="none" xmlns="http://www.w3.org/2000/svg" xmlns:xlink="http://www.w3.org/1999/xlink">
<path d="M11.05,0.337C4.564,0.337 -0.693,5.088 -0.693,10.948C-0.693,16.807 4.564,21.558 11.05,21.558C17.535,21.558 22.793,16.807 22.793,10.948C22.793,5.088 17.535,0.337 11.05,0.337ZM11.187,17.153C7.402,17.153 4.337,14.377 4.337,10.948C4.337,7.519 7.402,4.742 11.187,4.742C13.037,4.742 14.583,5.359 15.769,6.36L13.837,8.108L13.837,8.105C13.118,7.484 12.206,7.166 11.187,7.166C8.926,7.166 7.09,8.895 7.09,10.944C7.09,12.991 8.926,14.726 11.187,14.726C13.238,14.726 14.634,13.663 14.922,12.204L11.187,12.204L11.187,9.784L17.631,9.784C17.717,10.2 17.763,10.633 17.763,11.087C17.763,14.633 15.144,17.153 11.187,17.153L11.187,17.153Z" clip-rule="evenodd" fill-rule="evenodd" fill="url(#pf_0_109_1383)"/>
<defs>
<linearGradient id="pf_0_109_1383" x1="11.05" y1="0.337" x2="11.05" y2="21.558" gradientUnits="userSpaceOnUse">
<stop stop-color="#693B93" stop-opacity="0.53"/>
<stop offset="1" stop-color="#693B93"/>
</linearGradient>
</defs>
</svg>
