<svg width="24" height="22" viewBox="0 0 24 22" fill="none" xmlns="http://www.w3.org/2000/svg" xmlns:xlink="http://www.w3.org/1999/xlink">
<path d="M-0.156,2.036C-0.156,1.563 0.056,1.11 0.434,0.776C0.811,0.441 1.323,0.253 1.857,0.253L21.93,0.253C22.195,0.253 22.457,0.299 22.701,0.388C22.946,0.478 23.168,0.609 23.355,0.775C23.543,0.94 23.691,1.137 23.793,1.353C23.894,1.57 23.946,1.802 23.946,2.036L23.946,19.807C23.946,20.042 23.894,20.274 23.793,20.491C23.692,20.707 23.543,20.904 23.356,21.07C23.169,21.235 22.947,21.367 22.702,21.457C22.458,21.546 22.196,21.592 21.931,21.592L1.857,21.592C1.593,21.592 1.331,21.546 1.087,21.456C0.842,21.367 0.62,21.235 0.433,21.07C0.246,20.904 0.098,20.707 -0.003,20.491C-0.104,20.275 -0.156,20.043 -0.156,19.808L-0.156,2.036ZM9.384,8.389L12.647,8.389L12.647,9.84C13.118,9.006 14.324,8.255 16.134,8.255C19.606,8.255 20.429,9.917 20.429,12.966L20.429,18.613L16.916,18.613L16.916,13.66C16.916,11.924 16.444,10.944 15.248,10.944C13.588,10.944 12.898,12 12.898,13.66L12.898,18.613L9.384,18.613L9.384,8.389ZM3.358,18.48L6.873,18.48L6.873,8.255L3.358,8.255L3.358,18.479L3.358,18.48ZM7.376,4.921C7.382,5.187 7.329,5.452 7.218,5.7C7.108,5.948 6.942,6.174 6.732,6.364C6.521,6.555 6.27,6.706 5.992,6.809C5.715,6.913 5.417,6.966 5.116,6.966C4.815,6.966 4.517,6.913 4.24,6.809C3.962,6.706 3.711,6.555 3.5,6.364C3.29,6.174 3.125,5.948 3.014,5.7C2.903,5.452 2.85,5.187 2.856,4.921C2.869,4.398 3.113,3.9 3.536,3.534C3.958,3.169 4.525,2.964 5.116,2.964C5.707,2.964 6.274,3.169 6.696,3.534C7.119,3.9 7.363,4.398 7.376,4.921L7.376,4.921Z" clip-rule="evenodd" fill-rule="evenodd" fill="url(#pf_0_59_443)"/>
<defs>
<linearGradient id="pf_0_59_443" x1="11.895" y1="0.253" x2="11.895" y2="21.592" gradientUnits="userSpaceOnUse">
<stop stop-color="#693B93" stop-opacity="0.53"/>
<stop offset="1" stop-color="#FFC024"/>
</linearGradient>
</defs>
</svg>
