<svg width="32" height="32" viewBox="0 0 32 32" fill="none" xmlns="http://www.w3.org/2000/svg" xmlns:xlink="http://www.w3.org/1999/xlink">
<path d="M29.914,13.117C30.092,14.19 30.181,15.279 30.18,16.369C30.18,21.236 28.515,25.352 25.62,28.138L25.623,28.138C23.091,30.584 19.61,32 15.482,32C11.424,32 7.531,30.314 4.662,27.314C1.792,24.313 0.18,20.244 0.18,16.001C0.18,11.757 1.792,7.688 4.662,4.687C7.531,1.687 11.424,0.001 15.482,0.001C19.281,-0.045 22.949,1.447 25.719,4.165L21.35,8.733C19.771,7.159 17.663,6.297 15.482,6.333C11.49,6.333 8.099,9.149 6.89,12.941C6.249,14.928 6.249,17.079 6.89,19.066L6.895,19.066C8.11,22.852 11.496,25.668 15.488,25.668C17.55,25.668 19.321,25.116 20.694,24.14L20.688,24.14C21.486,23.588 22.168,22.872 22.694,22.037C23.219,21.201 23.578,20.263 23.747,19.278L15.482,19.278L15.482,13.119L29.914,13.119L29.914,13.117Z" fill="#FFFFFF"/>
</svg>
