<svg width="60" height="60" viewBox="0 0 60 60" fill="none" xmlns="http://www.w3.org/2000/svg" xmlns:xlink="http://www.w3.org/1999/xlink">
<path d="M59.396,24.611C59.753,26.622 59.931,28.659 59.928,30.7C59.928,39.815 56.6,47.523 50.808,52.739L50.815,52.739C45.75,57.32 38.788,59.971 30.532,59.971C22.415,59.971 14.631,56.815 8.892,51.196C3.152,45.577 -0.072,37.957 -0.072,30.011C-0.072,22.065 3.152,14.445 8.892,8.826C14.631,3.207 22.415,0.051 30.532,0.051C38.13,-0.036 45.467,2.758 51.007,7.848L42.269,16.402C39.111,13.454 34.895,11.84 30.532,11.908C22.548,11.908 15.766,17.181 13.348,24.281C12.066,28.002 12.066,32.031 13.348,35.752L13.359,35.752C15.788,42.841 22.56,48.114 30.544,48.114C34.668,48.114 38.21,47.081 40.957,45.253L40.945,45.253C42.54,44.219 43.905,42.879 44.956,41.314C46.007,39.749 46.724,37.992 47.062,36.149L30.532,36.149L30.532,24.614L59.396,24.614L59.396,24.611Z" fill="#FFFFFF"/>
</svg>
