<svg width="60" height="60" viewBox="0 0 60 60" fill="none" xmlns="http://www.w3.org/2000/svg" xmlns:xlink="http://www.w3.org/1999/xlink">
<path d="M59.396,23.907C59.753,25.918 59.931,27.955 59.928,29.996C59.928,39.111 56.6,46.819 50.808,52.035L50.816,52.035C45.751,56.616 38.788,59.267 30.533,59.267C22.416,59.267 14.631,56.111 8.892,50.492C3.153,44.873 -0.072,37.253 -0.072,29.307C-0.072,21.361 3.153,13.74 8.892,8.122C14.631,2.503 22.416,-0.653 30.533,-0.653C38.13,-0.74 45.467,2.054 51.007,7.144L42.269,15.697C39.111,12.75 34.896,11.136 30.533,11.203C22.549,11.203 15.766,16.476 13.348,23.577C12.066,27.298 12.066,31.327 13.348,35.048L13.36,35.048C15.789,42.137 22.56,47.41 30.544,47.41C34.668,47.41 38.211,46.377 40.957,44.549L40.946,44.549C42.541,43.515 43.905,42.175 44.956,40.61C46.008,39.045 46.724,37.288 47.063,35.445L30.533,35.445L30.533,23.91L59.396,23.91L59.396,23.907Z" fill="#FFFFFF"/>
</svg>
