<svg width="18" height="18" viewBox="0 0 18 18" fill="none" xmlns="http://www.w3.org/2000/svg" xmlns:xlink="http://www.w3.org/1999/xlink">
<path d="M0.988,1.627C0.988,1.273 1.128,0.933 1.379,0.682C1.63,0.431 1.97,0.291 2.324,0.291L15.649,0.291C15.825,0.29 15.999,0.325 16.161,0.392C16.324,0.459 16.471,0.557 16.596,0.681C16.72,0.805 16.819,0.953 16.886,1.115C16.953,1.278 16.988,1.452 16.988,1.627L16.988,14.952C16.988,15.128 16.953,15.302 16.886,15.465C16.819,15.627 16.721,15.774 16.596,15.899C16.472,16.023 16.325,16.122 16.162,16.189C16,16.256 15.826,16.291 15.65,16.291L2.324,16.291C2.149,16.291 1.975,16.256 1.813,16.189C1.65,16.121 1.503,16.023 1.379,15.899C1.255,15.775 1.156,15.627 1.089,15.465C1.022,15.303 0.987,15.129 0.988,14.953L0.988,1.627ZM7.321,6.391L9.487,6.391L9.487,7.479C9.8,6.853 10.6,6.291 11.802,6.291C14.107,6.291 14.653,7.536 14.653,9.822L14.653,14.056L12.321,14.056L12.321,10.343C12.321,9.041 12.008,8.307 11.214,8.307C10.112,8.307 9.654,9.099 9.654,10.343L9.654,14.056L7.321,14.056L7.321,6.391ZM3.321,13.957L5.654,13.957L5.654,6.291L3.321,6.291L3.321,13.956L3.321,13.957ZM5.988,3.79C5.992,3.99 5.956,4.189 5.883,4.374C5.81,4.56 5.7,4.73 5.56,4.872C5.42,5.015 5.254,5.129 5.069,5.206C4.885,5.284 4.687,5.324 4.488,5.324C4.288,5.324 4.09,5.284 3.906,5.206C3.722,5.129 3.555,5.015 3.415,4.872C3.275,4.73 3.166,4.56 3.092,4.374C3.019,4.189 2.983,3.99 2.988,3.79C2.996,3.398 3.158,3.025 3.438,2.751C3.719,2.476 4.095,2.323 4.488,2.323C4.88,2.323 5.256,2.476 5.537,2.751C5.817,3.025 5.979,3.398 5.988,3.79L5.988,3.79Z" clip-rule="evenodd" fill-rule="evenodd" fill="url(#pf_0_26_960)"/>
<defs>
<linearGradient id="pf_0_26_960" x1="8.988" y1="0.291" x2="8.988" y2="16.291" gradientUnits="userSpaceOnUse">
<stop stop-color="#693B93" stop-opacity="0.53"/>
<stop offset="1" stop-color="#693B93"/>
</linearGradient>
</defs>
</svg>
